<?xml version="1.0" encoding="utf-8"?>
<!DOCTYPE svg PUBLIC "-//W3C//DTD SVG 1.1//EN" "http://www.w3.org/Graphics/SVG/1.1/DTD/svg11.dtd">
<svg version="1.1" xmlns="http://www.w3.org/2000/svg" xmlns:xlink="http://www.w3.org/1999/xlink" xmlns:xml="http://www.w3.org/XML/1998/namespace" width="1660px" height="1149px" viewBox="0, 0, 1660, 1149" preserveAspectRatio="none" contentStyleType="text/css" zoomAndPan="magnify" style="background-attachment:initial;background-clip:initial;background-color:#FFFFFF;background-image:initial;background-origin:initial;background-position:initial;background-repeat:initial;background-size:initial;">
  <defs />
  <g>
    <rect x="12" y="12" width="431" height="87.9844" rx="7.5" ry="7.5" id="_legend" stroke-width="1" style="fill:#DDDDDD;stroke:black;" />
    <text x="17" y="37.7617" textLength="89" lengthAdjust="spacing" font-family="sans-serif" font-size="20" font-weight="bold" style="fill:black;">LEGEND:</text>
    <text x="112" y="37.7617" textLength="6" lengthAdjust="spacing" font-family="sans-serif" font-size="20" style="fill:black;"> </text>
    <text x="118" y="37.7617" textLength="320" lengthAdjust="spacing" font-family="sans-serif" font-size="20" font-weight="bold" style="fill:red;">11. Rebalancinginformatie (00554)</text>
    <text x="17" y="56.6895" textLength="12" lengthAdjust="spacing" font-family="sans-serif" font-size="14" style="fill:black;">1.</text>
    <text x="33" y="56.6895" textLength="32" lengthAdjust="spacing" font-family="sans-serif" font-size="14" font-weight="bold" style="fill:black;">Bold</text>
    <text x="69" y="56.6895" textLength="116" lengthAdjust="spacing" font-family="sans-serif" font-size="14" style="fill:black;">= Mandatory fields</text>
    <text x="17" y="74.2988" textLength="12" lengthAdjust="spacing" font-family="sans-serif" font-size="14" style="fill:black;">2.</text>
    <text x="33" y="74.2988" textLength="29" lengthAdjust="spacing" font-family="sans-serif" font-size="14" font-style="italic" style="fill:black;">Italic</text>
    <text x="66" y="74.2988" textLength="102" lengthAdjust="spacing" font-family="sans-serif" font-size="14" style="fill:black;">= Optional fields</text>
    <text x="17" y="91.9082" textLength="371" lengthAdjust="spacing" font-family="sans-serif" font-size="14" style="fill:black;">3. ..       = incomplete list (complete values on afdCodelists)</text>
    <g id="elem_berichtstructuur">
      <rect x="914.5" y="119.9844" width="131" height="40" rx="2.5" ry="2.5" id="berichtstructuur" stroke-width="0.5" codeLine="11" style="fill:#F1F1F1;stroke:#181818;" />
      <ellipse cx="929.5" cy="135.9844" rx="11" ry="11" stroke-width="1" style="fill:#ADD1B2;stroke:#181818;" />
      <path d="M932.2656 131.8594 Q932.4219 131.6406 932.6094 131.5313 Q932.7969 131.4219 933.0156 131.4219 Q933.3906 131.4219 933.625 131.6797 Q933.8594 131.9375 933.8594 132.5469 L933.8594 134 Q933.8594 134.6094 933.625 134.875 Q933.3906 135.1406 933.0156 135.1406 Q932.6719 135.1406 932.4688 134.9375 Q932.2656 134.75 932.1563 134.2344 Q932.1094 133.875 931.9219 133.6875 Q931.5938 133.3125 930.9844 133.0938 Q930.375 132.875 929.75 132.875 Q928.9844 132.875 928.3516 133.2031 Q927.7188 133.5313 927.2266 134.2813 Q926.7344 135.0313 926.7344 136.0625 L926.7344 137.1563 Q926.7344 138.3906 927.625 139.2109 Q928.5156 140.0313 930.1094 140.0313 Q931.0469 140.0313 931.7031 139.7813 Q932.0938 139.625 932.5156 139.1875 Q932.7813 138.9219 932.9297 138.8438 Q933.0781 138.7656 933.2813 138.7656 Q933.6094 138.7656 933.8672 139.0234 Q934.125 139.2813 934.125 139.625 Q934.125 139.9688 933.7813 140.375 Q933.2813 140.9531 932.4844 141.2813 Q931.4063 141.7344 930.1094 141.7344 Q928.5938 141.7344 927.3906 141.1094 Q926.4063 140.6094 925.7188 139.5391 Q925.0313 138.4688 925.0313 137.1875 L925.0313 136.0313 Q925.0313 134.7031 925.6484 133.5547 Q926.2656 132.4063 927.3594 131.7891 Q928.4531 131.1719 929.6875 131.1719 Q930.4219 131.1719 931.0703 131.3359 Q931.7188 131.5 932.2656 131.8594 Z" style="fill:black;" />
      <text x="943.5" y="141.7129" textLength="99" lengthAdjust="spacing" font-family="sans-serif" font-size="14" style="fill:black;">berichtstructuur</text>
      <line x1="915.5" y1="151.9844" x2="1044.5" y2="151.9844" stroke-width="0.5" style="stroke:#181818;" />
    </g>
    <g id="elem_commonTechnical.default">
      <rect x="282.5" y="228.9844" width="219" height="110.4375" rx="2.5" ry="2.5" id="commonTechnical.default" stroke-width="0.5" codeLine="13" style="fill:#F1F1F1;stroke:#181818;" />
      <ellipse cx="309.2" cy="244.9844" rx="11" ry="11" stroke-width="1" style="fill:#ADD1B2;stroke:#181818;" />
      <path d="M311.9656 240.8594 Q312.1219 240.6406 312.3094 240.5313 Q312.4969 240.4219 312.7156 240.4219 Q313.0906 240.4219 313.325 240.6797 Q313.5594 240.9375 313.5594 241.5469 L313.5594 243 Q313.5594 243.6094 313.325 243.875 Q313.0906 244.1406 312.7156 244.1406 Q312.3719 244.1406 312.1688 243.9375 Q311.9656 243.75 311.8563 243.2344 Q311.8094 242.875 311.6219 242.6875 Q311.2938 242.3125 310.6844 242.0938 Q310.075 241.875 309.45 241.875 Q308.6844 241.875 308.0516 242.2031 Q307.4188 242.5313 306.9266 243.2813 Q306.4344 244.0313 306.4344 245.0625 L306.4344 246.1563 Q306.4344 247.3906 307.325 248.2109 Q308.2156 249.0313 309.8094 249.0313 Q310.7469 249.0313 311.4031 248.7813 Q311.7938 248.625 312.2156 248.1875 Q312.4813 247.9219 312.6297 247.8438 Q312.7781 247.7656 312.9813 247.7656 Q313.3094 247.7656 313.5672 248.0234 Q313.825 248.2813 313.825 248.625 Q313.825 248.9688 313.4813 249.375 Q312.9813 249.9531 312.1844 250.2813 Q311.1063 250.7344 309.8094 250.7344 Q308.2938 250.7344 307.0906 250.1094 Q306.1063 249.6094 305.4188 248.5391 Q304.7313 247.4688 304.7313 246.1875 L304.7313 245.0313 Q304.7313 243.7031 305.3484 242.5547 Q305.9656 241.4063 307.0594 240.7891 Q308.1531 240.1719 309.3875 240.1719 Q310.1219 240.1719 310.7703 240.3359 Q311.4188 240.5 311.9656 240.8594 Z" style="fill:black;" />
      <text x="325.8" y="250.7129" textLength="161" lengthAdjust="spacing" font-family="sans-serif" font-size="14" style="fill:black;">commonTechnical.default</text>
      <line x1="283.5" y1="260.9844" x2="500.5" y2="260.9844" stroke-width="0.5" style="stroke:#181818;" />
      <text x="288.5" y="279.5176" textLength="204" lengthAdjust="spacing" font-family="sans-serif" font-size="14" text-decoration="underline" font-weight="bold" style="fill:black;">entityType : string = "default"</text>
      <text x="288.5" y="297.127" textLength="155" lengthAdjust="spacing" font-family="sans-serif" font-size="14" font-weight="bold" style="fill:black;">messageId : string(70)</text>
      <text x="288.5" y="314.7363" textLength="207" lengthAdjust="spacing" font-family="sans-serif" font-size="14" font-weight="bold" style="fill:black;">creationDateTime : timestamp</text>
      <text x="288.5" y="332.3457" textLength="144" lengthAdjust="spacing" font-family="sans-serif" font-size="14" font-style="italic" style="fill:black;">testMessage : boolean</text>
    </g>
    <g id="elem_party.sender">
      <rect x="7" y="407.9844" width="236" height="128.0469" rx="2.5" ry="2.5" id="party.sender" stroke-width="0.5" codeLine="20" style="fill:#F1F1F1;stroke:#181818;" />
      <ellipse cx="80.75" cy="423.9844" rx="11" ry="11" stroke-width="1" style="fill:#ADD1B2;stroke:#181818;" />
      <path d="M83.5156 419.8594 Q83.6719 419.6406 83.8594 419.5313 Q84.0469 419.4219 84.2656 419.4219 Q84.6406 419.4219 84.875 419.6797 Q85.1094 419.9375 85.1094 420.5469 L85.1094 422 Q85.1094 422.6094 84.875 422.875 Q84.6406 423.1406 84.2656 423.1406 Q83.9219 423.1406 83.7188 422.9375 Q83.5156 422.75 83.4063 422.2344 Q83.3594 421.875 83.1719 421.6875 Q82.8438 421.3125 82.2344 421.0938 Q81.625 420.875 81 420.875 Q80.2344 420.875 79.6016 421.2031 Q78.9688 421.5313 78.4766 422.2813 Q77.9844 423.0313 77.9844 424.0625 L77.9844 425.1563 Q77.9844 426.3906 78.875 427.2109 Q79.7656 428.0313 81.3594 428.0313 Q82.2969 428.0313 82.9531 427.7813 Q83.3438 427.625 83.7656 427.1875 Q84.0313 426.9219 84.1797 426.8438 Q84.3281 426.7656 84.5313 426.7656 Q84.8594 426.7656 85.1172 427.0234 Q85.375 427.2813 85.375 427.625 Q85.375 427.9688 85.0313 428.375 Q84.5313 428.9531 83.7344 429.2813 Q82.6563 429.7344 81.3594 429.7344 Q79.8438 429.7344 78.6406 429.1094 Q77.6563 428.6094 76.9688 427.5391 Q76.2813 426.4688 76.2813 425.1875 L76.2813 424.0313 Q76.2813 422.7031 76.8984 421.5547 Q77.5156 420.4063 78.6094 419.7891 Q79.7031 419.1719 80.9375 419.1719 Q81.6719 419.1719 82.3203 419.3359 Q82.9688 419.5 83.5156 419.8594 Z" style="fill:black;" />
      <text x="101.25" y="429.7129" textLength="80" lengthAdjust="spacing" font-family="sans-serif" font-size="14" style="fill:black;">party.sender</text>
      <line x1="8" y1="439.9844" x2="242" y2="439.9844" stroke-width="0.5" style="stroke:#181818;" />
      <text x="13" y="458.5176" textLength="205" lengthAdjust="spacing" font-family="sans-serif" font-size="14" text-decoration="underline" font-weight="bold" style="fill:black;">entityType : string = "sender"</text>
      <text x="13" y="476.127" textLength="125" lengthAdjust="spacing" font-family="sans-serif" font-size="14" font-weight="bold" style="fill:black;">refKey : string(70)</text>
      <text x="13" y="493.7363" textLength="138" lengthAdjust="spacing" font-family="sans-serif" font-size="14" font-style="italic" style="fill:black;">rsinNumber : string(9)</text>
      <text x="13" y="511.3457" textLength="205" lengthAdjust="spacing" font-family="sans-serif" font-size="14" font-weight="bold" style="fill:black;">organizationName : string(60)</text>
      <text x="13" y="528.9551" textLength="224" lengthAdjust="spacing" font-family="sans-serif" font-size="14" font-style="italic" style="fill:black;">applicationSenderName : string(60)</text>
    </g>
    <g id="elem_party.contact">
      <rect x="12.5" y="613.4844" width="225" height="92.8281" rx="2.5" ry="2.5" id="party.contact" stroke-width="0.5" codeLine="28" style="fill:#F1F1F1;stroke:#181818;" />
      <ellipse cx="79.75" cy="629.4844" rx="11" ry="11" stroke-width="1" style="fill:#ADD1B2;stroke:#181818;" />
      <path d="M82.5156 625.3594 Q82.6719 625.1406 82.8594 625.0313 Q83.0469 624.9219 83.2656 624.9219 Q83.6406 624.9219 83.875 625.1797 Q84.1094 625.4375 84.1094 626.0469 L84.1094 627.5 Q84.1094 628.1094 83.875 628.375 Q83.6406 628.6406 83.2656 628.6406 Q82.9219 628.6406 82.7188 628.4375 Q82.5156 628.25 82.4063 627.7344 Q82.3594 627.375 82.1719 627.1875 Q81.8438 626.8125 81.2344 626.5938 Q80.625 626.375 80 626.375 Q79.2344 626.375 78.6016 626.7031 Q77.9688 627.0313 77.4766 627.7813 Q76.9844 628.5313 76.9844 629.5625 L76.9844 630.6563 Q76.9844 631.8906 77.875 632.7109 Q78.7656 633.5313 80.3594 633.5313 Q81.2969 633.5313 81.9531 633.2813 Q82.3438 633.125 82.7656 632.6875 Q83.0313 632.4219 83.1797 632.3438 Q83.3281 632.2656 83.5313 632.2656 Q83.8594 632.2656 84.1172 632.5234 Q84.375 632.7813 84.375 633.125 Q84.375 633.4688 84.0313 633.875 Q83.5313 634.4531 82.7344 634.7813 Q81.6563 635.2344 80.3594 635.2344 Q78.8438 635.2344 77.6406 634.6094 Q76.6563 634.1094 75.9688 633.0391 Q75.2813 631.9688 75.2813 630.6875 L75.2813 629.5313 Q75.2813 628.2031 75.8984 627.0547 Q76.5156 625.9063 77.6094 625.2891 Q78.7031 624.6719 79.9375 624.6719 Q80.6719 624.6719 81.3203 624.8359 Q81.9688 625 82.5156 625.3594 Z" style="fill:black;" />
      <text x="100.25" y="635.2129" textLength="82" lengthAdjust="spacing" font-family="sans-serif" font-size="14" style="fill:black;">party.contact</text>
      <line x1="13.5" y1="645.4844" x2="236.5" y2="645.4844" stroke-width="0.5" style="stroke:#181818;" />
      <text x="18.5" y="664.0176" textLength="207" lengthAdjust="spacing" font-family="sans-serif" font-size="14" text-decoration="underline" font-weight="bold" style="fill:black;">entityType : string = "contact"</text>
      <text x="18.5" y="681.627" textLength="152" lengthAdjust="spacing" font-family="sans-serif" font-size="14" font-weight="bold" style="fill:black;">emailWork : string(60)</text>
      <text x="18.5" y="699.2363" textLength="213" lengthAdjust="spacing" font-family="sans-serif" font-size="14" font-weight="bold" style="fill:black;">workPhoneNumber : string(60)</text>
    </g>
    <g id="elem_party.receiver">
      <rect x="278.5" y="416.9844" width="227" height="110.4375" rx="2.5" ry="2.5" id="party.receiver" stroke-width="0.5" codeLine="34" style="fill:#F1F1F1;stroke:#181818;" />
      <ellipse cx="344.25" cy="432.9844" rx="11" ry="11" stroke-width="1" style="fill:#ADD1B2;stroke:#181818;" />
      <path d="M347.0156 428.8594 Q347.1719 428.6406 347.3594 428.5313 Q347.5469 428.4219 347.7656 428.4219 Q348.1406 428.4219 348.375 428.6797 Q348.6094 428.9375 348.6094 429.5469 L348.6094 431 Q348.6094 431.6094 348.375 431.875 Q348.1406 432.1406 347.7656 432.1406 Q347.4219 432.1406 347.2188 431.9375 Q347.0156 431.75 346.9063 431.2344 Q346.8594 430.875 346.6719 430.6875 Q346.3438 430.3125 345.7344 430.0938 Q345.125 429.875 344.5 429.875 Q343.7344 429.875 343.1016 430.2031 Q342.4688 430.5313 341.9766 431.2813 Q341.4844 432.0313 341.4844 433.0625 L341.4844 434.1563 Q341.4844 435.3906 342.375 436.2109 Q343.2656 437.0313 344.8594 437.0313 Q345.7969 437.0313 346.4531 436.7813 Q346.8438 436.625 347.2656 436.1875 Q347.5313 435.9219 347.6797 435.8438 Q347.8281 435.7656 348.0313 435.7656 Q348.3594 435.7656 348.6172 436.0234 Q348.875 436.2813 348.875 436.625 Q348.875 436.9688 348.5313 437.375 Q348.0313 437.9531 347.2344 438.2813 Q346.1563 438.7344 344.8594 438.7344 Q343.3438 438.7344 342.1406 438.1094 Q341.1563 437.6094 340.4688 436.5391 Q339.7813 435.4688 339.7813 434.1875 L339.7813 433.0313 Q339.7813 431.7031 340.3984 430.5547 Q341.0156 429.4063 342.1094 428.7891 Q343.2031 428.1719 344.4375 428.1719 Q345.1719 428.1719 345.8203 428.3359 Q346.4688 428.5 347.0156 428.8594 Z" style="fill:black;" />
      <text x="364.75" y="438.7129" textLength="87" lengthAdjust="spacing" font-family="sans-serif" font-size="14" style="fill:black;">party.receiver</text>
      <line x1="279.5" y1="448.9844" x2="504.5" y2="448.9844" stroke-width="0.5" style="stroke:#181818;" />
      <text x="284.5" y="467.5176" textLength="215" lengthAdjust="spacing" font-family="sans-serif" font-size="14" text-decoration="underline" font-weight="bold" style="fill:black;">entityType : string = "receiver"</text>
      <text x="284.5" y="485.127" textLength="125" lengthAdjust="spacing" font-family="sans-serif" font-size="14" font-weight="bold" style="fill:black;">refKey : string(70)</text>
      <text x="284.5" y="502.7363" textLength="138" lengthAdjust="spacing" font-family="sans-serif" font-size="14" font-style="italic" style="fill:black;">rsinNumber : string(9)</text>
      <text x="284.5" y="520.3457" textLength="205" lengthAdjust="spacing" font-family="sans-serif" font-size="14" font-weight="bold" style="fill:black;">organizationName : string(60)</text>
    </g>
    <g id="elem_commonFunctional.default">
      <rect x="565.5" y="219.9844" width="235" height="128.0469" rx="2.5" ry="2.5" id="commonFunctional.default" stroke-width="0.5" codeLine="41" style="fill:#F1F1F1;stroke:#181818;" />
      <ellipse cx="597.15" cy="235.9844" rx="11" ry="11" stroke-width="1" style="fill:#ADD1B2;stroke:#181818;" />
      <path d="M599.9156 231.8594 Q600.0719 231.6406 600.2594 231.5313 Q600.4469 231.4219 600.6656 231.4219 Q601.0406 231.4219 601.275 231.6797 Q601.5094 231.9375 601.5094 232.5469 L601.5094 234 Q601.5094 234.6094 601.275 234.875 Q601.0406 235.1406 600.6656 235.1406 Q600.3219 235.1406 600.1188 234.9375 Q599.9156 234.75 599.8063 234.2344 Q599.7594 233.875 599.5719 233.6875 Q599.2438 233.3125 598.6344 233.0938 Q598.025 232.875 597.4 232.875 Q596.6344 232.875 596.0016 233.2031 Q595.3688 233.5313 594.8766 234.2813 Q594.3844 235.0313 594.3844 236.0625 L594.3844 237.1563 Q594.3844 238.3906 595.275 239.2109 Q596.1656 240.0313 597.7594 240.0313 Q598.6969 240.0313 599.3531 239.7813 Q599.7438 239.625 600.1656 239.1875 Q600.4313 238.9219 600.5797 238.8438 Q600.7281 238.7656 600.9313 238.7656 Q601.2594 238.7656 601.5172 239.0234 Q601.775 239.2813 601.775 239.625 Q601.775 239.9688 601.4313 240.375 Q600.9313 240.9531 600.1344 241.2813 Q599.0563 241.7344 597.7594 241.7344 Q596.2438 241.7344 595.0406 241.1094 Q594.0563 240.6094 593.3688 239.5391 Q592.6813 238.4688 592.6813 237.1875 L592.6813 236.0313 Q592.6813 234.7031 593.2984 233.5547 Q593.9156 232.4063 595.0094 231.7891 Q596.1031 231.1719 597.3375 231.1719 Q598.0719 231.1719 598.7203 231.3359 Q599.3688 231.5 599.9156 231.8594 Z" style="fill:black;" />
      <text x="614.85" y="241.7129" textLength="166" lengthAdjust="spacing" font-family="sans-serif" font-size="14" style="fill:black;">commonFunctional.default</text>
      <line x1="566.5" y1="251.9844" x2="799.5" y2="251.9844" stroke-width="0.5" style="stroke:#181818;" />
      <text x="571.5" y="270.5176" textLength="204" lengthAdjust="spacing" font-family="sans-serif" font-size="14" text-decoration="underline" font-weight="bold" style="fill:black;">entityType : string = "default"</text>
      <text x="571.5" y="288.127" textLength="111" lengthAdjust="spacing" font-family="sans-serif" font-size="14" font-weight="bold" style="fill:black;">function : string</text>
      <text x="571.5" y="305.7363" textLength="208" lengthAdjust="spacing" font-family="sans-serif" font-size="14" font-weight="bold" style="fill:black;">afdDefinitionName : string(80)</text>
      <text x="571.5" y="323.3457" textLength="223" lengthAdjust="spacing" font-family="sans-serif" font-size="14" font-weight="bold" style="fill:black;">afdDefinitionVersion : string(80)</text>
      <text x="571.5" y="340.9551" textLength="189" lengthAdjust="spacing" font-family="sans-serif" font-size="14" font-style="italic" style="fill:black;">originalMessageId : string(70)</text>
    </g>
    <g id="elem_party.pensionProvider">
      <rect x="837.5" y="228.9844" width="285" height="110.4375" rx="2.5" ry="2.5" id="party.pensionProvider" stroke-width="0.5" codeLine="49" style="fill:#F1F1F1;stroke:#181818;" />
      <ellipse cx="906.25" cy="244.9844" rx="11" ry="11" stroke-width="1" style="fill:#ADD1B2;stroke:#181818;" />
      <path d="M909.0156 240.8594 Q909.1719 240.6406 909.3594 240.5313 Q909.5469 240.4219 909.7656 240.4219 Q910.1406 240.4219 910.375 240.6797 Q910.6094 240.9375 910.6094 241.5469 L910.6094 243 Q910.6094 243.6094 910.375 243.875 Q910.1406 244.1406 909.7656 244.1406 Q909.4219 244.1406 909.2188 243.9375 Q909.0156 243.75 908.9063 243.2344 Q908.8594 242.875 908.6719 242.6875 Q908.3438 242.3125 907.7344 242.0938 Q907.125 241.875 906.5 241.875 Q905.7344 241.875 905.1016 242.2031 Q904.4688 242.5313 903.9766 243.2813 Q903.4844 244.0313 903.4844 245.0625 L903.4844 246.1563 Q903.4844 247.3906 904.375 248.2109 Q905.2656 249.0313 906.8594 249.0313 Q907.7969 249.0313 908.4531 248.7813 Q908.8438 248.625 909.2656 248.1875 Q909.5313 247.9219 909.6797 247.8438 Q909.8281 247.7656 910.0313 247.7656 Q910.3594 247.7656 910.6172 248.0234 Q910.875 248.2813 910.875 248.625 Q910.875 248.9688 910.5313 249.375 Q910.0313 249.9531 909.2344 250.2813 Q908.1563 250.7344 906.8594 250.7344 Q905.3438 250.7344 904.1406 250.1094 Q903.1563 249.6094 902.4688 248.5391 Q901.7813 247.4688 901.7813 246.1875 L901.7813 245.0313 Q901.7813 243.7031 902.3984 242.5547 Q903.0156 241.4063 904.1094 240.7891 Q905.2031 240.1719 906.4375 240.1719 Q907.1719 240.1719 907.8203 240.3359 Q908.4688 240.5 909.0156 240.8594 Z" style="fill:black;" />
      <text x="926.75" y="250.7129" textLength="139" lengthAdjust="spacing" font-family="sans-serif" font-size="14" style="fill:black;">party.pensionProvider</text>
      <line x1="838.5" y1="260.9844" x2="1121.5" y2="260.9844" stroke-width="0.5" style="stroke:#181818;" />
      <text x="843.5" y="279.5176" textLength="273" lengthAdjust="spacing" font-family="sans-serif" font-size="14" text-decoration="underline" font-weight="bold" style="fill:black;">entityType : string = "pensionProvider"</text>
      <text x="843.5" y="297.127" textLength="117" lengthAdjust="spacing" font-family="sans-serif" font-size="14" font-weight="bold" style="fill:black;">puvCode : string</text>
      <text x="843.5" y="314.7363" textLength="138" lengthAdjust="spacing" font-family="sans-serif" font-size="14" font-style="italic" style="fill:black;">rsinNumber : string(9)</text>
      <text x="843.5" y="332.3457" textLength="205" lengthAdjust="spacing" font-family="sans-serif" font-size="14" font-weight="bold" style="fill:black;">organizationName : string(60)</text>
    </g>
    <g id="elem_pension.scheme">
      <rect x="858.5" y="425.4844" width="243" height="92.8281" rx="2.5" ry="2.5" id="pension.scheme" stroke-width="0.5" codeLine="56" style="fill:#F1F1F1;stroke:#181818;" />
      <ellipse cx="924.25" cy="441.4844" rx="11" ry="11" stroke-width="1" style="fill:#ADD1B2;stroke:#181818;" />
      <path d="M927.0156 437.3594 Q927.1719 437.1406 927.3594 437.0313 Q927.5469 436.9219 927.7656 436.9219 Q928.1406 436.9219 928.375 437.1797 Q928.6094 437.4375 928.6094 438.0469 L928.6094 439.5 Q928.6094 440.1094 928.375 440.375 Q928.1406 440.6406 927.7656 440.6406 Q927.4219 440.6406 927.2188 440.4375 Q927.0156 440.25 926.9063 439.7344 Q926.8594 439.375 926.6719 439.1875 Q926.3438 438.8125 925.7344 438.5938 Q925.125 438.375 924.5 438.375 Q923.7344 438.375 923.1016 438.7031 Q922.4688 439.0313 921.9766 439.7813 Q921.4844 440.5313 921.4844 441.5625 L921.4844 442.6563 Q921.4844 443.8906 922.375 444.7109 Q923.2656 445.5313 924.8594 445.5313 Q925.7969 445.5313 926.4531 445.2813 Q926.8438 445.125 927.2656 444.6875 Q927.5313 444.4219 927.6797 444.3438 Q927.8281 444.2656 928.0313 444.2656 Q928.3594 444.2656 928.6172 444.5234 Q928.875 444.7813 928.875 445.125 Q928.875 445.4688 928.5313 445.875 Q928.0313 446.4531 927.2344 446.7813 Q926.1563 447.2344 924.8594 447.2344 Q923.3438 447.2344 922.1406 446.6094 Q921.1563 446.1094 920.4688 445.0391 Q919.7813 443.9688 919.7813 442.6875 L919.7813 441.5313 Q919.7813 440.2031 920.3984 439.0547 Q921.0156 437.9063 922.1094 437.2891 Q923.2031 436.6719 924.4375 436.6719 Q925.1719 436.6719 925.8203 436.8359 Q926.4688 437 927.0156 437.3594 Z" style="fill:black;" />
      <text x="944.75" y="447.2129" textLength="103" lengthAdjust="spacing" font-family="sans-serif" font-size="14" style="fill:black;">pension.scheme</text>
      <line x1="859.5" y1="457.4844" x2="1100.5" y2="457.4844" stroke-width="0.5" style="stroke:#181818;" />
      <text x="864.5" y="476.0176" textLength="210" lengthAdjust="spacing" font-family="sans-serif" font-size="14" text-decoration="underline" font-weight="bold" style="fill:black;">entityType : string = "scheme"</text>
      <text x="864.5" y="493.627" textLength="125" lengthAdjust="spacing" font-family="sans-serif" font-size="14" font-weight="bold" style="fill:black;">refKey : string(70)</text>
      <text x="864.5" y="511.2363" textLength="231" lengthAdjust="spacing" font-family="sans-serif" font-size="14" font-weight="bold" style="fill:black;">pensionSchemeName : string(60)</text>
    </g>
    <g id="elem_financialInformation.reportingPeriod">
      <rect x="688.5" y="613.4844" width="283" height="92.8281" rx="2.5" ry="2.5" id="financialInformation.reportingPeriod" stroke-width="0.5" codeLine="62" style="fill:#F1F1F1;stroke:#181818;" />
      <ellipse cx="715.65" cy="629.4844" rx="11" ry="11" stroke-width="1" style="fill:#ADD1B2;stroke:#181818;" />
      <path d="M718.4156 625.3594 Q718.5719 625.1406 718.7594 625.0313 Q718.9469 624.9219 719.1656 624.9219 Q719.5406 624.9219 719.775 625.1797 Q720.0094 625.4375 720.0094 626.0469 L720.0094 627.5 Q720.0094 628.1094 719.775 628.375 Q719.5406 628.6406 719.1656 628.6406 Q718.8219 628.6406 718.6188 628.4375 Q718.4156 628.25 718.3063 627.7344 Q718.2594 627.375 718.0719 627.1875 Q717.7438 626.8125 717.1344 626.5938 Q716.525 626.375 715.9 626.375 Q715.1344 626.375 714.5016 626.7031 Q713.8688 627.0313 713.3766 627.7813 Q712.8844 628.5313 712.8844 629.5625 L712.8844 630.6563 Q712.8844 631.8906 713.775 632.7109 Q714.6656 633.5313 716.2594 633.5313 Q717.1969 633.5313 717.8531 633.2813 Q718.2438 633.125 718.6656 632.6875 Q718.9313 632.4219 719.0797 632.3438 Q719.2281 632.2656 719.4313 632.2656 Q719.7594 632.2656 720.0172 632.5234 Q720.275 632.7813 720.275 633.125 Q720.275 633.4688 719.9313 633.875 Q719.4313 634.4531 718.6344 634.7813 Q717.5563 635.2344 716.2594 635.2344 Q714.7438 635.2344 713.5406 634.6094 Q712.5563 634.1094 711.8688 633.0391 Q711.1813 631.9688 711.1813 630.6875 L711.1813 629.5313 Q711.1813 628.2031 711.7984 627.0547 Q712.4156 625.9063 713.5094 625.2891 Q714.6031 624.6719 715.8375 624.6719 Q716.5719 624.6719 717.2203 624.8359 Q717.8688 625 718.4156 625.3594 Z" style="fill:black;" />
      <text x="732.35" y="635.2129" textLength="224" lengthAdjust="spacing" font-family="sans-serif" font-size="14" style="fill:black;">financialInformation.reportingPeriod</text>
      <line x1="689.5" y1="645.4844" x2="970.5" y2="645.4844" stroke-width="0.5" style="stroke:#181818;" />
      <text x="694.5" y="664.0176" textLength="267" lengthAdjust="spacing" font-family="sans-serif" font-size="14" text-decoration="underline" font-weight="bold" style="fill:black;">entityType : string = "reportingPeriod"</text>
      <text x="694.5" y="681.627" textLength="112" lengthAdjust="spacing" font-family="sans-serif" font-size="14" font-weight="bold" style="fill:black;">tradeDate : date</text>
      <text x="694.5" y="699.2363" textLength="271" lengthAdjust="spacing" font-family="sans-serif" font-size="14" font-weight="bold" style="fill:black;">investmentOrderSettlementDate : date</text>
    </g>
    <g id="elem_pension.cohortPool">
      <rect x="1007" y="595.9844" width="244" height="128.0469" rx="2.5" ry="2.5" id="pension.cohortPool" stroke-width="0.5" codeLine="68" style="fill:#F1F1F1;stroke:#181818;" />
      <ellipse cx="1063.75" cy="611.9844" rx="11" ry="11" stroke-width="1" style="fill:#ADD1B2;stroke:#181818;" />
      <path d="M1066.516 607.8594 Q1066.672 607.6406 1066.859 607.5313 Q1067.047 607.4219 1067.266 607.4219 Q1067.641 607.4219 1067.875 607.6797 Q1068.109 607.9375 1068.109 608.5469 L1068.109 610 Q1068.109 610.6094 1067.875 610.875 Q1067.641 611.1406 1067.266 611.1406 Q1066.922 611.1406 1066.719 610.9375 Q1066.516 610.75 1066.406 610.2344 Q1066.359 609.875 1066.172 609.6875 Q1065.844 609.3125 1065.234 609.0938 Q1064.625 608.875 1064 608.875 Q1063.234 608.875 1062.602 609.2031 Q1061.969 609.5313 1061.477 610.2813 Q1060.984 611.0313 1060.984 612.0625 L1060.984 613.1563 Q1060.984 614.3906 1061.875 615.2109 Q1062.766 616.0313 1064.359 616.0313 Q1065.297 616.0313 1065.953 615.7813 Q1066.344 615.625 1066.766 615.1875 Q1067.031 614.9219 1067.18 614.8438 Q1067.328 614.7656 1067.531 614.7656 Q1067.859 614.7656 1068.117 615.0234 Q1068.375 615.2813 1068.375 615.625 Q1068.375 615.9688 1068.031 616.375 Q1067.531 616.9531 1066.734 617.2813 Q1065.656 617.7344 1064.359 617.7344 Q1062.844 617.7344 1061.641 617.1094 Q1060.656 616.6094 1059.969 615.5391 Q1059.281 614.4688 1059.281 613.1875 L1059.281 612.0313 Q1059.281 610.7031 1059.898 609.5547 Q1060.516 608.4063 1061.609 607.7891 Q1062.703 607.1719 1063.938 607.1719 Q1064.672 607.1719 1065.32 607.3359 Q1065.969 607.5 1066.516 607.8594 Z" style="fill:black;" />
      <text x="1084.25" y="617.7129" textLength="122" lengthAdjust="spacing" font-family="sans-serif" font-size="14" style="fill:black;">pension.cohortPool</text>
      <line x1="1008" y1="627.9844" x2="1250" y2="627.9844" stroke-width="0.5" style="stroke:#181818;" />
      <text x="1013" y="646.5176" textLength="232" lengthAdjust="spacing" font-family="sans-serif" font-size="14" text-decoration="underline" font-weight="bold" style="fill:black;">entityType : string = "cohortPool"</text>
      <text x="1013" y="664.127" textLength="125" lengthAdjust="spacing" font-family="sans-serif" font-size="14" font-weight="bold" style="fill:black;">refKey : string(70)</text>
      <text x="1013" y="681.7363" textLength="135" lengthAdjust="spacing" font-family="sans-serif" font-size="14" font-style="italic" style="fill:black;">cohortRef : string(70)</text>
      <text x="1013" y="699.3457" textLength="159" lengthAdjust="spacing" font-family="sans-serif" font-size="14" font-weight="bold" style="fill:black;">description : string(60)</text>
      <text x="1013" y="716.9551" textLength="148" lengthAdjust="spacing" font-family="sans-serif" font-size="14" font-weight="bold" style="fill:black;">currencyType : string</text>
    </g>
    <g id="elem_investment.pool">
      <rect x="1095.5" y="783.9844" width="241" height="198.4844" rx="2.5" ry="2.5" id="investment.pool" stroke-width="0.5" codeLine="76" style="fill:#F1F1F1;stroke:#181818;" />
      <ellipse cx="1162.25" cy="799.9844" rx="11" ry="11" stroke-width="1" style="fill:#ADD1B2;stroke:#181818;" />
      <path d="M1165.016 795.8594 Q1165.172 795.6406 1165.359 795.5313 Q1165.547 795.4219 1165.766 795.4219 Q1166.141 795.4219 1166.375 795.6797 Q1166.609 795.9375 1166.609 796.5469 L1166.609 798 Q1166.609 798.6094 1166.375 798.875 Q1166.141 799.1406 1165.766 799.1406 Q1165.422 799.1406 1165.219 798.9375 Q1165.016 798.75 1164.906 798.2344 Q1164.859 797.875 1164.672 797.6875 Q1164.344 797.3125 1163.734 797.0938 Q1163.125 796.875 1162.5 796.875 Q1161.734 796.875 1161.102 797.2031 Q1160.469 797.5313 1159.977 798.2813 Q1159.484 799.0313 1159.484 800.0625 L1159.484 801.1563 Q1159.484 802.3906 1160.375 803.2109 Q1161.266 804.0313 1162.859 804.0313 Q1163.797 804.0313 1164.453 803.7813 Q1164.844 803.625 1165.266 803.1875 Q1165.531 802.9219 1165.68 802.8438 Q1165.828 802.7656 1166.031 802.7656 Q1166.359 802.7656 1166.617 803.0234 Q1166.875 803.2813 1166.875 803.625 Q1166.875 803.9688 1166.531 804.375 Q1166.031 804.9531 1165.234 805.2813 Q1164.156 805.7344 1162.859 805.7344 Q1161.344 805.7344 1160.141 805.1094 Q1159.156 804.6094 1158.469 803.5391 Q1157.781 802.4688 1157.781 801.1875 L1157.781 800.0313 Q1157.781 798.7031 1158.398 797.5547 Q1159.016 796.4063 1160.109 795.7891 Q1161.203 795.1719 1162.438 795.1719 Q1163.172 795.1719 1163.82 795.3359 Q1164.469 795.5 1165.016 795.8594 Z" style="fill:black;" />
      <text x="1182.75" y="805.7129" textLength="99" lengthAdjust="spacing" font-family="sans-serif" font-size="14" style="fill:black;">investment.pool</text>
      <line x1="1096.5" y1="815.9844" x2="1335.5" y2="815.9844" stroke-width="0.5" style="stroke:#181818;" />
      <text x="1101.5" y="834.5176" textLength="186" lengthAdjust="spacing" font-family="sans-serif" font-size="14" text-decoration="underline" font-weight="bold" style="fill:black;">entityType : string = "pool"</text>
      <text x="1101.5" y="852.127" textLength="125" lengthAdjust="spacing" font-family="sans-serif" font-size="14" font-weight="bold" style="fill:black;">refKey : string(70)</text>
      <text x="1101.5" y="869.7363" textLength="159" lengthAdjust="spacing" font-family="sans-serif" font-size="14" font-weight="bold" style="fill:black;">description : string(60)</text>
      <text x="1101.5" y="887.3457" textLength="176" lengthAdjust="spacing" font-family="sans-serif" font-size="14" font-weight="bold" style="fill:black;">dummyCashId : string(10)</text>
      <text x="1101.5" y="904.9551" textLength="117" lengthAdjust="spacing" font-family="sans-serif" font-size="14" font-weight="bold" style="fill:black;">buySellId : string</text>
      <text x="1101.5" y="922.5645" textLength="213" lengthAdjust="spacing" font-family="sans-serif" font-size="14" font-weight="bold" style="fill:black;">tradeQuantity : decimal (1E-06)</text>
      <text x="1101.5" y="940.1738" textLength="181" lengthAdjust="spacing" font-family="sans-serif" font-size="14" font-weight="bold" style="fill:black;">unitPrice : decimal (1E-06)</text>
      <text x="1101.5" y="957.7832" textLength="229" lengthAdjust="spacing" font-family="sans-serif" font-size="14" font-weight="bold" style="fill:black;">currencyExchangeRate : decimal</text>
      <text x="1101.5" y="975.3926" textLength="148" lengthAdjust="spacing" font-family="sans-serif" font-size="14" font-weight="bold" style="fill:black;">currencyType : string</text>
    </g>
    <g id="elem_document.default">
      <rect x="1158" y="228.9844" width="216" height="110.4375" rx="2.5" ry="2.5" id="document.default" stroke-width="0.5" codeLine="88" style="fill:#F1F1F1;stroke:#181818;" />
      <ellipse cx="1207.25" cy="244.9844" rx="11" ry="11" stroke-width="1" style="fill:#ADD1B2;stroke:#181818;" />
      <path d="M1210.016 240.8594 Q1210.172 240.6406 1210.359 240.5313 Q1210.547 240.4219 1210.766 240.4219 Q1211.141 240.4219 1211.375 240.6797 Q1211.609 240.9375 1211.609 241.5469 L1211.609 243 Q1211.609 243.6094 1211.375 243.875 Q1211.141 244.1406 1210.766 244.1406 Q1210.422 244.1406 1210.219 243.9375 Q1210.016 243.75 1209.906 243.2344 Q1209.859 242.875 1209.672 242.6875 Q1209.344 242.3125 1208.734 242.0938 Q1208.125 241.875 1207.5 241.875 Q1206.734 241.875 1206.102 242.2031 Q1205.469 242.5313 1204.977 243.2813 Q1204.484 244.0313 1204.484 245.0625 L1204.484 246.1563 Q1204.484 247.3906 1205.375 248.2109 Q1206.266 249.0313 1207.859 249.0313 Q1208.797 249.0313 1209.453 248.7813 Q1209.844 248.625 1210.266 248.1875 Q1210.531 247.9219 1210.68 247.8438 Q1210.828 247.7656 1211.031 247.7656 Q1211.359 247.7656 1211.617 248.0234 Q1211.875 248.2813 1211.875 248.625 Q1211.875 248.9688 1211.531 249.375 Q1211.031 249.9531 1210.234 250.2813 Q1209.156 250.7344 1207.859 250.7344 Q1206.344 250.7344 1205.141 250.1094 Q1204.156 249.6094 1203.469 248.5391 Q1202.781 247.4688 1202.781 246.1875 L1202.781 245.0313 Q1202.781 243.7031 1203.398 242.5547 Q1204.016 241.4063 1205.109 240.7891 Q1206.203 240.1719 1207.438 240.1719 Q1208.172 240.1719 1208.82 240.3359 Q1209.469 240.5 1210.016 240.8594 Z" style="fill:black;" />
      <text x="1227.75" y="250.7129" textLength="109" lengthAdjust="spacing" font-family="sans-serif" font-size="14" style="fill:black;">document.default</text>
      <line x1="1159" y1="260.9844" x2="1373" y2="260.9844" stroke-width="0.5" style="stroke:#181818;" />
      <text x="1164" y="279.5176" textLength="204" lengthAdjust="spacing" font-family="sans-serif" font-size="14" text-decoration="underline" font-weight="bold" style="fill:black;">entityType : string = "default"</text>
      <text x="1164" y="297.127" textLength="125" lengthAdjust="spacing" font-family="sans-serif" font-size="14" font-weight="bold" style="fill:black;">refKey : string(70)</text>
      <text x="1164" y="314.7363" textLength="140" lengthAdjust="spacing" font-family="sans-serif" font-size="14" font-weight="bold" style="fill:black;">fileName : string(60)</text>
      <text x="1164" y="332.3457" textLength="145" lengthAdjust="spacing" font-family="sans-serif" font-size="14" font-weight="bold" style="fill:black;">fileExtension : string</text>
    </g>
    <g id="elem_chunkMeta.default">
      <rect x="1409" y="219.9844" width="244" height="128.0469" rx="2.5" ry="2.5" id="chunkMeta.default" stroke-width="0.5" codeLine="95" style="fill:#F1F1F1;stroke:#181818;" />
      <ellipse cx="1468.75" cy="235.9844" rx="11" ry="11" stroke-width="1" style="fill:#ADD1B2;stroke:#181818;" />
      <path d="M1471.516 231.8594 Q1471.672 231.6406 1471.859 231.5313 Q1472.047 231.4219 1472.266 231.4219 Q1472.641 231.4219 1472.875 231.6797 Q1473.109 231.9375 1473.109 232.5469 L1473.109 234 Q1473.109 234.6094 1472.875 234.875 Q1472.641 235.1406 1472.266 235.1406 Q1471.922 235.1406 1471.719 234.9375 Q1471.516 234.75 1471.406 234.2344 Q1471.359 233.875 1471.172 233.6875 Q1470.844 233.3125 1470.234 233.0938 Q1469.625 232.875 1469 232.875 Q1468.234 232.875 1467.602 233.2031 Q1466.969 233.5313 1466.477 234.2813 Q1465.984 235.0313 1465.984 236.0625 L1465.984 237.1563 Q1465.984 238.3906 1466.875 239.2109 Q1467.766 240.0313 1469.359 240.0313 Q1470.297 240.0313 1470.953 239.7813 Q1471.344 239.625 1471.766 239.1875 Q1472.031 238.9219 1472.18 238.8438 Q1472.328 238.7656 1472.531 238.7656 Q1472.859 238.7656 1473.117 239.0234 Q1473.375 239.2813 1473.375 239.625 Q1473.375 239.9688 1473.031 240.375 Q1472.531 240.9531 1471.734 241.2813 Q1470.656 241.7344 1469.359 241.7344 Q1467.844 241.7344 1466.641 241.1094 Q1465.656 240.6094 1464.969 239.5391 Q1464.281 238.4688 1464.281 237.1875 L1464.281 236.0313 Q1464.281 234.7031 1464.898 233.5547 Q1465.516 232.4063 1466.609 231.7891 Q1467.703 231.1719 1468.938 231.1719 Q1469.672 231.1719 1470.32 231.3359 Q1470.969 231.5 1471.516 231.8594 Z" style="fill:black;" />
      <text x="1489.25" y="241.7129" textLength="116" lengthAdjust="spacing" font-family="sans-serif" font-size="14" style="fill:black;">chunkMeta.default</text>
      <line x1="1410" y1="251.9844" x2="1652" y2="251.9844" stroke-width="0.5" style="stroke:#181818;" />
      <text x="1415" y="270.5176" textLength="204" lengthAdjust="spacing" font-family="sans-serif" font-size="14" text-decoration="underline" font-weight="bold" style="fill:black;">entityType : string = "default"</text>
      <text x="1415" y="288.127" textLength="189" lengthAdjust="spacing" font-family="sans-serif" font-size="14" font-weight="bold" style="fill:black;">currentChunkId : string(70)</text>
      <text x="1415" y="305.7363" textLength="232" lengthAdjust="spacing" font-family="sans-serif" font-size="14" font-weight="bold" style="fill:black;">chunkSequenceNumber : integer</text>
      <text x="1415" y="323.3457" textLength="218" lengthAdjust="spacing" font-family="sans-serif" font-size="14" font-weight="bold" style="fill:black;">totalNumberOfChunks : integer</text>
      <text x="1415" y="340.9551" textLength="196" lengthAdjust="spacing" font-family="sans-serif" font-size="14" font-weight="bold" style="fill:black;">chunkFragmentPaths : array</text>
    </g>
    <g id="elem_ADNFUN">
      <rect x="541" y="416.9844" width="282" height="110.4375" rx="2.5" ry="2.5" id="ADNFUN" stroke-width="0.5" codeLine="103" style="fill:#F1F1F1;stroke:#181818;" />
      <ellipse cx="650.25" cy="432.9844" rx="11" ry="11" stroke-width="1" style="fill:#EB937F;stroke:#181818;" />
      <path d="M649.1094 433.7813 L649.1094 436.2813 L653.4375 436.2813 L653.4375 435.3594 Q653.4375 434.75 653.6797 434.4844 Q653.9219 434.2188 654.2969 434.2188 Q654.6719 434.2188 654.9063 434.4844 Q655.1406 434.75 655.1406 435.3594 L655.1406 437.9844 L647.1406 437.9844 Q646.5156 437.9844 646.2578 437.75 Q646 437.5156 646 437.125 Q646 436.75 646.2656 436.5156 Q646.5313 436.2813 647.1406 436.2813 L647.4063 436.2813 L647.4063 429.625 L647.1406 429.625 Q646.5156 429.625 646.2578 429.3906 Q646 429.1563 646 428.7656 Q646 428.3906 646.2578 428.1563 Q646.5156 427.9219 647.1406 427.9219 L654.7656 427.9219 L654.7656 430.5156 Q654.7656 431.125 654.5391 431.3828 Q654.3125 431.6406 653.9219 431.6406 Q653.5469 431.6406 653.3125 431.3828 Q653.0781 431.125 653.0781 430.5156 L653.0781 429.625 L649.1094 429.625 L649.1094 432.0781 L650.5938 432.0781 Q650.5938 431.4219 650.7188 431.2344 Q650.9844 430.8281 651.4531 430.8281 Q651.8281 430.8281 652.0625 431.0859 Q652.2969 431.3438 652.2969 431.9531 L652.2969 433.9219 Q652.2969 434.4688 652.1719 434.6563 Q651.9063 435.0469 651.4531 435.0469 Q650.9844 435.0469 650.7188 434.6406 Q650.5938 434.4531 650.5938 433.7813 L649.1094 433.7813 Z" style="fill:black;" />
      <text x="670.75" y="438.7129" textLength="55" lengthAdjust="spacing" font-family="sans-serif" font-size="14" style="fill:black;">ADNFUN</text>
      <line x1="542" y1="448.9844" x2="822" y2="448.9844" stroke-width="0.5" style="stroke:#181818;" />
      <text x="547" y="467.5176" textLength="66" lengthAdjust="spacing" font-family="sans-serif" font-size="14" style="fill:black;">01 - Nieuw</text>
      <text x="547" y="485.127" textLength="81" lengthAdjust="spacing" font-family="sans-serif" font-size="14" style="fill:black;">02 - Wijzigen</text>
      <text x="547" y="502.7363" textLength="270" lengthAdjust="spacing" font-family="sans-serif" font-size="14" style="fill:black;">03 - Aanmelden bestaande polis op pakket</text>
      <text x="547" y="520.3457" textLength="94" lengthAdjust="spacing" font-family="sans-serif" font-size="14" style="fill:black;">04 - Opzeggen</text>
    </g>
    <g id="elem_AFDIDP">
      <rect x="1137" y="421.4844" width="128" height="100.8281" rx="2.5" ry="2.5" id="AFDIDP" stroke-width="0.5" codeLine="111" style="fill:#F1F1F1;stroke:#181818;" />
      <ellipse cx="1172.7" cy="437.4844" rx="11" ry="11" stroke-width="1" style="fill:#EB937F;stroke:#181818;" />
      <path d="M1171.559 438.2813 L1171.559 440.7813 L1175.887 440.7813 L1175.887 439.8594 Q1175.887 439.25 1176.13 438.9844 Q1176.372 438.7188 1176.747 438.7188 Q1177.122 438.7188 1177.356 438.9844 Q1177.591 439.25 1177.591 439.8594 L1177.591 442.4844 L1169.591 442.4844 Q1168.966 442.4844 1168.708 442.25 Q1168.45 442.0156 1168.45 441.625 Q1168.45 441.25 1168.716 441.0156 Q1168.981 440.7813 1169.591 440.7813 L1169.856 440.7813 L1169.856 434.125 L1169.591 434.125 Q1168.966 434.125 1168.708 433.8906 Q1168.45 433.6563 1168.45 433.2656 Q1168.45 432.8906 1168.708 432.6563 Q1168.966 432.4219 1169.591 432.4219 L1177.216 432.4219 L1177.216 435.0156 Q1177.216 435.625 1176.989 435.8828 Q1176.762 436.1406 1176.372 436.1406 Q1175.997 436.1406 1175.762 435.8828 Q1175.528 435.625 1175.528 435.0156 L1175.528 434.125 L1171.559 434.125 L1171.559 436.5781 L1173.044 436.5781 Q1173.044 435.9219 1173.169 435.7344 Q1173.434 435.3281 1173.903 435.3281 Q1174.278 435.3281 1174.512 435.5859 Q1174.747 435.8438 1174.747 436.4531 L1174.747 438.4219 Q1174.747 438.9688 1174.622 439.1563 Q1174.356 439.5469 1173.903 439.5469 Q1173.434 439.5469 1173.169 439.1406 Q1173.044 438.9531 1173.044 438.2813 L1171.559 438.2813 Z" style="fill:black;" />
      <text x="1191.3" y="443.2129" textLength="50" lengthAdjust="spacing" font-family="sans-serif" font-size="14" style="fill:black;">AFDIDP</text>
      <line x1="1138" y1="453.4844" x2="1264" y2="453.4844" stroke-width="0.5" style="stroke:#181818;" />
      <text x="1143" y="472.0176" textLength="106" lengthAdjust="spacing" font-family="sans-serif" font-size="14" style="fill:black;">U0003 - Fonds 1</text>
      <text x="1143" y="489.627" textLength="106" lengthAdjust="spacing" font-family="sans-serif" font-size="14" style="fill:black;">U0005 - Fonds 2</text>
      <line x1="1138" y1="496.7031" x2="1264" y2="496.7031" stroke-width="1" stroke-dasharray="1 2" style="stroke:#181818;" />
      <text x="1143" y="515.2363" textLength="116" lengthAdjust="spacing" font-family="sans-serif" font-size="14" style="fill:black;">U0765 - Fonds xxx</text>
    </g>
    <g id="elem_ISOVAL">
      <rect x="1005.5" y="1041.984" width="93" height="100.8281" rx="2.5" ry="2.5" id="ISOVAL" stroke-width="0.5" codeLine="119" style="fill:#F1F1F1;stroke:#181818;" />
      <ellipse cx="1025.9" cy="1057.984" rx="11" ry="11" stroke-width="1" style="fill:#EB937F;stroke:#181818;" />
      <path d="M1024.759 1058.781 L1024.759 1061.281 L1029.088 1061.281 L1029.088 1060.359 Q1029.088 1059.75 1029.33 1059.484 Q1029.572 1059.219 1029.947 1059.219 Q1030.322 1059.219 1030.556 1059.484 Q1030.791 1059.75 1030.791 1060.359 L1030.791 1062.984 L1022.791 1062.984 Q1022.166 1062.984 1021.908 1062.75 Q1021.65 1062.516 1021.65 1062.125 Q1021.65 1061.75 1021.916 1061.516 Q1022.181 1061.281 1022.791 1061.281 L1023.056 1061.281 L1023.056 1054.625 L1022.791 1054.625 Q1022.166 1054.625 1021.908 1054.391 Q1021.65 1054.156 1021.65 1053.766 Q1021.65 1053.391 1021.908 1053.156 Q1022.166 1052.922 1022.791 1052.922 L1030.416 1052.922 L1030.416 1055.516 Q1030.416 1056.125 1030.189 1056.383 Q1029.963 1056.641 1029.572 1056.641 Q1029.197 1056.641 1028.963 1056.383 Q1028.728 1056.125 1028.728 1055.516 L1028.728 1054.625 L1024.759 1054.625 L1024.759 1057.078 L1026.244 1057.078 Q1026.244 1056.422 1026.369 1056.234 Q1026.634 1055.828 1027.103 1055.828 Q1027.478 1055.828 1027.713 1056.086 Q1027.947 1056.344 1027.947 1056.953 L1027.947 1058.922 Q1027.947 1059.469 1027.822 1059.656 Q1027.556 1060.047 1027.103 1060.047 Q1026.634 1060.047 1026.369 1059.641 Q1026.244 1059.453 1026.244 1058.781 L1024.759 1058.781 Z" style="fill:black;" />
      <text x="1041.1" y="1063.713" textLength="49" lengthAdjust="spacing" font-family="sans-serif" font-size="14" style="fill:black;">ISOVAL</text>
      <line x1="1006.5" y1="1073.984" x2="1097.5" y2="1073.984" stroke-width="0.5" style="stroke:#181818;" />
      <text x="1011.5" y="1092.518" textLength="48" lengthAdjust="spacing" font-family="sans-serif" font-size="14" style="fill:black;">Afghani</text>
      <text x="1011.5" y="1110.127" textLength="81" lengthAdjust="spacing" font-family="sans-serif" font-size="14" style="fill:black;">Albanese lek</text>
      <line x1="1006.5" y1="1117.203" x2="1097.5" y2="1117.203" stroke-width="1" stroke-dasharray="1 2" style="stroke:#181818;" />
      <text x="1011.5" y="1135.736" textLength="75" lengthAdjust="spacing" font-family="sans-serif" font-size="14" style="fill:black;">VAE-dirham</text>
    </g>
    <g id="elem_cdl_buySellId_194">
      <rect x="1142.5" y="1063.484" width="147" height="57.6094" rx="2.5" ry="2.5" id="cdl_buySellId_194" stroke-width="0.5" codeLine="127" style="fill:#F1F1F1;stroke:#181818;" />
      <ellipse cx="1157.5" cy="1079.484" rx="11" ry="11" stroke-width="1" style="fill:#EB937F;stroke:#181818;" />
      <path d="M1156.359 1080.281 L1156.359 1082.781 L1160.688 1082.781 L1160.688 1081.859 Q1160.688 1081.25 1160.93 1080.984 Q1161.172 1080.719 1161.547 1080.719 Q1161.922 1080.719 1162.156 1080.984 Q1162.391 1081.25 1162.391 1081.859 L1162.391 1084.484 L1154.391 1084.484 Q1153.766 1084.484 1153.508 1084.25 Q1153.25 1084.016 1153.25 1083.625 Q1153.25 1083.25 1153.516 1083.016 Q1153.781 1082.781 1154.391 1082.781 L1154.656 1082.781 L1154.656 1076.125 L1154.391 1076.125 Q1153.766 1076.125 1153.508 1075.891 Q1153.25 1075.656 1153.25 1075.266 Q1153.25 1074.891 1153.508 1074.656 Q1153.766 1074.422 1154.391 1074.422 L1162.016 1074.422 L1162.016 1077.016 Q1162.016 1077.625 1161.789 1077.883 Q1161.563 1078.141 1161.172 1078.141 Q1160.797 1078.141 1160.563 1077.883 Q1160.328 1077.625 1160.328 1077.016 L1160.328 1076.125 L1156.359 1076.125 L1156.359 1078.578 L1157.844 1078.578 Q1157.844 1077.922 1157.969 1077.734 Q1158.234 1077.328 1158.703 1077.328 Q1159.078 1077.328 1159.313 1077.586 Q1159.547 1077.844 1159.547 1078.453 L1159.547 1080.422 Q1159.547 1080.969 1159.422 1081.156 Q1159.156 1081.547 1158.703 1081.547 Q1158.234 1081.547 1157.969 1081.141 Q1157.844 1080.953 1157.844 1080.281 L1156.359 1080.281 Z" style="fill:black;" />
      <text x="1171.5" y="1085.213" textLength="115" lengthAdjust="spacing" font-family="sans-serif" font-size="14" style="fill:black;">cdl_buySellId_194</text>
      <line x1="1143.5" y1="1095.484" x2="1288.5" y2="1095.484" stroke-width="0.5" style="stroke:#181818;" />
      <text x="1148.5" y="1114.018" textLength="52" lengthAdjust="spacing" font-family="sans-serif" font-size="14" style="fill:black;">sell, buy</text>
    </g>
    <g id="elem_cdl_fileExtension_251">
      <rect x="1300.5" y="425.4844" width="169" height="92.8281" rx="2.5" ry="2.5" id="cdl_fileExtension_251" stroke-width="0.5" codeLine="132" style="fill:#F1F1F1;stroke:#181818;" />
      <ellipse cx="1315.5" cy="441.4844" rx="11" ry="11" stroke-width="1" style="fill:#EB937F;stroke:#181818;" />
      <path d="M1314.359 442.2813 L1314.359 444.7813 L1318.688 444.7813 L1318.688 443.8594 Q1318.688 443.25 1318.93 442.9844 Q1319.172 442.7188 1319.547 442.7188 Q1319.922 442.7188 1320.156 442.9844 Q1320.391 443.25 1320.391 443.8594 L1320.391 446.4844 L1312.391 446.4844 Q1311.766 446.4844 1311.508 446.25 Q1311.25 446.0156 1311.25 445.625 Q1311.25 445.25 1311.516 445.0156 Q1311.781 444.7813 1312.391 444.7813 L1312.656 444.7813 L1312.656 438.125 L1312.391 438.125 Q1311.766 438.125 1311.508 437.8906 Q1311.25 437.6563 1311.25 437.2656 Q1311.25 436.8906 1311.508 436.6563 Q1311.766 436.4219 1312.391 436.4219 L1320.016 436.4219 L1320.016 439.0156 Q1320.016 439.625 1319.789 439.8828 Q1319.563 440.1406 1319.172 440.1406 Q1318.797 440.1406 1318.563 439.8828 Q1318.328 439.625 1318.328 439.0156 L1318.328 438.125 L1314.359 438.125 L1314.359 440.5781 L1315.844 440.5781 Q1315.844 439.9219 1315.969 439.7344 Q1316.234 439.3281 1316.703 439.3281 Q1317.078 439.3281 1317.313 439.5859 Q1317.547 439.8438 1317.547 440.4531 L1317.547 442.4219 Q1317.547 442.9688 1317.422 443.1563 Q1317.156 443.5469 1316.703 443.5469 Q1316.234 443.5469 1315.969 443.1406 Q1315.844 442.9531 1315.844 442.2813 L1314.359 442.2813 Z" style="fill:black;" />
      <text x="1329.5" y="447.2129" textLength="137" lengthAdjust="spacing" font-family="sans-serif" font-size="14" style="fill:black;">cdl_fileExtension_251</text>
      <line x1="1301.5" y1="457.4844" x2="1468.5" y2="457.4844" stroke-width="0.5" style="stroke:#181818;" />
      <text x="1306.5" y="476.0176" textLength="20" lengthAdjust="spacing" font-family="sans-serif" font-size="14" style="fill:black;">pdf</text>
      <text x="1306.5" y="493.627" textLength="21" lengthAdjust="spacing" font-family="sans-serif" font-size="14" style="fill:black;">csv</text>
      <text x="1306.5" y="511.2363" textLength="14" lengthAdjust="spacing" font-family="sans-serif" font-size="14" style="fill:black;">txt</text>
    </g>
    <g id="link_berichtstructuur_chunkMeta.default">
      <path d="M1057.658 150.2823 C1139.988 161.0623 1272.78 182.1244 1392 219.9844 C1397.56 221.7444 1403.18 223.6744 1408.83 225.7244" id="berichtstructuur-backto-chunkMeta.default" stroke-width="1" codeLine="139" style="fill:none;stroke:#181818;" />
      <polygon points="1045.76,148.7244 1051.19,153.4695 1057.658,150.2823 1052.229,145.5372 1045.76,148.7244" stroke-width="1" style="fill:none;stroke:#181818;" />
      <text x="1379.131" y="219.3976" textLength="22" lengthAdjust="spacing" font-family="sans-serif" font-size="13" style="fill:black;">0..1</text>
    </g>
    <g id="link_berichtstructuur_commonFunctional.default">
      <path d="M929.424 165.161 C893.704 182.241 850.22 203.0344 800.69 226.7144" id="berichtstructuur-backto-commonFunctional.default" stroke-width="1" codeLine="140" style="fill:none;stroke:#181818;" />
      <polygon points="940.25,159.9844 933.1115,158.964 929.424,165.161 936.5625,166.1814 940.25,159.9844" stroke-width="1" style="fill:none;stroke:#181818;" />
      <text x="807.2784" y="219.7001" textLength="22" lengthAdjust="spacing" font-family="sans-serif" font-size="13" style="fill:black;">1..1</text>
    </g>
    <g id="link_berichtstructuur_commonTechnical.default">
      <path d="M902.3698 150.3189 C816.8498 161.4189 675.23 183.0744 548 219.9844 C532.85 224.3744 517.15 229.7244 501.81 235.4144" id="berichtstructuur-backto-commonTechnical.default" stroke-width="1" codeLine="141" style="fill:none;stroke:#181818;" />
      <polygon points="914.27,148.7744 907.8051,145.5799 902.3698,150.3189 908.8348,153.5134 914.27,148.7744" stroke-width="1" style="fill:none;stroke:#181818;" />
      <text x="509.5494" y="229.2827" textLength="22" lengthAdjust="spacing" font-family="sans-serif" font-size="13" style="fill:black;">1..1</text>
    </g>
    <g id="link_berichtstructuur_document.default">
      <path d="M1029.585 165.3871 C1062.005 181.3571 1098.66 199.4444 1140 219.9844 C1145.8 222.8644 1151.76 225.8344 1157.76 228.8244" id="berichtstructuur-backto-document.default" stroke-width="1" codeLine="142" style="fill:none;stroke:#181818;" />
      <polygon points="1018.82,160.0844 1022.435,166.324 1029.585,165.3871 1025.97,159.1475 1018.82,160.0844" stroke-width="1" style="fill:none;stroke:#181818;" />
      <text x="1120.907" y="220.5366" textLength="29" lengthAdjust="spacing" font-family="sans-serif" font-size="13" style="fill:black;">0..99</text>
    </g>
    <g id="link_berichtstructuur_party.pensionProvider">
      <path d="M980 172.1344 C980 189.6944 980 204.5644 980 228.7044" id="berichtstructuur-backto-party.pensionProvider" stroke-width="1" codeLine="143" style="fill:none;stroke:#181818;" />
      <polygon points="980,160.1344 976,166.1344 980,172.1344 984,166.1344 980,160.1344" stroke-width="1" style="fill:none;stroke:#181818;" />
      <text x="956.5906" y="218.0862" textLength="22" lengthAdjust="spacing" font-family="sans-serif" font-size="13" style="fill:black;">1..1</text>
    </g>
    <g id="link_commonTechnical.default_party.receiver">
      <path d="M392 351.0344 C392 375.4844 392 392.3344 392 416.8044" id="commonTechnical.default-backto-party.receiver" stroke-width="1" codeLine="144" style="fill:none;stroke:#181818;" />
      <polygon points="392,339.0344 388,345.0344 392,351.0344 396,345.0344 392,339.0344" stroke-width="1" style="fill:none;stroke:#181818;" />
      <text x="368.5906" y="406.199" textLength="22" lengthAdjust="spacing" font-family="sans-serif" font-size="13" style="fill:black;">1..1</text>
    </g>
    <g id="link_commonTechnical.default_party.sender">
      <path d="M304.5646 345.895 C273.6246 367.455 247.63 385.5644 215.5 407.9344" id="commonTechnical.default-backto-party.sender" stroke-width="1" codeLine="145" style="fill:none;stroke:#181818;" />
      <polygon points="314.41,339.0344 307.2004,339.1829 304.5646,345.895 311.7742,345.7465 314.41,339.0344" stroke-width="1" style="fill:none;stroke:#181818;" />
      <text x="202.6922" y="397.1163" textLength="22" lengthAdjust="spacing" font-family="sans-serif" font-size="13" style="fill:black;">1..1</text>
    </g>
    <g id="link_party.pensionProvider_pension.scheme">
      <path d="M980 351.0344 C980 378.3844 980 399.2244 980 425.2944" id="party.pensionProvider-backto-pension.scheme" stroke-width="1" codeLine="146" style="fill:none;stroke:#181818;" />
      <polygon points="980,339.0344 976,345.0344 980,351.0344 984,345.0344 980,339.0344" stroke-width="1" style="fill:none;stroke:#181818;" />
      <text x="941.3563" y="414.7953" textLength="36" lengthAdjust="spacing" font-family="sans-serif" font-size="13" style="fill:black;">1..999</text>
    </g>
    <g id="link_party.sender_party.contact">
      <path d="M125 548.2144 C125 573.4944 125 590.0444 125 613.2544" id="party.sender-backto-party.contact" stroke-width="1" codeLine="147" style="fill:none;stroke:#181818;" />
      <polygon points="125,536.2144 121,542.2144 125,548.2144 129,542.2144 125,536.2144" stroke-width="1" style="fill:none;stroke:#181818;" />
      <text x="101.3844" y="602.7495" textLength="22" lengthAdjust="spacing" font-family="sans-serif" font-size="13" style="fill:black;">0..9</text>
    </g>
    <g id="link_pension.cohortPool_investment.pool">
      <path d="M1158.209 735.1791 C1165.549 753.8091 1169.35 763.4944 1177.34 783.7844" id="pension.cohortPool-backto-investment.pool" stroke-width="1" codeLine="148" style="fill:none;stroke:#181818;" />
      <polygon points="1153.81,724.0144 1152.288,731.063 1158.209,735.1791 1159.731,728.1305 1153.81,724.0144" stroke-width="1" style="fill:none;stroke:#181818;" />
      <text x="1144.27" y="773.0669" textLength="29" lengthAdjust="spacing" font-family="sans-serif" font-size="13" style="fill:black;">1..99</text>
    </g>
    <g id="link_pension.scheme_financialInformation.reportingPeriod">
      <path d="M935.7754 527.8241 C912.5254 556.6441 890.11 584.4544 866.84 613.3044" id="pension.scheme-backto-financialInformation.reportingPeriod" stroke-width="1" codeLine="149" style="fill:none;stroke:#181818;" />
      <polygon points="943.31,518.4844 936.4295,520.6427 935.7754,527.8241 942.6559,525.6658 943.31,518.4844" stroke-width="1" style="fill:none;stroke:#181818;" />
      <text x="848.7968" y="602.4667" textLength="22" lengthAdjust="spacing" font-family="sans-serif" font-size="13" style="fill:black;">1..1</text>
    </g>
    <g id="link_pension.scheme_pension.cohortPool">
      <path d="M1023.953 527.8497 C1042.563 551.0797 1058 570.3544 1078.3 595.6944" id="pension.scheme-backto-pension.cohortPool" stroke-width="1" codeLine="150" style="fill:none;stroke:#181818;" />
      <polygon points="1016.45,518.4844 1017.08,525.6679 1023.953,527.8497 1023.323,520.6661 1016.45,518.4844" stroke-width="1" style="fill:none;stroke:#181818;" />
      <text x="1042.169" y="585.2994" textLength="29" lengthAdjust="spacing" font-family="sans-serif" font-size="13" style="fill:black;">1..99</text>
    </g>
    <g id="link_commonFunctional.default_ADNFUN">
      <path d="M682.5955 360.2142 C682.4755 382.5442 682.41 395.4244 682.29 416.9244" id="commonFunctional.default-backto-ADNFUN" stroke-width="1" codeLine="151" style="fill:none;stroke:#181818;" />
      <polygon points="682.66,348.2144 678.6278,354.1928 682.5955,360.2142 686.6277,354.2358 682.66,348.2144" stroke-width="1" style="fill:none;stroke:#181818;" />
      <text x="634.3055" y="405.94" textLength="45" lengthAdjust="spacing" font-family="sans-serif" font-size="13" style="fill:black;">function</text>
    </g>
    <g id="link_document.default_cdl_fileExtension_251">
      <path d="M1307.048 349.1423 C1324.548 376.4923 1339.09 399.2244 1355.77 425.2944" id="document.default-backto-cdl_fileExtension_251" stroke-width="1" codeLine="152" style="fill:none;stroke:#181818;" />
      <polygon points="1300.58,339.0344 1300.444,346.2442 1307.048,349.1423 1307.183,341.9325 1300.58,339.0344" stroke-width="1" style="fill:none;stroke:#181818;" />
      <text x="1272.042" y="414.7953" textLength="74" lengthAdjust="spacing" font-family="sans-serif" font-size="13" style="fill:black;">fileExtension</text>
    </g>
    <g id="link_investment.pool_ISOVAL">
      <path d="M1130.88 991.6796 C1114.57 1012.32 1105.47 1023.824 1091.3 1041.764" id="investment.pool-backto-ISOVAL" stroke-width="1" codeLine="153" style="fill:none;stroke:#181818;" />
      <polygon points="1138.32,982.2644 1131.462,984.492 1130.88,991.6796 1137.738,989.452 1138.32,982.2644" stroke-width="1" style="fill:none;stroke:#181818;" />
      <text x="1102.311" y="1031.039" textLength="78" lengthAdjust="spacing" font-family="sans-serif" font-size="13" style="fill:black;">currencyType</text>
    </g>
    <g id="link_investment.pool_cdl_buySellId_194">
      <path d="M1216 994.2644 C1216 1023.804 1216 1041.934 1216 1063.044" id="investment.pool-backto-cdl_buySellId_194" stroke-width="1" codeLine="154" style="fill:none;stroke:#181818;" />
      <polygon points="1216,982.2644 1212,988.2644 1216,994.2644 1220,988.2644 1216,982.2644" stroke-width="1" style="fill:none;stroke:#181818;" />
      <text x="1157.203" y="1052.431" textLength="53" lengthAdjust="spacing" font-family="sans-serif" font-size="13" style="fill:black;">buySellId</text>
    </g>
    <g id="link_party.pensionProvider_AFDIDP">
      <path d="M1053.401 346.7622 C1084.24 372.7222 1111.77 395.8844 1141.92 421.2544" id="party.pensionProvider-backto-AFDIDP" stroke-width="1" codeLine="155" style="fill:none;stroke:#181818;" />
      <polygon points="1044.22,339.0344 1046.234,345.9584 1053.401,346.7622 1051.386,339.8381 1044.22,339.0344" stroke-width="1" style="fill:none;stroke:#181818;" />
      <text x="1097.847" y="410.6295" textLength="49" lengthAdjust="spacing" font-family="sans-serif" font-size="13" style="fill:black;">puvCode</text>
    </g>
    <g id="link_pension.cohortPool_ISOVAL">
      <path d="M1093.772 735.2679 C1085.863 754.0979 1082.86 763.9944 1078 783.9844 C1056.34 873.0044 1052.01 980.2944 1051.53 1041.734" id="pension.cohortPool-backto-ISOVAL" stroke-width="1" codeLine="156" style="fill:none;stroke:#181818;" />
      <polygon points="1098.42,724.2044 1092.408,728.187 1093.772,735.2679 1099.784,731.2853 1098.42,724.2044" stroke-width="1" style="fill:none;stroke:#181818;" />
      <text x="967.9795" y="1031.005" textLength="78" lengthAdjust="spacing" font-family="sans-serif" font-size="13" style="fill:black;">currencyType</text>
    </g>
  </g>
  <title>20250630_083428-00554</title>
  <metadata>
    <rdf:RDF xmlns:rdf="http://www.w3.org/1999/02/22-rdf-syntax-ns#" xmlns:dc="http://purl.org/dc/elements/1.1/" xmlns:puv="https://github.com/Fruchtzwerg94/PlantUmlViewer">
      <puv:product>PlantUML Viewer by Philipp Schmidt</puv:product>
      <puv:version>1.7.0.11</puv:version>
      <puv:plantumlviewer>1.2024.3</puv:plantumlviewer>
      <rdf:Description>
        <dc:creator>MINISFORUMNAB6\daman</dc:creator>
        <dc:date>2025-07-03T10:49:30.4868346Z</dc:date>
        <dc:source>20250630_083428-00554.puml</dc:source>
        <dc:title>20250630_083428-00554</dc:title>
        <dc:format>image/svg</dc:format>
        <puv:diagram>1</puv:diagram>
        <puv:page>1</puv:page>
      </rdf:Description>
    </rdf:RDF>
  </metadata>
  <desc>@startuml
hide methods
set separator none

legend top left
&lt;size:20&gt;&lt;b&gt;LEGEND: &lt;/b&gt; &lt;color:red&gt;&lt;b&gt;11. Rebalancinginformatie (00554)&lt;/b&gt;&lt;/color&gt;&lt;/size&gt;
1. &lt;b&gt;Bold&lt;/b&gt; = Mandatory fields
2. &lt;i&gt;Italic&lt;/i&gt; = Optional fields
3. ..       = incomplete list (complete values on afdCodelists)
end legend

class berichtstructuur {}

class commonTechnical.default {
    {static} **entityType : string = "default"**
    {field} **messageId : string(70)**
    {field} **creationDateTime : timestamp**
    {field} &lt;i&gt;testMessage : boolean&lt;/i&gt;
}

class party.sender {
    {static} **entityType : string = "sender"**
    {field} **refKey : string(70)**
    {field} &lt;i&gt;rsinNumber : string(9)&lt;/i&gt;
    {field} **organizationName : string(60)**
    {field} &lt;i&gt;applicationSenderName : string(60)&lt;/i&gt;
}

class party.contact {
    {static} **entityType : string = "contact"**
    {field} **emailWork : string(60)**
    {field} **workPhoneNumber : string(60)**
}

class party.receiver {
    {static} **entityType : string = "receiver"**
    {field} **refKey : string(70)**
    {field} &lt;i&gt;rsinNumber : string(9)&lt;/i&gt;
    {field} **organizationName : string(60)**
}

class commonFunctional.default {
    {static} **entityType : string = "default"**
    {field} **function : string**
    {field} **afdDefinitionName : string(80)**
    {field} **afdDefinitionVersion : string(80)**
    {field} &lt;i&gt;originalMessageId : string(70)&lt;/i&gt;
}

class party.pensionProvider {
    {static} **entityType : string = "pensionProvider"**
    {field} **puvCode : string**
    {field} &lt;i&gt;rsinNumber : string(9)&lt;/i&gt;
    {field} **organizationName : string(60)**
}

class pension.scheme {
    {static} **entityType : string = "scheme"**
    {field} **refKey : string(70)**
    {field} **pensionSchemeName : string(60)**
}

class financialInformation.reportingPeriod {
    {static} **entityType : string = "reportingPeriod"**
    {field} **tradeDate : date**
    {field} **investmentOrderSettlementDate : date**
}

class pension.cohortPool {
    {static} **entityType : string = "cohortPool"**
    {field} **refKey : string(70)**
    {field} &lt;i&gt;cohortRef : string(70)&lt;/i&gt;
    {field} **description : string(60)**
    {field} **currencyType : string**
}

class investment.pool {
    {static} **entityType : string = "pool"**
    {field} **refKey : string(70)**
    {field} **description : string(60)**
    {field} **dummyCashId : string(10)**
    {field} **buySellId : string**
    {field} **tradeQuantity : decimal (1E-06)**
    {field} **unitPrice : decimal (1E-06)**
    {field} **currencyExchangeRate : decimal**
    {field} **currencyType : string**
}

class document.default {
    {static} **entityType : string = "default"**
    {field} **refKey : string(70)**
    {field} **fileName : string(60)**
    {field} **fileExtension : string**
}

class chunkMeta.default {
    {static} **entityType : string = "default"**
    {field} **currentChunkId : string(70)**
    {field} **chunkSequenceNumber : integer**
    {field} **totalNumberOfChunks : integer**
    {field} **chunkFragmentPaths : array**
}

enum ADNFUN {
    01 - Nieuw
    02 - Wijzigen
    03 - Aanmelden bestaande polis op pakket
    04 - Opzeggen
}


enum AFDIDP {
    U0003 - Fonds 1
    U0005 - Fonds 2
    ..
    U0765 - Fonds xxx
}


enum ISOVAL {
    Afghani 
    Albanese lek 
    ..
    VAE-dirham 
}


enum cdl_buySellId_194 {
    sell, buy
}


enum cdl_fileExtension_251 {
    pdf
    csv
    txt
}


berichtstructuur o-- "0..1" chunkMeta.default
berichtstructuur o-- "1..1" commonFunctional.default
berichtstructuur o-- "1..1" commonTechnical.default
berichtstructuur o-- "0..99" document.default
berichtstructuur o-- "1..1" party.pensionProvider
commonTechnical.default o-- "1..1" party.receiver
commonTechnical.default o-- "1..1" party.sender
party.pensionProvider o-- "1..999" pension.scheme
party.sender o-- "0..9" party.contact
pension.cohortPool o-- "1..99" investment.pool
pension.scheme o-- "1..1" financialInformation.reportingPeriod
pension.scheme o-- "1..99" pension.cohortPool
commonFunctional.default o-- "function" ADNFUN
document.default o-- "fileExtension" cdl_fileExtension_251
investment.pool o-- "currencyType" ISOVAL
investment.pool o-- "buySellId" cdl_buySellId_194
party.pensionProvider o-- "puvCode" AFDIDP
pension.cohortPool o-- "currencyType" ISOVAL
@enduml</desc>
</svg>