<svg xmlns="http://www.w3.org/2000/svg" xmlns:xlink="http://www.w3.org/1999/xlink" contentStyleType="text/css" data-diagram-type="CLASS" height="1226px" preserveAspectRatio="none" style="width:1961px;height:1226px;background:#FFFFFF;" version="1.1" viewBox="0 0 1961 1226" width="1961px" zoomAndPan="magnify"><defs/><g><rect fill="#DDDDDD" height="270.75" rx="7.5" ry="7.5" style="stroke:#000000;stroke-width:1;" width="615.8008" x="12" y="12"/><text fill="#000000" font-family="sans-serif" font-size="20" font-weight="bold" lengthAdjust="spacing" textLength="410.1172" x="17" y="35.5645">LEGEND Bericht 3 0001c + Chunking</text><text fill="#000000" font-family="sans-serif" font-size="18" font-weight="bold" lengthAdjust="spacing" textLength="175.8604" x="73.3994" y="56.9893">Seperate entities</text><text fill="#000000" font-family="sans-serif" font-size="14" lengthAdjust="spacing" textLength="4.4502" x="17" y="74.2295">&#160;</text><text fill="#000000" font-family="sans-serif" font-size="14" lengthAdjust="spacing" textLength="13.3574" x="17" y="90.5264">1.</text><text fill="#000000" font-family="sans-serif" font-size="14" font-weight="bold" lengthAdjust="spacing" textLength="35.1094" x="34.8076" y="90.5264">Bold</text><text fill="#000000" font-family="sans-serif" font-size="14" lengthAdjust="spacing" textLength="300.9727" x="74.3672" y="90.5264">= Mandatory fields (if parent object exists)</text><text fill="#000000" font-family="sans-serif" font-size="14" lengthAdjust="spacing" textLength="13.3574" x="17" y="106.8232">2.</text><text fill="#000000" font-family="sans-serif" font-size="14" font-style="italic" lengthAdjust="spacing" textLength="33.6738" x="34.8076" y="106.8232">Italic</text><text fill="#000000" font-family="sans-serif" font-size="14" lengthAdjust="spacing" textLength="117.3252" x="72.9316" y="106.8232">= Optional fields</text><text fill="#000000" font-family="sans-serif" font-size="14" lengthAdjust="spacing" textLength="420.3896" x="17" y="123.1201">3. ..       = incomplete list (complete values on afdCodelists)</text><text fill="#000000" font-family="sans-serif" font-size="14" lengthAdjust="spacing" textLength="13.3574" x="17" y="139.417">4.</text><text fill="#000000" font-family="sans-serif" font-size="14" font-weight="bold" lengthAdjust="spacing" textLength="59.5137" x="34.8076" y="139.417">string[]</text><text fill="#000000" font-family="sans-serif" font-size="14" lengthAdjust="spacing" textLength="124.0107" x="98.7715" y="139.417">= Array of strings</text><text fill="#000000" font-family="sans-serif" font-size="14" lengthAdjust="spacing" textLength="4.4502" x="17" y="155.7139">&#160;</text><text fill="#000000" font-family="sans-serif" font-size="18" font-weight="bold" lengthAdjust="spacing" textLength="84.252" x="17" y="175.7236">changes</text><text fill="#000000" font-family="sans-serif" font-size="18" lengthAdjust="spacing" textLength="6.0645" x="101.252" y="175.7236">:</text><text fill="#000000" font-family="sans-serif" font-size="14" lengthAdjust="spacing" textLength="605.8008" x="17" y="192.9639">- chunkMeta.default now directly contains chunkFragmentPaths as an array of strings.</text><text fill="#000000" font-family="sans-serif" font-size="14" lengthAdjust="spacing" textLength="479.3633" x="17" y="209.2607">- totalNumberOfChunks =&gt; mandatory (if chunkMeta.default exists)</text><text fill="#000000" font-family="sans-serif" font-size="14" lengthAdjust="spacing" textLength="4.4502" x="17" y="225.5576">&#160;</text><text fill="#000000" font-family="sans-serif" font-size="14" lengthAdjust="spacing" textLength="498.6816" x="17" y="241.8545">For description of codes ADNFUN, ADNDNS, AFDIDP, AFDRES a.s.o. see</text><text fill="#000000" font-family="sans-serif" font-size="14" lengthAdjust="spacing" textLength="499.0508" x="17" y="258.1514">https://www.sivi.org/sivi-afs/online-diensten/afd-2-0-online-raadplegen/</text><text fill="#000000" font-family="sans-serif" font-size="14" lengthAdjust="spacing" textLength="4.4502" x="17" y="274.4482">&#160;</text><!--class berichtstructuur--><g class="entity" data-entity="berichtstructuur" data-source-line="25" data-uid="ent0002" id="entity_berichtstructuur"><rect fill="#F1F1F1" height="40" rx="2.5" ry="2.5" style="stroke:#181818;stroke-width:0.5;" width="145.3057" x="1008.55" y="302.75"/><ellipse cx="1023.55" cy="318.75" fill="#ADD1B2" rx="11" ry="11" style="stroke:#181818;stroke-width:1;"/><path d="M1026.5188,324.3906 Q1025.9406,324.6875 1025.3,324.8281 Q1024.6594,324.9844 1023.9563,324.9844 Q1021.4563,324.9844 1020.1281,323.3438 Q1018.8156,321.6875 1018.8156,318.5625 Q1018.8156,315.4375 1020.1281,313.7813 Q1021.4563,312.125 1023.9563,312.125 Q1024.6594,312.125 1025.3,312.2813 Q1025.9563,312.4375 1026.5188,312.7344 L1026.5188,315.4531 Q1025.8938,314.875 1025.3,314.6094 Q1024.7063,314.3281 1024.0813,314.3281 Q1022.7375,314.3281 1022.05,315.4063 Q1021.3625,316.4688 1021.3625,318.5625 Q1021.3625,320.6563 1022.05,321.7344 Q1022.7375,322.7969 1024.0813,322.7969 Q1024.7063,322.7969 1025.3,322.5313 Q1025.8938,322.25 1026.5188,321.6719 L1026.5188,324.3906 Z " fill="#000000"/><text fill="#000000" font-family="sans-serif" font-size="14" lengthAdjust="spacing" textLength="113.3057" x="1037.55" y="323.5967">berichtstructuur</text><line style="stroke:#181818;stroke-width:0.5;" x1="1009.55" x2="1152.8557" y1="334.75" y2="334.75"/></g><!--class chunkMeta.default--><g class="entity" data-entity="chunkMeta.default" data-source-line="27" data-uid="ent0003" id="entity_chunkMeta.default"><rect fill="#FFCCCC" height="129.75" rx="2.5" ry="2.5" style="stroke:#FF0000;stroke-width:0.5;" width="275.3135" x="113.54" y="419.75"/><ellipse cx="181.4995" cy="439.8828" fill="#ADD1B2" rx="11" ry="11" style="stroke:#181818;stroke-width:1;"/><path d="M184.4682,445.5234 Q183.8901,445.8203 183.2495,445.9609 Q182.6088,446.1172 181.9057,446.1172 Q179.4057,446.1172 178.0776,444.4766 Q176.7651,442.8203 176.7651,439.6953 Q176.7651,436.5703 178.0776,434.9141 Q179.4057,433.2578 181.9057,433.2578 Q182.6088,433.2578 183.2495,433.4141 Q183.9057,433.5703 184.4682,433.8672 L184.4682,436.5859 Q183.8432,436.0078 183.2495,435.7422 Q182.6557,435.4609 182.0307,435.4609 Q180.687,435.4609 179.9995,436.5391 Q179.312,437.6016 179.312,439.6953 Q179.312,441.7891 179.9995,442.8672 Q180.687,443.9297 182.0307,443.9297 Q182.6557,443.9297 183.2495,443.6641 Q183.8432,443.3828 184.4682,442.8047 L184.4682,445.5234 Z " fill="#000000"/><text fill="#000000" font-family="sans-serif" font-size="12" font-style="italic" lengthAdjust="spacing" textLength="50.4258" x="242.2338" y="435.8887">&#171;nieuw&#187;</text><text fill="#000000" font-family="sans-serif" font-size="14" lengthAdjust="spacing" textLength="130.8945" x="201.9995" y="451.7139">chunkMeta.default</text><line style="stroke:#FF0000;stroke-width:0.5;" x1="114.54" x2="387.8535" y1="460.0156" y2="460.0156"/><text fill="#000000" font-family="sans-serif" font-size="14" font-weight="bold" lengthAdjust="spacing" text-decoration="underline" textLength="239.6064" x="119.54" y="477.0107">entityType : string = "default"</text><text fill="#000000" font-family="sans-serif" font-size="14" font-weight="bold" lengthAdjust="spacing" textLength="263.3135" x="119.54" y="493.3076">chunkSequenceNumber : number</text><text fill="#000000" font-family="sans-serif" font-size="14" font-weight="bold" lengthAdjust="spacing" textLength="252.041" x="119.54" y="509.6045">totalNumberOfChunks : number</text><text fill="#000000" font-family="sans-serif" font-size="14" font-weight="bold" lengthAdjust="spacing" textLength="185.0078" x="119.54" y="525.9014">currentChunkId : string</text><text fill="#000000" font-family="sans-serif" font-size="14" font-weight="bold" lengthAdjust="spacing" textLength="243.749" x="119.54" y="542.1982">chunkFragmentPaths : string[]</text></g><path d="M423.55,451.93 L423.55,475.6292 L363.289,537.3516 L423.55,483.6292 L423.55,507.3284 A0,0 0 0 0 423.55,507.3284 L624.8488,507.3284 A0,0 0 0 0 624.8488,507.3284 L624.8488,461.93 L614.8488,451.93 L423.55,451.93 A0,0 0 0 0 423.55,451.93" fill="#FEFFDD" style="stroke:#181818;stroke-width:0.5;"/><path d="M614.8488,451.93 L614.8488,461.93 L624.8488,461.93 L614.8488,451.93" fill="#FEFFDD" style="stroke:#181818;stroke-width:0.5;"/><text fill="#000000" font-family="sans-serif" font-size="13" lengthAdjust="spacing" textLength="180.2988" x="429.55" y="468.9969">If chunkMeta.default exists,</text><text fill="#000000" font-family="sans-serif" font-size="13" lengthAdjust="spacing" textLength="172.2183" x="429.55" y="484.1297">this is an array of 1 to 100</text><text fill="#000000" font-family="sans-serif" font-size="13" lengthAdjust="spacing" textLength="113.0137" x="429.55" y="499.2625">JMESPath strings.</text><!--class commonTechnical.default--><g class="entity" data-entity="commonTechnical.default" data-source-line="40" data-uid="ent0006" id="entity_commonTechnical.default"><rect fill="#F1F1F1" height="105.1875" rx="2.5" ry="2.5" style="stroke:#181818;stroke-width:0.5;" width="251.6064" x="659.4" y="432.03"/><ellipse cx="691.6151" cy="448.03" fill="#ADD1B2" rx="11" ry="11" style="stroke:#181818;stroke-width:1;"/><path d="M694.5839,453.6706 Q694.0058,453.9675 693.3651,454.1081 Q692.7245,454.2644 692.0214,454.2644 Q689.5214,454.2644 688.1933,452.6238 Q686.8808,450.9675 686.8808,447.8425 Q686.8808,444.7175 688.1933,443.0613 Q689.5214,441.405 692.0214,441.405 Q692.7245,441.405 693.3651,441.5613 Q694.0214,441.7175 694.5839,442.0144 L694.5839,444.7331 Q693.9589,444.155 693.3651,443.8894 Q692.7714,443.6081 692.1464,443.6081 Q690.8026,443.6081 690.1151,444.6863 Q689.4276,445.7488 689.4276,447.8425 Q689.4276,449.9363 690.1151,451.0144 Q690.8026,452.0769 692.1464,452.0769 Q692.7714,452.0769 693.3651,451.8113 Q693.9589,451.53 694.5839,450.9519 L694.5839,453.6706 Z " fill="#000000"/><text fill="#000000" font-family="sans-serif" font-size="14" lengthAdjust="spacing" textLength="181.3506" x="709.4407" y="452.8767">commonTechnical.default</text><line style="stroke:#181818;stroke-width:0.5;" x1="660.4" x2="910.0064" y1="464.03" y2="464.03"/><text fill="#000000" font-family="sans-serif" font-size="14" font-weight="bold" lengthAdjust="spacing" text-decoration="underline" textLength="239.6064" x="665.4" y="481.0251">entityType : string = "default"</text><text fill="#000000" font-family="sans-serif" font-size="14" font-weight="bold" lengthAdjust="spacing" textLength="179.2861" x="665.4" y="497.322">messageId : string(70)</text><text fill="#000000" font-family="sans-serif" font-size="14" font-weight="bold" lengthAdjust="spacing" textLength="227.4863" x="665.4" y="513.6189">creationDateTime : datetime</text><text fill="#000000" font-family="sans-serif" font-size="14" font-style="italic" lengthAdjust="spacing" textLength="157.835" x="665.4" y="529.9157">testMessage : boolean</text></g><!--class party.sender--><g class="entity" data-entity="party.sender" data-source-line="47" data-uid="ent0007" id="entity_party.sender"><rect fill="#F1F1F1" height="121.4844" rx="2.5" ry="2.5" style="stroke:#181818;stroke-width:0.5;" width="262.7012" x="542.85" y="631.29"/><ellipse cx="625.2094" cy="647.29" fill="#ADD1B2" rx="11" ry="11" style="stroke:#181818;stroke-width:1;"/><path d="M628.1781,652.9306 Q627.6,653.2275 626.9594,653.3681 Q626.3188,653.5244 625.6156,653.5244 Q623.1156,653.5244 621.7875,651.8838 Q620.475,650.2275 620.475,647.1025 Q620.475,643.9775 621.7875,642.3213 Q623.1156,640.665 625.6156,640.665 Q626.3188,640.665 626.9594,640.8213 Q627.6156,640.9775 628.1781,641.2744 L628.1781,643.9931 Q627.5531,643.415 626.9594,643.1494 Q626.3656,642.8681 625.7406,642.8681 Q624.3969,642.8681 623.7094,643.9463 Q623.0219,645.0088 623.0219,647.1025 Q623.0219,649.1963 623.7094,650.2744 Q624.3969,651.3369 625.7406,651.3369 Q626.3656,651.3369 626.9594,651.0713 Q627.5531,650.79 628.1781,650.2119 L628.1781,652.9306 Z " fill="#000000"/><text fill="#000000" font-family="sans-serif" font-size="14" lengthAdjust="spacing" textLength="89.4824" x="645.7094" y="652.1367">party.sender</text><line style="stroke:#181818;stroke-width:0.5;" x1="543.85" x2="804.5512" y1="663.29" y2="663.29"/><text fill="#000000" font-family="sans-serif" font-size="14" font-weight="bold" lengthAdjust="spacing" text-decoration="underline" textLength="237.3096" x="548.85" y="680.2851">entityType : string = "sender"</text><text fill="#000000" font-family="sans-serif" font-size="14" font-weight="bold" lengthAdjust="spacing" textLength="146.3027" x="548.85" y="696.582">refKey : string(70)</text><text fill="#000000" font-family="sans-serif" font-size="14" font-style="italic" lengthAdjust="spacing" textLength="155.6885" x="548.85" y="712.8789">rsinNumber : string(9)</text><text fill="#000000" font-family="sans-serif" font-size="14" font-weight="bold" lengthAdjust="spacing" textLength="239.0186" x="548.85" y="729.1757">organizationName : string(60)</text><text fill="#000000" font-family="sans-serif" font-size="14" font-style="italic" lengthAdjust="spacing" textLength="250.7012" x="548.85" y="745.4726">applicationSenderName : string(60)</text></g><!--class party.contact--><g class="entity" data-entity="party.contact" data-source-line="55" data-uid="ent0008" id="entity_party.contact"><rect fill="#F1F1F1" height="88.8906" rx="2.5" ry="2.5" style="stroke:#181818;stroke-width:0.5;" width="257.1094" x="545.65" y="883.45"/><ellipse cx="623.0362" cy="899.45" fill="#ADD1B2" rx="11" ry="11" style="stroke:#181818;stroke-width:1;"/><path d="M626.005,905.0906 Q625.4269,905.3875 624.7862,905.5281 Q624.1456,905.6844 623.4425,905.6844 Q620.9425,905.6844 619.6144,904.0438 Q618.3019,902.3875 618.3019,899.2625 Q618.3019,896.1375 619.6144,894.4813 Q620.9425,892.825 623.4425,892.825 Q624.1456,892.825 624.7862,892.9813 Q625.4425,893.1375 626.005,893.4344 L626.005,896.1531 Q625.38,895.575 624.7862,895.3094 Q624.1925,895.0281 623.5675,895.0281 Q622.2237,895.0281 621.5362,896.1063 Q620.8487,897.1688 620.8487,899.2625 Q620.8487,901.3563 621.5362,902.4344 Q622.2237,903.4969 623.5675,903.4969 Q624.1925,903.4969 624.7862,903.2313 Q625.38,902.95 626.005,902.3719 L626.005,905.0906 Z " fill="#000000"/><text fill="#000000" font-family="sans-serif" font-size="14" lengthAdjust="spacing" textLength="93.8369" x="643.5362" y="904.2967">party.contact</text><line style="stroke:#181818;stroke-width:0.5;" x1="546.65" x2="801.7594" y1="915.45" y2="915.45"/><text fill="#000000" font-family="sans-serif" font-size="14" font-weight="bold" lengthAdjust="spacing" text-decoration="underline" textLength="242.1084" x="551.65" y="932.4451">entityType : string = "contact"</text><text fill="#000000" font-family="sans-serif" font-size="14" font-weight="bold" lengthAdjust="spacing" textLength="178.7461" x="551.65" y="948.742">emailWork : string(60)</text><text fill="#000000" font-family="sans-serif" font-size="14" font-weight="bold" lengthAdjust="spacing" textLength="245.1094" x="551.65" y="965.0389">workPhoneNumber : string(60)</text></g><!--class party.receiver--><g class="entity" data-entity="party.receiver" data-source-line="61" data-uid="ent0009" id="entity_party.receiver"><rect fill="#F1F1F1" height="105.1875" rx="2.5" ry="2.5" style="stroke:#181818;stroke-width:0.5;" width="259.6113" x="840.4" y="639.44"/><ellipse cx="916.6207" cy="655.44" fill="#ADD1B2" rx="11" ry="11" style="stroke:#181818;stroke-width:1;"/><path d="M919.5895,661.0806 Q919.0113,661.3775 918.3707,661.5181 Q917.7301,661.6744 917.027,661.6744 Q914.527,661.6744 913.1988,660.0338 Q911.8863,658.3775 911.8863,655.2525 Q911.8863,652.1275 913.1988,650.4713 Q914.527,648.815 917.027,648.815 Q917.7301,648.815 918.3707,648.9713 Q919.027,649.1275 919.5895,649.4244 L919.5895,652.1431 Q918.9645,651.565 918.3707,651.2994 Q917.777,651.0181 917.152,651.0181 Q915.8082,651.0181 915.1207,652.0963 Q914.4332,653.1588 914.4332,655.2525 Q914.4332,657.3463 915.1207,658.4244 Q915.8082,659.4869 917.152,659.4869 Q917.777,659.4869 918.3707,659.2213 Q918.9645,658.94 919.5895,658.3619 L919.5895,661.0806 Z " fill="#000000"/><text fill="#000000" font-family="sans-serif" font-size="14" lengthAdjust="spacing" textLength="98.6699" x="937.1207" y="660.2867">party.receiver</text><line style="stroke:#181818;stroke-width:0.5;" x1="841.4" x2="1099.0113" y1="671.44" y2="671.44"/><text fill="#000000" font-family="sans-serif" font-size="14" font-weight="bold" lengthAdjust="spacing" text-decoration="underline" textLength="247.6113" x="846.4" y="688.4351">entityType : string = "receiver"</text><text fill="#000000" font-family="sans-serif" font-size="14" font-weight="bold" lengthAdjust="spacing" textLength="146.3027" x="846.4" y="704.732">refKey : string(70)</text><text fill="#000000" font-family="sans-serif" font-size="14" font-style="italic" lengthAdjust="spacing" textLength="155.6885" x="846.4" y="721.0289">rsinNumber : string(9)</text><text fill="#000000" font-family="sans-serif" font-size="14" font-weight="bold" lengthAdjust="spacing" textLength="239.0186" x="846.4" y="737.3257">organizationName : string(60)</text></g><!--class commonFunctional.default--><g class="entity" data-entity="commonFunctional.default" data-source-line="68" data-uid="ent0010" id="entity_commonFunctional.default"><rect fill="#F1F1F1" height="121.4844" rx="2.5" ry="2.5" style="stroke:#181818;stroke-width:0.5;" width="269.7012" x="946.35" y="423.88"/><ellipse cx="983.9546" cy="439.88" fill="#ADD1B2" rx="11" ry="11" style="stroke:#181818;stroke-width:1;"/><path d="M986.9233,445.5206 Q986.3452,445.8175 985.7046,445.9581 Q985.064,446.1144 984.3608,446.1144 Q981.8608,446.1144 980.5327,444.4738 Q979.2202,442.8175 979.2202,439.6925 Q979.2202,436.5675 980.5327,434.9113 Q981.8608,433.255 984.3608,433.255 Q985.064,433.255 985.7046,433.4113 Q986.3608,433.5675 986.9233,433.8644 L986.9233,436.5831 Q986.2983,436.005 985.7046,435.7394 Q985.1108,435.4581 984.4858,435.4581 Q983.1421,435.4581 982.4546,436.5363 Q981.7671,437.5988 981.7671,439.6925 Q981.7671,441.7863 982.4546,442.8644 Q983.1421,443.9269 984.4858,443.9269 Q985.1108,443.9269 985.7046,443.6613 Q986.2983,443.38 986.9233,442.8019 L986.9233,445.5206 Z " fill="#000000"/><text fill="#000000" font-family="sans-serif" font-size="14" lengthAdjust="spacing" textLength="187.4688" x="1002.9778" y="444.7267">commonFunctional.default</text><line style="stroke:#181818;stroke-width:0.5;" x1="947.35" x2="1215.0512" y1="455.88" y2="455.88"/><text fill="#000000" font-family="sans-serif" font-size="14" font-weight="bold" lengthAdjust="spacing" text-decoration="underline" textLength="239.6064" x="952.35" y="472.8751">entityType : string = "default"</text><text fill="#000000" font-family="sans-serif" font-size="14" font-weight="bold" lengthAdjust="spacing" textLength="147.5674" x="952.35" y="489.172">function : ADNFUN</text><text fill="#000000" font-family="sans-serif" font-size="14" font-weight="bold" lengthAdjust="spacing" textLength="242.9971" x="952.35" y="505.4689">afdDefinitionName : string(80)</text><text fill="#000000" font-family="sans-serif" font-size="14" font-weight="bold" lengthAdjust="spacing" textLength="257.7012" x="952.35" y="521.7657">afdDefinitionVersion : string(80)</text><text fill="#000000" font-family="sans-serif" font-size="14" font-style="italic" lengthAdjust="spacing" textLength="209.248" x="952.35" y="538.0626">originalMessageId : string(70)</text></g><!--class party.pensionProvider--><g class="entity" data-entity="party.pensionProvider" data-source-line="76" data-uid="ent0011" id="entity_party.pensionProvider"><rect fill="#F1F1F1" height="105.1875" rx="2.5" ry="2.5" style="stroke:#181818;stroke-width:0.5;" width="319.5488" x="1251.43" y="432.03"/><ellipse cx="1329.6365" cy="448.03" fill="#ADD1B2" rx="11" ry="11" style="stroke:#181818;stroke-width:1;"/><path d="M1332.6053,453.6706 Q1332.0272,453.9675 1331.3865,454.1081 Q1330.7459,454.2644 1330.0428,454.2644 Q1327.5428,454.2644 1326.2147,452.6238 Q1324.9022,450.9675 1324.9022,447.8425 Q1324.9022,444.7175 1326.2147,443.0613 Q1327.5428,441.405 1330.0428,441.405 Q1330.7459,441.405 1331.3865,441.5613 Q1332.0428,441.7175 1332.6053,442.0144 L1332.6053,444.7331 Q1331.9803,444.155 1331.3865,443.8894 Q1330.7928,443.6081 1330.1678,443.6081 Q1328.824,443.6081 1328.1365,444.6863 Q1327.449,445.7488 1327.449,447.8425 Q1327.449,449.9363 1328.1365,451.0144 Q1328.824,452.0769 1330.1678,452.0769 Q1330.7928,452.0769 1331.3865,451.8113 Q1331.9803,451.53 1332.6053,450.9519 L1332.6053,453.6706 Z " fill="#000000"/><text fill="#000000" font-family="sans-serif" font-size="14" lengthAdjust="spacing" textLength="154.6357" x="1350.1365" y="452.8767">party.pensionProvider</text><line style="stroke:#181818;stroke-width:0.5;" x1="1252.43" x2="1569.9788" y1="464.03" y2="464.03"/><text fill="#000000" font-family="sans-serif" font-size="14" font-weight="bold" lengthAdjust="spacing" text-decoration="underline" textLength="307.5488" x="1257.43" y="481.0251">entityType: string = "pensionProvider"</text><text fill="#000000" font-family="sans-serif" font-size="14" font-weight="bold" lengthAdjust="spacing" textLength="130.5869" x="1257.43" y="497.322">puvCode : string</text><text fill="#000000" font-family="sans-serif" font-size="14" font-style="italic" lengthAdjust="spacing" textLength="155.6885" x="1257.43" y="513.6189">rsinNumber : string(9)</text><text fill="#000000" font-family="sans-serif" font-size="14" font-weight="bold" lengthAdjust="spacing" textLength="239.0186" x="1257.43" y="529.9157">organizationName : string(60)</text></g><!--class pension.scheme--><g class="entity" data-entity="pension.scheme" data-source-line="83" data-uid="ent0012" id="entity_pension.scheme"><rect fill="#F1F1F1" height="88.8906" rx="2.5" ry="2.5" style="stroke:#181818;stroke-width:0.5;" width="275.7168" x="1273.34" y="647.59"/><ellipse cx="1349.8615" cy="663.59" fill="#ADD1B2" rx="11" ry="11" style="stroke:#181818;stroke-width:1;"/><path d="M1352.8302,669.2306 Q1352.2521,669.5275 1351.6115,669.6681 Q1350.9709,669.8244 1350.2677,669.8244 Q1347.7677,669.8244 1346.4396,668.1838 Q1345.1271,666.5275 1345.1271,663.4025 Q1345.1271,660.2775 1346.4396,658.6213 Q1347.7677,656.965 1350.2677,656.965 Q1350.9709,656.965 1351.6115,657.1213 Q1352.2677,657.2775 1352.8302,657.5744 L1352.8302,660.2931 Q1352.2052,659.715 1351.6115,659.4494 Q1351.0177,659.1681 1350.3927,659.1681 Q1349.049,659.1681 1348.3615,660.2463 Q1347.674,661.3088 1347.674,663.4025 Q1347.674,665.4963 1348.3615,666.5744 Q1349.049,667.6369 1350.3927,667.6369 Q1351.0177,667.6369 1351.6115,667.3713 Q1352.2052,667.09 1352.8302,666.5119 L1352.8302,669.2306 Z " fill="#000000"/><text fill="#000000" font-family="sans-serif" font-size="14" lengthAdjust="spacing" textLength="114.1738" x="1370.3615" y="668.4367">pension.scheme</text><line style="stroke:#181818;stroke-width:0.5;" x1="1274.34" x2="1548.0568" y1="679.59" y2="679.59"/><text fill="#000000" font-family="sans-serif" font-size="14" font-weight="bold" lengthAdjust="spacing" text-decoration="underline" textLength="228.6826" x="1279.34" y="696.5851">entityType : string = scheme</text><text fill="#000000" font-family="sans-serif" font-size="14" font-weight="bold" lengthAdjust="spacing" textLength="146.3027" x="1279.34" y="712.882">refKey : string(70)</text><text fill="#000000" font-family="sans-serif" font-size="14" font-weight="bold" lengthAdjust="spacing" textLength="263.7168" x="1279.34" y="729.1789">pensionSchemeName : string(60)</text></g><!--class financialInformation.reportingPeriod--><g class="entity" data-entity="financialInformation.reportingPeriod" data-source-line="89" data-uid="ent0013" id="entity_financialInformation.reportingPeriod"><rect fill="#F1F1F1" height="72.5938" rx="2.5" ry="2.5" style="stroke:#181818;stroke-width:0.5;" width="320.6152" x="848.89" y="891.6"/><ellipse cx="879.5547" cy="907.6" fill="#ADD1B2" rx="11" ry="11" style="stroke:#181818;stroke-width:1;"/><path d="M882.5235,913.2406 Q881.9454,913.5375 881.3047,913.6781 Q880.6641,913.8344 879.961,913.8344 Q877.461,913.8344 876.1329,912.1938 Q874.8204,910.5375 874.8204,907.4125 Q874.8204,904.2875 876.1329,902.6313 Q877.461,900.975 879.961,900.975 Q880.6641,900.975 881.3047,901.1313 Q881.961,901.2875 882.5235,901.5844 L882.5235,904.3031 Q881.8985,903.725 881.3047,903.4594 Q880.711,903.1781 880.086,903.1781 Q878.7422,903.1781 878.0547,904.2563 Q877.3672,905.3188 877.3672,907.4125 Q877.3672,909.5063 878.0547,910.5844 Q878.7422,911.6469 880.086,911.6469 Q880.711,911.6469 881.3047,911.3813 Q881.8985,911.1 882.5235,910.5219 L882.5235,913.2406 Z " fill="#000000"/><text fill="#000000" font-family="sans-serif" font-size="14" lengthAdjust="spacing" textLength="253.8047" x="897.0358" y="912.4467">financialInformation.reportingPeriod</text><line style="stroke:#181818;stroke-width:0.5;" x1="849.89" x2="1168.5052" y1="923.6" y2="923.6"/><text fill="#000000" font-family="sans-serif" font-size="14" font-weight="bold" lengthAdjust="spacing" text-decoration="underline" textLength="308.6152" x="854.89" y="940.5951">entityType : string = "reportingPeriod"</text><text fill="#000000" font-family="sans-serif" font-size="14" font-weight="bold" lengthAdjust="spacing" textLength="168.4717" x="854.89" y="956.892">projectionDate : date</text></g><!--class financialTransaction.payment--><g class="entity" data-entity="financialTransaction.payment" data-source-line="94" data-uid="ent0014" id="entity_financialTransaction.payment"><rect fill="#F1F1F1" height="121.4844" rx="2.5" ry="2.5" style="stroke:#181818;stroke-width:0.5;" width="414.1172" x="1204.14" y="867.16"/><ellipse cx="1302.868" cy="883.16" fill="#ADD1B2" rx="11" ry="11" style="stroke:#181818;stroke-width:1;"/><path d="M1305.8368,888.8006 Q1305.2587,889.0975 1304.618,889.2381 Q1303.9774,889.3944 1303.2743,889.3944 Q1300.7743,889.3944 1299.4462,887.7538 Q1298.1337,886.0975 1298.1337,882.9725 Q1298.1337,879.8475 1299.4462,878.1913 Q1300.7743,876.535 1303.2743,876.535 Q1303.9774,876.535 1304.618,876.6913 Q1305.2743,876.8475 1305.8368,877.1444 L1305.8368,879.8631 Q1305.2118,879.285 1304.618,879.0194 Q1304.0243,878.7381 1303.3993,878.7381 Q1302.0555,878.7381 1301.368,879.8163 Q1300.6805,880.8788 1300.6805,882.9725 Q1300.6805,885.0663 1301.368,886.1444 Q1302.0555,887.2069 1303.3993,887.2069 Q1304.0243,887.2069 1304.618,886.9413 Q1305.2118,886.66 1305.8368,886.0819 L1305.8368,888.8006 Z " fill="#000000"/><text fill="#000000" font-family="sans-serif" font-size="14" lengthAdjust="spacing" textLength="208.1611" x="1323.368" y="888.0067">financialTransaction.payment</text><line style="stroke:#181818;stroke-width:0.5;" x1="1205.14" x2="1617.2572" y1="899.16" y2="899.16"/><text fill="#000000" font-family="sans-serif" font-size="14" font-weight="bold" lengthAdjust="spacing" text-decoration="underline" textLength="237.8428" x="1210.14" y="916.1551">entityType : string = payment</text><text fill="#000000" font-family="sans-serif" font-size="14" font-weight="bold" lengthAdjust="spacing" textLength="146.3027" x="1210.14" y="932.452">refKey : string(70)</text><text fill="#000000" font-family="sans-serif" font-size="14" font-weight="bold" lengthAdjust="spacing" textLength="292.8242" x="1210.14" y="948.7489">expectedPensionPaymentDate : date</text><text fill="#000000" font-family="sans-serif" font-size="14" font-weight="bold" lengthAdjust="spacing" textLength="137.0742" x="1210.14" y="965.0457">amount : decimal</text><text fill="#000000" font-family="sans-serif" font-size="14" font-weight="bold" lengthAdjust="spacing" textLength="402.1172" x="1210.14" y="981.3426">hedgedExpectedPensionPaymentAmount : decimal</text></g><!--class financialTransaction.payment_2--><g class="entity" data-entity="financialTransaction.payment_2" data-source-line="102" data-uid="ent0015" id="entity_financialTransaction.payment_2"><rect fill="#F1F1F1" height="121.4844" rx="2.5" ry="2.5" style="stroke:#181818;stroke-width:0.5;" width="370.374" x="1584.01" y="1098.24"/><ellipse cx="1652.9128" cy="1114.24" fill="#ADD1B2" rx="11" ry="11" style="stroke:#181818;stroke-width:1;"/><path d="M1655.8816,1119.8806 Q1655.3035,1120.1775 1654.6628,1120.3181 Q1654.0222,1120.4744 1653.3191,1120.4744 Q1650.8191,1120.4744 1649.491,1118.8338 Q1648.1785,1117.1775 1648.1785,1114.0525 Q1648.1785,1110.9275 1649.491,1109.2713 Q1650.8191,1107.615 1653.3191,1107.615 Q1654.0222,1107.615 1654.6628,1107.7713 Q1655.3191,1107.9275 1655.8816,1108.2244 L1655.8816,1110.9431 Q1655.2566,1110.365 1654.6628,1110.0994 Q1654.0691,1109.8181 1653.4441,1109.8181 Q1652.1003,1109.8181 1651.4128,1110.8963 Q1650.7253,1111.9588 1650.7253,1114.0525 Q1650.7253,1116.1463 1651.4128,1117.2244 Q1652.1003,1118.2869 1653.4441,1118.2869 Q1654.0691,1118.2869 1654.6628,1118.0213 Q1655.2566,1117.74 1655.8816,1117.1619 L1655.8816,1119.8806 Z " fill="#000000"/><text fill="#000000" font-family="sans-serif" font-size="14" lengthAdjust="spacing" textLength="224.0684" x="1673.4128" y="1119.0867">financialTransaction.payment_2</text><line style="stroke:#181818;stroke-width:0.5;" x1="1585.01" x2="1953.384" y1="1130.24" y2="1130.24"/><text fill="#000000" font-family="sans-serif" font-size="14" font-weight="bold" lengthAdjust="spacing" text-decoration="underline" textLength="237.8428" x="1590.01" y="1147.2351">entityType : string = payment</text><text fill="#000000" font-family="sans-serif" font-size="14" font-weight="bold" lengthAdjust="spacing" textLength="146.3027" x="1590.01" y="1163.532">refKey : string(70)</text><text fill="#000000" font-family="sans-serif" font-size="14" font-weight="bold" lengthAdjust="spacing" textLength="292.8242" x="1590.01" y="1179.8289">expectedPensionPaymentDate : date</text><text fill="#000000" font-family="sans-serif" font-size="14" font-weight="bold" lengthAdjust="spacing" textLength="137.0742" x="1590.01" y="1196.1257">amount : decimal</text><text fill="#000000" font-family="sans-serif" font-size="14" font-style="italic" lengthAdjust="spacing" textLength="358.374" x="1590.01" y="1212.4226">hedgedExpectedPensionPaymentAmount : decimal</text></g><!--class pension.cohort--><g class="entity" data-entity="pension.cohort" data-source-line="110" data-uid="ent0016" id="entity_pension.cohort"><rect fill="#F1F1F1" height="186.6719" rx="2.5" ry="2.5" style="stroke:#181818;stroke-width:0.5;" width="231.6045" x="1653.4" y="834.56"/><ellipse cx="1712.7564" cy="850.56" fill="#ADD1B2" rx="11" ry="11" style="stroke:#181818;stroke-width:1;"/><path d="M1715.7252,856.2006 Q1715.1471,856.4975 1714.5064,856.6381 Q1713.8658,856.7944 1713.1627,856.7944 Q1710.6627,856.7944 1709.3346,855.1538 Q1708.0221,853.4975 1708.0221,850.3725 Q1708.0221,847.2475 1709.3346,845.5913 Q1710.6627,843.935 1713.1627,843.935 Q1713.8658,843.935 1714.5064,844.0913 Q1715.1627,844.2475 1715.7252,844.5444 L1715.7252,847.2631 Q1715.1002,846.685 1714.5064,846.4194 Q1713.9127,846.1381 1713.2877,846.1381 Q1711.9439,846.1381 1711.2564,847.2163 Q1710.5689,848.2788 1710.5689,850.3725 Q1710.5689,852.4663 1711.2564,853.5444 Q1711.9439,854.6069 1713.2877,854.6069 Q1713.9127,854.6069 1714.5064,854.3413 Q1715.1002,854.06 1715.7252,853.4819 L1715.7252,856.2006 Z " fill="#000000"/><text fill="#000000" font-family="sans-serif" font-size="14" lengthAdjust="spacing" textLength="104.3916" x="1733.2564" y="855.4067">pension.cohort</text><line style="stroke:#181818;stroke-width:0.5;" x1="1654.4" x2="1884.0045" y1="866.56" y2="866.56"/><text fill="#000000" font-family="sans-serif" font-size="14" font-weight="bold" lengthAdjust="spacing" text-decoration="underline" textLength="219.6045" x="1659.4" y="883.5551">entityType : string = cohort</text><text fill="#000000" font-family="sans-serif" font-size="14" font-weight="bold" lengthAdjust="spacing" textLength="146.3027" x="1659.4" y="899.852">refKey : string(70)</text><text fill="#000000" font-family="sans-serif" font-size="14" font-weight="bold" lengthAdjust="spacing" textLength="183.292" x="1659.4" y="916.1489">description : string(60)</text><text fill="#000000" font-family="sans-serif" font-size="14" font-style="italic" lengthAdjust="spacing" textLength="186.8877" x="1659.4" y="932.4457">participationStatus : string</text><text fill="#000000" font-family="sans-serif" font-size="14" font-style="italic" lengthAdjust="spacing" textLength="127.9414" x="1659.4" y="948.7426">startAge : number</text><text fill="#000000" font-family="sans-serif" font-size="14" font-style="italic" lengthAdjust="spacing" textLength="121.707" x="1659.4" y="965.0395">endAge : number</text><text fill="#000000" font-family="sans-serif" font-size="14" font-weight="bold" lengthAdjust="spacing" textLength="209.0225" x="1659.4" y="981.3364">reserveIndicator : boolean</text><text fill="#000000" font-family="sans-serif" font-size="14" font-style="italic" lengthAdjust="spacing" textLength="141.0732" x="1659.4" y="997.6332">reserveType : string</text><text fill="#000000" font-family="sans-serif" font-size="14" font-style="italic" lengthAdjust="spacing" textLength="215.209" x="1659.4" y="1013.9301">reserveDescription : string(60)</text></g><!--class document.default--><g class="entity" data-entity="document.default" data-source-line="122" data-uid="ent0017" id="entity_document.default"><rect fill="#F1F1F1" height="105.1875" rx="2.5" ry="2.5" style="stroke:#181818;stroke-width:0.5;" width="251.6064" x="1606.4" y="432.03"/><ellipse cx="1665.7804" cy="448.03" fill="#ADD1B2" rx="11" ry="11" style="stroke:#181818;stroke-width:1;"/><path d="M1668.7491,453.6706 Q1668.171,453.9675 1667.5304,454.1081 Q1666.8897,454.2644 1666.1866,454.2644 Q1663.6866,454.2644 1662.3585,452.6238 Q1661.046,450.9675 1661.046,447.8425 Q1661.046,444.7175 1662.3585,443.0613 Q1663.6866,441.405 1666.1866,441.405 Q1666.8897,441.405 1667.5304,441.5613 Q1668.1866,441.7175 1668.7491,442.0144 L1668.7491,444.7331 Q1668.1241,444.155 1667.5304,443.8894 Q1666.9366,443.6081 1666.3116,443.6081 Q1664.9679,443.6081 1664.2804,444.6863 Q1663.5929,445.7488 1663.5929,447.8425 Q1663.5929,449.9363 1664.2804,451.0144 Q1664.9679,452.0769 1666.3116,452.0769 Q1666.9366,452.0769 1667.5304,451.8113 Q1668.1241,451.53 1668.7491,450.9519 L1668.7491,453.6706 Z " fill="#000000"/><text fill="#000000" font-family="sans-serif" font-size="14" lengthAdjust="spacing" textLength="124.3457" x="1686.2804" y="452.8767">document.default</text><line style="stroke:#181818;stroke-width:0.5;" x1="1607.4" x2="1857.0064" y1="464.03" y2="464.03"/><text fill="#000000" font-family="sans-serif" font-size="14" font-weight="bold" lengthAdjust="spacing" text-decoration="underline" textLength="239.6064" x="1612.4" y="481.0251">entityType : string = "default"</text><text fill="#000000" font-family="sans-serif" font-size="14" font-weight="bold" lengthAdjust="spacing" textLength="146.3027" x="1612.4" y="497.322">refKey : string(70)</text><text fill="#000000" font-family="sans-serif" font-size="14" font-weight="bold" lengthAdjust="spacing" textLength="164.7734" x="1612.4" y="513.6189">fileName : string(60)</text><text fill="#000000" font-family="sans-serif" font-size="14" font-weight="bold" lengthAdjust="spacing" textLength="164.7119" x="1612.4" y="529.9157">fileExtension : string</text></g><g class="entity" data-entity="GMN31" data-source-line="146" data-uid="ent0032" id="entity_GMN31"><path d="M6,626.5 L6,757.5625 A0,0 0 0 0 6,757.5625 L496.4028,757.5625 A0,0 0 0 0 496.4028,757.5625 L496.4028,636.5 L486.4028,626.5 L255.2,626.5 L251.2,549.77 L247.2,626.5 L6,626.5 A0,0 0 0 0 6,626.5" fill="#FEFFDD" style="stroke:#181818;stroke-width:0.5;"/><path d="M486.4028,626.5 L486.4028,636.5 L496.4028,636.5 L486.4028,626.5" fill="#FEFFDD" style="stroke:#181818;stroke-width:0.5;"/><text fill="#000000" font-family="sans-serif" font-size="13" lengthAdjust="spacing" textLength="376.0288" x="12" y="643.5669">If chunking is used (this chunkMeta.default object exists),</text><text fill="#000000" font-family="sans-serif" font-size="13" font-weight="bold" lengthAdjust="spacing" textLength="156.8252" x="12" y="658.6997">chunkFragmentPaths</text><text fill="#000000" font-family="sans-serif" font-size="13" lengthAdjust="spacing" textLength="308.4453" x="172.9575" y="658.6997">refers to the message parts for which chunking</text><text fill="#000000" font-family="sans-serif" font-size="13" lengthAdjust="spacing" textLength="298.4922" x="12" y="673.8325">is applicable using JMESPath (1 to 100 paths).</text><text fill="#000000" font-family="sans-serif" font-size="13" lengthAdjust="spacing" text-decoration="underline" textLength="382.313" x="12" y="688.9653">The rest of the message should be treated as non-existent</text><text fill="#000000" font-family="sans-serif" font-size="13" lengthAdjust="spacing" textLength="309.9624" x="12" y="704.0981">for the purpose of this specific chunk's content.</text><text fill="#000000" font-family="sans-serif" font-size="13" lengthAdjust="spacing" textLength="465.5752" x="12" y="719.231">We could agree that at most one message (chunk) would have the root</text><text fill="#000000" font-family="sans-serif" font-size="13" lengthAdjust="spacing" textLength="416.0127" x="12" y="734.3638">as the relevant part and the rest of the messages (chunks) only</text><text fill="#000000" font-family="sans-serif" font-size="13" lengthAdjust="spacing" textLength="205.6133" x="12" y="749.4966">the subtrees we want to chunk.</text></g><!--reverse link berichtstructuur to chunkMeta.default--><g class="link" data-entity-1="berichtstructuur" data-entity-2="chunkMeta.default" data-source-line="130" data-uid="lnk18" id="link_berichtstructuur_chunkMeta.default"><path codeLine="130" d="M996.0999,329.0072 C870.9199,337.8672 620.33,361.39 406.2,419.75 C400.59,421.28 394.9,422.96 389.19,424.76" fill="none" id="berichtstructuur-backto-chunkMeta.default" style="stroke:#181818;stroke-width:1;"/><polygon fill="none" points="1008.07,328.16,1001.8026,324.5936,996.0999,329.0072,1002.3674,332.5736,1008.07,328.16" style="stroke:#181818;stroke-width:1;"/><text fill="#000000" font-family="sans-serif" font-size="13" lengthAdjust="spacing" textLength="158.7422" x="608.23" y="385.8169">' chunkMeta is optioneel</text><text fill="#000000" font-family="sans-serif" font-size="13" lengthAdjust="spacing" textLength="24.8066" x="975.7294" y="325.0277">0..1</text></g><!--reverse link berichtstructuur to commonTechnical.default--><g class="link" data-entity-1="berichtstructuur" data-entity-2="commonTechnical.default" data-source-line="132" data-uid="lnk19" id="link_berichtstructuur_commonTechnical.default"><path codeLine="132" d="M1034.6414,348.9023 C994.2014,370.7423 937.44,401.4 881.44,431.65" fill="none" id="berichtstructuur-backto-commonTechnical.default" style="stroke:#181818;stroke-width:1;"/><polygon fill="none" points="1045.2,343.2,1038.0199,342.5316,1034.6414,348.9023,1041.8215,349.5707,1045.2,343.2" style="stroke:#181818;stroke-width:1;"/><text fill="#000000" font-family="sans-serif" font-size="13" lengthAdjust="spacing" textLength="24.8066" x="986.46" y="385.8169">1..1</text></g><!--reverse link berichtstructuur to commonFunctional.default--><g class="link" data-entity-1="berichtstructuur" data-entity-2="commonFunctional.default" data-source-line="133" data-uid="lnk20" id="link_berichtstructuur_commonFunctional.default"><path codeLine="133" d="M1081.2,355.04 C1081.2,374.97 1081.2,395.11 1081.2,423.63" fill="none" id="berichtstructuur-backto-commonFunctional.default" style="stroke:#181818;stroke-width:1;"/><polygon fill="none" points="1081.2,343.04,1077.2,349.04,1081.2,355.04,1085.2,349.04,1081.2,343.04" style="stroke:#181818;stroke-width:1;"/><text fill="#000000" font-family="sans-serif" font-size="13" lengthAdjust="spacing" textLength="24.8066" x="1082.2" y="385.8169">1..1</text></g><!--reverse link berichtstructuur to document.default--><g class="link" data-entity-1="berichtstructuur" data-entity-2="document.default" data-source-line="134" data-uid="lnk21" id="link_berichtstructuur_document.default"><path codeLine="134" d="M1166.1731,333.7322 C1265.8731,346.4822 1437.47,372.74 1588.2,419.75 C1599.3,423.21 1610.68,427.28 1621.94,431.67" fill="none" id="berichtstructuur-backto-document.default" style="stroke:#181818;stroke-width:1;"/><polygon fill="none" points="1154.27,332.21,1159.7141,336.9388,1166.1731,333.7322,1160.7289,329.0034,1154.27,332.21" style="stroke:#181818;stroke-width:1;"/><text fill="#000000" font-family="sans-serif" font-size="13" lengthAdjust="spacing" textLength="33.0776" x="1466.34" y="385.8169">0..99</text></g><!--reverse link berichtstructuur to party.pensionProvider--><g class="link" data-entity-1="berichtstructuur" data-entity-2="party.pensionProvider" data-source-line="135" data-uid="lnk22" id="link_berichtstructuur_party.pensionProvider"><path codeLine="135" d="M1132.1398,348.4311 C1177.2298,370.2711 1241.47,401.4 1303.91,431.65" fill="none" id="berichtstructuur-backto-party.pensionProvider" style="stroke:#181818;stroke-width:1;"/><polygon fill="none" points="1121.34,343.2,1124.9962,349.4155,1132.1398,348.4311,1128.4836,342.2156,1121.34,343.2" style="stroke:#181818;stroke-width:1;"/><text fill="#000000" font-family="sans-serif" font-size="13" lengthAdjust="spacing" textLength="24.8066" x="1217.64" y="385.8169">1..1</text></g><!--reverse link commonTechnical.default to party.sender--><g class="link" data-entity-1="commonTechnical.default" data-entity-2="party.sender" data-source-line="136" data-uid="lnk23" id="link_commonTechnical.default_party.sender"><path codeLine="136" d="M751.4842,548.0167 C736.1342,576.4167 722.74,601.21 706.73,630.83" fill="none" id="commonTechnical.default-backto-party.sender" style="stroke:#181818;stroke-width:1;"/><polygon fill="none" points="757.19,537.46,750.8182,540.8364,751.4842,548.0167,757.856,544.6403,757.19,537.46" style="stroke:#181818;stroke-width:1;"/><text fill="#000000" font-family="sans-serif" font-size="13" lengthAdjust="spacing" textLength="24.8066" x="734.03" y="592.5669">1..1</text></g><!--reverse link commonTechnical.default to party.receiver--><g class="link" data-entity-1="commonTechnical.default" data-entity-2="party.receiver" data-source-line="137" data-uid="lnk24" id="link_commonTechnical.default_party.receiver"><path codeLine="137" d="M839.9114,546.3761 C867.9614,577.5161 895.49,608.08 923.53,639.22" fill="none" id="commonTechnical.default-backto-party.receiver" style="stroke:#181818;stroke-width:1;"/><polygon fill="none" points="831.88,537.46,832.9236,544.5952,839.9114,546.3761,838.8677,539.2409,831.88,537.46" style="stroke:#181818;stroke-width:1;"/><text fill="#000000" font-family="sans-serif" font-size="13" lengthAdjust="spacing" textLength="24.8066" x="884.25" y="592.5669">1..1</text></g><!--reverse link party.sender to party.contact--><g class="link" data-entity-1="party.sender" data-entity-2="party.contact" data-source-line="138" data-uid="lnk25" id="link_party.sender_party.contact"><path codeLine="138" d="M674.2,765.26 C674.2,805.86 674.2,846.5 674.2,883.13" fill="none" id="party.sender-backto-party.contact" style="stroke:#181818;stroke-width:1;"/><polygon fill="none" points="674.2,753.26,670.2,759.26,674.2,765.26,678.2,759.26,674.2,753.26" style="stroke:#181818;stroke-width:1;"/><text fill="#000000" font-family="sans-serif" font-size="13" lengthAdjust="spacing" textLength="24.8066" x="675.2" y="800.6269">0..9</text></g><!--reverse link party.pensionProvider to pension.scheme--><g class="link" data-entity-1="party.pensionProvider" data-entity-2="pension.scheme" data-source-line="139" data-uid="lnk26" id="link_party.pensionProvider_pension.scheme"><path codeLine="139" d="M1411.2,549.46 C1411.2,583.33 1411.2,615.08 1411.2,647.21" fill="none" id="party.pensionProvider-backto-pension.scheme" style="stroke:#181818;stroke-width:1;"/><polygon fill="none" points="1411.2,537.46,1407.2,543.46,1411.2,549.46,1415.2,543.46,1411.2,537.46" style="stroke:#181818;stroke-width:1;"/><text fill="#000000" font-family="sans-serif" font-size="13" lengthAdjust="spacing" textLength="41.3486" x="1412.2" y="592.5669">1..999</text></g><!--reverse link pension.scheme to financialInformation.reportingPeriod--><g class="link" data-entity-1="pension.scheme" data-entity-2="financialInformation.reportingPeriod" data-source-line="140" data-uid="lnk27" id="link_pension.scheme_financialInformation.reportingPeriod"><path codeLine="140" d="M1325.6875,742.7842 C1248.9875,787.4042 1141.75,849.79 1070.5,891.24" fill="none" id="pension.scheme-backto-financialInformation.reportingPeriod" style="stroke:#181818;stroke-width:1;"/><polygon fill="none" points="1336.06,736.75,1328.8624,736.3096,1325.6875,742.7842,1332.8851,743.2246,1336.06,736.75" style="stroke:#181818;stroke-width:1;"/><text fill="#000000" font-family="sans-serif" font-size="13" lengthAdjust="spacing" textLength="24.8066" x="1247.21" y="800.6269">1..1</text></g><!--reverse link pension.scheme to financialTransaction.payment--><g class="link" data-entity-1="pension.scheme" data-entity-2="financialTransaction.payment" data-source-line="141" data-uid="lnk28" id="link_pension.scheme_financialTransaction.payment"><path codeLine="141" d="M1411.2,748.75 C1411.2,785.5 1411.2,826.4 1411.2,867.08" fill="none" id="pension.scheme-backto-financialTransaction.payment" style="stroke:#181818;stroke-width:1;"/><polygon fill="none" points="1411.2,736.75,1407.2,742.75,1411.2,748.75,1415.2,742.75,1411.2,736.75" style="stroke:#181818;stroke-width:1;"/><text fill="#000000" font-family="sans-serif" font-size="13" lengthAdjust="spacing" textLength="57.8906" x="1412.2" y="800.6269">1..99999</text></g><!--reverse link pension.scheme to pension.cohort--><g class="link" data-entity-1="pension.scheme" data-entity-2="pension.cohort" data-source-line="142" data-uid="lnk29" id="link_pension.scheme_pension.cohort"><path codeLine="142" d="M1492.8629,743.1567 C1537.3629,770.7067 1585.39,800.97 1636.2,834.56 C1641.71,838.21 1647.33,841.96 1652.99,845.77" fill="none" id="pension.scheme-backto-pension.cohort" style="stroke:#181818;stroke-width:1;"/><polygon fill="none" points="1482.66,736.84,1485.6559,743.3993,1492.8629,743.1567,1489.867,736.5973,1482.66,736.84" style="stroke:#181818;stroke-width:1;"/><text fill="#000000" font-family="sans-serif" font-size="13" lengthAdjust="spacing" textLength="57.8906" x="1588.39" y="800.6269">0..99999</text></g><!--reverse link pension.cohort to financialTransaction.payment_2--><g class="link" data-entity-1="pension.cohort" data-entity-2="financialTransaction.payment_2" data-source-line="143" data-uid="lnk30" id="link_pension.cohort_financialTransaction.payment_2"><path codeLine="143" d="M1769.2,1033.41 C1769.2,1059.24 1769.2,1074.62 1769.2,1098.03" fill="none" id="pension.cohort-backto-financialTransaction.payment_2" style="stroke:#181818;stroke-width:1;"/><polygon fill="none" points="1769.2,1021.41,1765.2,1027.41,1769.2,1033.41,1773.2,1027.41,1769.2,1021.41" style="stroke:#181818;stroke-width:1;"/><text fill="#000000" font-family="sans-serif" font-size="13" lengthAdjust="spacing" textLength="49.6196" x="1770.2" y="1064.3069">0..9999</text></g><!--SRC=[rLXjRzis4FwkNq5a7-fujModmzOOhe6qZeTiInhKsVgXA0PQEbbi9L8ZAJjkaV- -8obBjYMxJjTXM130Bthk-DmRxyun2u6ae6CHAa-19WeoAgaMad31mKjW3ZmaMcGaWKXxGyK-mU2iDnhEHhzT_dnvCoOlGR8WrkGPwVLw_O1yJrx5EV_8-7pOdOs6NICnAWJxpuqWMVzD8GCy30XmpJG3HJP5lBvF4FrI9A7vchmWrvI7XjkAH0oIK94MYmZoHN4YPXyWq0JkcTBgr3j3MJQwqZHXmR3BZFJhJ3F1QL88Uyzyuli5anU4yK2aMGB89a4Lf5L-ND0aHsg24ng5hqG8YJlY1qjFQOccldjVKBoGagw8Y8ZxNdcLvUrs45C-1zLk3yZQo0u9ZBUkGLC_X8ZcYKRFBqd899gJh4WWkAQCAuURI3fFqTnRgcD5AFuZgvqZVLIg1Lf-awSpaAyZ6mz5Nen8MZhGUAv-yjfxtWGJ80GLI6QTPhG7QBaY5-ERoUytJyth-6QAhvFnrVZMlhwvd1BgAr_uc4NWnLfdQj3jBfTBNx45yuMSTysR3erKL_24SUY43BZImBlesivPfzSflfUKXfbDlgxdcGnqYUWfp2kJe2a94geK-UoPwBsamSUv53d7y2H23eUSGRuSZSXtayah_7CW8KEGEm09eVVWUKxPp6KokZ4FT9vByhbyL7TLfSDn-AmqrInu8EsspURLtIe3CYY2WfbnKaYUjDjEmAQXmLlbK_Wh1nw02neASlkc1cwAx5vma4jJ71Ps5PPicXbivzOQ- -uzeXyyBh0I99jZeOk6p1aCwYhmZAlzIVOK7-kOASAsaxYFkKlwlHu-_kNwSceqLObjCi4mASCYqbJmEmXYpWAQb4Vyuv2ae1ITmuRFMZ_rJkj-aq1DVOpn4hjZgL6EzGKQt-vWyJBIeFIrqukucH09K6xkfYe3CRNrobTe9gR0iKOuUDq62T6li3fa09AIYl4ovGhW-QbbjQqDgvTozicQUqFJYaBhnoQzDClmvhNegULNascot5vsmV7nA_1rso6bB7ahvCT3DDlj9I9kOsnqkovmu1rsU2C3MpmYCck1_pes3zlrCibvu5hXjokOgD29QDSYQWYyuSSGCSxgB9ytX6OB_WUWBwpolHBeBu7t4qEhhXkBjodVCkm-gFTMYWNxGibjUc57hEwDB5-OGM7VXVklnBOWvQiW1eGT6L67_ehyH2FTWLEhuI0r32Fb0QF95O-4JAqjM4sPa1hHjzXsHVY8ejgIQt2-56OKBAxbuafkf7CdALVKGlsChapdEfP60Vygny5zXlmWl2tIoAdQ9hjJ32aEDzeyXO2bDAa1OWZd45usAhwe2n_bYZ_F_fVEmE9wZ3TsheMYY08HOv8TQxz3VvNvcqFsuOvgRYmMiCprL6IKLqDQxTv0F9AM-iBE6cuwR09XQpu8CKOea0kuug5fvq9Meql3fUQmM-vfEhN0ZVVOlXsIK0Iv2TotwrN7n2LY2Nnfp76eotljacRpjaVsJyWRIAZPQhtQOY4wJNlVW9pqVBz_GfvK3yruBAoB01BKESOftAabd5BfW6P8BhMW08uSI_O1ErEuv-WzOpCIw1i2XwGQXeV3OhNuEJFFp_VWcpjpUSO-xfLeCJu_Gg8Sx4gPBKqLS3sV5YQiSRjahS1sEtQQputLEqyC-AW6MP4xeA2ffPLdxpbzvz9RnsSBNZpxqbdOCohn4y-jZJEXjKWRzyQD7T5KBUPkhY0aBRiPrYja-qSUiq8sxQxjDjP8X2EZMILrR7xWSbkNYHRsFBp4bZ4cNdakwZ5Rg5jPPWaW2SEct3zRwwKKDQ3-Kny5XldeBZR5gEn6l7cCYaMUX6G6H9lz4EsXoloSrh6yaIMA6n969ijb9XGu5KX2OSzY4GiSjoVA_lvZgWTbtW9-CfhfN08gZwac-9yAGu5NvxUix2bPMd1C5s2FaaAOav6B_GG9B2XcXt4ARk1XyMtD75NeKwTuIBAoQplQcC_GE7ou1B8qQj115bOjwNy3]--></g></svg>