<svg xmlns="http://www.w3.org/2000/svg" xmlns:xlink="http://www.w3.org/1999/xlink" contentStyleType="text/css" height="1007px" preserveAspectRatio="none" style="width:1487px;height:1007px;background:#FFFFFF;" version="1.1" viewBox="0 0 1487 1007" width="1487px" zoomAndPan="magnify"><defs/><g><rect fill="#DDDDDD" height="87.9844" id="_legend" rx="7.5" ry="7.5" style="stroke:#000000;stroke-width:1.0;" width="381" x="12" y="12"/><text fill="#000000" font-family="sans-serif" font-size="20" font-weight="bold" lengthAdjust="spacing" textLength="89" x="17" y="37.7617">LEGEND:</text><text fill="#000000" font-family="sans-serif" font-size="20" lengthAdjust="spacing" textLength="6" x="112" y="37.7617">&#160;</text><text fill="#FF0000" font-family="sans-serif" font-size="20" font-weight="bold" lengthAdjust="spacing" textLength="55" x="118" y="37.7617">0001a</text><text fill="#000000" font-family="sans-serif" font-size="14" lengthAdjust="spacing" textLength="12" x="17" y="56.6895">1.</text><text fill="#000000" font-family="sans-serif" font-size="14" font-weight="bold" lengthAdjust="spacing" textLength="32" x="33" y="56.6895">Bold</text><text fill="#000000" font-family="sans-serif" font-size="14" lengthAdjust="spacing" textLength="116" x="69" y="56.6895">= Mandatory fields</text><text fill="#000000" font-family="sans-serif" font-size="14" lengthAdjust="spacing" textLength="12" x="17" y="74.2988">2.</text><text fill="#000000" font-family="sans-serif" font-size="14" font-style="italic" lengthAdjust="spacing" textLength="29" x="33" y="74.2988">Italic</text><text fill="#000000" font-family="sans-serif" font-size="14" lengthAdjust="spacing" textLength="102" x="66" y="74.2988">= Optional fields</text><text fill="#000000" font-family="sans-serif" font-size="14" lengthAdjust="spacing" textLength="371" x="17" y="91.9082">3. ..       = incomplete list (complete values on afdCodelists)</text><!--class berichtstructuur--><g id="elem_berichtstructuur"><rect codeLine="11" fill="#F1F1F1" height="40" id="berichtstructuur" rx="2.5" ry="2.5" style="stroke:#181818;stroke-width:0.5;" width="131" x="748.5" y="119.9844"/><ellipse cx="763.5" cy="135.9844" fill="#ADD1B2" rx="11" ry="11" style="stroke:#181818;stroke-width:1.0;"/><path d="M766.2656,131.8594 Q766.4219,131.6406 766.6094,131.5313 Q766.7969,131.4219 767.0156,131.4219 Q767.3906,131.4219 767.625,131.6797 Q767.8594,131.9375 767.8594,132.5469 L767.8594,134 Q767.8594,134.6094 767.625,134.875 Q767.3906,135.1406 767.0156,135.1406 Q766.6719,135.1406 766.4688,134.9375 Q766.2656,134.75 766.1563,134.2344 Q766.1094,133.875 765.9219,133.6875 Q765.5938,133.3125 764.9844,133.0938 Q764.375,132.875 763.75,132.875 Q762.9844,132.875 762.3516,133.2031 Q761.7188,133.5313 761.2266,134.2813 Q760.7344,135.0313 760.7344,136.0625 L760.7344,137.1563 Q760.7344,138.3906 761.625,139.2109 Q762.5156,140.0313 764.1094,140.0313 Q765.0469,140.0313 765.7031,139.7813 Q766.0938,139.625 766.5156,139.1875 Q766.7813,138.9219 766.9297,138.8438 Q767.0781,138.7656 767.2813,138.7656 Q767.6094,138.7656 767.8672,139.0234 Q768.125,139.2813 768.125,139.625 Q768.125,139.9688 767.7813,140.375 Q767.2813,140.9531 766.4844,141.2813 Q765.4063,141.7344 764.1094,141.7344 Q762.5938,141.7344 761.3906,141.1094 Q760.4063,140.6094 759.7188,139.5391 Q759.0313,138.4688 759.0313,137.1875 L759.0313,136.0313 Q759.0313,134.7031 759.6484,133.5547 Q760.2656,132.4063 761.3594,131.7891 Q762.4531,131.1719 763.6875,131.1719 Q764.4219,131.1719 765.0703,131.3359 Q765.7188,131.5 766.2656,131.8594 Z " fill="#000000"/><text fill="#000000" font-family="sans-serif" font-size="14" lengthAdjust="spacing" textLength="99" x="777.5" y="141.7129">berichtstructuur</text><line style="stroke:#181818;stroke-width:0.5;" x1="749.5" x2="878.5" y1="151.9844" y2="151.9844"/></g><!--class commonTechnical.default--><g id="elem_commonTechnical.default"><rect codeLine="13" fill="#F1F1F1" height="110.4375" id="commonTechnical.default" rx="2.5" ry="2.5" style="stroke:#181818;stroke-width:0.5;" width="219" x="282.5" y="228.9844"/><ellipse cx="309.2" cy="244.9844" fill="#ADD1B2" rx="11" ry="11" style="stroke:#181818;stroke-width:1.0;"/><path d="M311.9656,240.8594 Q312.1219,240.6406 312.3094,240.5313 Q312.4969,240.4219 312.7156,240.4219 Q313.0906,240.4219 313.325,240.6797 Q313.5594,240.9375 313.5594,241.5469 L313.5594,243 Q313.5594,243.6094 313.325,243.875 Q313.0906,244.1406 312.7156,244.1406 Q312.3719,244.1406 312.1688,243.9375 Q311.9656,243.75 311.8563,243.2344 Q311.8094,242.875 311.6219,242.6875 Q311.2938,242.3125 310.6844,242.0938 Q310.075,241.875 309.45,241.875 Q308.6844,241.875 308.0516,242.2031 Q307.4188,242.5313 306.9266,243.2813 Q306.4344,244.0313 306.4344,245.0625 L306.4344,246.1563 Q306.4344,247.3906 307.325,248.2109 Q308.2156,249.0313 309.8094,249.0313 Q310.7469,249.0313 311.4031,248.7813 Q311.7938,248.625 312.2156,248.1875 Q312.4813,247.9219 312.6297,247.8438 Q312.7781,247.7656 312.9813,247.7656 Q313.3094,247.7656 313.5672,248.0234 Q313.825,248.2813 313.825,248.625 Q313.825,248.9688 313.4813,249.375 Q312.9813,249.9531 312.1844,250.2813 Q311.1063,250.7344 309.8094,250.7344 Q308.2938,250.7344 307.0906,250.1094 Q306.1063,249.6094 305.4188,248.5391 Q304.7313,247.4688 304.7313,246.1875 L304.7313,245.0313 Q304.7313,243.7031 305.3484,242.5547 Q305.9656,241.4063 307.0594,240.7891 Q308.1531,240.1719 309.3875,240.1719 Q310.1219,240.1719 310.7703,240.3359 Q311.4188,240.5 311.9656,240.8594 Z " fill="#000000"/><text fill="#000000" font-family="sans-serif" font-size="14" lengthAdjust="spacing" textLength="161" x="325.8" y="250.7129">commonTechnical.default</text><line style="stroke:#181818;stroke-width:0.5;" x1="283.5" x2="500.5" y1="260.9844" y2="260.9844"/><text fill="#000000" font-family="sans-serif" font-size="14" font-weight="bold" lengthAdjust="spacing" text-decoration="underline" textLength="204" x="288.5" y="279.5176">entityType : string = "default"</text><text fill="#000000" font-family="sans-serif" font-size="14" font-weight="bold" lengthAdjust="spacing" textLength="155" x="288.5" y="297.127">messageId : string(70)</text><text fill="#000000" font-family="sans-serif" font-size="14" font-weight="bold" lengthAdjust="spacing" textLength="207" x="288.5" y="314.7363">creationDateTime : timestamp</text><text fill="#000000" font-family="sans-serif" font-size="14" font-style="italic" lengthAdjust="spacing" textLength="144" x="288.5" y="332.3457">testMessage : boolean</text></g><!--class party.sender--><g id="elem_party.sender"><rect codeLine="20" fill="#F1F1F1" height="128.0469" id="party.sender" rx="2.5" ry="2.5" style="stroke:#181818;stroke-width:0.5;" width="236" x="7" y="407.9844"/><ellipse cx="80.75" cy="423.9844" fill="#ADD1B2" rx="11" ry="11" style="stroke:#181818;stroke-width:1.0;"/><path d="M83.5156,419.8594 Q83.6719,419.6406 83.8594,419.5313 Q84.0469,419.4219 84.2656,419.4219 Q84.6406,419.4219 84.875,419.6797 Q85.1094,419.9375 85.1094,420.5469 L85.1094,422 Q85.1094,422.6094 84.875,422.875 Q84.6406,423.1406 84.2656,423.1406 Q83.9219,423.1406 83.7188,422.9375 Q83.5156,422.75 83.4063,422.2344 Q83.3594,421.875 83.1719,421.6875 Q82.8438,421.3125 82.2344,421.0938 Q81.625,420.875 81,420.875 Q80.2344,420.875 79.6016,421.2031 Q78.9688,421.5313 78.4766,422.2813 Q77.9844,423.0313 77.9844,424.0625 L77.9844,425.1563 Q77.9844,426.3906 78.875,427.2109 Q79.7656,428.0313 81.3594,428.0313 Q82.2969,428.0313 82.9531,427.7813 Q83.3438,427.625 83.7656,427.1875 Q84.0313,426.9219 84.1797,426.8438 Q84.3281,426.7656 84.5313,426.7656 Q84.8594,426.7656 85.1172,427.0234 Q85.375,427.2813 85.375,427.625 Q85.375,427.9688 85.0313,428.375 Q84.5313,428.9531 83.7344,429.2813 Q82.6563,429.7344 81.3594,429.7344 Q79.8438,429.7344 78.6406,429.1094 Q77.6563,428.6094 76.9688,427.5391 Q76.2813,426.4688 76.2813,425.1875 L76.2813,424.0313 Q76.2813,422.7031 76.8984,421.5547 Q77.5156,420.4063 78.6094,419.7891 Q79.7031,419.1719 80.9375,419.1719 Q81.6719,419.1719 82.3203,419.3359 Q82.9688,419.5 83.5156,419.8594 Z " fill="#000000"/><text fill="#000000" font-family="sans-serif" font-size="14" lengthAdjust="spacing" textLength="80" x="101.25" y="429.7129">party.sender</text><line style="stroke:#181818;stroke-width:0.5;" x1="8" x2="242" y1="439.9844" y2="439.9844"/><text fill="#000000" font-family="sans-serif" font-size="14" font-weight="bold" lengthAdjust="spacing" text-decoration="underline" textLength="205" x="13" y="458.5176">entityType : string = "sender"</text><text fill="#000000" font-family="sans-serif" font-size="14" font-weight="bold" lengthAdjust="spacing" textLength="125" x="13" y="476.127">refKey : string(70)</text><text fill="#000000" font-family="sans-serif" font-size="14" font-style="italic" lengthAdjust="spacing" textLength="138" x="13" y="493.7363">rsinNumber : string(9)</text><text fill="#000000" font-family="sans-serif" font-size="14" font-weight="bold" lengthAdjust="spacing" textLength="205" x="13" y="511.3457">organizationName : string(60)</text><text fill="#000000" font-family="sans-serif" font-size="14" font-style="italic" lengthAdjust="spacing" textLength="224" x="13" y="528.9551">applicationSenderName : string(60)</text></g><!--class party.contact--><g id="elem_party.contact"><rect codeLine="28" fill="#F1F1F1" height="92.8281" id="party.contact" rx="2.5" ry="2.5" style="stroke:#181818;stroke-width:0.5;" width="225" x="12.5" y="657.4844"/><ellipse cx="79.75" cy="673.4844" fill="#ADD1B2" rx="11" ry="11" style="stroke:#181818;stroke-width:1.0;"/><path d="M82.5156,669.3594 Q82.6719,669.1406 82.8594,669.0313 Q83.0469,668.9219 83.2656,668.9219 Q83.6406,668.9219 83.875,669.1797 Q84.1094,669.4375 84.1094,670.0469 L84.1094,671.5 Q84.1094,672.1094 83.875,672.375 Q83.6406,672.6406 83.2656,672.6406 Q82.9219,672.6406 82.7188,672.4375 Q82.5156,672.25 82.4063,671.7344 Q82.3594,671.375 82.1719,671.1875 Q81.8438,670.8125 81.2344,670.5938 Q80.625,670.375 80,670.375 Q79.2344,670.375 78.6016,670.7031 Q77.9688,671.0313 77.4766,671.7813 Q76.9844,672.5313 76.9844,673.5625 L76.9844,674.6563 Q76.9844,675.8906 77.875,676.7109 Q78.7656,677.5313 80.3594,677.5313 Q81.2969,677.5313 81.9531,677.2813 Q82.3438,677.125 82.7656,676.6875 Q83.0313,676.4219 83.1797,676.3438 Q83.3281,676.2656 83.5313,676.2656 Q83.8594,676.2656 84.1172,676.5234 Q84.375,676.7813 84.375,677.125 Q84.375,677.4688 84.0313,677.875 Q83.5313,678.4531 82.7344,678.7813 Q81.6563,679.2344 80.3594,679.2344 Q78.8438,679.2344 77.6406,678.6094 Q76.6563,678.1094 75.9688,677.0391 Q75.2813,675.9688 75.2813,674.6875 L75.2813,673.5313 Q75.2813,672.2031 75.8984,671.0547 Q76.5156,669.9063 77.6094,669.2891 Q78.7031,668.6719 79.9375,668.6719 Q80.6719,668.6719 81.3203,668.8359 Q81.9688,669 82.5156,669.3594 Z " fill="#000000"/><text fill="#000000" font-family="sans-serif" font-size="14" lengthAdjust="spacing" textLength="82" x="100.25" y="679.2129">party.contact</text><line style="stroke:#181818;stroke-width:0.5;" x1="13.5" x2="236.5" y1="689.4844" y2="689.4844"/><text fill="#000000" font-family="sans-serif" font-size="14" font-weight="bold" lengthAdjust="spacing" text-decoration="underline" textLength="207" x="18.5" y="708.0176">entityType : string = "contact"</text><text fill="#000000" font-family="sans-serif" font-size="14" font-weight="bold" lengthAdjust="spacing" textLength="152" x="18.5" y="725.627">emailWork : string(60)</text><text fill="#000000" font-family="sans-serif" font-size="14" font-weight="bold" lengthAdjust="spacing" textLength="213" x="18.5" y="743.2363">workPhoneNumber : string(60)</text></g><!--class party.receiver--><g id="elem_party.receiver"><rect codeLine="34" fill="#F1F1F1" height="110.4375" id="party.receiver" rx="2.5" ry="2.5" style="stroke:#181818;stroke-width:0.5;" width="227" x="278.5" y="416.9844"/><ellipse cx="344.25" cy="432.9844" fill="#ADD1B2" rx="11" ry="11" style="stroke:#181818;stroke-width:1.0;"/><path d="M347.0156,428.8594 Q347.1719,428.6406 347.3594,428.5313 Q347.5469,428.4219 347.7656,428.4219 Q348.1406,428.4219 348.375,428.6797 Q348.6094,428.9375 348.6094,429.5469 L348.6094,431 Q348.6094,431.6094 348.375,431.875 Q348.1406,432.1406 347.7656,432.1406 Q347.4219,432.1406 347.2188,431.9375 Q347.0156,431.75 346.9063,431.2344 Q346.8594,430.875 346.6719,430.6875 Q346.3438,430.3125 345.7344,430.0938 Q345.125,429.875 344.5,429.875 Q343.7344,429.875 343.1016,430.2031 Q342.4688,430.5313 341.9766,431.2813 Q341.4844,432.0313 341.4844,433.0625 L341.4844,434.1563 Q341.4844,435.3906 342.375,436.2109 Q343.2656,437.0313 344.8594,437.0313 Q345.7969,437.0313 346.4531,436.7813 Q346.8438,436.625 347.2656,436.1875 Q347.5313,435.9219 347.6797,435.8438 Q347.8281,435.7656 348.0313,435.7656 Q348.3594,435.7656 348.6172,436.0234 Q348.875,436.2813 348.875,436.625 Q348.875,436.9688 348.5313,437.375 Q348.0313,437.9531 347.2344,438.2813 Q346.1563,438.7344 344.8594,438.7344 Q343.3438,438.7344 342.1406,438.1094 Q341.1563,437.6094 340.4688,436.5391 Q339.7813,435.4688 339.7813,434.1875 L339.7813,433.0313 Q339.7813,431.7031 340.3984,430.5547 Q341.0156,429.4063 342.1094,428.7891 Q343.2031,428.1719 344.4375,428.1719 Q345.1719,428.1719 345.8203,428.3359 Q346.4688,428.5 347.0156,428.8594 Z " fill="#000000"/><text fill="#000000" font-family="sans-serif" font-size="14" lengthAdjust="spacing" textLength="87" x="364.75" y="438.7129">party.receiver</text><line style="stroke:#181818;stroke-width:0.5;" x1="279.5" x2="504.5" y1="448.9844" y2="448.9844"/><text fill="#000000" font-family="sans-serif" font-size="14" font-weight="bold" lengthAdjust="spacing" text-decoration="underline" textLength="215" x="284.5" y="467.5176">entityType : string = "receiver"</text><text fill="#000000" font-family="sans-serif" font-size="14" font-weight="bold" lengthAdjust="spacing" textLength="125" x="284.5" y="485.127">refKey : string(70)</text><text fill="#000000" font-family="sans-serif" font-size="14" font-style="italic" lengthAdjust="spacing" textLength="138" x="284.5" y="502.7363">rsinNumber : string(9)</text><text fill="#000000" font-family="sans-serif" font-size="14" font-weight="bold" lengthAdjust="spacing" textLength="205" x="284.5" y="520.3457">organizationName : string(60)</text></g><!--class commonFunctional.default--><g id="elem_commonFunctional.default"><rect codeLine="41" fill="#F1F1F1" height="128.0469" id="commonFunctional.default" rx="2.5" ry="2.5" style="stroke:#181818;stroke-width:0.5;" width="235" x="549.5" y="219.9844"/><ellipse cx="581.15" cy="235.9844" fill="#ADD1B2" rx="11" ry="11" style="stroke:#181818;stroke-width:1.0;"/><path d="M583.9156,231.8594 Q584.0719,231.6406 584.2594,231.5313 Q584.4469,231.4219 584.6656,231.4219 Q585.0406,231.4219 585.275,231.6797 Q585.5094,231.9375 585.5094,232.5469 L585.5094,234 Q585.5094,234.6094 585.275,234.875 Q585.0406,235.1406 584.6656,235.1406 Q584.3219,235.1406 584.1188,234.9375 Q583.9156,234.75 583.8063,234.2344 Q583.7594,233.875 583.5719,233.6875 Q583.2438,233.3125 582.6344,233.0938 Q582.025,232.875 581.4,232.875 Q580.6344,232.875 580.0016,233.2031 Q579.3688,233.5313 578.8766,234.2813 Q578.3844,235.0313 578.3844,236.0625 L578.3844,237.1563 Q578.3844,238.3906 579.275,239.2109 Q580.1656,240.0313 581.7594,240.0313 Q582.6969,240.0313 583.3531,239.7813 Q583.7438,239.625 584.1656,239.1875 Q584.4313,238.9219 584.5797,238.8438 Q584.7281,238.7656 584.9313,238.7656 Q585.2594,238.7656 585.5172,239.0234 Q585.775,239.2813 585.775,239.625 Q585.775,239.9688 585.4313,240.375 Q584.9313,240.9531 584.1344,241.2813 Q583.0563,241.7344 581.7594,241.7344 Q580.2438,241.7344 579.0406,241.1094 Q578.0563,240.6094 577.3688,239.5391 Q576.6813,238.4688 576.6813,237.1875 L576.6813,236.0313 Q576.6813,234.7031 577.2984,233.5547 Q577.9156,232.4063 579.0094,231.7891 Q580.1031,231.1719 581.3375,231.1719 Q582.0719,231.1719 582.7203,231.3359 Q583.3688,231.5 583.9156,231.8594 Z " fill="#000000"/><text fill="#000000" font-family="sans-serif" font-size="14" lengthAdjust="spacing" textLength="166" x="598.85" y="241.7129">commonFunctional.default</text><line style="stroke:#181818;stroke-width:0.5;" x1="550.5" x2="783.5" y1="251.9844" y2="251.9844"/><text fill="#000000" font-family="sans-serif" font-size="14" font-weight="bold" lengthAdjust="spacing" text-decoration="underline" textLength="204" x="555.5" y="270.5176">entityType : string = "default"</text><text fill="#000000" font-family="sans-serif" font-size="14" font-weight="bold" lengthAdjust="spacing" textLength="111" x="555.5" y="288.127">function : string</text><text fill="#000000" font-family="sans-serif" font-size="14" font-weight="bold" lengthAdjust="spacing" textLength="208" x="555.5" y="305.7363">afdDefinitionName : string(80)</text><text fill="#000000" font-family="sans-serif" font-size="14" font-weight="bold" lengthAdjust="spacing" textLength="223" x="555.5" y="323.3457">afdDefinitionVersion : string(80)</text><text fill="#000000" font-family="sans-serif" font-size="14" font-style="italic" lengthAdjust="spacing" textLength="189" x="555.5" y="340.9551">originalMessageId : string(70)</text></g><!--class party.pensionProvider--><g id="elem_party.pensionProvider"><rect codeLine="49" fill="#F1F1F1" height="110.4375" id="party.pensionProvider" rx="2.5" ry="2.5" style="stroke:#181818;stroke-width:0.5;" width="285" x="819.5" y="228.9844"/><ellipse cx="888.25" cy="244.9844" fill="#ADD1B2" rx="11" ry="11" style="stroke:#181818;stroke-width:1.0;"/><path d="M891.0156,240.8594 Q891.1719,240.6406 891.3594,240.5313 Q891.5469,240.4219 891.7656,240.4219 Q892.1406,240.4219 892.375,240.6797 Q892.6094,240.9375 892.6094,241.5469 L892.6094,243 Q892.6094,243.6094 892.375,243.875 Q892.1406,244.1406 891.7656,244.1406 Q891.4219,244.1406 891.2188,243.9375 Q891.0156,243.75 890.9063,243.2344 Q890.8594,242.875 890.6719,242.6875 Q890.3438,242.3125 889.7344,242.0938 Q889.125,241.875 888.5,241.875 Q887.7344,241.875 887.1016,242.2031 Q886.4688,242.5313 885.9766,243.2813 Q885.4844,244.0313 885.4844,245.0625 L885.4844,246.1563 Q885.4844,247.3906 886.375,248.2109 Q887.2656,249.0313 888.8594,249.0313 Q889.7969,249.0313 890.4531,248.7813 Q890.8438,248.625 891.2656,248.1875 Q891.5313,247.9219 891.6797,247.8438 Q891.8281,247.7656 892.0313,247.7656 Q892.3594,247.7656 892.6172,248.0234 Q892.875,248.2813 892.875,248.625 Q892.875,248.9688 892.5313,249.375 Q892.0313,249.9531 891.2344,250.2813 Q890.1563,250.7344 888.8594,250.7344 Q887.3438,250.7344 886.1406,250.1094 Q885.1563,249.6094 884.4688,248.5391 Q883.7813,247.4688 883.7813,246.1875 L883.7813,245.0313 Q883.7813,243.7031 884.3984,242.5547 Q885.0156,241.4063 886.1094,240.7891 Q887.2031,240.1719 888.4375,240.1719 Q889.1719,240.1719 889.8203,240.3359 Q890.4688,240.5 891.0156,240.8594 Z " fill="#000000"/><text fill="#000000" font-family="sans-serif" font-size="14" lengthAdjust="spacing" textLength="139" x="908.75" y="250.7129">party.pensionProvider</text><line style="stroke:#181818;stroke-width:0.5;" x1="820.5" x2="1103.5" y1="260.9844" y2="260.9844"/><text fill="#000000" font-family="sans-serif" font-size="14" font-weight="bold" lengthAdjust="spacing" text-decoration="underline" textLength="273" x="825.5" y="279.5176">entityType : string = "pensionProvider"</text><text fill="#000000" font-family="sans-serif" font-size="14" font-weight="bold" lengthAdjust="spacing" textLength="117" x="825.5" y="297.127">puvCode : string</text><text fill="#000000" font-family="sans-serif" font-size="14" font-style="italic" lengthAdjust="spacing" textLength="138" x="825.5" y="314.7363">rsinNumber : string(9)</text><text fill="#000000" font-family="sans-serif" font-size="14" font-weight="bold" lengthAdjust="spacing" textLength="205" x="825.5" y="332.3457">organizationName : string(60)</text></g><!--class pension.scheme--><g id="elem_pension.scheme"><rect codeLine="56" fill="#F1F1F1" height="110.4375" id="pension.scheme" rx="2.5" ry="2.5" style="stroke:#181818;stroke-width:0.5;" width="243" x="828.5" y="416.9844"/><ellipse cx="894.25" cy="432.9844" fill="#ADD1B2" rx="11" ry="11" style="stroke:#181818;stroke-width:1.0;"/><path d="M897.0156,428.8594 Q897.1719,428.6406 897.3594,428.5313 Q897.5469,428.4219 897.7656,428.4219 Q898.1406,428.4219 898.375,428.6797 Q898.6094,428.9375 898.6094,429.5469 L898.6094,431 Q898.6094,431.6094 898.375,431.875 Q898.1406,432.1406 897.7656,432.1406 Q897.4219,432.1406 897.2188,431.9375 Q897.0156,431.75 896.9063,431.2344 Q896.8594,430.875 896.6719,430.6875 Q896.3438,430.3125 895.7344,430.0938 Q895.125,429.875 894.5,429.875 Q893.7344,429.875 893.1016,430.2031 Q892.4688,430.5313 891.9766,431.2813 Q891.4844,432.0313 891.4844,433.0625 L891.4844,434.1563 Q891.4844,435.3906 892.375,436.2109 Q893.2656,437.0313 894.8594,437.0313 Q895.7969,437.0313 896.4531,436.7813 Q896.8438,436.625 897.2656,436.1875 Q897.5313,435.9219 897.6797,435.8438 Q897.8281,435.7656 898.0313,435.7656 Q898.3594,435.7656 898.6172,436.0234 Q898.875,436.2813 898.875,436.625 Q898.875,436.9688 898.5313,437.375 Q898.0313,437.9531 897.2344,438.2813 Q896.1563,438.7344 894.8594,438.7344 Q893.3438,438.7344 892.1406,438.1094 Q891.1563,437.6094 890.4688,436.5391 Q889.7813,435.4688 889.7813,434.1875 L889.7813,433.0313 Q889.7813,431.7031 890.3984,430.5547 Q891.0156,429.4063 892.1094,428.7891 Q893.2031,428.1719 894.4375,428.1719 Q895.1719,428.1719 895.8203,428.3359 Q896.4688,428.5 897.0156,428.8594 Z " fill="#000000"/><text fill="#000000" font-family="sans-serif" font-size="14" lengthAdjust="spacing" textLength="103" x="914.75" y="438.7129">pension.scheme</text><line style="stroke:#181818;stroke-width:0.5;" x1="829.5" x2="1070.5" y1="448.9844" y2="448.9844"/><text fill="#000000" font-family="sans-serif" font-size="14" font-weight="bold" lengthAdjust="spacing" text-decoration="underline" textLength="210" x="834.5" y="467.5176">entityType : string = "scheme"</text><text fill="#000000" font-family="sans-serif" font-size="14" font-weight="bold" lengthAdjust="spacing" textLength="125" x="834.5" y="485.127">refKey : string(70)</text><text fill="#000000" font-family="sans-serif" font-size="14" font-weight="bold" lengthAdjust="spacing" textLength="231" x="834.5" y="502.7363">pensionSchemeName : string(60)</text><text fill="#000000" font-family="sans-serif" font-size="14" font-weight="bold" lengthAdjust="spacing" textLength="151" x="834.5" y="520.3457">startAmount : decimal</text></g><!--class financialInformation.reportingPeriod--><g id="elem_financialInformation.reportingPeriod"><rect codeLine="63" fill="#F1F1F1" height="75.2188" id="financialInformation.reportingPeriod" rx="2.5" ry="2.5" style="stroke:#181818;stroke-width:0.5;" width="279" x="529.5" y="666.4844"/><ellipse cx="554.85" cy="682.4844" fill="#ADD1B2" rx="11" ry="11" style="stroke:#181818;stroke-width:1.0;"/><path d="M557.6156,678.3594 Q557.7719,678.1406 557.9594,678.0313 Q558.1469,677.9219 558.3656,677.9219 Q558.7406,677.9219 558.975,678.1797 Q559.2094,678.4375 559.2094,679.0469 L559.2094,680.5 Q559.2094,681.1094 558.975,681.375 Q558.7406,681.6406 558.3656,681.6406 Q558.0219,681.6406 557.8188,681.4375 Q557.6156,681.25 557.5063,680.7344 Q557.4594,680.375 557.2719,680.1875 Q556.9438,679.8125 556.3344,679.5938 Q555.725,679.375 555.1,679.375 Q554.3344,679.375 553.7016,679.7031 Q553.0688,680.0313 552.5766,680.7813 Q552.0844,681.5313 552.0844,682.5625 L552.0844,683.6563 Q552.0844,684.8906 552.975,685.7109 Q553.8656,686.5313 555.4594,686.5313 Q556.3969,686.5313 557.0531,686.2813 Q557.4438,686.125 557.8656,685.6875 Q558.1313,685.4219 558.2797,685.3438 Q558.4281,685.2656 558.6313,685.2656 Q558.9594,685.2656 559.2172,685.5234 Q559.475,685.7813 559.475,686.125 Q559.475,686.4688 559.1313,686.875 Q558.6313,687.4531 557.8344,687.7813 Q556.7563,688.2344 555.4594,688.2344 Q553.9438,688.2344 552.7406,687.6094 Q551.7563,687.1094 551.0688,686.0391 Q550.3813,684.9688 550.3813,683.6875 L550.3813,682.5313 Q550.3813,681.2031 550.9984,680.0547 Q551.6156,678.9063 552.7094,678.2891 Q553.8031,677.6719 555.0375,677.6719 Q555.7719,677.6719 556.4203,677.8359 Q557.0688,678 557.6156,678.3594 Z " fill="#000000"/><text fill="#000000" font-family="sans-serif" font-size="14" lengthAdjust="spacing" textLength="224" x="571.15" y="688.2129">financialInformation.reportingPeriod</text><line style="stroke:#181818;stroke-width:0.5;" x1="530.5" x2="807.5" y1="698.4844" y2="698.4844"/><text fill="#000000" font-family="sans-serif" font-size="14" font-weight="bold" lengthAdjust="spacing" text-decoration="underline" textLength="267" x="535.5" y="717.0176">entityType : string = "reportingPeriod"</text><text fill="#000000" font-family="sans-serif" font-size="14" font-weight="bold" lengthAdjust="spacing" textLength="107" x="535.5" y="734.627">startDate : date</text></g><!--class pension.cohort--><g id="elem_pension.cohort"><rect codeLine="68" fill="#F1F1F1" height="216.0938" id="pension.cohort" rx="2.5" ry="2.5" style="stroke:#181818;stroke-width:0.5;" width="213" x="843.5" y="595.9844"/><ellipse cx="898.75" cy="611.9844" fill="#ADD1B2" rx="11" ry="11" style="stroke:#181818;stroke-width:1.0;"/><path d="M901.5156,607.8594 Q901.6719,607.6406 901.8594,607.5313 Q902.0469,607.4219 902.2656,607.4219 Q902.6406,607.4219 902.875,607.6797 Q903.1094,607.9375 903.1094,608.5469 L903.1094,610 Q903.1094,610.6094 902.875,610.875 Q902.6406,611.1406 902.2656,611.1406 Q901.9219,611.1406 901.7188,610.9375 Q901.5156,610.75 901.4063,610.2344 Q901.3594,609.875 901.1719,609.6875 Q900.8438,609.3125 900.2344,609.0938 Q899.625,608.875 899,608.875 Q898.2344,608.875 897.6016,609.2031 Q896.9688,609.5313 896.4766,610.2813 Q895.9844,611.0313 895.9844,612.0625 L895.9844,613.1563 Q895.9844,614.3906 896.875,615.2109 Q897.7656,616.0313 899.3594,616.0313 Q900.2969,616.0313 900.9531,615.7813 Q901.3438,615.625 901.7656,615.1875 Q902.0313,614.9219 902.1797,614.8438 Q902.3281,614.7656 902.5313,614.7656 Q902.8594,614.7656 903.1172,615.0234 Q903.375,615.2813 903.375,615.625 Q903.375,615.9688 903.0313,616.375 Q902.5313,616.9531 901.7344,617.2813 Q900.6563,617.7344 899.3594,617.7344 Q897.8438,617.7344 896.6406,617.1094 Q895.6563,616.6094 894.9688,615.5391 Q894.2813,614.4688 894.2813,613.1875 L894.2813,612.0313 Q894.2813,610.7031 894.8984,609.5547 Q895.5156,608.4063 896.6094,607.7891 Q897.7031,607.1719 898.9375,607.1719 Q899.6719,607.1719 900.3203,607.3359 Q900.9688,607.5 901.5156,607.8594 Z " fill="#000000"/><text fill="#000000" font-family="sans-serif" font-size="14" lengthAdjust="spacing" textLength="94" x="919.25" y="617.7129">pension.cohort</text><line style="stroke:#181818;stroke-width:0.5;" x1="844.5" x2="1055.5" y1="627.9844" y2="627.9844"/><text fill="#000000" font-family="sans-serif" font-size="14" font-weight="bold" lengthAdjust="spacing" text-decoration="underline" textLength="201" x="849.5" y="646.5176">entityType : string = "cohort"</text><text fill="#000000" font-family="sans-serif" font-size="14" font-weight="bold" lengthAdjust="spacing" textLength="125" x="849.5" y="664.127">refKey : string(70)</text><text fill="#000000" font-family="sans-serif" font-size="14" font-weight="bold" lengthAdjust="spacing" textLength="159" x="849.5" y="681.7363">description : string(60)</text><text fill="#000000" font-family="sans-serif" font-size="14" font-style="italic" lengthAdjust="spacing" textLength="164" x="849.5" y="699.3457">participationStatus : string</text><text fill="#000000" font-family="sans-serif" font-size="14" font-style="italic" lengthAdjust="spacing" textLength="109" x="849.5" y="716.9551">startAge : integer</text><text fill="#000000" font-family="sans-serif" font-size="14" font-style="italic" lengthAdjust="spacing" textLength="105" x="849.5" y="734.5645">endAge : integer</text><text fill="#000000" font-family="sans-serif" font-size="14" font-weight="bold" lengthAdjust="spacing" textLength="187" x="849.5" y="752.1738">reserveIndicator : boolean</text><text fill="#000000" font-family="sans-serif" font-size="14" font-style="italic" lengthAdjust="spacing" textLength="126" x="849.5" y="769.7832">reserveType : string</text><text fill="#000000" font-family="sans-serif" font-size="14" font-style="italic" lengthAdjust="spacing" textLength="191" x="849.5" y="787.3926">reserveDescription : string(60)</text><text fill="#000000" font-family="sans-serif" font-size="14" font-weight="bold" lengthAdjust="spacing" textLength="151" x="849.5" y="805.002">startAmount : decimal</text></g><!--class investment.portfolio--><g id="elem_investment.portfolio"><rect codeLine="81" fill="#F1F1F1" height="128.0469" id="investment.portfolio" rx="2.5" ry="2.5" style="stroke:#181818;stroke-width:0.5;" width="232" x="607" y="871.9844"/><ellipse cx="657.25" cy="887.9844" fill="#ADD1B2" rx="11" ry="11" style="stroke:#181818;stroke-width:1.0;"/><path d="M660.0156,883.8594 Q660.1719,883.6406 660.3594,883.5313 Q660.5469,883.4219 660.7656,883.4219 Q661.1406,883.4219 661.375,883.6797 Q661.6094,883.9375 661.6094,884.5469 L661.6094,886 Q661.6094,886.6094 661.375,886.875 Q661.1406,887.1406 660.7656,887.1406 Q660.4219,887.1406 660.2188,886.9375 Q660.0156,886.75 659.9063,886.2344 Q659.8594,885.875 659.6719,885.6875 Q659.3438,885.3125 658.7344,885.0938 Q658.125,884.875 657.5,884.875 Q656.7344,884.875 656.1016,885.2031 Q655.4688,885.5313 654.9766,886.2813 Q654.4844,887.0313 654.4844,888.0625 L654.4844,889.1563 Q654.4844,890.3906 655.375,891.2109 Q656.2656,892.0313 657.8594,892.0313 Q658.7969,892.0313 659.4531,891.7813 Q659.8438,891.625 660.2656,891.1875 Q660.5313,890.9219 660.6797,890.8438 Q660.8281,890.7656 661.0313,890.7656 Q661.3594,890.7656 661.6172,891.0234 Q661.875,891.2813 661.875,891.625 Q661.875,891.9688 661.5313,892.375 Q661.0313,892.9531 660.2344,893.2813 Q659.1563,893.7344 657.8594,893.7344 Q656.3438,893.7344 655.1406,893.1094 Q654.1563,892.6094 653.4688,891.5391 Q652.7813,890.4688 652.7813,889.1875 L652.7813,888.0313 Q652.7813,886.7031 653.3984,885.5547 Q654.0156,884.4063 655.1094,883.7891 Q656.2031,883.1719 657.4375,883.1719 Q658.1719,883.1719 658.8203,883.3359 Q659.4688,883.5 660.0156,883.8594 Z " fill="#000000"/><text fill="#000000" font-family="sans-serif" font-size="14" lengthAdjust="spacing" textLength="123" x="677.75" y="893.7129">investment.portfolio</text><line style="stroke:#181818;stroke-width:0.5;" x1="608" x2="838" y1="903.9844" y2="903.9844"/><text fill="#000000" font-family="sans-serif" font-size="14" font-weight="bold" lengthAdjust="spacing" text-decoration="underline" textLength="215" x="613" y="922.5176">entityType : string = "portfolio"</text><text fill="#000000" font-family="sans-serif" font-size="14" font-weight="bold" lengthAdjust="spacing" textLength="125" x="613" y="940.127">refKey : string(70)</text><text fill="#000000" font-family="sans-serif" font-size="14" font-weight="bold" lengthAdjust="spacing" textLength="159" x="613" y="957.7363">description : string(60)</text><text fill="#000000" font-family="sans-serif" font-size="14" font-style="italic" lengthAdjust="spacing" textLength="195" x="613" y="975.3457">startExposureAmount : decimal</text><text fill="#000000" font-family="sans-serif" font-size="14" font-style="italic" lengthAdjust="spacing" textLength="220" x="613" y="992.9551">startExposurePercentage : decimal</text></g><!--class investment.portfolio_1--><g id="elem_investment.portfolio_1"><rect codeLine="89" fill="#F1F1F1" height="128.0469" id="investment.portfolio_1" rx="2.5" ry="2.5" style="stroke:#181818;stroke-width:0.5;" width="232" x="1092" y="639.9844"/><ellipse cx="1134.45" cy="655.9844" fill="#ADD1B2" rx="11" ry="11" style="stroke:#181818;stroke-width:1.0;"/><path d="M1137.2156,651.8594 Q1137.3719,651.6406 1137.5594,651.5313 Q1137.7469,651.4219 1137.9656,651.4219 Q1138.3406,651.4219 1138.575,651.6797 Q1138.8094,651.9375 1138.8094,652.5469 L1138.8094,654 Q1138.8094,654.6094 1138.575,654.875 Q1138.3406,655.1406 1137.9656,655.1406 Q1137.6219,655.1406 1137.4188,654.9375 Q1137.2156,654.75 1137.1063,654.2344 Q1137.0594,653.875 1136.8719,653.6875 Q1136.5438,653.3125 1135.9344,653.0938 Q1135.325,652.875 1134.7,652.875 Q1133.9344,652.875 1133.3016,653.2031 Q1132.6688,653.5313 1132.1766,654.2813 Q1131.6844,655.0313 1131.6844,656.0625 L1131.6844,657.1563 Q1131.6844,658.3906 1132.575,659.2109 Q1133.4656,660.0313 1135.0594,660.0313 Q1135.9969,660.0313 1136.6531,659.7813 Q1137.0438,659.625 1137.4656,659.1875 Q1137.7313,658.9219 1137.8797,658.8438 Q1138.0281,658.7656 1138.2313,658.7656 Q1138.5594,658.7656 1138.8172,659.0234 Q1139.075,659.2813 1139.075,659.625 Q1139.075,659.9688 1138.7313,660.375 Q1138.2313,660.9531 1137.4344,661.2813 Q1136.3563,661.7344 1135.0594,661.7344 Q1133.5438,661.7344 1132.3406,661.1094 Q1131.3563,660.6094 1130.6688,659.5391 Q1129.9813,658.4688 1129.9813,657.1875 L1129.9813,656.0313 Q1129.9813,654.7031 1130.5984,653.5547 Q1131.2156,652.4063 1132.3094,651.7891 Q1133.4031,651.1719 1134.6375,651.1719 Q1135.3719,651.1719 1136.0203,651.3359 Q1136.6688,651.5 1137.2156,651.8594 Z " fill="#000000"/><text fill="#000000" font-family="sans-serif" font-size="14" lengthAdjust="spacing" textLength="139" x="1154.55" y="661.7129">investment.portfolio_1</text><line style="stroke:#181818;stroke-width:0.5;" x1="1093" x2="1323" y1="671.9844" y2="671.9844"/><text fill="#000000" font-family="sans-serif" font-size="14" font-weight="bold" lengthAdjust="spacing" text-decoration="underline" textLength="215" x="1098" y="690.5176">entityType : string = "portfolio"</text><text fill="#000000" font-family="sans-serif" font-size="14" font-weight="bold" lengthAdjust="spacing" textLength="125" x="1098" y="708.127">refKey : string(70)</text><text fill="#000000" font-family="sans-serif" font-size="14" font-weight="bold" lengthAdjust="spacing" textLength="159" x="1098" y="725.7363">description : string(60)</text><text fill="#000000" font-family="sans-serif" font-size="14" font-style="italic" lengthAdjust="spacing" textLength="195" x="1098" y="743.3457">startExposureAmount : decimal</text><text fill="#000000" font-family="sans-serif" font-size="14" font-style="italic" lengthAdjust="spacing" textLength="220" x="1098" y="760.9551">startExposurePercentage : decimal</text></g><!--class document.default--><g id="elem_document.default"><rect codeLine="97" fill="#F1F1F1" height="110.4375" id="document.default" rx="2.5" ry="2.5" style="stroke:#181818;stroke-width:0.5;" width="216" x="1229" y="228.9844"/><ellipse cx="1278.25" cy="244.9844" fill="#ADD1B2" rx="11" ry="11" style="stroke:#181818;stroke-width:1.0;"/><path d="M1281.0156,240.8594 Q1281.1719,240.6406 1281.3594,240.5313 Q1281.5469,240.4219 1281.7656,240.4219 Q1282.1406,240.4219 1282.375,240.6797 Q1282.6094,240.9375 1282.6094,241.5469 L1282.6094,243 Q1282.6094,243.6094 1282.375,243.875 Q1282.1406,244.1406 1281.7656,244.1406 Q1281.4219,244.1406 1281.2188,243.9375 Q1281.0156,243.75 1280.9063,243.2344 Q1280.8594,242.875 1280.6719,242.6875 Q1280.3438,242.3125 1279.7344,242.0938 Q1279.125,241.875 1278.5,241.875 Q1277.7344,241.875 1277.1016,242.2031 Q1276.4688,242.5313 1275.9766,243.2813 Q1275.4844,244.0313 1275.4844,245.0625 L1275.4844,246.1563 Q1275.4844,247.3906 1276.375,248.2109 Q1277.2656,249.0313 1278.8594,249.0313 Q1279.7969,249.0313 1280.4531,248.7813 Q1280.8438,248.625 1281.2656,248.1875 Q1281.5313,247.9219 1281.6797,247.8438 Q1281.8281,247.7656 1282.0313,247.7656 Q1282.3594,247.7656 1282.6172,248.0234 Q1282.875,248.2813 1282.875,248.625 Q1282.875,248.9688 1282.5313,249.375 Q1282.0313,249.9531 1281.2344,250.2813 Q1280.1563,250.7344 1278.8594,250.7344 Q1277.3438,250.7344 1276.1406,250.1094 Q1275.1563,249.6094 1274.4688,248.5391 Q1273.7813,247.4688 1273.7813,246.1875 L1273.7813,245.0313 Q1273.7813,243.7031 1274.3984,242.5547 Q1275.0156,241.4063 1276.1094,240.7891 Q1277.2031,240.1719 1278.4375,240.1719 Q1279.1719,240.1719 1279.8203,240.3359 Q1280.4688,240.5 1281.0156,240.8594 Z " fill="#000000"/><text fill="#000000" font-family="sans-serif" font-size="14" lengthAdjust="spacing" textLength="109" x="1298.75" y="250.7129">document.default</text><line style="stroke:#181818;stroke-width:0.5;" x1="1230" x2="1444" y1="260.9844" y2="260.9844"/><text fill="#000000" font-family="sans-serif" font-size="14" font-weight="bold" lengthAdjust="spacing" text-decoration="underline" textLength="204" x="1235" y="279.5176">entityType : string = "default"</text><text fill="#000000" font-family="sans-serif" font-size="14" font-weight="bold" lengthAdjust="spacing" textLength="125" x="1235" y="297.127">refKey : string(70)</text><text fill="#000000" font-family="sans-serif" font-size="14" font-weight="bold" lengthAdjust="spacing" textLength="140" x="1235" y="314.7363">fileName : string(60)</text><text fill="#000000" font-family="sans-serif" font-size="14" font-weight="bold" lengthAdjust="spacing" textLength="145" x="1235" y="332.3457">fileExtension : string</text></g><!--class ADNDNS--><g id="elem_ADNDNS"><rect codeLine="104" fill="#F1F1F1" height="92.8281" id="ADNDNS" rx="2.5" ry="2.5" style="stroke:#181818;stroke-width:0.5;" width="152" x="874" y="889.4844"/><ellipse cx="917.8" cy="905.4844" fill="#EB937F" rx="11" ry="11" style="stroke:#181818;stroke-width:1.0;"/><path d="M916.6594,906.2813 L916.6594,908.7813 L920.9875,908.7813 L920.9875,907.8594 Q920.9875,907.25 921.2297,906.9844 Q921.4719,906.7188 921.8469,906.7188 Q922.2219,906.7188 922.4563,906.9844 Q922.6906,907.25 922.6906,907.8594 L922.6906,910.4844 L914.6906,910.4844 Q914.0656,910.4844 913.8078,910.25 Q913.55,910.0156 913.55,909.625 Q913.55,909.25 913.8156,909.0156 Q914.0813,908.7813 914.6906,908.7813 L914.9563,908.7813 L914.9563,902.125 L914.6906,902.125 Q914.0656,902.125 913.8078,901.8906 Q913.55,901.6563 913.55,901.2656 Q913.55,900.8906 913.8078,900.6563 Q914.0656,900.4219 914.6906,900.4219 L922.3156,900.4219 L922.3156,903.0156 Q922.3156,903.625 922.0891,903.8828 Q921.8625,904.1406 921.4719,904.1406 Q921.0969,904.1406 920.8625,903.8828 Q920.6281,903.625 920.6281,903.0156 L920.6281,902.125 L916.6594,902.125 L916.6594,904.5781 L918.1438,904.5781 Q918.1438,903.9219 918.2688,903.7344 Q918.5344,903.3281 919.0031,903.3281 Q919.3781,903.3281 919.6125,903.5859 Q919.8469,903.8438 919.8469,904.4531 L919.8469,906.4219 Q919.8469,906.9688 919.7219,907.1563 Q919.4563,907.5469 919.0031,907.5469 Q918.5344,907.5469 918.2688,907.1406 Q918.1438,906.9531 918.1438,906.2813 L916.6594,906.2813 Z " fill="#000000"/><text fill="#000000" font-family="sans-serif" font-size="14" lengthAdjust="spacing" textLength="56" x="938.2" y="911.2129">ADNDNS</text><line style="stroke:#181818;stroke-width:0.5;" x1="875" x2="1025" y1="921.4844" y2="921.4844"/><text fill="#000000" font-family="sans-serif" font-size="14" lengthAdjust="spacing" textLength="113" x="880" y="940.0176">AO aspirant actief</text><text fill="#000000" font-family="sans-serif" font-size="14" lengthAdjust="spacing" textLength="140" x="880" y="957.627">AO aspirant niet actief</text><text fill="#000000" font-family="sans-serif" font-size="14" lengthAdjust="spacing" textLength="35" x="880" y="975.2363">Actief</text></g><!--class ADNFUN--><g id="elem_ADNFUN"><rect codeLine="110" fill="#F1F1F1" height="92.8281" id="ADNFUN" rx="2.5" ry="2.5" style="stroke:#181818;stroke-width:0.5;" width="253" x="540.5" y="425.4844"/><ellipse cx="635.25" cy="441.4844" fill="#EB937F" rx="11" ry="11" style="stroke:#181818;stroke-width:1.0;"/><path d="M634.1094,442.2813 L634.1094,444.7813 L638.4375,444.7813 L638.4375,443.8594 Q638.4375,443.25 638.6797,442.9844 Q638.9219,442.7188 639.2969,442.7188 Q639.6719,442.7188 639.9063,442.9844 Q640.1406,443.25 640.1406,443.8594 L640.1406,446.4844 L632.1406,446.4844 Q631.5156,446.4844 631.2578,446.25 Q631,446.0156 631,445.625 Q631,445.25 631.2656,445.0156 Q631.5313,444.7813 632.1406,444.7813 L632.4063,444.7813 L632.4063,438.125 L632.1406,438.125 Q631.5156,438.125 631.2578,437.8906 Q631,437.6563 631,437.2656 Q631,436.8906 631.2578,436.6563 Q631.5156,436.4219 632.1406,436.4219 L639.7656,436.4219 L639.7656,439.0156 Q639.7656,439.625 639.5391,439.8828 Q639.3125,440.1406 638.9219,440.1406 Q638.5469,440.1406 638.3125,439.8828 Q638.0781,439.625 638.0781,439.0156 L638.0781,438.125 L634.1094,438.125 L634.1094,440.5781 L635.5938,440.5781 Q635.5938,439.9219 635.7188,439.7344 Q635.9844,439.3281 636.4531,439.3281 Q636.8281,439.3281 637.0625,439.5859 Q637.2969,439.8438 637.2969,440.4531 L637.2969,442.4219 Q637.2969,442.9688 637.1719,443.1563 Q636.9063,443.5469 636.4531,443.5469 Q635.9844,443.5469 635.7188,443.1406 Q635.5938,442.9531 635.5938,442.2813 L634.1094,442.2813 Z " fill="#000000"/><text fill="#000000" font-family="sans-serif" font-size="14" lengthAdjust="spacing" textLength="55" x="655.75" y="447.2129">ADNFUN</text><line style="stroke:#181818;stroke-width:0.5;" x1="541.5" x2="792.5" y1="457.4844" y2="457.4844"/><text fill="#000000" font-family="sans-serif" font-size="14" lengthAdjust="spacing" textLength="37" x="546.5" y="476.0176">Nieuw</text><text fill="#000000" font-family="sans-serif" font-size="14" lengthAdjust="spacing" textLength="52" x="546.5" y="493.627">Wijzigen</text><text fill="#000000" font-family="sans-serif" font-size="14" lengthAdjust="spacing" textLength="241" x="546.5" y="511.2363">Aanmelden bestaande polis op pakket</text></g><!--class AFDIDP--><g id="elem_AFDIDP"><rect codeLine="116" fill="#F1F1F1" height="100.8281" id="AFDIDP" rx="2.5" ry="2.5" style="stroke:#181818;stroke-width:0.5;" width="243" x="1106.5" y="421.4844"/><ellipse cx="1198.75" cy="437.4844" fill="#EB937F" rx="11" ry="11" style="stroke:#181818;stroke-width:1.0;"/><path d="M1197.6094,438.2813 L1197.6094,440.7813 L1201.9375,440.7813 L1201.9375,439.8594 Q1201.9375,439.25 1202.1797,438.9844 Q1202.4219,438.7188 1202.7969,438.7188 Q1203.1719,438.7188 1203.4063,438.9844 Q1203.6406,439.25 1203.6406,439.8594 L1203.6406,442.4844 L1195.6406,442.4844 Q1195.0156,442.4844 1194.7578,442.25 Q1194.5,442.0156 1194.5,441.625 Q1194.5,441.25 1194.7656,441.0156 Q1195.0313,440.7813 1195.6406,440.7813 L1195.9063,440.7813 L1195.9063,434.125 L1195.6406,434.125 Q1195.0156,434.125 1194.7578,433.8906 Q1194.5,433.6563 1194.5,433.2656 Q1194.5,432.8906 1194.7578,432.6563 Q1195.0156,432.4219 1195.6406,432.4219 L1203.2656,432.4219 L1203.2656,435.0156 Q1203.2656,435.625 1203.0391,435.8828 Q1202.8125,436.1406 1202.4219,436.1406 Q1202.0469,436.1406 1201.8125,435.8828 Q1201.5781,435.625 1201.5781,435.0156 L1201.5781,434.125 L1197.6094,434.125 L1197.6094,436.5781 L1199.0938,436.5781 Q1199.0938,435.9219 1199.2188,435.7344 Q1199.4844,435.3281 1199.9531,435.3281 Q1200.3281,435.3281 1200.5625,435.5859 Q1200.7969,435.8438 1200.7969,436.4531 L1200.7969,438.4219 Q1200.7969,438.9688 1200.6719,439.1563 Q1200.4063,439.5469 1199.9531,439.5469 Q1199.4844,439.5469 1199.2188,439.1406 Q1199.0938,438.9531 1199.0938,438.2813 L1197.6094,438.2813 Z " fill="#000000"/><text fill="#000000" font-family="sans-serif" font-size="14" lengthAdjust="spacing" textLength="50" x="1219.25" y="443.2129">AFDIDP</text><line style="stroke:#181818;stroke-width:0.5;" x1="1107.5" x2="1348.5" y1="453.4844" y2="453.4844"/><text fill="#000000" font-family="sans-serif" font-size="14" lengthAdjust="spacing" textLength="187" x="1112.5" y="472.0176">St. Pf. Openbare Bibliotheken</text><text fill="#000000" font-family="sans-serif" font-size="14" lengthAdjust="spacing" textLength="202" x="1112.5" y="489.627">AEGON Levensverzekering N.V.</text><text fill="#000000" font-family="sans-serif" font-size="14" lengthAdjust="spacing" textLength="231" x="1112.5" y="507.2363">Pensioenfonds voor de Accountancy</text><line style="stroke:#181818;stroke-width:1.0;stroke-dasharray:1.0,2.0;" x1="1107.5" x2="1348.5" y1="514.3125" y2="514.3125"/></g><!--class AFDRES--><g id="elem_AFDRES"><rect codeLine="123" fill="#F1F1F1" height="75.2188" id="AFDRES" rx="2.5" ry="2.5" style="stroke:#181818;stroke-width:0.5;" width="146" x="1061" y="898.4844"/><ellipse cx="1102.1" cy="914.4844" fill="#EB937F" rx="11" ry="11" style="stroke:#181818;stroke-width:1.0;"/><path d="M1100.9594,915.2813 L1100.9594,917.7813 L1105.2875,917.7813 L1105.2875,916.8594 Q1105.2875,916.25 1105.5297,915.9844 Q1105.7719,915.7188 1106.1469,915.7188 Q1106.5219,915.7188 1106.7563,915.9844 Q1106.9906,916.25 1106.9906,916.8594 L1106.9906,919.4844 L1098.9906,919.4844 Q1098.3656,919.4844 1098.1078,919.25 Q1097.85,919.0156 1097.85,918.625 Q1097.85,918.25 1098.1156,918.0156 Q1098.3813,917.7813 1098.9906,917.7813 L1099.2563,917.7813 L1099.2563,911.125 L1098.9906,911.125 Q1098.3656,911.125 1098.1078,910.8906 Q1097.85,910.6563 1097.85,910.2656 Q1097.85,909.8906 1098.1078,909.6563 Q1098.3656,909.4219 1098.9906,909.4219 L1106.6156,909.4219 L1106.6156,912.0156 Q1106.6156,912.625 1106.3891,912.8828 Q1106.1625,913.1406 1105.7719,913.1406 Q1105.3969,913.1406 1105.1625,912.8828 Q1104.9281,912.625 1104.9281,912.0156 L1104.9281,911.125 L1100.9594,911.125 L1100.9594,913.5781 L1102.4438,913.5781 Q1102.4438,912.9219 1102.5688,912.7344 Q1102.8344,912.3281 1103.3031,912.3281 Q1103.6781,912.3281 1103.9125,912.5859 Q1104.1469,912.8438 1104.1469,913.4531 L1104.1469,915.4219 Q1104.1469,915.9688 1104.0219,916.1563 Q1103.7563,916.5469 1103.3031,916.5469 Q1102.8344,916.5469 1102.5688,916.1406 Q1102.4438,915.9531 1102.4438,915.2813 L1100.9594,915.2813 Z " fill="#000000"/><text fill="#000000" font-family="sans-serif" font-size="14" lengthAdjust="spacing" textLength="56" x="1121.9" y="920.2129">AFDRES</text><line style="stroke:#181818;stroke-width:0.5;" x1="1062" x2="1206" y1="930.4844" y2="930.4844"/><text fill="#000000" font-family="sans-serif" font-size="14" lengthAdjust="spacing" textLength="121" x="1067" y="949.0176">Solidariteitsreserve</text><text fill="#000000" font-family="sans-serif" font-size="14" lengthAdjust="spacing" textLength="134" x="1067" y="966.627">Operationele reserve</text></g><!--class cdl_251--><g id="elem_cdl_251"><rect codeLine="129" fill="#F1F1F1" height="92.8281" id="cdl_251" rx="2.5" ry="2.5" style="stroke:#181818;stroke-width:0.5;" width="82" x="1385" y="425.4844"/><ellipse cx="1400" cy="441.4844" fill="#EB937F" rx="11" ry="11" style="stroke:#181818;stroke-width:1.0;"/><path d="M1398.8594,442.2813 L1398.8594,444.7813 L1403.1875,444.7813 L1403.1875,443.8594 Q1403.1875,443.25 1403.4297,442.9844 Q1403.6719,442.7188 1404.0469,442.7188 Q1404.4219,442.7188 1404.6563,442.9844 Q1404.8906,443.25 1404.8906,443.8594 L1404.8906,446.4844 L1396.8906,446.4844 Q1396.2656,446.4844 1396.0078,446.25 Q1395.75,446.0156 1395.75,445.625 Q1395.75,445.25 1396.0156,445.0156 Q1396.2813,444.7813 1396.8906,444.7813 L1397.1563,444.7813 L1397.1563,438.125 L1396.8906,438.125 Q1396.2656,438.125 1396.0078,437.8906 Q1395.75,437.6563 1395.75,437.2656 Q1395.75,436.8906 1396.0078,436.6563 Q1396.2656,436.4219 1396.8906,436.4219 L1404.5156,436.4219 L1404.5156,439.0156 Q1404.5156,439.625 1404.2891,439.8828 Q1404.0625,440.1406 1403.6719,440.1406 Q1403.2969,440.1406 1403.0625,439.8828 Q1402.8281,439.625 1402.8281,439.0156 L1402.8281,438.125 L1398.8594,438.125 L1398.8594,440.5781 L1400.3438,440.5781 Q1400.3438,439.9219 1400.4688,439.7344 Q1400.7344,439.3281 1401.2031,439.3281 Q1401.5781,439.3281 1401.8125,439.5859 Q1402.0469,439.8438 1402.0469,440.4531 L1402.0469,442.4219 Q1402.0469,442.9688 1401.9219,443.1563 Q1401.6563,443.5469 1401.2031,443.5469 Q1400.7344,443.5469 1400.4688,443.1406 Q1400.3438,442.9531 1400.3438,442.2813 L1398.8594,442.2813 Z " fill="#000000"/><text fill="#000000" font-family="sans-serif" font-size="14" lengthAdjust="spacing" textLength="50" x="1414" y="447.2129">cdl_251</text><line style="stroke:#181818;stroke-width:0.5;" x1="1386" x2="1466" y1="457.4844" y2="457.4844"/><text fill="#000000" font-family="sans-serif" font-size="14" lengthAdjust="spacing" textLength="20" x="1391" y="476.0176">pdf</text><text fill="#000000" font-family="sans-serif" font-size="14" lengthAdjust="spacing" textLength="21" x="1391" y="493.627">csv</text><text fill="#000000" font-family="sans-serif" font-size="14" lengthAdjust="spacing" textLength="14" x="1391" y="511.2363">txt</text></g><!--reverse link berichtstructuur to commonFunctional.default--><g id="link_berichtstructuur_commonFunctional.default"><path codeLine="135" d="M785.5402,168.4726 C769.5602,183.9126 754.75,198.2144 732.34,219.8644 " fill="none" id="berichtstructuur-backto-commonFunctional.default" style="stroke:#181818;stroke-width:1.0;"/><polygon fill="none" points="794.17,160.1344,787.0757,161.4269,785.5402,168.4726,792.6345,167.1801,794.17,160.1344" style="stroke:#181818;stroke-width:1.0;"/><text fill="#000000" font-family="sans-serif" font-size="13" lengthAdjust="spacing" textLength="22" x="716.6231" y="209.0382">1..1</text></g><!--reverse link berichtstructuur to commonTechnical.default--><g id="link_berichtstructuur_commonTechnical.default"><path codeLine="136" d="M736.8003,159.2625 C679.0803,173.5225 604.77,193.5844 532,219.9844 C522.1,223.5744 511.93,227.5544 501.79,231.7244 " fill="none" id="berichtstructuur-backto-commonTechnical.default" style="stroke:#181818;stroke-width:1.0;"/><polygon fill="none" points="748.45,156.3844,741.6658,153.9402,736.8003,159.2625,743.5845,161.7067,748.45,156.3844" style="stroke:#181818;stroke-width:1.0;"/><text fill="#000000" font-family="sans-serif" font-size="13" lengthAdjust="spacing" textLength="22" x="509.5281" y="225.3563">1..1</text></g><!--reverse link berichtstructuur to document.default--><g id="link_berichtstructuur_document.default"><path codeLine="137" d="M891.3056,160.039 C953.7856,175.569 1038.69,197.1044 1122,219.9844 C1156.88,229.5644 1194.79,240.5044 1228.93,250.5344 " fill="none" id="berichtstructuur-backto-document.default" style="stroke:#181818;stroke-width:1.0;"/><polygon fill="none" points="879.66,157.1444,884.5179,162.4736,891.3056,160.039,886.4477,154.7098,879.66,157.1444" style="stroke:#181818;stroke-width:1.0;"/><text fill="#000000" font-family="sans-serif" font-size="13" lengthAdjust="spacing" textLength="29" x="1192.0779" y="245.3713">0..99</text></g><!--reverse link berichtstructuur to party.pensionProvider--><g id="link_berichtstructuur_party.pensionProvider"><path codeLine="138" d="M842.6208,168.4404 C860.9308,186.0004 880.27,204.5644 905.43,228.7044 " fill="none" id="berichtstructuur-backto-party.pensionProvider" style="stroke:#181818;stroke-width:1.0;"/><polygon fill="none" points="833.96,160.1344,835.5217,167.1743,842.6208,168.4404,841.0591,161.4005,833.96,160.1344" style="stroke:#181818;stroke-width:1.0;"/><text fill="#000000" font-family="sans-serif" font-size="13" lengthAdjust="spacing" textLength="22" x="874.7726" y="218.0862">1..1</text></g><!--reverse link commonTechnical.default to party.receiver--><g id="link_commonTechnical.default_party.receiver"><path codeLine="139" d="M392,351.0344 C392,375.4844 392,392.3344 392,416.8044 " fill="none" id="commonTechnical.default-backto-party.receiver" style="stroke:#181818;stroke-width:1.0;"/><polygon fill="none" points="392,339.0344,388,345.0344,392,351.0344,396,345.0344,392,339.0344" style="stroke:#181818;stroke-width:1.0;"/><text fill="#000000" font-family="sans-serif" font-size="13" lengthAdjust="spacing" textLength="22" x="368.5906" y="406.199">1..1</text></g><!--reverse link commonTechnical.default to party.sender--><g id="link_commonTechnical.default_party.sender"><path codeLine="140" d="M304.5646,345.895 C273.6246,367.455 247.63,385.5644 215.5,407.9344 " fill="none" id="commonTechnical.default-backto-party.sender" style="stroke:#181818;stroke-width:1.0;"/><polygon fill="none" points="314.41,339.0344,307.2004,339.1829,304.5646,345.895,311.7742,345.7465,314.41,339.0344" style="stroke:#181818;stroke-width:1.0;"/><text fill="#000000" font-family="sans-serif" font-size="13" lengthAdjust="spacing" textLength="22" x="202.6922" y="397.1163">1..1</text></g><!--reverse link party.pensionProvider to pension.scheme--><g id="link_party.pensionProvider_pension.scheme"><path codeLine="141" d="M957.741,351.0097 C956.171,375.4597 955.07,392.3344 953.5,416.8044 " fill="none" id="party.pensionProvider-backto-pension.scheme" style="stroke:#181818;stroke-width:1.0;"/><polygon fill="none" points="958.51,339.0344,954.1337,344.7657,957.741,351.0097,962.1173,345.2784,958.51,339.0344" style="stroke:#181818;stroke-width:1.0;"/><text fill="#000000" font-family="sans-serif" font-size="13" lengthAdjust="spacing" textLength="36" x="915.6422" y="406.199">1..999</text></g><!--reverse link party.sender to party.contact--><g id="link_party.sender_party.contact"><path codeLine="142" d="M125,548.1344 C125,586.5744 125,622.7744 125,657.4744 " fill="none" id="party.sender-backto-party.contact" style="stroke:#181818;stroke-width:1.0;"/><polygon fill="none" points="125,536.1344,121,542.1344,125,548.1344,129,542.1344,125,536.1344" style="stroke:#181818;stroke-width:1.0;"/><text fill="#000000" font-family="sans-serif" font-size="13" lengthAdjust="spacing" textLength="22" x="101.3156" y="646.6627">0..9</text></g><!--reverse link pension.cohort to investment.portfolio--><g id="link_pension.cohort_investment.portfolio"><path codeLine="143" d="M835.7094,820.784 C815.5994,841.154 803.6,853.3244 785.38,871.7744 " fill="none" id="pension.cohort-backto-investment.portfolio" style="stroke:#181818;stroke-width:1.0;"/><polygon fill="none" points="844.14,812.2444,837.0782,813.704,835.7094,820.784,842.7712,819.3244,844.14,812.2444" style="stroke:#181818;stroke-width:1.0;"/><text fill="#000000" font-family="sans-serif" font-size="13" lengthAdjust="spacing" textLength="29" x="761.9161" y="860.9378">0..99</text></g><!--reverse link pension.scheme to financialInformation.reportingPeriod--><g id="link_pension.scheme_financialInformation.reportingPeriod"><path codeLine="144" d="M874.4733,534.8042 C822.0633,577.6942 759.6,628.8344 713.76,666.3444 " fill="none" id="pension.scheme-backto-financialInformation.reportingPeriod" style="stroke:#181818;stroke-width:1.0;"/><polygon fill="none" points="883.76,527.2044,876.5834,527.9087,874.4733,534.8042,881.6499,534.0999,883.76,527.2044" style="stroke:#181818;stroke-width:1.0;"/><text fill="#000000" font-family="sans-serif" font-size="13" lengthAdjust="spacing" textLength="22" x="697.7735" y="655.7217">1..1</text></g><!--reverse link pension.scheme to investment.portfolio_1--><g id="link_pension.scheme_investment.portfolio_1"><path codeLine="145" d="M1019.7778,535.1892 C1057.6178,568.9192 1097.48,604.4544 1137.08,639.7544 " fill="none" id="pension.scheme-backto-investment.portfolio_1" style="stroke:#181818;stroke-width:1.0;"/><polygon fill="none" points="1010.82,527.2044,1012.6373,534.1827,1019.7778,535.1892,1017.9605,528.2109,1010.82,527.2044" style="stroke:#181818;stroke-width:1.0;"/><text fill="#000000" font-family="sans-serif" font-size="13" lengthAdjust="spacing" textLength="29" x="1098.2033" y="628.9155">0..99</text></g><!--reverse link pension.scheme to pension.cohort--><g id="link_pension.scheme_pension.cohort"><path codeLine="146" d="M950,539.2044 C950,559.7844 950,572.0144 950,595.8044 " fill="none" id="pension.scheme-backto-pension.cohort" style="stroke:#181818;stroke-width:1.0;"/><polygon fill="none" points="950,527.2044,946,533.2044,950,539.2044,954,533.2044,950,527.2044" style="stroke:#181818;stroke-width:1.0;"/><text fill="#000000" font-family="sans-serif" font-size="13" lengthAdjust="spacing" textLength="50" x="898.2422" y="585.1396">1..99999</text></g><!--reverse link commonFunctional.default to ADNFUN--><g id="link_commonFunctional.default_ADNFUN"><path codeLine="147" d="M667,360.2144 C667,385.4944 667,402.0444 667,425.2544 " fill="none" id="commonFunctional.default-backto-ADNFUN" style="stroke:#181818;stroke-width:1.0;"/><polygon fill="none" points="667,348.2144,663,354.2144,667,360.2144,671,354.2144,667,348.2144" style="stroke:#181818;stroke-width:1.0;"/><text fill="#000000" font-family="sans-serif" font-size="13" lengthAdjust="spacing" textLength="45" x="618.6953" y="414.7495">function</text></g><!--reverse link document.default to cdl_251--><g id="link_document.default_cdl_251"><path codeLine="148" d="M1368.0405,349.8585 C1381.1305,377.2085 1391.66,399.2244 1404.14,425.2944 " fill="none" id="document.default-backto-cdl_251" style="stroke:#181818;stroke-width:1.0;"/><polygon fill="none" points="1362.86,339.0344,1361.8422,346.1733,1368.0405,349.8585,1369.0583,342.7196,1362.86,339.0344" style="stroke:#181818;stroke-width:1.0;"/><text fill="#000000" font-family="sans-serif" font-size="13" lengthAdjust="spacing" textLength="74" x="1406.3637" y="414.7953">fileExtension</text></g><!--reverse link party.pensionProvider to AFDIDP--><g id="link_party.pensionProvider_AFDIDP"><path codeLine="149" d="M1049.1338,345.9117 C1086.2538,371.8717 1120.6,395.8844 1156.88,421.2544 " fill="none" id="party.pensionProvider-backto-AFDIDP" style="stroke:#181818;stroke-width:1.0;"/><polygon fill="none" points="1039.3,339.0344,1041.9245,345.7509,1049.1338,345.9117,1046.5093,339.1951,1039.3,339.0344" style="stroke:#181818;stroke-width:1.0;"/><text fill="#000000" font-family="sans-serif" font-size="13" lengthAdjust="spacing" textLength="49" x="1094.4334" y="410.5274">puvCode</text></g><!--reverse link pension.cohort to ADNDNS--><g id="link_pension.cohort_ADNDNS"><path codeLine="150" d="M950,824.2444 C950,851.4144 950,867.1644 950,889.3844 " fill="none" id="pension.cohort-backto-ADNDNS" style="stroke:#181818;stroke-width:1.0;"/><polygon fill="none" points="950,812.2444,946,818.2444,950,824.2444,954,818.2444,950,812.2444" style="stroke:#181818;stroke-width:1.0;"/><text fill="#000000" font-family="sans-serif" font-size="13" lengthAdjust="spacing" textLength="108" x="841.486" y="878.7933">participationStatus</text></g><!--reverse link pension.cohort to AFDRES--><g id="link_pension.cohort_AFDRES"><path codeLine="151" d="M1043.2986,821.613 C1068.0386,852.523 1085.87,874.8244 1104.61,898.2544 " fill="none" id="pension.cohort-backto-AFDRES" style="stroke:#181818;stroke-width:1.0;"/><polygon fill="none" points="1035.8,812.2444,1036.4264,819.4282,1043.2986,821.613,1042.6722,814.4292,1035.8,812.2444" style="stroke:#181818;stroke-width:1.0;"/><text fill="#000000" font-family="sans-serif" font-size="13" lengthAdjust="spacing" textLength="69" x="1024.2296" y="887.6157">reserveType</text></g><!--SRC=[vLTDRziu4BthLn0w9GQgs5diTXsu0TArKmJRECOccnu3cXh5iv58WQJSE47_-mufoR4jsNMA5ZtK5ydYcuytd1aEPnW3oy3EL6m20vOPoBdcLcacbOGWIE4UPCoiobaAYGq61f_WvBXxEfYUVXnz68s79snmD3rb0w5IfKyqn6wfs-tskFi-EFBVwUa4JuDUn6ZvlKfZB_MENN8PEtiBbY2avCKn8V3qml8KnU087UOgjwWaJsl8Rn6B8bR-tZ6KGcLv2XPOYiQoW-NVEKyBC4n9nfFuBnM3MpU7WMDK4Wi2aN9Zs1GqYfarLXV25eLcpr_g9TAMANa3OYPHy3IA8U55QjbpuCm_6yijYY-iqm5fqIvk5Zcm4qQQKDwJTs653pkTKi1pSFWCZE7tS14luGTlkuSDcD307VqXjt23cLDkwK5sitm3J76pj71PAYRWLAaKk7HX39Q4Q8Fj8ZB47lJUB4fuauI6v6zOx690Jcc3Sbna5EGNOF_GUxMkJUbxBl79yntpxCM5Wp_QzF8yfoJnw6llNqEcZRbGqdAn_mPM-2Pto3YcdvH-sELcf_EP49CPLTDc24hmXdSQ1E3y5JjJ2_pilTaecFD2Yh9glr_599NE9Rg1e3eVGe8Icrx-sR8rQ_1Re5YiA6-He7WfZVT8h2vRgxSjttAGJkz4gpc-fkGsv9hXo8kvQshRel53DhToAZ9Y1WJRktru-BUaAD4iJLvx5L_h2fqE-QBjMQOAQGaOWy2CfwiKQB-v5CZJ2vaedNdEL7QvqfPqJkWaKF4hgczDBcntn_Lkvmmzse8fr8oKlA8XEVYt1JC68pJcQrNKtbnTygB0l6olv5DXbXAD329y6NT_xA2qTBhgDXIrwTqOHyE0diE5Z5rlL_hb76j9y1Ax5g8sinLkk8LzYnTVJIEKSpfhCzgZoAL0eb9K-zTsBV6ZTz7J63tcoXGQDkbitSPQW99Q48Doc5WLsXc5kzwl5uTOYS97uRiTTllmJp3TeoCwrEZHbirczRGWxq4M6JiRZeVZwyhbiol6JOwQKuHex4586fybmlfQ-RgYxlpVSQLkZ51yzc-VyBydfA6x5E4o8_T0qkXDCQ9B0B2S4e6czPpEpOS7i2_wpeSNmqcbxzf6R994T2S0EUKQs7kSKlxO6JpKgaSVhiRi8yo9CCr5JxJWWpsERYCFcFX807L_6HisLzHYoFgP42uhw6XOU5GKhJhmpwYEppLv6NED5j2Qgg_uXKkQ8p9EjnGo2kuY0ewj-vSfzt9mUJkwFVHGSbxxlWefi5f7RKt4wTtnxtKDvN4POs7c_caVVM0Q5nRrvWqBUr7K2xSEO7i8DQuvMsIwKTJlXusitscXTHeAjbsl6eBrdBk_H7bd2Tgdi1hTTppMfvfWxOQqv1kktn-2ZTDxDIvjNJ7O69rMtDrd8caLts7khhVDOB-_nhbqFzWwjNknUl8Eg-8E6lskXArsch3Ev5qxKCsmOLNahK5jcKJ2gcUrubU6Wh2gtVy1]--></g></svg>