<svg xmlns="http://www.w3.org/2000/svg" xmlns:xlink="http://www.w3.org/1999/xlink" contentStyleType="text/css" height="944px" preserveAspectRatio="none" style="width:1660px;height:944px;background:#FFFFFF;" version="1.1" viewBox="0 0 1660 944" width="1660px" zoomAndPan="magnify"><defs/><g><rect fill="#DDDDDD" height="87.9844" id="_legend" rx="7.5" ry="7.5" style="stroke:#000000;stroke-width:1.0;" width="556" x="12" y="12"/><text fill="#000000" font-family="sans-serif" font-size="20" font-weight="bold" lengthAdjust="spacing" textLength="89" x="17" y="37.7617">LEGEND:</text><text fill="#000000" font-family="sans-serif" font-size="20" lengthAdjust="spacing" textLength="6" x="112" y="37.7617">&#160;</text><text fill="#FF0000" font-family="sans-serif" font-size="20" font-weight="bold" lengthAdjust="spacing" textLength="445" x="118" y="37.7617">13. Waarde-informatie beleggingspool (00555b)</text><text fill="#000000" font-family="sans-serif" font-size="14" lengthAdjust="spacing" textLength="12" x="17" y="56.6895">1.</text><text fill="#000000" font-family="sans-serif" font-size="14" font-weight="bold" lengthAdjust="spacing" textLength="32" x="33" y="56.6895">Bold</text><text fill="#000000" font-family="sans-serif" font-size="14" lengthAdjust="spacing" textLength="116" x="69" y="56.6895">= Mandatory fields</text><text fill="#000000" font-family="sans-serif" font-size="14" lengthAdjust="spacing" textLength="12" x="17" y="74.2988">2.</text><text fill="#000000" font-family="sans-serif" font-size="14" font-style="italic" lengthAdjust="spacing" textLength="29" x="33" y="74.2988">Italic</text><text fill="#000000" font-family="sans-serif" font-size="14" lengthAdjust="spacing" textLength="102" x="66" y="74.2988">= Optional fields</text><text fill="#000000" font-family="sans-serif" font-size="14" lengthAdjust="spacing" textLength="371" x="17" y="91.9082">3. ..       = incomplete list (complete values on afdCodelists)</text><!--class berichtstructuur--><g id="elem_berichtstructuur"><rect codeLine="11" fill="#F1F1F1" height="40" id="berichtstructuur" rx="2.5" ry="2.5" style="stroke:#181818;stroke-width:0.5;" width="131" x="914.5" y="119.9844"/><ellipse cx="929.5" cy="135.9844" fill="#ADD1B2" rx="11" ry="11" style="stroke:#181818;stroke-width:1.0;"/><path d="M932.2656,131.8594 Q932.4219,131.6406 932.6094,131.5313 Q932.7969,131.4219 933.0156,131.4219 Q933.3906,131.4219 933.625,131.6797 Q933.8594,131.9375 933.8594,132.5469 L933.8594,134 Q933.8594,134.6094 933.625,134.875 Q933.3906,135.1406 933.0156,135.1406 Q932.6719,135.1406 932.4688,134.9375 Q932.2656,134.75 932.1563,134.2344 Q932.1094,133.875 931.9219,133.6875 Q931.5938,133.3125 930.9844,133.0938 Q930.375,132.875 929.75,132.875 Q928.9844,132.875 928.3516,133.2031 Q927.7188,133.5313 927.2266,134.2813 Q926.7344,135.0313 926.7344,136.0625 L926.7344,137.1563 Q926.7344,138.3906 927.625,139.2109 Q928.5156,140.0313 930.1094,140.0313 Q931.0469,140.0313 931.7031,139.7813 Q932.0938,139.625 932.5156,139.1875 Q932.7813,138.9219 932.9297,138.8438 Q933.0781,138.7656 933.2813,138.7656 Q933.6094,138.7656 933.8672,139.0234 Q934.125,139.2813 934.125,139.625 Q934.125,139.9688 933.7813,140.375 Q933.2813,140.9531 932.4844,141.2813 Q931.4063,141.7344 930.1094,141.7344 Q928.5938,141.7344 927.3906,141.1094 Q926.4063,140.6094 925.7188,139.5391 Q925.0313,138.4688 925.0313,137.1875 L925.0313,136.0313 Q925.0313,134.7031 925.6484,133.5547 Q926.2656,132.4063 927.3594,131.7891 Q928.4531,131.1719 929.6875,131.1719 Q930.4219,131.1719 931.0703,131.3359 Q931.7188,131.5 932.2656,131.8594 Z " fill="#000000"/><text fill="#000000" font-family="sans-serif" font-size="14" lengthAdjust="spacing" textLength="99" x="943.5" y="141.7129">berichtstructuur</text><line style="stroke:#181818;stroke-width:0.5;" x1="915.5" x2="1044.5" y1="151.9844" y2="151.9844"/></g><!--class commonTechnical.default--><g id="elem_commonTechnical.default"><rect codeLine="13" fill="#F1F1F1" height="110.4375" id="commonTechnical.default" rx="2.5" ry="2.5" style="stroke:#181818;stroke-width:0.5;" width="219" x="282.5" y="228.9844"/><ellipse cx="309.2" cy="244.9844" fill="#ADD1B2" rx="11" ry="11" style="stroke:#181818;stroke-width:1.0;"/><path d="M311.9656,240.8594 Q312.1219,240.6406 312.3094,240.5313 Q312.4969,240.4219 312.7156,240.4219 Q313.0906,240.4219 313.325,240.6797 Q313.5594,240.9375 313.5594,241.5469 L313.5594,243 Q313.5594,243.6094 313.325,243.875 Q313.0906,244.1406 312.7156,244.1406 Q312.3719,244.1406 312.1688,243.9375 Q311.9656,243.75 311.8563,243.2344 Q311.8094,242.875 311.6219,242.6875 Q311.2938,242.3125 310.6844,242.0938 Q310.075,241.875 309.45,241.875 Q308.6844,241.875 308.0516,242.2031 Q307.4188,242.5313 306.9266,243.2813 Q306.4344,244.0313 306.4344,245.0625 L306.4344,246.1563 Q306.4344,247.3906 307.325,248.2109 Q308.2156,249.0313 309.8094,249.0313 Q310.7469,249.0313 311.4031,248.7813 Q311.7938,248.625 312.2156,248.1875 Q312.4813,247.9219 312.6297,247.8438 Q312.7781,247.7656 312.9813,247.7656 Q313.3094,247.7656 313.5672,248.0234 Q313.825,248.2813 313.825,248.625 Q313.825,248.9688 313.4813,249.375 Q312.9813,249.9531 312.1844,250.2813 Q311.1063,250.7344 309.8094,250.7344 Q308.2938,250.7344 307.0906,250.1094 Q306.1063,249.6094 305.4188,248.5391 Q304.7313,247.4688 304.7313,246.1875 L304.7313,245.0313 Q304.7313,243.7031 305.3484,242.5547 Q305.9656,241.4063 307.0594,240.7891 Q308.1531,240.1719 309.3875,240.1719 Q310.1219,240.1719 310.7703,240.3359 Q311.4188,240.5 311.9656,240.8594 Z " fill="#000000"/><text fill="#000000" font-family="sans-serif" font-size="14" lengthAdjust="spacing" textLength="161" x="325.8" y="250.7129">commonTechnical.default</text><line style="stroke:#181818;stroke-width:0.5;" x1="283.5" x2="500.5" y1="260.9844" y2="260.9844"/><text fill="#000000" font-family="sans-serif" font-size="14" font-weight="bold" lengthAdjust="spacing" text-decoration="underline" textLength="204" x="288.5" y="279.5176">entityType : string = "default"</text><text fill="#000000" font-family="sans-serif" font-size="14" font-weight="bold" lengthAdjust="spacing" textLength="155" x="288.5" y="297.127">messageId : string(70)</text><text fill="#000000" font-family="sans-serif" font-size="14" font-weight="bold" lengthAdjust="spacing" textLength="207" x="288.5" y="314.7363">creationDateTime : timestamp</text><text fill="#000000" font-family="sans-serif" font-size="14" font-style="italic" lengthAdjust="spacing" textLength="144" x="288.5" y="332.3457">testMessage : boolean</text></g><!--class party.sender--><g id="elem_party.sender"><rect codeLine="20" fill="#F1F1F1" height="128.0469" id="party.sender" rx="2.5" ry="2.5" style="stroke:#181818;stroke-width:0.5;" width="236" x="7" y="407.9844"/><ellipse cx="80.75" cy="423.9844" fill="#ADD1B2" rx="11" ry="11" style="stroke:#181818;stroke-width:1.0;"/><path d="M83.5156,419.8594 Q83.6719,419.6406 83.8594,419.5313 Q84.0469,419.4219 84.2656,419.4219 Q84.6406,419.4219 84.875,419.6797 Q85.1094,419.9375 85.1094,420.5469 L85.1094,422 Q85.1094,422.6094 84.875,422.875 Q84.6406,423.1406 84.2656,423.1406 Q83.9219,423.1406 83.7188,422.9375 Q83.5156,422.75 83.4063,422.2344 Q83.3594,421.875 83.1719,421.6875 Q82.8438,421.3125 82.2344,421.0938 Q81.625,420.875 81,420.875 Q80.2344,420.875 79.6016,421.2031 Q78.9688,421.5313 78.4766,422.2813 Q77.9844,423.0313 77.9844,424.0625 L77.9844,425.1563 Q77.9844,426.3906 78.875,427.2109 Q79.7656,428.0313 81.3594,428.0313 Q82.2969,428.0313 82.9531,427.7813 Q83.3438,427.625 83.7656,427.1875 Q84.0313,426.9219 84.1797,426.8438 Q84.3281,426.7656 84.5313,426.7656 Q84.8594,426.7656 85.1172,427.0234 Q85.375,427.2813 85.375,427.625 Q85.375,427.9688 85.0313,428.375 Q84.5313,428.9531 83.7344,429.2813 Q82.6563,429.7344 81.3594,429.7344 Q79.8438,429.7344 78.6406,429.1094 Q77.6563,428.6094 76.9688,427.5391 Q76.2813,426.4688 76.2813,425.1875 L76.2813,424.0313 Q76.2813,422.7031 76.8984,421.5547 Q77.5156,420.4063 78.6094,419.7891 Q79.7031,419.1719 80.9375,419.1719 Q81.6719,419.1719 82.3203,419.3359 Q82.9688,419.5 83.5156,419.8594 Z " fill="#000000"/><text fill="#000000" font-family="sans-serif" font-size="14" lengthAdjust="spacing" textLength="80" x="101.25" y="429.7129">party.sender</text><line style="stroke:#181818;stroke-width:0.5;" x1="8" x2="242" y1="439.9844" y2="439.9844"/><text fill="#000000" font-family="sans-serif" font-size="14" font-weight="bold" lengthAdjust="spacing" text-decoration="underline" textLength="205" x="13" y="458.5176">entityType : string = "sender"</text><text fill="#000000" font-family="sans-serif" font-size="14" font-weight="bold" lengthAdjust="spacing" textLength="125" x="13" y="476.127">refKey : string(70)</text><text fill="#000000" font-family="sans-serif" font-size="14" font-style="italic" lengthAdjust="spacing" textLength="138" x="13" y="493.7363">rsinNumber : string(9)</text><text fill="#000000" font-family="sans-serif" font-size="14" font-weight="bold" lengthAdjust="spacing" textLength="205" x="13" y="511.3457">organizationName : string(60)</text><text fill="#000000" font-family="sans-serif" font-size="14" font-style="italic" lengthAdjust="spacing" textLength="224" x="13" y="528.9551">applicationSenderName : string(60)</text></g><!--class party.contact--><g id="elem_party.contact"><rect codeLine="28" fill="#F1F1F1" height="92.8281" id="party.contact" rx="2.5" ry="2.5" style="stroke:#181818;stroke-width:0.5;" width="225" x="12.5" y="639.9844"/><ellipse cx="79.75" cy="655.9844" fill="#ADD1B2" rx="11" ry="11" style="stroke:#181818;stroke-width:1.0;"/><path d="M82.5156,651.8594 Q82.6719,651.6406 82.8594,651.5313 Q83.0469,651.4219 83.2656,651.4219 Q83.6406,651.4219 83.875,651.6797 Q84.1094,651.9375 84.1094,652.5469 L84.1094,654 Q84.1094,654.6094 83.875,654.875 Q83.6406,655.1406 83.2656,655.1406 Q82.9219,655.1406 82.7188,654.9375 Q82.5156,654.75 82.4063,654.2344 Q82.3594,653.875 82.1719,653.6875 Q81.8438,653.3125 81.2344,653.0938 Q80.625,652.875 80,652.875 Q79.2344,652.875 78.6016,653.2031 Q77.9688,653.5313 77.4766,654.2813 Q76.9844,655.0313 76.9844,656.0625 L76.9844,657.1563 Q76.9844,658.3906 77.875,659.2109 Q78.7656,660.0313 80.3594,660.0313 Q81.2969,660.0313 81.9531,659.7813 Q82.3438,659.625 82.7656,659.1875 Q83.0313,658.9219 83.1797,658.8438 Q83.3281,658.7656 83.5313,658.7656 Q83.8594,658.7656 84.1172,659.0234 Q84.375,659.2813 84.375,659.625 Q84.375,659.9688 84.0313,660.375 Q83.5313,660.9531 82.7344,661.2813 Q81.6563,661.7344 80.3594,661.7344 Q78.8438,661.7344 77.6406,661.1094 Q76.6563,660.6094 75.9688,659.5391 Q75.2813,658.4688 75.2813,657.1875 L75.2813,656.0313 Q75.2813,654.7031 75.8984,653.5547 Q76.5156,652.4063 77.6094,651.7891 Q78.7031,651.1719 79.9375,651.1719 Q80.6719,651.1719 81.3203,651.3359 Q81.9688,651.5 82.5156,651.8594 Z " fill="#000000"/><text fill="#000000" font-family="sans-serif" font-size="14" lengthAdjust="spacing" textLength="82" x="100.25" y="661.7129">party.contact</text><line style="stroke:#181818;stroke-width:0.5;" x1="13.5" x2="236.5" y1="671.9844" y2="671.9844"/><text fill="#000000" font-family="sans-serif" font-size="14" font-weight="bold" lengthAdjust="spacing" text-decoration="underline" textLength="207" x="18.5" y="690.5176">entityType : string = "contact"</text><text fill="#000000" font-family="sans-serif" font-size="14" font-weight="bold" lengthAdjust="spacing" textLength="152" x="18.5" y="708.127">emailWork : string(60)</text><text fill="#000000" font-family="sans-serif" font-size="14" font-weight="bold" lengthAdjust="spacing" textLength="213" x="18.5" y="725.7363">workPhoneNumber : string(60)</text></g><!--class party.receiver--><g id="elem_party.receiver"><rect codeLine="34" fill="#F1F1F1" height="110.4375" id="party.receiver" rx="2.5" ry="2.5" style="stroke:#181818;stroke-width:0.5;" width="227" x="278.5" y="416.9844"/><ellipse cx="344.25" cy="432.9844" fill="#ADD1B2" rx="11" ry="11" style="stroke:#181818;stroke-width:1.0;"/><path d="M347.0156,428.8594 Q347.1719,428.6406 347.3594,428.5313 Q347.5469,428.4219 347.7656,428.4219 Q348.1406,428.4219 348.375,428.6797 Q348.6094,428.9375 348.6094,429.5469 L348.6094,431 Q348.6094,431.6094 348.375,431.875 Q348.1406,432.1406 347.7656,432.1406 Q347.4219,432.1406 347.2188,431.9375 Q347.0156,431.75 346.9063,431.2344 Q346.8594,430.875 346.6719,430.6875 Q346.3438,430.3125 345.7344,430.0938 Q345.125,429.875 344.5,429.875 Q343.7344,429.875 343.1016,430.2031 Q342.4688,430.5313 341.9766,431.2813 Q341.4844,432.0313 341.4844,433.0625 L341.4844,434.1563 Q341.4844,435.3906 342.375,436.2109 Q343.2656,437.0313 344.8594,437.0313 Q345.7969,437.0313 346.4531,436.7813 Q346.8438,436.625 347.2656,436.1875 Q347.5313,435.9219 347.6797,435.8438 Q347.8281,435.7656 348.0313,435.7656 Q348.3594,435.7656 348.6172,436.0234 Q348.875,436.2813 348.875,436.625 Q348.875,436.9688 348.5313,437.375 Q348.0313,437.9531 347.2344,438.2813 Q346.1563,438.7344 344.8594,438.7344 Q343.3438,438.7344 342.1406,438.1094 Q341.1563,437.6094 340.4688,436.5391 Q339.7813,435.4688 339.7813,434.1875 L339.7813,433.0313 Q339.7813,431.7031 340.3984,430.5547 Q341.0156,429.4063 342.1094,428.7891 Q343.2031,428.1719 344.4375,428.1719 Q345.1719,428.1719 345.8203,428.3359 Q346.4688,428.5 347.0156,428.8594 Z " fill="#000000"/><text fill="#000000" font-family="sans-serif" font-size="14" lengthAdjust="spacing" textLength="87" x="364.75" y="438.7129">party.receiver</text><line style="stroke:#181818;stroke-width:0.5;" x1="279.5" x2="504.5" y1="448.9844" y2="448.9844"/><text fill="#000000" font-family="sans-serif" font-size="14" font-weight="bold" lengthAdjust="spacing" text-decoration="underline" textLength="215" x="284.5" y="467.5176">entityType : string = "receiver"</text><text fill="#000000" font-family="sans-serif" font-size="14" font-weight="bold" lengthAdjust="spacing" textLength="125" x="284.5" y="485.127">refKey : string(70)</text><text fill="#000000" font-family="sans-serif" font-size="14" font-style="italic" lengthAdjust="spacing" textLength="138" x="284.5" y="502.7363">rsinNumber : string(9)</text><text fill="#000000" font-family="sans-serif" font-size="14" font-weight="bold" lengthAdjust="spacing" textLength="205" x="284.5" y="520.3457">organizationName : string(60)</text></g><!--class commonFunctional.default--><g id="elem_commonFunctional.default"><rect codeLine="41" fill="#F1F1F1" height="128.0469" id="commonFunctional.default" rx="2.5" ry="2.5" style="stroke:#181818;stroke-width:0.5;" width="235" x="565.5" y="219.9844"/><ellipse cx="597.15" cy="235.9844" fill="#ADD1B2" rx="11" ry="11" style="stroke:#181818;stroke-width:1.0;"/><path d="M599.9156,231.8594 Q600.0719,231.6406 600.2594,231.5313 Q600.4469,231.4219 600.6656,231.4219 Q601.0406,231.4219 601.275,231.6797 Q601.5094,231.9375 601.5094,232.5469 L601.5094,234 Q601.5094,234.6094 601.275,234.875 Q601.0406,235.1406 600.6656,235.1406 Q600.3219,235.1406 600.1188,234.9375 Q599.9156,234.75 599.8063,234.2344 Q599.7594,233.875 599.5719,233.6875 Q599.2438,233.3125 598.6344,233.0938 Q598.025,232.875 597.4,232.875 Q596.6344,232.875 596.0016,233.2031 Q595.3688,233.5313 594.8766,234.2813 Q594.3844,235.0313 594.3844,236.0625 L594.3844,237.1563 Q594.3844,238.3906 595.275,239.2109 Q596.1656,240.0313 597.7594,240.0313 Q598.6969,240.0313 599.3531,239.7813 Q599.7438,239.625 600.1656,239.1875 Q600.4313,238.9219 600.5797,238.8438 Q600.7281,238.7656 600.9313,238.7656 Q601.2594,238.7656 601.5172,239.0234 Q601.775,239.2813 601.775,239.625 Q601.775,239.9688 601.4313,240.375 Q600.9313,240.9531 600.1344,241.2813 Q599.0563,241.7344 597.7594,241.7344 Q596.2438,241.7344 595.0406,241.1094 Q594.0563,240.6094 593.3688,239.5391 Q592.6813,238.4688 592.6813,237.1875 L592.6813,236.0313 Q592.6813,234.7031 593.2984,233.5547 Q593.9156,232.4063 595.0094,231.7891 Q596.1031,231.1719 597.3375,231.1719 Q598.0719,231.1719 598.7203,231.3359 Q599.3688,231.5 599.9156,231.8594 Z " fill="#000000"/><text fill="#000000" font-family="sans-serif" font-size="14" lengthAdjust="spacing" textLength="166" x="614.85" y="241.7129">commonFunctional.default</text><line style="stroke:#181818;stroke-width:0.5;" x1="566.5" x2="799.5" y1="251.9844" y2="251.9844"/><text fill="#000000" font-family="sans-serif" font-size="14" font-weight="bold" lengthAdjust="spacing" text-decoration="underline" textLength="204" x="571.5" y="270.5176">entityType : string = "default"</text><text fill="#000000" font-family="sans-serif" font-size="14" font-weight="bold" lengthAdjust="spacing" textLength="111" x="571.5" y="288.127">function : string</text><text fill="#000000" font-family="sans-serif" font-size="14" font-weight="bold" lengthAdjust="spacing" textLength="208" x="571.5" y="305.7363">afdDefinitionName : string(80)</text><text fill="#000000" font-family="sans-serif" font-size="14" font-weight="bold" lengthAdjust="spacing" textLength="223" x="571.5" y="323.3457">afdDefinitionVersion : string(80)</text><text fill="#000000" font-family="sans-serif" font-size="14" font-style="italic" lengthAdjust="spacing" textLength="189" x="571.5" y="340.9551">originalMessageId : string(70)</text></g><!--class party.pensionProvider--><g id="elem_party.pensionProvider"><rect codeLine="49" fill="#F1F1F1" height="110.4375" id="party.pensionProvider" rx="2.5" ry="2.5" style="stroke:#181818;stroke-width:0.5;" width="285" x="837.5" y="228.9844"/><ellipse cx="906.25" cy="244.9844" fill="#ADD1B2" rx="11" ry="11" style="stroke:#181818;stroke-width:1.0;"/><path d="M909.0156,240.8594 Q909.1719,240.6406 909.3594,240.5313 Q909.5469,240.4219 909.7656,240.4219 Q910.1406,240.4219 910.375,240.6797 Q910.6094,240.9375 910.6094,241.5469 L910.6094,243 Q910.6094,243.6094 910.375,243.875 Q910.1406,244.1406 909.7656,244.1406 Q909.4219,244.1406 909.2188,243.9375 Q909.0156,243.75 908.9063,243.2344 Q908.8594,242.875 908.6719,242.6875 Q908.3438,242.3125 907.7344,242.0938 Q907.125,241.875 906.5,241.875 Q905.7344,241.875 905.1016,242.2031 Q904.4688,242.5313 903.9766,243.2813 Q903.4844,244.0313 903.4844,245.0625 L903.4844,246.1563 Q903.4844,247.3906 904.375,248.2109 Q905.2656,249.0313 906.8594,249.0313 Q907.7969,249.0313 908.4531,248.7813 Q908.8438,248.625 909.2656,248.1875 Q909.5313,247.9219 909.6797,247.8438 Q909.8281,247.7656 910.0313,247.7656 Q910.3594,247.7656 910.6172,248.0234 Q910.875,248.2813 910.875,248.625 Q910.875,248.9688 910.5313,249.375 Q910.0313,249.9531 909.2344,250.2813 Q908.1563,250.7344 906.8594,250.7344 Q905.3438,250.7344 904.1406,250.1094 Q903.1563,249.6094 902.4688,248.5391 Q901.7813,247.4688 901.7813,246.1875 L901.7813,245.0313 Q901.7813,243.7031 902.3984,242.5547 Q903.0156,241.4063 904.1094,240.7891 Q905.2031,240.1719 906.4375,240.1719 Q907.1719,240.1719 907.8203,240.3359 Q908.4688,240.5 909.0156,240.8594 Z " fill="#000000"/><text fill="#000000" font-family="sans-serif" font-size="14" lengthAdjust="spacing" textLength="139" x="926.75" y="250.7129">party.pensionProvider</text><line style="stroke:#181818;stroke-width:0.5;" x1="838.5" x2="1121.5" y1="260.9844" y2="260.9844"/><text fill="#000000" font-family="sans-serif" font-size="14" font-weight="bold" lengthAdjust="spacing" text-decoration="underline" textLength="273" x="843.5" y="279.5176">entityType : string = "pensionProvider"</text><text fill="#000000" font-family="sans-serif" font-size="14" font-weight="bold" lengthAdjust="spacing" textLength="117" x="843.5" y="297.127">puvCode : string</text><text fill="#000000" font-family="sans-serif" font-size="14" font-style="italic" lengthAdjust="spacing" textLength="138" x="843.5" y="314.7363">rsinNumber : string(9)</text><text fill="#000000" font-family="sans-serif" font-size="14" font-weight="bold" lengthAdjust="spacing" textLength="205" x="843.5" y="332.3457">organizationName : string(60)</text></g><!--class pension.scheme--><g id="elem_pension.scheme"><rect codeLine="56" fill="#F1F1F1" height="92.8281" id="pension.scheme" rx="2.5" ry="2.5" style="stroke:#181818;stroke-width:0.5;" width="243" x="858.5" y="425.4844"/><ellipse cx="924.25" cy="441.4844" fill="#ADD1B2" rx="11" ry="11" style="stroke:#181818;stroke-width:1.0;"/><path d="M927.0156,437.3594 Q927.1719,437.1406 927.3594,437.0313 Q927.5469,436.9219 927.7656,436.9219 Q928.1406,436.9219 928.375,437.1797 Q928.6094,437.4375 928.6094,438.0469 L928.6094,439.5 Q928.6094,440.1094 928.375,440.375 Q928.1406,440.6406 927.7656,440.6406 Q927.4219,440.6406 927.2188,440.4375 Q927.0156,440.25 926.9063,439.7344 Q926.8594,439.375 926.6719,439.1875 Q926.3438,438.8125 925.7344,438.5938 Q925.125,438.375 924.5,438.375 Q923.7344,438.375 923.1016,438.7031 Q922.4688,439.0313 921.9766,439.7813 Q921.4844,440.5313 921.4844,441.5625 L921.4844,442.6563 Q921.4844,443.8906 922.375,444.7109 Q923.2656,445.5313 924.8594,445.5313 Q925.7969,445.5313 926.4531,445.2813 Q926.8438,445.125 927.2656,444.6875 Q927.5313,444.4219 927.6797,444.3438 Q927.8281,444.2656 928.0313,444.2656 Q928.3594,444.2656 928.6172,444.5234 Q928.875,444.7813 928.875,445.125 Q928.875,445.4688 928.5313,445.875 Q928.0313,446.4531 927.2344,446.7813 Q926.1563,447.2344 924.8594,447.2344 Q923.3438,447.2344 922.1406,446.6094 Q921.1563,446.1094 920.4688,445.0391 Q919.7813,443.9688 919.7813,442.6875 L919.7813,441.5313 Q919.7813,440.2031 920.3984,439.0547 Q921.0156,437.9063 922.1094,437.2891 Q923.2031,436.6719 924.4375,436.6719 Q925.1719,436.6719 925.8203,436.8359 Q926.4688,437 927.0156,437.3594 Z " fill="#000000"/><text fill="#000000" font-family="sans-serif" font-size="14" lengthAdjust="spacing" textLength="103" x="944.75" y="447.2129">pension.scheme</text><line style="stroke:#181818;stroke-width:0.5;" x1="859.5" x2="1100.5" y1="457.4844" y2="457.4844"/><text fill="#000000" font-family="sans-serif" font-size="14" font-weight="bold" lengthAdjust="spacing" text-decoration="underline" textLength="210" x="864.5" y="476.0176">entityType : string = "scheme"</text><text fill="#000000" font-family="sans-serif" font-size="14" font-weight="bold" lengthAdjust="spacing" textLength="125" x="864.5" y="493.627">refKey : string(70)</text><text fill="#000000" font-family="sans-serif" font-size="14" font-weight="bold" lengthAdjust="spacing" textLength="231" x="864.5" y="511.2363">pensionSchemeName : string(60)</text></g><!--class financialInformation.reportingPeriod--><g id="elem_financialInformation.reportingPeriod"><rect codeLine="62" fill="#F1F1F1" height="75.2188" id="financialInformation.reportingPeriod" rx="2.5" ry="2.5" style="stroke:#181818;stroke-width:0.5;" width="279" x="677.5" y="648.9844"/><ellipse cx="702.85" cy="664.9844" fill="#ADD1B2" rx="11" ry="11" style="stroke:#181818;stroke-width:1.0;"/><path d="M705.6156,660.8594 Q705.7719,660.6406 705.9594,660.5313 Q706.1469,660.4219 706.3656,660.4219 Q706.7406,660.4219 706.975,660.6797 Q707.2094,660.9375 707.2094,661.5469 L707.2094,663 Q707.2094,663.6094 706.975,663.875 Q706.7406,664.1406 706.3656,664.1406 Q706.0219,664.1406 705.8188,663.9375 Q705.6156,663.75 705.5063,663.2344 Q705.4594,662.875 705.2719,662.6875 Q704.9438,662.3125 704.3344,662.0938 Q703.725,661.875 703.1,661.875 Q702.3344,661.875 701.7016,662.2031 Q701.0688,662.5313 700.5766,663.2813 Q700.0844,664.0313 700.0844,665.0625 L700.0844,666.1563 Q700.0844,667.3906 700.975,668.2109 Q701.8656,669.0313 703.4594,669.0313 Q704.3969,669.0313 705.0531,668.7813 Q705.4438,668.625 705.8656,668.1875 Q706.1313,667.9219 706.2797,667.8438 Q706.4281,667.7656 706.6313,667.7656 Q706.9594,667.7656 707.2172,668.0234 Q707.475,668.2813 707.475,668.625 Q707.475,668.9688 707.1313,669.375 Q706.6313,669.9531 705.8344,670.2813 Q704.7563,670.7344 703.4594,670.7344 Q701.9438,670.7344 700.7406,670.1094 Q699.7563,669.6094 699.0688,668.5391 Q698.3813,667.4688 698.3813,666.1875 L698.3813,665.0313 Q698.3813,663.7031 698.9984,662.5547 Q699.6156,661.4063 700.7094,660.7891 Q701.8031,660.1719 703.0375,660.1719 Q703.7719,660.1719 704.4203,660.3359 Q705.0688,660.5 705.6156,660.8594 Z " fill="#000000"/><text fill="#000000" font-family="sans-serif" font-size="14" lengthAdjust="spacing" textLength="224" x="719.15" y="670.7129">financialInformation.reportingPeriod</text><line style="stroke:#181818;stroke-width:0.5;" x1="678.5" x2="955.5" y1="680.9844" y2="680.9844"/><text fill="#000000" font-family="sans-serif" font-size="14" font-weight="bold" lengthAdjust="spacing" text-decoration="underline" textLength="267" x="683.5" y="699.5176">entityType : string = "reportingPeriod"</text><text fill="#000000" font-family="sans-serif" font-size="14" font-weight="bold" lengthAdjust="spacing" textLength="228" x="683.5" y="717.127">participationValuationDate : date</text></g><!--class investment.pool--><g id="elem_investment.pool"><rect codeLine="67" fill="#F1F1F1" height="180.875" id="investment.pool" rx="2.5" ry="2.5" style="stroke:#181818;stroke-width:0.5;" width="302" x="992" y="595.9844"/><ellipse cx="1089.25" cy="611.9844" fill="#ADD1B2" rx="11" ry="11" style="stroke:#181818;stroke-width:1.0;"/><path d="M1092.0156,607.8594 Q1092.1719,607.6406 1092.3594,607.5313 Q1092.5469,607.4219 1092.7656,607.4219 Q1093.1406,607.4219 1093.375,607.6797 Q1093.6094,607.9375 1093.6094,608.5469 L1093.6094,610 Q1093.6094,610.6094 1093.375,610.875 Q1093.1406,611.1406 1092.7656,611.1406 Q1092.4219,611.1406 1092.2188,610.9375 Q1092.0156,610.75 1091.9063,610.2344 Q1091.8594,609.875 1091.6719,609.6875 Q1091.3438,609.3125 1090.7344,609.0938 Q1090.125,608.875 1089.5,608.875 Q1088.7344,608.875 1088.1016,609.2031 Q1087.4688,609.5313 1086.9766,610.2813 Q1086.4844,611.0313 1086.4844,612.0625 L1086.4844,613.1563 Q1086.4844,614.3906 1087.375,615.2109 Q1088.2656,616.0313 1089.8594,616.0313 Q1090.7969,616.0313 1091.4531,615.7813 Q1091.8438,615.625 1092.2656,615.1875 Q1092.5313,614.9219 1092.6797,614.8438 Q1092.8281,614.7656 1093.0313,614.7656 Q1093.3594,614.7656 1093.6172,615.0234 Q1093.875,615.2813 1093.875,615.625 Q1093.875,615.9688 1093.5313,616.375 Q1093.0313,616.9531 1092.2344,617.2813 Q1091.1563,617.7344 1089.8594,617.7344 Q1088.3438,617.7344 1087.1406,617.1094 Q1086.1563,616.6094 1085.4688,615.5391 Q1084.7813,614.4688 1084.7813,613.1875 L1084.7813,612.0313 Q1084.7813,610.7031 1085.3984,609.5547 Q1086.0156,608.4063 1087.1094,607.7891 Q1088.2031,607.1719 1089.4375,607.1719 Q1090.1719,607.1719 1090.8203,607.3359 Q1091.4688,607.5 1092.0156,607.8594 Z " fill="#000000"/><text fill="#000000" font-family="sans-serif" font-size="14" lengthAdjust="spacing" textLength="99" x="1109.75" y="617.7129">investment.pool</text><line style="stroke:#181818;stroke-width:0.5;" x1="993" x2="1293" y1="627.9844" y2="627.9844"/><text fill="#000000" font-family="sans-serif" font-size="14" font-weight="bold" lengthAdjust="spacing" text-decoration="underline" textLength="186" x="998" y="646.5176">entityType : string = "pool"</text><text fill="#000000" font-family="sans-serif" font-size="14" font-weight="bold" lengthAdjust="spacing" textLength="125" x="998" y="664.127">refKey : string(70)</text><text fill="#000000" font-family="sans-serif" font-size="14" font-weight="bold" lengthAdjust="spacing" textLength="159" x="998" y="681.7363">description : string(60)</text><text fill="#000000" font-family="sans-serif" font-size="14" font-weight="bold" lengthAdjust="spacing" textLength="253" x="998" y="699.3457">unitsSummedValueAmount : decimal</text><text fill="#000000" font-family="sans-serif" font-size="14" font-style="italic" lengthAdjust="spacing" textLength="188" x="998" y="716.9551">marketValueAmount : decimal</text><text fill="#000000" font-family="sans-serif" font-size="14" font-style="italic" lengthAdjust="spacing" textLength="290" x="998" y="734.5645">preliminaryUnitValueAmount : decimal (1E-06)</text><text fill="#000000" font-family="sans-serif" font-size="14" font-style="italic" lengthAdjust="spacing" textLength="207" x="998" y="752.1738">numberOfUnits : decimal (1E-06)</text><text fill="#000000" font-family="sans-serif" font-size="14" font-weight="bold" lengthAdjust="spacing" textLength="148" x="998" y="769.7832">currencyType : string</text></g><!--class document.default--><g id="elem_document.default"><rect codeLine="78" fill="#F1F1F1" height="110.4375" id="document.default" rx="2.5" ry="2.5" style="stroke:#181818;stroke-width:0.5;" width="216" x="1158" y="228.9844"/><ellipse cx="1207.25" cy="244.9844" fill="#ADD1B2" rx="11" ry="11" style="stroke:#181818;stroke-width:1.0;"/><path d="M1210.0156,240.8594 Q1210.1719,240.6406 1210.3594,240.5313 Q1210.5469,240.4219 1210.7656,240.4219 Q1211.1406,240.4219 1211.375,240.6797 Q1211.6094,240.9375 1211.6094,241.5469 L1211.6094,243 Q1211.6094,243.6094 1211.375,243.875 Q1211.1406,244.1406 1210.7656,244.1406 Q1210.4219,244.1406 1210.2188,243.9375 Q1210.0156,243.75 1209.9063,243.2344 Q1209.8594,242.875 1209.6719,242.6875 Q1209.3438,242.3125 1208.7344,242.0938 Q1208.125,241.875 1207.5,241.875 Q1206.7344,241.875 1206.1016,242.2031 Q1205.4688,242.5313 1204.9766,243.2813 Q1204.4844,244.0313 1204.4844,245.0625 L1204.4844,246.1563 Q1204.4844,247.3906 1205.375,248.2109 Q1206.2656,249.0313 1207.8594,249.0313 Q1208.7969,249.0313 1209.4531,248.7813 Q1209.8438,248.625 1210.2656,248.1875 Q1210.5313,247.9219 1210.6797,247.8438 Q1210.8281,247.7656 1211.0313,247.7656 Q1211.3594,247.7656 1211.6172,248.0234 Q1211.875,248.2813 1211.875,248.625 Q1211.875,248.9688 1211.5313,249.375 Q1211.0313,249.9531 1210.2344,250.2813 Q1209.1563,250.7344 1207.8594,250.7344 Q1206.3438,250.7344 1205.1406,250.1094 Q1204.1563,249.6094 1203.4688,248.5391 Q1202.7813,247.4688 1202.7813,246.1875 L1202.7813,245.0313 Q1202.7813,243.7031 1203.3984,242.5547 Q1204.0156,241.4063 1205.1094,240.7891 Q1206.2031,240.1719 1207.4375,240.1719 Q1208.1719,240.1719 1208.8203,240.3359 Q1209.4688,240.5 1210.0156,240.8594 Z " fill="#000000"/><text fill="#000000" font-family="sans-serif" font-size="14" lengthAdjust="spacing" textLength="109" x="1227.75" y="250.7129">document.default</text><line style="stroke:#181818;stroke-width:0.5;" x1="1159" x2="1373" y1="260.9844" y2="260.9844"/><text fill="#000000" font-family="sans-serif" font-size="14" font-weight="bold" lengthAdjust="spacing" text-decoration="underline" textLength="204" x="1164" y="279.5176">entityType : string = "default"</text><text fill="#000000" font-family="sans-serif" font-size="14" font-weight="bold" lengthAdjust="spacing" textLength="125" x="1164" y="297.127">refKey : string(70)</text><text fill="#000000" font-family="sans-serif" font-size="14" font-weight="bold" lengthAdjust="spacing" textLength="140" x="1164" y="314.7363">fileName : string(60)</text><text fill="#000000" font-family="sans-serif" font-size="14" font-weight="bold" lengthAdjust="spacing" textLength="145" x="1164" y="332.3457">fileExtension : string</text></g><!--class chunkMeta.default--><g id="elem_chunkMeta.default"><rect codeLine="85" fill="#F1F1F1" height="128.0469" id="chunkMeta.default" rx="2.5" ry="2.5" style="stroke:#181818;stroke-width:0.5;" width="244" x="1409" y="219.9844"/><ellipse cx="1468.75" cy="235.9844" fill="#ADD1B2" rx="11" ry="11" style="stroke:#181818;stroke-width:1.0;"/><path d="M1471.5156,231.8594 Q1471.6719,231.6406 1471.8594,231.5313 Q1472.0469,231.4219 1472.2656,231.4219 Q1472.6406,231.4219 1472.875,231.6797 Q1473.1094,231.9375 1473.1094,232.5469 L1473.1094,234 Q1473.1094,234.6094 1472.875,234.875 Q1472.6406,235.1406 1472.2656,235.1406 Q1471.9219,235.1406 1471.7188,234.9375 Q1471.5156,234.75 1471.4063,234.2344 Q1471.3594,233.875 1471.1719,233.6875 Q1470.8438,233.3125 1470.2344,233.0938 Q1469.625,232.875 1469,232.875 Q1468.2344,232.875 1467.6016,233.2031 Q1466.9688,233.5313 1466.4766,234.2813 Q1465.9844,235.0313 1465.9844,236.0625 L1465.9844,237.1563 Q1465.9844,238.3906 1466.875,239.2109 Q1467.7656,240.0313 1469.3594,240.0313 Q1470.2969,240.0313 1470.9531,239.7813 Q1471.3438,239.625 1471.7656,239.1875 Q1472.0313,238.9219 1472.1797,238.8438 Q1472.3281,238.7656 1472.5313,238.7656 Q1472.8594,238.7656 1473.1172,239.0234 Q1473.375,239.2813 1473.375,239.625 Q1473.375,239.9688 1473.0313,240.375 Q1472.5313,240.9531 1471.7344,241.2813 Q1470.6563,241.7344 1469.3594,241.7344 Q1467.8438,241.7344 1466.6406,241.1094 Q1465.6563,240.6094 1464.9688,239.5391 Q1464.2813,238.4688 1464.2813,237.1875 L1464.2813,236.0313 Q1464.2813,234.7031 1464.8984,233.5547 Q1465.5156,232.4063 1466.6094,231.7891 Q1467.7031,231.1719 1468.9375,231.1719 Q1469.6719,231.1719 1470.3203,231.3359 Q1470.9688,231.5 1471.5156,231.8594 Z " fill="#000000"/><text fill="#000000" font-family="sans-serif" font-size="14" lengthAdjust="spacing" textLength="116" x="1489.25" y="241.7129">chunkMeta.default</text><line style="stroke:#181818;stroke-width:0.5;" x1="1410" x2="1652" y1="251.9844" y2="251.9844"/><text fill="#000000" font-family="sans-serif" font-size="14" font-weight="bold" lengthAdjust="spacing" text-decoration="underline" textLength="204" x="1415" y="270.5176">entityType : string = "default"</text><text fill="#000000" font-family="sans-serif" font-size="14" font-weight="bold" lengthAdjust="spacing" textLength="189" x="1415" y="288.127">currentChunkId : string(70)</text><text fill="#000000" font-family="sans-serif" font-size="14" font-weight="bold" lengthAdjust="spacing" textLength="232" x="1415" y="305.7363">chunkSequenceNumber : integer</text><text fill="#000000" font-family="sans-serif" font-size="14" font-weight="bold" lengthAdjust="spacing" textLength="218" x="1415" y="323.3457">totalNumberOfChunks : integer</text><text fill="#000000" font-family="sans-serif" font-size="14" font-weight="bold" lengthAdjust="spacing" textLength="196" x="1415" y="340.9551">chunkFragmentPaths : array</text></g><!--class ADNFUN--><g id="elem_ADNFUN"><rect codeLine="93" fill="#F1F1F1" height="110.4375" id="ADNFUN" rx="2.5" ry="2.5" style="stroke:#181818;stroke-width:0.5;" width="282" x="541" y="416.9844"/><ellipse cx="650.25" cy="432.9844" fill="#EB937F" rx="11" ry="11" style="stroke:#181818;stroke-width:1.0;"/><path d="M649.1094,433.7813 L649.1094,436.2813 L653.4375,436.2813 L653.4375,435.3594 Q653.4375,434.75 653.6797,434.4844 Q653.9219,434.2188 654.2969,434.2188 Q654.6719,434.2188 654.9063,434.4844 Q655.1406,434.75 655.1406,435.3594 L655.1406,437.9844 L647.1406,437.9844 Q646.5156,437.9844 646.2578,437.75 Q646,437.5156 646,437.125 Q646,436.75 646.2656,436.5156 Q646.5313,436.2813 647.1406,436.2813 L647.4063,436.2813 L647.4063,429.625 L647.1406,429.625 Q646.5156,429.625 646.2578,429.3906 Q646,429.1563 646,428.7656 Q646,428.3906 646.2578,428.1563 Q646.5156,427.9219 647.1406,427.9219 L654.7656,427.9219 L654.7656,430.5156 Q654.7656,431.125 654.5391,431.3828 Q654.3125,431.6406 653.9219,431.6406 Q653.5469,431.6406 653.3125,431.3828 Q653.0781,431.125 653.0781,430.5156 L653.0781,429.625 L649.1094,429.625 L649.1094,432.0781 L650.5938,432.0781 Q650.5938,431.4219 650.7188,431.2344 Q650.9844,430.8281 651.4531,430.8281 Q651.8281,430.8281 652.0625,431.0859 Q652.2969,431.3438 652.2969,431.9531 L652.2969,433.9219 Q652.2969,434.4688 652.1719,434.6563 Q651.9063,435.0469 651.4531,435.0469 Q650.9844,435.0469 650.7188,434.6406 Q650.5938,434.4531 650.5938,433.7813 L649.1094,433.7813 Z " fill="#000000"/><text fill="#000000" font-family="sans-serif" font-size="14" lengthAdjust="spacing" textLength="55" x="670.75" y="438.7129">ADNFUN</text><line style="stroke:#181818;stroke-width:0.5;" x1="542" x2="822" y1="448.9844" y2="448.9844"/><text fill="#000000" font-family="sans-serif" font-size="14" lengthAdjust="spacing" textLength="66" x="547" y="467.5176">01 - Nieuw</text><text fill="#000000" font-family="sans-serif" font-size="14" lengthAdjust="spacing" textLength="81" x="547" y="485.127">02 - Wijzigen</text><text fill="#000000" font-family="sans-serif" font-size="14" lengthAdjust="spacing" textLength="270" x="547" y="502.7363">03 - Aanmelden bestaande polis op pakket</text><text fill="#000000" font-family="sans-serif" font-size="14" lengthAdjust="spacing" textLength="94" x="547" y="520.3457">04 - Opzeggen</text></g><!--class AFDIDP--><g id="elem_AFDIDP"><rect codeLine="101" fill="#F1F1F1" height="100.8281" id="AFDIDP" rx="2.5" ry="2.5" style="stroke:#181818;stroke-width:0.5;" width="128" x="1137" y="421.4844"/><ellipse cx="1172.7" cy="437.4844" fill="#EB937F" rx="11" ry="11" style="stroke:#181818;stroke-width:1.0;"/><path d="M1171.5594,438.2813 L1171.5594,440.7813 L1175.8875,440.7813 L1175.8875,439.8594 Q1175.8875,439.25 1176.1297,438.9844 Q1176.3719,438.7188 1176.7469,438.7188 Q1177.1219,438.7188 1177.3563,438.9844 Q1177.5906,439.25 1177.5906,439.8594 L1177.5906,442.4844 L1169.5906,442.4844 Q1168.9656,442.4844 1168.7078,442.25 Q1168.45,442.0156 1168.45,441.625 Q1168.45,441.25 1168.7156,441.0156 Q1168.9813,440.7813 1169.5906,440.7813 L1169.8563,440.7813 L1169.8563,434.125 L1169.5906,434.125 Q1168.9656,434.125 1168.7078,433.8906 Q1168.45,433.6563 1168.45,433.2656 Q1168.45,432.8906 1168.7078,432.6563 Q1168.9656,432.4219 1169.5906,432.4219 L1177.2156,432.4219 L1177.2156,435.0156 Q1177.2156,435.625 1176.9891,435.8828 Q1176.7625,436.1406 1176.3719,436.1406 Q1175.9969,436.1406 1175.7625,435.8828 Q1175.5281,435.625 1175.5281,435.0156 L1175.5281,434.125 L1171.5594,434.125 L1171.5594,436.5781 L1173.0438,436.5781 Q1173.0438,435.9219 1173.1688,435.7344 Q1173.4344,435.3281 1173.9031,435.3281 Q1174.2781,435.3281 1174.5125,435.5859 Q1174.7469,435.8438 1174.7469,436.4531 L1174.7469,438.4219 Q1174.7469,438.9688 1174.6219,439.1563 Q1174.3563,439.5469 1173.9031,439.5469 Q1173.4344,439.5469 1173.1688,439.1406 Q1173.0438,438.9531 1173.0438,438.2813 L1171.5594,438.2813 Z " fill="#000000"/><text fill="#000000" font-family="sans-serif" font-size="14" lengthAdjust="spacing" textLength="50" x="1191.3" y="443.2129">AFDIDP</text><line style="stroke:#181818;stroke-width:0.5;" x1="1138" x2="1264" y1="453.4844" y2="453.4844"/><text fill="#000000" font-family="sans-serif" font-size="14" lengthAdjust="spacing" textLength="106" x="1143" y="472.0176">U0003 - Fonds 1</text><text fill="#000000" font-family="sans-serif" font-size="14" lengthAdjust="spacing" textLength="106" x="1143" y="489.627">U0005 - Fonds 2</text><line style="stroke:#181818;stroke-width:1.0;stroke-dasharray:1.0,2.0;" x1="1138" x2="1264" y1="496.7031" y2="496.7031"/><text fill="#000000" font-family="sans-serif" font-size="14" lengthAdjust="spacing" textLength="116" x="1143" y="515.2363">U0765 - Fonds xxx</text></g><!--class ISOVAL--><g id="elem_ISOVAL"><rect codeLine="109" fill="#F1F1F1" height="100.8281" id="ISOVAL" rx="2.5" ry="2.5" style="stroke:#181818;stroke-width:0.5;" width="93" x="1096.5" y="836.9844"/><ellipse cx="1116.9" cy="852.9844" fill="#EB937F" rx="11" ry="11" style="stroke:#181818;stroke-width:1.0;"/><path d="M1115.7594,853.7813 L1115.7594,856.2813 L1120.0875,856.2813 L1120.0875,855.3594 Q1120.0875,854.75 1120.3297,854.4844 Q1120.5719,854.2188 1120.9469,854.2188 Q1121.3219,854.2188 1121.5563,854.4844 Q1121.7906,854.75 1121.7906,855.3594 L1121.7906,857.9844 L1113.7906,857.9844 Q1113.1656,857.9844 1112.9078,857.75 Q1112.65,857.5156 1112.65,857.125 Q1112.65,856.75 1112.9156,856.5156 Q1113.1813,856.2813 1113.7906,856.2813 L1114.0563,856.2813 L1114.0563,849.625 L1113.7906,849.625 Q1113.1656,849.625 1112.9078,849.3906 Q1112.65,849.1563 1112.65,848.7656 Q1112.65,848.3906 1112.9078,848.1563 Q1113.1656,847.9219 1113.7906,847.9219 L1121.4156,847.9219 L1121.4156,850.5156 Q1121.4156,851.125 1121.1891,851.3828 Q1120.9625,851.6406 1120.5719,851.6406 Q1120.1969,851.6406 1119.9625,851.3828 Q1119.7281,851.125 1119.7281,850.5156 L1119.7281,849.625 L1115.7594,849.625 L1115.7594,852.0781 L1117.2438,852.0781 Q1117.2438,851.4219 1117.3688,851.2344 Q1117.6344,850.8281 1118.1031,850.8281 Q1118.4781,850.8281 1118.7125,851.0859 Q1118.9469,851.3438 1118.9469,851.9531 L1118.9469,853.9219 Q1118.9469,854.4688 1118.8219,854.6563 Q1118.5563,855.0469 1118.1031,855.0469 Q1117.6344,855.0469 1117.3688,854.6406 Q1117.2438,854.4531 1117.2438,853.7813 L1115.7594,853.7813 Z " fill="#000000"/><text fill="#000000" font-family="sans-serif" font-size="14" lengthAdjust="spacing" textLength="49" x="1132.1" y="858.7129">ISOVAL</text><line style="stroke:#181818;stroke-width:0.5;" x1="1097.5" x2="1188.5" y1="868.9844" y2="868.9844"/><text fill="#000000" font-family="sans-serif" font-size="14" lengthAdjust="spacing" textLength="48" x="1102.5" y="887.5176">Afghani</text><text fill="#000000" font-family="sans-serif" font-size="14" lengthAdjust="spacing" textLength="81" x="1102.5" y="905.127">Albanese lek</text><line style="stroke:#181818;stroke-width:1.0;stroke-dasharray:1.0,2.0;" x1="1097.5" x2="1188.5" y1="912.2031" y2="912.2031"/><text fill="#000000" font-family="sans-serif" font-size="14" lengthAdjust="spacing" textLength="75" x="1102.5" y="930.7363">VAE-dirham</text></g><!--class cdl_fileExtension_251--><g id="elem_cdl_fileExtension_251"><rect codeLine="117" fill="#F1F1F1" height="92.8281" id="cdl_fileExtension_251" rx="2.5" ry="2.5" style="stroke:#181818;stroke-width:0.5;" width="169" x="1300.5" y="425.4844"/><ellipse cx="1315.5" cy="441.4844" fill="#EB937F" rx="11" ry="11" style="stroke:#181818;stroke-width:1.0;"/><path d="M1314.3594,442.2813 L1314.3594,444.7813 L1318.6875,444.7813 L1318.6875,443.8594 Q1318.6875,443.25 1318.9297,442.9844 Q1319.1719,442.7188 1319.5469,442.7188 Q1319.9219,442.7188 1320.1563,442.9844 Q1320.3906,443.25 1320.3906,443.8594 L1320.3906,446.4844 L1312.3906,446.4844 Q1311.7656,446.4844 1311.5078,446.25 Q1311.25,446.0156 1311.25,445.625 Q1311.25,445.25 1311.5156,445.0156 Q1311.7813,444.7813 1312.3906,444.7813 L1312.6563,444.7813 L1312.6563,438.125 L1312.3906,438.125 Q1311.7656,438.125 1311.5078,437.8906 Q1311.25,437.6563 1311.25,437.2656 Q1311.25,436.8906 1311.5078,436.6563 Q1311.7656,436.4219 1312.3906,436.4219 L1320.0156,436.4219 L1320.0156,439.0156 Q1320.0156,439.625 1319.7891,439.8828 Q1319.5625,440.1406 1319.1719,440.1406 Q1318.7969,440.1406 1318.5625,439.8828 Q1318.3281,439.625 1318.3281,439.0156 L1318.3281,438.125 L1314.3594,438.125 L1314.3594,440.5781 L1315.8438,440.5781 Q1315.8438,439.9219 1315.9688,439.7344 Q1316.2344,439.3281 1316.7031,439.3281 Q1317.0781,439.3281 1317.3125,439.5859 Q1317.5469,439.8438 1317.5469,440.4531 L1317.5469,442.4219 Q1317.5469,442.9688 1317.4219,443.1563 Q1317.1563,443.5469 1316.7031,443.5469 Q1316.2344,443.5469 1315.9688,443.1406 Q1315.8438,442.9531 1315.8438,442.2813 L1314.3594,442.2813 Z " fill="#000000"/><text fill="#000000" font-family="sans-serif" font-size="14" lengthAdjust="spacing" textLength="137" x="1329.5" y="447.2129">cdl_fileExtension_251</text><line style="stroke:#181818;stroke-width:0.5;" x1="1301.5" x2="1468.5" y1="457.4844" y2="457.4844"/><text fill="#000000" font-family="sans-serif" font-size="14" lengthAdjust="spacing" textLength="20" x="1306.5" y="476.0176">pdf</text><text fill="#000000" font-family="sans-serif" font-size="14" lengthAdjust="spacing" textLength="21" x="1306.5" y="493.627">csv</text><text fill="#000000" font-family="sans-serif" font-size="14" lengthAdjust="spacing" textLength="14" x="1306.5" y="511.2363">txt</text></g><!--reverse link berichtstructuur to chunkMeta.default--><g id="link_berichtstructuur_chunkMeta.default"><path codeLine="124" d="M1057.6584,150.2823 C1139.9884,161.0623 1272.78,182.1244 1392,219.9844 C1397.56,221.7444 1403.18,223.6744 1408.83,225.7244 " fill="none" id="berichtstructuur-backto-chunkMeta.default" style="stroke:#181818;stroke-width:1.0;"/><polygon fill="none" points="1045.76,148.7244,1051.1899,153.4695,1057.6584,150.2823,1052.2285,145.5372,1045.76,148.7244" style="stroke:#181818;stroke-width:1.0;"/><text fill="#000000" font-family="sans-serif" font-size="13" lengthAdjust="spacing" textLength="22" x="1379.1311" y="219.3976">0..1</text></g><!--reverse link berichtstructuur to commonFunctional.default--><g id="link_berichtstructuur_commonFunctional.default"><path codeLine="125" d="M929.424,165.161 C893.704,182.241 850.22,203.0344 800.69,226.7144 " fill="none" id="berichtstructuur-backto-commonFunctional.default" style="stroke:#181818;stroke-width:1.0;"/><polygon fill="none" points="940.25,159.9844,933.1115,158.964,929.424,165.161,936.5625,166.1814,940.25,159.9844" style="stroke:#181818;stroke-width:1.0;"/><text fill="#000000" font-family="sans-serif" font-size="13" lengthAdjust="spacing" textLength="22" x="807.2784" y="219.7001">1..1</text></g><!--reverse link berichtstructuur to commonTechnical.default--><g id="link_berichtstructuur_commonTechnical.default"><path codeLine="126" d="M902.3698,150.3189 C816.8498,161.4189 675.23,183.0744 548,219.9844 C532.85,224.3744 517.15,229.7244 501.81,235.4144 " fill="none" id="berichtstructuur-backto-commonTechnical.default" style="stroke:#181818;stroke-width:1.0;"/><polygon fill="none" points="914.27,148.7744,907.8051,145.5799,902.3698,150.3189,908.8348,153.5134,914.27,148.7744" style="stroke:#181818;stroke-width:1.0;"/><text fill="#000000" font-family="sans-serif" font-size="13" lengthAdjust="spacing" textLength="22" x="509.5494" y="229.2827">1..1</text></g><!--reverse link berichtstructuur to document.default--><g id="link_berichtstructuur_document.default"><path codeLine="127" d="M1029.5848,165.3871 C1062.0048,181.3571 1098.66,199.4444 1140,219.9844 C1145.8,222.8644 1151.76,225.8344 1157.76,228.8244 " fill="none" id="berichtstructuur-backto-document.default" style="stroke:#181818;stroke-width:1.0;"/><polygon fill="none" points="1018.82,160.0844,1022.4348,166.324,1029.5848,165.3871,1025.97,159.1475,1018.82,160.0844" style="stroke:#181818;stroke-width:1.0;"/><text fill="#000000" font-family="sans-serif" font-size="13" lengthAdjust="spacing" textLength="29" x="1120.9071" y="220.5366">0..99</text></g><!--reverse link berichtstructuur to party.pensionProvider--><g id="link_berichtstructuur_party.pensionProvider"><path codeLine="128" d="M980,172.1344 C980,189.6944 980,204.5644 980,228.7044 " fill="none" id="berichtstructuur-backto-party.pensionProvider" style="stroke:#181818;stroke-width:1.0;"/><polygon fill="none" points="980,160.1344,976,166.1344,980,172.1344,984,166.1344,980,160.1344" style="stroke:#181818;stroke-width:1.0;"/><text fill="#000000" font-family="sans-serif" font-size="13" lengthAdjust="spacing" textLength="22" x="956.5906" y="218.0862">1..1</text></g><!--reverse link commonTechnical.default to party.receiver--><g id="link_commonTechnical.default_party.receiver"><path codeLine="129" d="M392,351.0344 C392,375.4844 392,392.3344 392,416.8044 " fill="none" id="commonTechnical.default-backto-party.receiver" style="stroke:#181818;stroke-width:1.0;"/><polygon fill="none" points="392,339.0344,388,345.0344,392,351.0344,396,345.0344,392,339.0344" style="stroke:#181818;stroke-width:1.0;"/><text fill="#000000" font-family="sans-serif" font-size="13" lengthAdjust="spacing" textLength="22" x="368.5906" y="406.199">1..1</text></g><!--reverse link commonTechnical.default to party.sender--><g id="link_commonTechnical.default_party.sender"><path codeLine="130" d="M304.5646,345.895 C273.6246,367.455 247.63,385.5644 215.5,407.9344 " fill="none" id="commonTechnical.default-backto-party.sender" style="stroke:#181818;stroke-width:1.0;"/><polygon fill="none" points="314.41,339.0344,307.2004,339.1829,304.5646,345.895,311.7742,345.7465,314.41,339.0344" style="stroke:#181818;stroke-width:1.0;"/><text fill="#000000" font-family="sans-serif" font-size="13" lengthAdjust="spacing" textLength="22" x="202.6922" y="397.1163">1..1</text></g><!--reverse link party.pensionProvider to pension.scheme--><g id="link_party.pensionProvider_pension.scheme"><path codeLine="131" d="M980,351.0344 C980,378.3844 980,399.2244 980,425.2944 " fill="none" id="party.pensionProvider-backto-pension.scheme" style="stroke:#181818;stroke-width:1.0;"/><polygon fill="none" points="980,339.0344,976,345.0344,980,351.0344,984,345.0344,980,339.0344" style="stroke:#181818;stroke-width:1.0;"/><text fill="#000000" font-family="sans-serif" font-size="13" lengthAdjust="spacing" textLength="36" x="941.3563" y="414.7953">1..999</text></g><!--reverse link party.sender to party.contact--><g id="link_party.sender_party.contact"><path codeLine="132" d="M125,548.1644 C125,581.4444 125,609.5044 125,639.7544 " fill="none" id="party.sender-backto-party.contact" style="stroke:#181818;stroke-width:1.0;"/><polygon fill="none" points="125,536.1644,121,542.1644,125,548.1644,129,542.1644,125,536.1644" style="stroke:#181818;stroke-width:1.0;"/><text fill="#000000" font-family="sans-serif" font-size="13" lengthAdjust="spacing" textLength="22" x="101.3844" y="629.2495">0..9</text></g><!--reverse link pension.scheme to financialInformation.reportingPeriod--><g id="link_pension.scheme_financialInformation.reportingPeriod"><path codeLine="133" d="M937.7263,528.0957 C907.8863,566.9957 872.83,612.6944 845.14,648.7944 " fill="none" id="pension.scheme-backto-financialInformation.reportingPeriod" style="stroke:#181818;stroke-width:1.0;"/><polygon fill="none" points="945.03,518.5744,938.2044,520.9004,937.7263,528.0957,944.5519,525.7696,945.03,518.5744" style="stroke:#181818;stroke-width:1.0;"/><text fill="#000000" font-family="sans-serif" font-size="13" lengthAdjust="spacing" textLength="22" x="826.1931" y="638.1628">1..1</text></g><!--reverse link pension.scheme to investment.pool--><g id="link_pension.scheme_investment.pool"><path codeLine="134" d="M1022.2722,528.0968 C1039.5722,550.6568 1053.79,569.1844 1074.21,595.8044 " fill="none" id="pension.scheme-backto-investment.pool" style="stroke:#181818;stroke-width:1.0;"/><polygon fill="none" points="1014.97,518.5744,1015.447,525.7697,1022.2722,528.0968,1021.7953,520.9015,1014.97,518.5744" style="stroke:#181818;stroke-width:1.0;"/><text fill="#000000" font-family="sans-serif" font-size="13" lengthAdjust="spacing" textLength="29" x="1038.3125" y="585.1473">1..99</text></g><!--reverse link commonFunctional.default to ADNFUN--><g id="link_commonFunctional.default_ADNFUN"><path codeLine="135" d="M682.5955,360.2142 C682.4755,382.5442 682.41,395.4244 682.29,416.9244 " fill="none" id="commonFunctional.default-backto-ADNFUN" style="stroke:#181818;stroke-width:1.0;"/><polygon fill="none" points="682.66,348.2144,678.6278,354.1928,682.5955,360.2142,686.6277,354.2358,682.66,348.2144" style="stroke:#181818;stroke-width:1.0;"/><text fill="#000000" font-family="sans-serif" font-size="13" lengthAdjust="spacing" textLength="45" x="634.3055" y="405.94">function</text></g><!--reverse link document.default to cdl_fileExtension_251--><g id="link_document.default_cdl_fileExtension_251"><path codeLine="136" d="M1307.0476,349.1423 C1324.5476,376.4923 1339.09,399.2244 1355.77,425.2944 " fill="none" id="document.default-backto-cdl_fileExtension_251" style="stroke:#181818;stroke-width:1.0;"/><polygon fill="none" points="1300.58,339.0344,1300.4445,346.2442,1307.0476,349.1423,1307.1831,341.9325,1300.58,339.0344" style="stroke:#181818;stroke-width:1.0;"/><text fill="#000000" font-family="sans-serif" font-size="13" lengthAdjust="spacing" textLength="74" x="1272.0425" y="414.7953">fileExtension</text></g><!--reverse link investment.pool to ISOVAL--><g id="link_investment.pool_ISOVAL"><path codeLine="137" d="M1143,789.0844 C1143,809.6144 1143,818.7144 1143,836.8344 " fill="none" id="investment.pool-backto-ISOVAL" style="stroke:#181818;stroke-width:1.0;"/><polygon fill="none" points="1143,777.0844,1139,783.0844,1143,789.0844,1147,783.0844,1143,777.0844" style="stroke:#181818;stroke-width:1.0;"/><text fill="#000000" font-family="sans-serif" font-size="13" lengthAdjust="spacing" textLength="78" x="1059.5156" y="826.1186">currencyType</text></g><!--reverse link party.pensionProvider to AFDIDP--><g id="link_party.pensionProvider_AFDIDP"><path codeLine="138" d="M1053.4005,346.7622 C1084.2405,372.7222 1111.77,395.8844 1141.92,421.2544 " fill="none" id="party.pensionProvider-backto-AFDIDP" style="stroke:#181818;stroke-width:1.0;"/><polygon fill="none" points="1044.22,339.0344,1046.2343,345.9584,1053.4005,346.7622,1051.3862,339.8381,1044.22,339.0344" style="stroke:#181818;stroke-width:1.0;"/><text fill="#000000" font-family="sans-serif" font-size="13" lengthAdjust="spacing" textLength="49" x="1097.847" y="410.6295">puvCode</text></g><!--SRC=[nLRRRjiu47tNLn1-SWnOiTrDsWHk06-TB89jd02vFHOqDRAvfaWjIRbsWlxx3YdvAjbrYXIh5q7YcJDtpenv12G1ErQH2GnOOY2bcbgbYLGIWa3026H4h4g9WDW6NSDVuBpJkkWEBxvU_dKvw9-Jxl7mWdIP4agVQuZSKVj3I9ufrH4qkOoLJgZbG8Q0T2CkHoPLIf1wgtLoSZ8ySlBTOo-FRwVW8cY716d-L2Box9_93PMHisjEOWu2hUqWWbzSMoeuwnvpXxbDBLUIYWK4ZGX3aZ-V2PTC9Qa02qHmOqbz-Jcb8WD3b2GqZhwe2DovEGgSvta0We09QWnwe3aRMsDrncoMQVBwOt64R8cI3y36aZCgmWXYcWbBNWEd_jLO307xGHeDa9RR-SCy1N9Ea0dZWTRL2dojqSW5l0yEdu0nT0JNqH9U_zWwAi6O1khSxrCB3pnnv1PVg3T9jy0ODui7Dpan0eUO3g3IXJ5OEeI5OEUXGUz17-n53YyxeI7-6-RxF42ZjE5oa2KOv1NmxCXRjSccz8XA_kBz7T1aPKBzj8gNfYaMYKVVU_jACbMUCoKjPOSdiC2NVOU4Sl6iz6IVcOt6TqJSZR7hjaEGWxUiqy20Jz-GcON0_vsRhOQvoYJBk_RzEYOkE9Ve4WBxl0ynbxnivQUAr6p0dm1ZiKPU8O7nKfhZJKV5JMNtLjLR2jBntcarvMzfkIsvSZZIREekjLtH-2t9BOmA3Hi3mWw-FZpyLqeKtSnLtdkAlSPX9gbad8hhnMn2IpMaIbj4t-4Thw8tzDM6N4NuCRkSyTIhUS9HixocaGTd6goRnkKKR-O4TOL-HXvS10Z-jR15O9ZcwKQ_LDvF6PQ_kS-I12Bd1VGIbKdhV0364ohAPPLGFG5R2IxL5i9JZOCtmTpe-IFggfGZzVPbitLwL2KlVGNVnaxO7222CpFJ6YJR3ETwEYB5Cf-CTxkR3ab9p0NyRApbgCkPpQk-qdespkJa1YnzF_FpYDalZlcd6ua3tSE_6OPuDTIujBXIwHBQAbpb1aKAFR_PW_RSLvgEN7Rkg1qxCDMQplC001O3wVK7Lu-3mkbMcpJ9W4FsFV_iuESp_-U5utwN__c0VtfK9gW29Avw62LSEe6a2lT1WXjmIYTOppdu3mJVfY-upw8uAYmqNlMl-tU5niTMotDUAHaPqbx-Erd-w_X_OLWSVJnT7SrcinNjzVtjK-zhGTkBHsEyX4d-8OPKWi6L5YPadUsfTzcCk1xJXAnuM2I-RPJDjyv9kw1DezY_cPdwjvrPBrXQULMpIMgjC6pNoWMs0ztEqJi6_W52fRLwjrbdPxLIs-xLK3bzWrthV4bmiLSTBf7lo47rr5-WpvmVcrCqsDZ8b_xMDlVLO6lqhga_PExj4dVcR0sdOES6vuKMMrYjwCEWT9dciFLwh5MNQB0z5hta-krTAtfaNrIBFQXMTEb_]--></g></svg>