<svg xmlns="http://www.w3.org/2000/svg" xmlns:xlink="http://www.w3.org/1999/xlink" contentStyleType="text/css" height="1106px" preserveAspectRatio="none" style="width:1660px;height:1106px;background:#FFFFFF;" version="1.1" viewBox="0 0 1660 1106" width="1660px" zoomAndPan="magnify"><defs/><g><rect fill="#DDDDDD" height="87.9844" id="_legend" rx="7.5" ry="7.5" style="stroke:#000000;stroke-width:1.0;" width="381" x="12" y="12"/><text fill="#000000" font-family="sans-serif" font-size="20" font-weight="bold" lengthAdjust="spacing" textLength="89" x="17" y="37.7617">LEGEND:</text><text fill="#000000" font-family="sans-serif" font-size="20" lengthAdjust="spacing" textLength="6" x="112" y="37.7617">&#160;</text><text fill="#FF0000" font-family="sans-serif" font-size="20" font-weight="bold" lengthAdjust="spacing" textLength="238" x="118" y="37.7617">5. Orderopdracht (00541)</text><text fill="#000000" font-family="sans-serif" font-size="14" lengthAdjust="spacing" textLength="12" x="17" y="56.6895">1.</text><text fill="#000000" font-family="sans-serif" font-size="14" font-weight="bold" lengthAdjust="spacing" textLength="32" x="33" y="56.6895">Bold</text><text fill="#000000" font-family="sans-serif" font-size="14" lengthAdjust="spacing" textLength="116" x="69" y="56.6895">= Mandatory fields</text><text fill="#000000" font-family="sans-serif" font-size="14" lengthAdjust="spacing" textLength="12" x="17" y="74.2988">2.</text><text fill="#000000" font-family="sans-serif" font-size="14" font-style="italic" lengthAdjust="spacing" textLength="29" x="33" y="74.2988">Italic</text><text fill="#000000" font-family="sans-serif" font-size="14" lengthAdjust="spacing" textLength="102" x="66" y="74.2988">= Optional fields</text><text fill="#000000" font-family="sans-serif" font-size="14" lengthAdjust="spacing" textLength="371" x="17" y="91.9082">3. ..       = incomplete list (complete values on afdCodelists)</text><!--class berichtstructuur--><g id="elem_berichtstructuur"><rect codeLine="11" fill="#F1F1F1" height="40" id="berichtstructuur" rx="2.5" ry="2.5" style="stroke:#181818;stroke-width:0.5;" width="131" x="914.5" y="119.9844"/><ellipse cx="929.5" cy="135.9844" fill="#ADD1B2" rx="11" ry="11" style="stroke:#181818;stroke-width:1.0;"/><path d="M932.2656,131.8594 Q932.4219,131.6406 932.6094,131.5313 Q932.7969,131.4219 933.0156,131.4219 Q933.3906,131.4219 933.625,131.6797 Q933.8594,131.9375 933.8594,132.5469 L933.8594,134 Q933.8594,134.6094 933.625,134.875 Q933.3906,135.1406 933.0156,135.1406 Q932.6719,135.1406 932.4688,134.9375 Q932.2656,134.75 932.1563,134.2344 Q932.1094,133.875 931.9219,133.6875 Q931.5938,133.3125 930.9844,133.0938 Q930.375,132.875 929.75,132.875 Q928.9844,132.875 928.3516,133.2031 Q927.7188,133.5313 927.2266,134.2813 Q926.7344,135.0313 926.7344,136.0625 L926.7344,137.1563 Q926.7344,138.3906 927.625,139.2109 Q928.5156,140.0313 930.1094,140.0313 Q931.0469,140.0313 931.7031,139.7813 Q932.0938,139.625 932.5156,139.1875 Q932.7813,138.9219 932.9297,138.8438 Q933.0781,138.7656 933.2813,138.7656 Q933.6094,138.7656 933.8672,139.0234 Q934.125,139.2813 934.125,139.625 Q934.125,139.9688 933.7813,140.375 Q933.2813,140.9531 932.4844,141.2813 Q931.4063,141.7344 930.1094,141.7344 Q928.5938,141.7344 927.3906,141.1094 Q926.4063,140.6094 925.7188,139.5391 Q925.0313,138.4688 925.0313,137.1875 L925.0313,136.0313 Q925.0313,134.7031 925.6484,133.5547 Q926.2656,132.4063 927.3594,131.7891 Q928.4531,131.1719 929.6875,131.1719 Q930.4219,131.1719 931.0703,131.3359 Q931.7188,131.5 932.2656,131.8594 Z " fill="#000000"/><text fill="#000000" font-family="sans-serif" font-size="14" lengthAdjust="spacing" textLength="99" x="943.5" y="141.7129">berichtstructuur</text><line style="stroke:#181818;stroke-width:0.5;" x1="915.5" x2="1044.5" y1="151.9844" y2="151.9844"/></g><!--class commonTechnical.default--><g id="elem_commonTechnical.default"><rect codeLine="13" fill="#F1F1F1" height="110.4375" id="commonTechnical.default" rx="2.5" ry="2.5" style="stroke:#181818;stroke-width:0.5;" width="219" x="282.5" y="228.9844"/><ellipse cx="309.2" cy="244.9844" fill="#ADD1B2" rx="11" ry="11" style="stroke:#181818;stroke-width:1.0;"/><path d="M311.9656,240.8594 Q312.1219,240.6406 312.3094,240.5313 Q312.4969,240.4219 312.7156,240.4219 Q313.0906,240.4219 313.325,240.6797 Q313.5594,240.9375 313.5594,241.5469 L313.5594,243 Q313.5594,243.6094 313.325,243.875 Q313.0906,244.1406 312.7156,244.1406 Q312.3719,244.1406 312.1688,243.9375 Q311.9656,243.75 311.8563,243.2344 Q311.8094,242.875 311.6219,242.6875 Q311.2938,242.3125 310.6844,242.0938 Q310.075,241.875 309.45,241.875 Q308.6844,241.875 308.0516,242.2031 Q307.4188,242.5313 306.9266,243.2813 Q306.4344,244.0313 306.4344,245.0625 L306.4344,246.1563 Q306.4344,247.3906 307.325,248.2109 Q308.2156,249.0313 309.8094,249.0313 Q310.7469,249.0313 311.4031,248.7813 Q311.7938,248.625 312.2156,248.1875 Q312.4813,247.9219 312.6297,247.8438 Q312.7781,247.7656 312.9813,247.7656 Q313.3094,247.7656 313.5672,248.0234 Q313.825,248.2813 313.825,248.625 Q313.825,248.9688 313.4813,249.375 Q312.9813,249.9531 312.1844,250.2813 Q311.1063,250.7344 309.8094,250.7344 Q308.2938,250.7344 307.0906,250.1094 Q306.1063,249.6094 305.4188,248.5391 Q304.7313,247.4688 304.7313,246.1875 L304.7313,245.0313 Q304.7313,243.7031 305.3484,242.5547 Q305.9656,241.4063 307.0594,240.7891 Q308.1531,240.1719 309.3875,240.1719 Q310.1219,240.1719 310.7703,240.3359 Q311.4188,240.5 311.9656,240.8594 Z " fill="#000000"/><text fill="#000000" font-family="sans-serif" font-size="14" lengthAdjust="spacing" textLength="161" x="325.8" y="250.7129">commonTechnical.default</text><line style="stroke:#181818;stroke-width:0.5;" x1="283.5" x2="500.5" y1="260.9844" y2="260.9844"/><text fill="#000000" font-family="sans-serif" font-size="14" font-weight="bold" lengthAdjust="spacing" text-decoration="underline" textLength="204" x="288.5" y="279.5176">entityType : string = "default"</text><text fill="#000000" font-family="sans-serif" font-size="14" font-weight="bold" lengthAdjust="spacing" textLength="155" x="288.5" y="297.127">messageId : string(70)</text><text fill="#000000" font-family="sans-serif" font-size="14" font-weight="bold" lengthAdjust="spacing" textLength="207" x="288.5" y="314.7363">creationDateTime : timestamp</text><text fill="#000000" font-family="sans-serif" font-size="14" font-style="italic" lengthAdjust="spacing" textLength="144" x="288.5" y="332.3457">testMessage : boolean</text></g><!--class party.sender--><g id="elem_party.sender"><rect codeLine="20" fill="#F1F1F1" height="128.0469" id="party.sender" rx="2.5" ry="2.5" style="stroke:#181818;stroke-width:0.5;" width="236" x="7" y="407.9844"/><ellipse cx="80.75" cy="423.9844" fill="#ADD1B2" rx="11" ry="11" style="stroke:#181818;stroke-width:1.0;"/><path d="M83.5156,419.8594 Q83.6719,419.6406 83.8594,419.5313 Q84.0469,419.4219 84.2656,419.4219 Q84.6406,419.4219 84.875,419.6797 Q85.1094,419.9375 85.1094,420.5469 L85.1094,422 Q85.1094,422.6094 84.875,422.875 Q84.6406,423.1406 84.2656,423.1406 Q83.9219,423.1406 83.7188,422.9375 Q83.5156,422.75 83.4063,422.2344 Q83.3594,421.875 83.1719,421.6875 Q82.8438,421.3125 82.2344,421.0938 Q81.625,420.875 81,420.875 Q80.2344,420.875 79.6016,421.2031 Q78.9688,421.5313 78.4766,422.2813 Q77.9844,423.0313 77.9844,424.0625 L77.9844,425.1563 Q77.9844,426.3906 78.875,427.2109 Q79.7656,428.0313 81.3594,428.0313 Q82.2969,428.0313 82.9531,427.7813 Q83.3438,427.625 83.7656,427.1875 Q84.0313,426.9219 84.1797,426.8438 Q84.3281,426.7656 84.5313,426.7656 Q84.8594,426.7656 85.1172,427.0234 Q85.375,427.2813 85.375,427.625 Q85.375,427.9688 85.0313,428.375 Q84.5313,428.9531 83.7344,429.2813 Q82.6563,429.7344 81.3594,429.7344 Q79.8438,429.7344 78.6406,429.1094 Q77.6563,428.6094 76.9688,427.5391 Q76.2813,426.4688 76.2813,425.1875 L76.2813,424.0313 Q76.2813,422.7031 76.8984,421.5547 Q77.5156,420.4063 78.6094,419.7891 Q79.7031,419.1719 80.9375,419.1719 Q81.6719,419.1719 82.3203,419.3359 Q82.9688,419.5 83.5156,419.8594 Z " fill="#000000"/><text fill="#000000" font-family="sans-serif" font-size="14" lengthAdjust="spacing" textLength="80" x="101.25" y="429.7129">party.sender</text><line style="stroke:#181818;stroke-width:0.5;" x1="8" x2="242" y1="439.9844" y2="439.9844"/><text fill="#000000" font-family="sans-serif" font-size="14" font-weight="bold" lengthAdjust="spacing" text-decoration="underline" textLength="205" x="13" y="458.5176">entityType : string = "sender"</text><text fill="#000000" font-family="sans-serif" font-size="14" font-weight="bold" lengthAdjust="spacing" textLength="125" x="13" y="476.127">refKey : string(70)</text><text fill="#000000" font-family="sans-serif" font-size="14" font-style="italic" lengthAdjust="spacing" textLength="138" x="13" y="493.7363">rsinNumber : string(9)</text><text fill="#000000" font-family="sans-serif" font-size="14" font-weight="bold" lengthAdjust="spacing" textLength="205" x="13" y="511.3457">organizationName : string(60)</text><text fill="#000000" font-family="sans-serif" font-size="14" font-style="italic" lengthAdjust="spacing" textLength="224" x="13" y="528.9551">applicationSenderName : string(60)</text></g><!--class party.contact--><g id="elem_party.contact"><rect codeLine="28" fill="#F1F1F1" height="92.8281" id="party.contact" rx="2.5" ry="2.5" style="stroke:#181818;stroke-width:0.5;" width="225" x="12.5" y="604.4844"/><ellipse cx="79.75" cy="620.4844" fill="#ADD1B2" rx="11" ry="11" style="stroke:#181818;stroke-width:1.0;"/><path d="M82.5156,616.3594 Q82.6719,616.1406 82.8594,616.0313 Q83.0469,615.9219 83.2656,615.9219 Q83.6406,615.9219 83.875,616.1797 Q84.1094,616.4375 84.1094,617.0469 L84.1094,618.5 Q84.1094,619.1094 83.875,619.375 Q83.6406,619.6406 83.2656,619.6406 Q82.9219,619.6406 82.7188,619.4375 Q82.5156,619.25 82.4063,618.7344 Q82.3594,618.375 82.1719,618.1875 Q81.8438,617.8125 81.2344,617.5938 Q80.625,617.375 80,617.375 Q79.2344,617.375 78.6016,617.7031 Q77.9688,618.0313 77.4766,618.7813 Q76.9844,619.5313 76.9844,620.5625 L76.9844,621.6563 Q76.9844,622.8906 77.875,623.7109 Q78.7656,624.5313 80.3594,624.5313 Q81.2969,624.5313 81.9531,624.2813 Q82.3438,624.125 82.7656,623.6875 Q83.0313,623.4219 83.1797,623.3438 Q83.3281,623.2656 83.5313,623.2656 Q83.8594,623.2656 84.1172,623.5234 Q84.375,623.7813 84.375,624.125 Q84.375,624.4688 84.0313,624.875 Q83.5313,625.4531 82.7344,625.7813 Q81.6563,626.2344 80.3594,626.2344 Q78.8438,626.2344 77.6406,625.6094 Q76.6563,625.1094 75.9688,624.0391 Q75.2813,622.9688 75.2813,621.6875 L75.2813,620.5313 Q75.2813,619.2031 75.8984,618.0547 Q76.5156,616.9063 77.6094,616.2891 Q78.7031,615.6719 79.9375,615.6719 Q80.6719,615.6719 81.3203,615.8359 Q81.9688,616 82.5156,616.3594 Z " fill="#000000"/><text fill="#000000" font-family="sans-serif" font-size="14" lengthAdjust="spacing" textLength="82" x="100.25" y="626.2129">party.contact</text><line style="stroke:#181818;stroke-width:0.5;" x1="13.5" x2="236.5" y1="636.4844" y2="636.4844"/><text fill="#000000" font-family="sans-serif" font-size="14" font-weight="bold" lengthAdjust="spacing" text-decoration="underline" textLength="207" x="18.5" y="655.0176">entityType : string = "contact"</text><text fill="#000000" font-family="sans-serif" font-size="14" font-weight="bold" lengthAdjust="spacing" textLength="152" x="18.5" y="672.627">emailWork : string(60)</text><text fill="#000000" font-family="sans-serif" font-size="14" font-weight="bold" lengthAdjust="spacing" textLength="213" x="18.5" y="690.2363">workPhoneNumber : string(60)</text></g><!--class party.receiver--><g id="elem_party.receiver"><rect codeLine="34" fill="#F1F1F1" height="110.4375" id="party.receiver" rx="2.5" ry="2.5" style="stroke:#181818;stroke-width:0.5;" width="227" x="278.5" y="416.9844"/><ellipse cx="344.25" cy="432.9844" fill="#ADD1B2" rx="11" ry="11" style="stroke:#181818;stroke-width:1.0;"/><path d="M347.0156,428.8594 Q347.1719,428.6406 347.3594,428.5313 Q347.5469,428.4219 347.7656,428.4219 Q348.1406,428.4219 348.375,428.6797 Q348.6094,428.9375 348.6094,429.5469 L348.6094,431 Q348.6094,431.6094 348.375,431.875 Q348.1406,432.1406 347.7656,432.1406 Q347.4219,432.1406 347.2188,431.9375 Q347.0156,431.75 346.9063,431.2344 Q346.8594,430.875 346.6719,430.6875 Q346.3438,430.3125 345.7344,430.0938 Q345.125,429.875 344.5,429.875 Q343.7344,429.875 343.1016,430.2031 Q342.4688,430.5313 341.9766,431.2813 Q341.4844,432.0313 341.4844,433.0625 L341.4844,434.1563 Q341.4844,435.3906 342.375,436.2109 Q343.2656,437.0313 344.8594,437.0313 Q345.7969,437.0313 346.4531,436.7813 Q346.8438,436.625 347.2656,436.1875 Q347.5313,435.9219 347.6797,435.8438 Q347.8281,435.7656 348.0313,435.7656 Q348.3594,435.7656 348.6172,436.0234 Q348.875,436.2813 348.875,436.625 Q348.875,436.9688 348.5313,437.375 Q348.0313,437.9531 347.2344,438.2813 Q346.1563,438.7344 344.8594,438.7344 Q343.3438,438.7344 342.1406,438.1094 Q341.1563,437.6094 340.4688,436.5391 Q339.7813,435.4688 339.7813,434.1875 L339.7813,433.0313 Q339.7813,431.7031 340.3984,430.5547 Q341.0156,429.4063 342.1094,428.7891 Q343.2031,428.1719 344.4375,428.1719 Q345.1719,428.1719 345.8203,428.3359 Q346.4688,428.5 347.0156,428.8594 Z " fill="#000000"/><text fill="#000000" font-family="sans-serif" font-size="14" lengthAdjust="spacing" textLength="87" x="364.75" y="438.7129">party.receiver</text><line style="stroke:#181818;stroke-width:0.5;" x1="279.5" x2="504.5" y1="448.9844" y2="448.9844"/><text fill="#000000" font-family="sans-serif" font-size="14" font-weight="bold" lengthAdjust="spacing" text-decoration="underline" textLength="215" x="284.5" y="467.5176">entityType : string = "receiver"</text><text fill="#000000" font-family="sans-serif" font-size="14" font-weight="bold" lengthAdjust="spacing" textLength="125" x="284.5" y="485.127">refKey : string(70)</text><text fill="#000000" font-family="sans-serif" font-size="14" font-style="italic" lengthAdjust="spacing" textLength="138" x="284.5" y="502.7363">rsinNumber : string(9)</text><text fill="#000000" font-family="sans-serif" font-size="14" font-weight="bold" lengthAdjust="spacing" textLength="205" x="284.5" y="520.3457">organizationName : string(60)</text></g><!--class commonFunctional.default--><g id="elem_commonFunctional.default"><rect codeLine="41" fill="#F1F1F1" height="128.0469" id="commonFunctional.default" rx="2.5" ry="2.5" style="stroke:#181818;stroke-width:0.5;" width="235" x="565.5" y="219.9844"/><ellipse cx="597.15" cy="235.9844" fill="#ADD1B2" rx="11" ry="11" style="stroke:#181818;stroke-width:1.0;"/><path d="M599.9156,231.8594 Q600.0719,231.6406 600.2594,231.5313 Q600.4469,231.4219 600.6656,231.4219 Q601.0406,231.4219 601.275,231.6797 Q601.5094,231.9375 601.5094,232.5469 L601.5094,234 Q601.5094,234.6094 601.275,234.875 Q601.0406,235.1406 600.6656,235.1406 Q600.3219,235.1406 600.1188,234.9375 Q599.9156,234.75 599.8063,234.2344 Q599.7594,233.875 599.5719,233.6875 Q599.2438,233.3125 598.6344,233.0938 Q598.025,232.875 597.4,232.875 Q596.6344,232.875 596.0016,233.2031 Q595.3688,233.5313 594.8766,234.2813 Q594.3844,235.0313 594.3844,236.0625 L594.3844,237.1563 Q594.3844,238.3906 595.275,239.2109 Q596.1656,240.0313 597.7594,240.0313 Q598.6969,240.0313 599.3531,239.7813 Q599.7438,239.625 600.1656,239.1875 Q600.4313,238.9219 600.5797,238.8438 Q600.7281,238.7656 600.9313,238.7656 Q601.2594,238.7656 601.5172,239.0234 Q601.775,239.2813 601.775,239.625 Q601.775,239.9688 601.4313,240.375 Q600.9313,240.9531 600.1344,241.2813 Q599.0563,241.7344 597.7594,241.7344 Q596.2438,241.7344 595.0406,241.1094 Q594.0563,240.6094 593.3688,239.5391 Q592.6813,238.4688 592.6813,237.1875 L592.6813,236.0313 Q592.6813,234.7031 593.2984,233.5547 Q593.9156,232.4063 595.0094,231.7891 Q596.1031,231.1719 597.3375,231.1719 Q598.0719,231.1719 598.7203,231.3359 Q599.3688,231.5 599.9156,231.8594 Z " fill="#000000"/><text fill="#000000" font-family="sans-serif" font-size="14" lengthAdjust="spacing" textLength="166" x="614.85" y="241.7129">commonFunctional.default</text><line style="stroke:#181818;stroke-width:0.5;" x1="566.5" x2="799.5" y1="251.9844" y2="251.9844"/><text fill="#000000" font-family="sans-serif" font-size="14" font-weight="bold" lengthAdjust="spacing" text-decoration="underline" textLength="204" x="571.5" y="270.5176">entityType : string = "default"</text><text fill="#000000" font-family="sans-serif" font-size="14" font-weight="bold" lengthAdjust="spacing" textLength="111" x="571.5" y="288.127">function : string</text><text fill="#000000" font-family="sans-serif" font-size="14" font-weight="bold" lengthAdjust="spacing" textLength="208" x="571.5" y="305.7363">afdDefinitionName : string(80)</text><text fill="#000000" font-family="sans-serif" font-size="14" font-weight="bold" lengthAdjust="spacing" textLength="223" x="571.5" y="323.3457">afdDefinitionVersion : string(80)</text><text fill="#000000" font-family="sans-serif" font-size="14" font-style="italic" lengthAdjust="spacing" textLength="189" x="571.5" y="340.9551">originalMessageId : string(70)</text></g><!--class party.pensionProvider--><g id="elem_party.pensionProvider"><rect codeLine="49" fill="#F1F1F1" height="110.4375" id="party.pensionProvider" rx="2.5" ry="2.5" style="stroke:#181818;stroke-width:0.5;" width="285" x="837.5" y="228.9844"/><ellipse cx="906.25" cy="244.9844" fill="#ADD1B2" rx="11" ry="11" style="stroke:#181818;stroke-width:1.0;"/><path d="M909.0156,240.8594 Q909.1719,240.6406 909.3594,240.5313 Q909.5469,240.4219 909.7656,240.4219 Q910.1406,240.4219 910.375,240.6797 Q910.6094,240.9375 910.6094,241.5469 L910.6094,243 Q910.6094,243.6094 910.375,243.875 Q910.1406,244.1406 909.7656,244.1406 Q909.4219,244.1406 909.2188,243.9375 Q909.0156,243.75 908.9063,243.2344 Q908.8594,242.875 908.6719,242.6875 Q908.3438,242.3125 907.7344,242.0938 Q907.125,241.875 906.5,241.875 Q905.7344,241.875 905.1016,242.2031 Q904.4688,242.5313 903.9766,243.2813 Q903.4844,244.0313 903.4844,245.0625 L903.4844,246.1563 Q903.4844,247.3906 904.375,248.2109 Q905.2656,249.0313 906.8594,249.0313 Q907.7969,249.0313 908.4531,248.7813 Q908.8438,248.625 909.2656,248.1875 Q909.5313,247.9219 909.6797,247.8438 Q909.8281,247.7656 910.0313,247.7656 Q910.3594,247.7656 910.6172,248.0234 Q910.875,248.2813 910.875,248.625 Q910.875,248.9688 910.5313,249.375 Q910.0313,249.9531 909.2344,250.2813 Q908.1563,250.7344 906.8594,250.7344 Q905.3438,250.7344 904.1406,250.1094 Q903.1563,249.6094 902.4688,248.5391 Q901.7813,247.4688 901.7813,246.1875 L901.7813,245.0313 Q901.7813,243.7031 902.3984,242.5547 Q903.0156,241.4063 904.1094,240.7891 Q905.2031,240.1719 906.4375,240.1719 Q907.1719,240.1719 907.8203,240.3359 Q908.4688,240.5 909.0156,240.8594 Z " fill="#000000"/><text fill="#000000" font-family="sans-serif" font-size="14" lengthAdjust="spacing" textLength="139" x="926.75" y="250.7129">party.pensionProvider</text><line style="stroke:#181818;stroke-width:0.5;" x1="838.5" x2="1121.5" y1="260.9844" y2="260.9844"/><text fill="#000000" font-family="sans-serif" font-size="14" font-weight="bold" lengthAdjust="spacing" text-decoration="underline" textLength="273" x="843.5" y="279.5176">entityType : string = "pensionProvider"</text><text fill="#000000" font-family="sans-serif" font-size="14" font-weight="bold" lengthAdjust="spacing" textLength="117" x="843.5" y="297.127">puvCode : string</text><text fill="#000000" font-family="sans-serif" font-size="14" font-style="italic" lengthAdjust="spacing" textLength="138" x="843.5" y="314.7363">rsinNumber : string(9)</text><text fill="#000000" font-family="sans-serif" font-size="14" font-weight="bold" lengthAdjust="spacing" textLength="205" x="843.5" y="332.3457">organizationName : string(60)</text></g><!--class pension.scheme--><g id="elem_pension.scheme"><rect codeLine="56" fill="#F1F1F1" height="110.4375" id="pension.scheme" rx="2.5" ry="2.5" style="stroke:#181818;stroke-width:0.5;" width="243" x="858.5" y="416.9844"/><ellipse cx="924.25" cy="432.9844" fill="#ADD1B2" rx="11" ry="11" style="stroke:#181818;stroke-width:1.0;"/><path d="M927.0156,428.8594 Q927.1719,428.6406 927.3594,428.5313 Q927.5469,428.4219 927.7656,428.4219 Q928.1406,428.4219 928.375,428.6797 Q928.6094,428.9375 928.6094,429.5469 L928.6094,431 Q928.6094,431.6094 928.375,431.875 Q928.1406,432.1406 927.7656,432.1406 Q927.4219,432.1406 927.2188,431.9375 Q927.0156,431.75 926.9063,431.2344 Q926.8594,430.875 926.6719,430.6875 Q926.3438,430.3125 925.7344,430.0938 Q925.125,429.875 924.5,429.875 Q923.7344,429.875 923.1016,430.2031 Q922.4688,430.5313 921.9766,431.2813 Q921.4844,432.0313 921.4844,433.0625 L921.4844,434.1563 Q921.4844,435.3906 922.375,436.2109 Q923.2656,437.0313 924.8594,437.0313 Q925.7969,437.0313 926.4531,436.7813 Q926.8438,436.625 927.2656,436.1875 Q927.5313,435.9219 927.6797,435.8438 Q927.8281,435.7656 928.0313,435.7656 Q928.3594,435.7656 928.6172,436.0234 Q928.875,436.2813 928.875,436.625 Q928.875,436.9688 928.5313,437.375 Q928.0313,437.9531 927.2344,438.2813 Q926.1563,438.7344 924.8594,438.7344 Q923.3438,438.7344 922.1406,438.1094 Q921.1563,437.6094 920.4688,436.5391 Q919.7813,435.4688 919.7813,434.1875 L919.7813,433.0313 Q919.7813,431.7031 920.3984,430.5547 Q921.0156,429.4063 922.1094,428.7891 Q923.2031,428.1719 924.4375,428.1719 Q925.1719,428.1719 925.8203,428.3359 Q926.4688,428.5 927.0156,428.8594 Z " fill="#000000"/><text fill="#000000" font-family="sans-serif" font-size="14" lengthAdjust="spacing" textLength="103" x="944.75" y="438.7129">pension.scheme</text><line style="stroke:#181818;stroke-width:0.5;" x1="859.5" x2="1100.5" y1="448.9844" y2="448.9844"/><text fill="#000000" font-family="sans-serif" font-size="14" font-weight="bold" lengthAdjust="spacing" text-decoration="underline" textLength="210" x="864.5" y="467.5176">entityType : string = "scheme"</text><text fill="#000000" font-family="sans-serif" font-size="14" font-weight="bold" lengthAdjust="spacing" textLength="125" x="864.5" y="485.127">refKey : string(70)</text><text fill="#000000" font-family="sans-serif" font-size="14" font-weight="bold" lengthAdjust="spacing" textLength="231" x="864.5" y="502.7363">pensionSchemeName : string(60)</text><text fill="#000000" font-family="sans-serif" font-size="14" font-weight="bold" lengthAdjust="spacing" textLength="202" x="864.5" y="520.3457">tradingPortfolioId : string(10)</text></g><!--class financialInformation.reportingPeriod--><g id="elem_financialInformation.reportingPeriod"><rect codeLine="63" fill="#F1F1F1" height="75.2188" id="financialInformation.reportingPeriod" rx="2.5" ry="2.5" style="stroke:#181818;stroke-width:0.5;" width="279" x="679.5" y="613.4844"/><ellipse cx="704.85" cy="629.4844" fill="#ADD1B2" rx="11" ry="11" style="stroke:#181818;stroke-width:1.0;"/><path d="M707.6156,625.3594 Q707.7719,625.1406 707.9594,625.0313 Q708.1469,624.9219 708.3656,624.9219 Q708.7406,624.9219 708.975,625.1797 Q709.2094,625.4375 709.2094,626.0469 L709.2094,627.5 Q709.2094,628.1094 708.975,628.375 Q708.7406,628.6406 708.3656,628.6406 Q708.0219,628.6406 707.8188,628.4375 Q707.6156,628.25 707.5063,627.7344 Q707.4594,627.375 707.2719,627.1875 Q706.9438,626.8125 706.3344,626.5938 Q705.725,626.375 705.1,626.375 Q704.3344,626.375 703.7016,626.7031 Q703.0688,627.0313 702.5766,627.7813 Q702.0844,628.5313 702.0844,629.5625 L702.0844,630.6563 Q702.0844,631.8906 702.975,632.7109 Q703.8656,633.5313 705.4594,633.5313 Q706.3969,633.5313 707.0531,633.2813 Q707.4438,633.125 707.8656,632.6875 Q708.1313,632.4219 708.2797,632.3438 Q708.4281,632.2656 708.6313,632.2656 Q708.9594,632.2656 709.2172,632.5234 Q709.475,632.7813 709.475,633.125 Q709.475,633.4688 709.1313,633.875 Q708.6313,634.4531 707.8344,634.7813 Q706.7563,635.2344 705.4594,635.2344 Q703.9438,635.2344 702.7406,634.6094 Q701.7563,634.1094 701.0688,633.0391 Q700.3813,631.9688 700.3813,630.6875 L700.3813,629.5313 Q700.3813,628.2031 700.9984,627.0547 Q701.6156,625.9063 702.7094,625.2891 Q703.8031,624.6719 705.0375,624.6719 Q705.7719,624.6719 706.4203,624.8359 Q707.0688,625 707.6156,625.3594 Z " fill="#000000"/><text fill="#000000" font-family="sans-serif" font-size="14" lengthAdjust="spacing" textLength="224" x="721.15" y="635.2129">financialInformation.reportingPeriod</text><line style="stroke:#181818;stroke-width:0.5;" x1="680.5" x2="957.5" y1="645.4844" y2="645.4844"/><text fill="#000000" font-family="sans-serif" font-size="14" font-weight="bold" lengthAdjust="spacing" text-decoration="underline" textLength="267" x="685.5" y="664.0176">entityType : string = "reportingPeriod"</text><text fill="#000000" font-family="sans-serif" font-size="14" font-weight="bold" lengthAdjust="spacing" textLength="151" x="685.5" y="681.627">instructionDate : date</text></g><!--class investment.investmentDetails--><g id="elem_investment.investmentDetails"><rect codeLine="68" fill="#F1F1F1" height="110.4375" id="investment.investmentDetails" rx="2.5" ry="2.5" style="stroke:#181818;stroke-width:0.5;" width="294" x="994" y="595.9844"/><ellipse cx="1045.25" cy="611.9844" fill="#ADD1B2" rx="11" ry="11" style="stroke:#181818;stroke-width:1.0;"/><path d="M1048.0156,607.8594 Q1048.1719,607.6406 1048.3594,607.5313 Q1048.5469,607.4219 1048.7656,607.4219 Q1049.1406,607.4219 1049.375,607.6797 Q1049.6094,607.9375 1049.6094,608.5469 L1049.6094,610 Q1049.6094,610.6094 1049.375,610.875 Q1049.1406,611.1406 1048.7656,611.1406 Q1048.4219,611.1406 1048.2188,610.9375 Q1048.0156,610.75 1047.9063,610.2344 Q1047.8594,609.875 1047.6719,609.6875 Q1047.3438,609.3125 1046.7344,609.0938 Q1046.125,608.875 1045.5,608.875 Q1044.7344,608.875 1044.1016,609.2031 Q1043.4688,609.5313 1042.9766,610.2813 Q1042.4844,611.0313 1042.4844,612.0625 L1042.4844,613.1563 Q1042.4844,614.3906 1043.375,615.2109 Q1044.2656,616.0313 1045.8594,616.0313 Q1046.7969,616.0313 1047.4531,615.7813 Q1047.8438,615.625 1048.2656,615.1875 Q1048.5313,614.9219 1048.6797,614.8438 Q1048.8281,614.7656 1049.0313,614.7656 Q1049.3594,614.7656 1049.6172,615.0234 Q1049.875,615.2813 1049.875,615.625 Q1049.875,615.9688 1049.5313,616.375 Q1049.0313,616.9531 1048.2344,617.2813 Q1047.1563,617.7344 1045.8594,617.7344 Q1044.3438,617.7344 1043.1406,617.1094 Q1042.1563,616.6094 1041.4688,615.5391 Q1040.7813,614.4688 1040.7813,613.1875 L1040.7813,612.0313 Q1040.7813,610.7031 1041.3984,609.5547 Q1042.0156,608.4063 1043.1094,607.7891 Q1044.2031,607.1719 1045.4375,607.1719 Q1046.1719,607.1719 1046.8203,607.3359 Q1047.4688,607.5 1048.0156,607.8594 Z " fill="#000000"/><text fill="#000000" font-family="sans-serif" font-size="14" lengthAdjust="spacing" textLength="183" x="1065.75" y="617.7129">investment.investmentDetails</text><line style="stroke:#181818;stroke-width:0.5;" x1="995" x2="1287" y1="627.9844" y2="627.9844"/><text fill="#000000" font-family="sans-serif" font-size="14" font-weight="bold" lengthAdjust="spacing" text-decoration="underline" textLength="282" x="1000" y="646.5176">entityType : string = "investmentDetails"</text><text fill="#000000" font-family="sans-serif" font-size="14" font-weight="bold" lengthAdjust="spacing" textLength="125" x="1000" y="664.127">refKey : string(70)</text><text fill="#000000" font-family="sans-serif" font-size="14" font-weight="bold" lengthAdjust="spacing" textLength="159" x="1000" y="681.7363">description : string(60)</text><text fill="#000000" font-family="sans-serif" font-size="14" font-weight="bold" lengthAdjust="spacing" textLength="148" x="1000" y="699.3457">currencyType : string</text></g><!--class financialTransaction.trade--><g id="elem_financialTransaction.trade"><rect codeLine="75" fill="#F1F1F1" height="180.875" id="financialTransaction.trade" rx="2.5" ry="2.5" style="stroke:#181818;stroke-width:0.5;" width="210" x="942" y="765.9844"/><ellipse cx="963.3" cy="781.9844" fill="#ADD1B2" rx="11" ry="11" style="stroke:#181818;stroke-width:1.0;"/><path d="M966.0656,777.8594 Q966.2219,777.6406 966.4094,777.5313 Q966.5969,777.4219 966.8156,777.4219 Q967.1906,777.4219 967.425,777.6797 Q967.6594,777.9375 967.6594,778.5469 L967.6594,780 Q967.6594,780.6094 967.425,780.875 Q967.1906,781.1406 966.8156,781.1406 Q966.4719,781.1406 966.2688,780.9375 Q966.0656,780.75 965.9563,780.2344 Q965.9094,779.875 965.7219,779.6875 Q965.3938,779.3125 964.7844,779.0938 Q964.175,778.875 963.55,778.875 Q962.7844,778.875 962.1516,779.2031 Q961.5188,779.5313 961.0266,780.2813 Q960.5344,781.0313 960.5344,782.0625 L960.5344,783.1563 Q960.5344,784.3906 961.425,785.2109 Q962.3156,786.0313 963.9094,786.0313 Q964.8469,786.0313 965.5031,785.7813 Q965.8938,785.625 966.3156,785.1875 Q966.5813,784.9219 966.7297,784.8438 Q966.8781,784.7656 967.0813,784.7656 Q967.4094,784.7656 967.6672,785.0234 Q967.925,785.2813 967.925,785.625 Q967.925,785.9688 967.5813,786.375 Q967.0813,786.9531 966.2844,787.2813 Q965.2063,787.7344 963.9094,787.7344 Q962.3938,787.7344 961.1906,787.1094 Q960.2063,786.6094 959.5188,785.5391 Q958.8313,784.4688 958.8313,783.1875 L958.8313,782.0313 Q958.8313,780.7031 959.4484,779.5547 Q960.0656,778.4063 961.1594,777.7891 Q962.2531,777.1719 963.4875,777.1719 Q964.2219,777.1719 964.8703,777.3359 Q965.5188,777.5 966.0656,777.8594 Z " fill="#000000"/><text fill="#000000" font-family="sans-serif" font-size="14" lengthAdjust="spacing" textLength="164" x="978.7" y="787.7129">financialTransaction.trade</text><line style="stroke:#181818;stroke-width:0.5;" x1="943" x2="1151" y1="797.9844" y2="797.9844"/><text fill="#000000" font-family="sans-serif" font-size="14" font-weight="bold" lengthAdjust="spacing" text-decoration="underline" textLength="192" x="948" y="816.5176">entityType : string = "trade"</text><text fill="#000000" font-family="sans-serif" font-size="14" font-weight="bold" lengthAdjust="spacing" textLength="112" x="948" y="834.127">tradeDate : date</text><text fill="#000000" font-family="sans-serif" font-size="14" font-weight="bold" lengthAdjust="spacing" textLength="125" x="948" y="851.7363">refKey : string(70)</text><text fill="#000000" font-family="sans-serif" font-size="14" font-weight="bold" lengthAdjust="spacing" textLength="117" x="948" y="869.3457">buySellId : string</text><text fill="#000000" font-family="sans-serif" font-size="14" font-style="italic" lengthAdjust="spacing" textLength="141" x="948" y="886.9551">tradeAmount : decimal</text><text fill="#000000" font-family="sans-serif" font-size="14" font-style="italic" lengthAdjust="spacing" textLength="198" x="948" y="904.5645">tradeQuantity : decimal (1E-06)</text><text fill="#000000" font-family="sans-serif" font-size="14" font-style="italic" lengthAdjust="spacing" textLength="117" x="948" y="922.1738">switchType : string</text><text fill="#000000" font-family="sans-serif" font-size="14" font-style="italic" lengthAdjust="spacing" textLength="192" x="948" y="939.7832">financialInformationRef : string</text></g><!--class document.default--><g id="elem_document.default"><rect codeLine="86" fill="#F1F1F1" height="110.4375" id="document.default" rx="2.5" ry="2.5" style="stroke:#181818;stroke-width:0.5;" width="216" x="1158" y="228.9844"/><ellipse cx="1207.25" cy="244.9844" fill="#ADD1B2" rx="11" ry="11" style="stroke:#181818;stroke-width:1.0;"/><path d="M1210.0156,240.8594 Q1210.1719,240.6406 1210.3594,240.5313 Q1210.5469,240.4219 1210.7656,240.4219 Q1211.1406,240.4219 1211.375,240.6797 Q1211.6094,240.9375 1211.6094,241.5469 L1211.6094,243 Q1211.6094,243.6094 1211.375,243.875 Q1211.1406,244.1406 1210.7656,244.1406 Q1210.4219,244.1406 1210.2188,243.9375 Q1210.0156,243.75 1209.9063,243.2344 Q1209.8594,242.875 1209.6719,242.6875 Q1209.3438,242.3125 1208.7344,242.0938 Q1208.125,241.875 1207.5,241.875 Q1206.7344,241.875 1206.1016,242.2031 Q1205.4688,242.5313 1204.9766,243.2813 Q1204.4844,244.0313 1204.4844,245.0625 L1204.4844,246.1563 Q1204.4844,247.3906 1205.375,248.2109 Q1206.2656,249.0313 1207.8594,249.0313 Q1208.7969,249.0313 1209.4531,248.7813 Q1209.8438,248.625 1210.2656,248.1875 Q1210.5313,247.9219 1210.6797,247.8438 Q1210.8281,247.7656 1211.0313,247.7656 Q1211.3594,247.7656 1211.6172,248.0234 Q1211.875,248.2813 1211.875,248.625 Q1211.875,248.9688 1211.5313,249.375 Q1211.0313,249.9531 1210.2344,250.2813 Q1209.1563,250.7344 1207.8594,250.7344 Q1206.3438,250.7344 1205.1406,250.1094 Q1204.1563,249.6094 1203.4688,248.5391 Q1202.7813,247.4688 1202.7813,246.1875 L1202.7813,245.0313 Q1202.7813,243.7031 1203.3984,242.5547 Q1204.0156,241.4063 1205.1094,240.7891 Q1206.2031,240.1719 1207.4375,240.1719 Q1208.1719,240.1719 1208.8203,240.3359 Q1209.4688,240.5 1210.0156,240.8594 Z " fill="#000000"/><text fill="#000000" font-family="sans-serif" font-size="14" lengthAdjust="spacing" textLength="109" x="1227.75" y="250.7129">document.default</text><line style="stroke:#181818;stroke-width:0.5;" x1="1159" x2="1373" y1="260.9844" y2="260.9844"/><text fill="#000000" font-family="sans-serif" font-size="14" font-weight="bold" lengthAdjust="spacing" text-decoration="underline" textLength="204" x="1164" y="279.5176">entityType : string = "default"</text><text fill="#000000" font-family="sans-serif" font-size="14" font-weight="bold" lengthAdjust="spacing" textLength="125" x="1164" y="297.127">refKey : string(70)</text><text fill="#000000" font-family="sans-serif" font-size="14" font-weight="bold" lengthAdjust="spacing" textLength="140" x="1164" y="314.7363">fileName : string(60)</text><text fill="#000000" font-family="sans-serif" font-size="14" font-weight="bold" lengthAdjust="spacing" textLength="145" x="1164" y="332.3457">fileExtension : string</text></g><!--class chunkMeta.default--><g id="elem_chunkMeta.default"><rect codeLine="93" fill="#F1F1F1" height="128.0469" id="chunkMeta.default" rx="2.5" ry="2.5" style="stroke:#181818;stroke-width:0.5;" width="244" x="1409" y="219.9844"/><ellipse cx="1468.75" cy="235.9844" fill="#ADD1B2" rx="11" ry="11" style="stroke:#181818;stroke-width:1.0;"/><path d="M1471.5156,231.8594 Q1471.6719,231.6406 1471.8594,231.5313 Q1472.0469,231.4219 1472.2656,231.4219 Q1472.6406,231.4219 1472.875,231.6797 Q1473.1094,231.9375 1473.1094,232.5469 L1473.1094,234 Q1473.1094,234.6094 1472.875,234.875 Q1472.6406,235.1406 1472.2656,235.1406 Q1471.9219,235.1406 1471.7188,234.9375 Q1471.5156,234.75 1471.4063,234.2344 Q1471.3594,233.875 1471.1719,233.6875 Q1470.8438,233.3125 1470.2344,233.0938 Q1469.625,232.875 1469,232.875 Q1468.2344,232.875 1467.6016,233.2031 Q1466.9688,233.5313 1466.4766,234.2813 Q1465.9844,235.0313 1465.9844,236.0625 L1465.9844,237.1563 Q1465.9844,238.3906 1466.875,239.2109 Q1467.7656,240.0313 1469.3594,240.0313 Q1470.2969,240.0313 1470.9531,239.7813 Q1471.3438,239.625 1471.7656,239.1875 Q1472.0313,238.9219 1472.1797,238.8438 Q1472.3281,238.7656 1472.5313,238.7656 Q1472.8594,238.7656 1473.1172,239.0234 Q1473.375,239.2813 1473.375,239.625 Q1473.375,239.9688 1473.0313,240.375 Q1472.5313,240.9531 1471.7344,241.2813 Q1470.6563,241.7344 1469.3594,241.7344 Q1467.8438,241.7344 1466.6406,241.1094 Q1465.6563,240.6094 1464.9688,239.5391 Q1464.2813,238.4688 1464.2813,237.1875 L1464.2813,236.0313 Q1464.2813,234.7031 1464.8984,233.5547 Q1465.5156,232.4063 1466.6094,231.7891 Q1467.7031,231.1719 1468.9375,231.1719 Q1469.6719,231.1719 1470.3203,231.3359 Q1470.9688,231.5 1471.5156,231.8594 Z " fill="#000000"/><text fill="#000000" font-family="sans-serif" font-size="14" lengthAdjust="spacing" textLength="116" x="1489.25" y="241.7129">chunkMeta.default</text><line style="stroke:#181818;stroke-width:0.5;" x1="1410" x2="1652" y1="251.9844" y2="251.9844"/><text fill="#000000" font-family="sans-serif" font-size="14" font-weight="bold" lengthAdjust="spacing" text-decoration="underline" textLength="204" x="1415" y="270.5176">entityType : string = "default"</text><text fill="#000000" font-family="sans-serif" font-size="14" font-weight="bold" lengthAdjust="spacing" textLength="189" x="1415" y="288.127">currentChunkId : string(70)</text><text fill="#000000" font-family="sans-serif" font-size="14" font-weight="bold" lengthAdjust="spacing" textLength="232" x="1415" y="305.7363">chunkSequenceNumber : integer</text><text fill="#000000" font-family="sans-serif" font-size="14" font-weight="bold" lengthAdjust="spacing" textLength="218" x="1415" y="323.3457">totalNumberOfChunks : integer</text><text fill="#000000" font-family="sans-serif" font-size="14" font-weight="bold" lengthAdjust="spacing" textLength="196" x="1415" y="340.9551">chunkFragmentPaths : array</text></g><!--class ADNFUN--><g id="elem_ADNFUN"><rect codeLine="101" fill="#F1F1F1" height="110.4375" id="ADNFUN" rx="2.5" ry="2.5" style="stroke:#181818;stroke-width:0.5;" width="282" x="541" y="416.9844"/><ellipse cx="650.25" cy="432.9844" fill="#EB937F" rx="11" ry="11" style="stroke:#181818;stroke-width:1.0;"/><path d="M649.1094,433.7813 L649.1094,436.2813 L653.4375,436.2813 L653.4375,435.3594 Q653.4375,434.75 653.6797,434.4844 Q653.9219,434.2188 654.2969,434.2188 Q654.6719,434.2188 654.9063,434.4844 Q655.1406,434.75 655.1406,435.3594 L655.1406,437.9844 L647.1406,437.9844 Q646.5156,437.9844 646.2578,437.75 Q646,437.5156 646,437.125 Q646,436.75 646.2656,436.5156 Q646.5313,436.2813 647.1406,436.2813 L647.4063,436.2813 L647.4063,429.625 L647.1406,429.625 Q646.5156,429.625 646.2578,429.3906 Q646,429.1563 646,428.7656 Q646,428.3906 646.2578,428.1563 Q646.5156,427.9219 647.1406,427.9219 L654.7656,427.9219 L654.7656,430.5156 Q654.7656,431.125 654.5391,431.3828 Q654.3125,431.6406 653.9219,431.6406 Q653.5469,431.6406 653.3125,431.3828 Q653.0781,431.125 653.0781,430.5156 L653.0781,429.625 L649.1094,429.625 L649.1094,432.0781 L650.5938,432.0781 Q650.5938,431.4219 650.7188,431.2344 Q650.9844,430.8281 651.4531,430.8281 Q651.8281,430.8281 652.0625,431.0859 Q652.2969,431.3438 652.2969,431.9531 L652.2969,433.9219 Q652.2969,434.4688 652.1719,434.6563 Q651.9063,435.0469 651.4531,435.0469 Q650.9844,435.0469 650.7188,434.6406 Q650.5938,434.4531 650.5938,433.7813 L649.1094,433.7813 Z " fill="#000000"/><text fill="#000000" font-family="sans-serif" font-size="14" lengthAdjust="spacing" textLength="55" x="670.75" y="438.7129">ADNFUN</text><line style="stroke:#181818;stroke-width:0.5;" x1="542" x2="822" y1="448.9844" y2="448.9844"/><text fill="#000000" font-family="sans-serif" font-size="14" lengthAdjust="spacing" textLength="66" x="547" y="467.5176">01 - Nieuw</text><text fill="#000000" font-family="sans-serif" font-size="14" lengthAdjust="spacing" textLength="81" x="547" y="485.127">02 - Wijzigen</text><text fill="#000000" font-family="sans-serif" font-size="14" lengthAdjust="spacing" textLength="270" x="547" y="502.7363">03 - Aanmelden bestaande polis op pakket</text><text fill="#000000" font-family="sans-serif" font-size="14" lengthAdjust="spacing" textLength="94" x="547" y="520.3457">04 - Opzeggen</text></g><!--class AFDIDP--><g id="elem_AFDIDP"><rect codeLine="109" fill="#F1F1F1" height="100.8281" id="AFDIDP" rx="2.5" ry="2.5" style="stroke:#181818;stroke-width:0.5;" width="128" x="1137" y="421.4844"/><ellipse cx="1172.7" cy="437.4844" fill="#EB937F" rx="11" ry="11" style="stroke:#181818;stroke-width:1.0;"/><path d="M1171.5594,438.2813 L1171.5594,440.7813 L1175.8875,440.7813 L1175.8875,439.8594 Q1175.8875,439.25 1176.1297,438.9844 Q1176.3719,438.7188 1176.7469,438.7188 Q1177.1219,438.7188 1177.3563,438.9844 Q1177.5906,439.25 1177.5906,439.8594 L1177.5906,442.4844 L1169.5906,442.4844 Q1168.9656,442.4844 1168.7078,442.25 Q1168.45,442.0156 1168.45,441.625 Q1168.45,441.25 1168.7156,441.0156 Q1168.9813,440.7813 1169.5906,440.7813 L1169.8563,440.7813 L1169.8563,434.125 L1169.5906,434.125 Q1168.9656,434.125 1168.7078,433.8906 Q1168.45,433.6563 1168.45,433.2656 Q1168.45,432.8906 1168.7078,432.6563 Q1168.9656,432.4219 1169.5906,432.4219 L1177.2156,432.4219 L1177.2156,435.0156 Q1177.2156,435.625 1176.9891,435.8828 Q1176.7625,436.1406 1176.3719,436.1406 Q1175.9969,436.1406 1175.7625,435.8828 Q1175.5281,435.625 1175.5281,435.0156 L1175.5281,434.125 L1171.5594,434.125 L1171.5594,436.5781 L1173.0438,436.5781 Q1173.0438,435.9219 1173.1688,435.7344 Q1173.4344,435.3281 1173.9031,435.3281 Q1174.2781,435.3281 1174.5125,435.5859 Q1174.7469,435.8438 1174.7469,436.4531 L1174.7469,438.4219 Q1174.7469,438.9688 1174.6219,439.1563 Q1174.3563,439.5469 1173.9031,439.5469 Q1173.4344,439.5469 1173.1688,439.1406 Q1173.0438,438.9531 1173.0438,438.2813 L1171.5594,438.2813 Z " fill="#000000"/><text fill="#000000" font-family="sans-serif" font-size="14" lengthAdjust="spacing" textLength="50" x="1191.3" y="443.2129">AFDIDP</text><line style="stroke:#181818;stroke-width:0.5;" x1="1138" x2="1264" y1="453.4844" y2="453.4844"/><text fill="#000000" font-family="sans-serif" font-size="14" lengthAdjust="spacing" textLength="106" x="1143" y="472.0176">U0003 - Fonds 1</text><text fill="#000000" font-family="sans-serif" font-size="14" lengthAdjust="spacing" textLength="106" x="1143" y="489.627">U0005 - Fonds 2</text><line style="stroke:#181818;stroke-width:1.0;stroke-dasharray:1.0,2.0;" x1="1138" x2="1264" y1="496.7031" y2="496.7031"/><text fill="#000000" font-family="sans-serif" font-size="14" lengthAdjust="spacing" textLength="116" x="1143" y="515.2363">U0765 - Fonds xxx</text></g><!--class ISOVAL--><g id="elem_ISOVAL"><rect codeLine="117" fill="#F1F1F1" height="100.8281" id="ISOVAL" rx="2.5" ry="2.5" style="stroke:#181818;stroke-width:0.5;" width="93" x="1187.5" y="805.9844"/><ellipse cx="1207.9" cy="821.9844" fill="#EB937F" rx="11" ry="11" style="stroke:#181818;stroke-width:1.0;"/><path d="M1206.7594,822.7813 L1206.7594,825.2813 L1211.0875,825.2813 L1211.0875,824.3594 Q1211.0875,823.75 1211.3297,823.4844 Q1211.5719,823.2188 1211.9469,823.2188 Q1212.3219,823.2188 1212.5563,823.4844 Q1212.7906,823.75 1212.7906,824.3594 L1212.7906,826.9844 L1204.7906,826.9844 Q1204.1656,826.9844 1203.9078,826.75 Q1203.65,826.5156 1203.65,826.125 Q1203.65,825.75 1203.9156,825.5156 Q1204.1813,825.2813 1204.7906,825.2813 L1205.0563,825.2813 L1205.0563,818.625 L1204.7906,818.625 Q1204.1656,818.625 1203.9078,818.3906 Q1203.65,818.1563 1203.65,817.7656 Q1203.65,817.3906 1203.9078,817.1563 Q1204.1656,816.9219 1204.7906,816.9219 L1212.4156,816.9219 L1212.4156,819.5156 Q1212.4156,820.125 1212.1891,820.3828 Q1211.9625,820.6406 1211.5719,820.6406 Q1211.1969,820.6406 1210.9625,820.3828 Q1210.7281,820.125 1210.7281,819.5156 L1210.7281,818.625 L1206.7594,818.625 L1206.7594,821.0781 L1208.2438,821.0781 Q1208.2438,820.4219 1208.3688,820.2344 Q1208.6344,819.8281 1209.1031,819.8281 Q1209.4781,819.8281 1209.7125,820.0859 Q1209.9469,820.3438 1209.9469,820.9531 L1209.9469,822.9219 Q1209.9469,823.4688 1209.8219,823.6563 Q1209.5563,824.0469 1209.1031,824.0469 Q1208.6344,824.0469 1208.3688,823.6406 Q1208.2438,823.4531 1208.2438,822.7813 L1206.7594,822.7813 Z " fill="#000000"/><text fill="#000000" font-family="sans-serif" font-size="14" lengthAdjust="spacing" textLength="49" x="1223.1" y="827.7129">ISOVAL</text><line style="stroke:#181818;stroke-width:0.5;" x1="1188.5" x2="1279.5" y1="837.9844" y2="837.9844"/><text fill="#000000" font-family="sans-serif" font-size="14" lengthAdjust="spacing" textLength="48" x="1193.5" y="856.5176">Afghani</text><text fill="#000000" font-family="sans-serif" font-size="14" lengthAdjust="spacing" textLength="81" x="1193.5" y="874.127">Albanese lek</text><line style="stroke:#181818;stroke-width:1.0;stroke-dasharray:1.0,2.0;" x1="1188.5" x2="1279.5" y1="881.2031" y2="881.2031"/><text fill="#000000" font-family="sans-serif" font-size="14" lengthAdjust="spacing" textLength="75" x="1193.5" y="899.7363">VAE-dirham</text></g><!--class cdl_buySellId_234--><g id="elem_cdl_buySellId_234"><rect codeLine="125" fill="#F1F1F1" height="92.8281" id="cdl_buySellId_234" rx="2.5" ry="2.5" style="stroke:#181818;stroke-width:0.5;" width="147" x="879.5" y="1006.9844"/><ellipse cx="894.5" cy="1022.9844" fill="#EB937F" rx="11" ry="11" style="stroke:#181818;stroke-width:1.0;"/><path d="M893.3594,1023.7813 L893.3594,1026.2813 L897.6875,1026.2813 L897.6875,1025.3594 Q897.6875,1024.75 897.9297,1024.4844 Q898.1719,1024.2188 898.5469,1024.2188 Q898.9219,1024.2188 899.1563,1024.4844 Q899.3906,1024.75 899.3906,1025.3594 L899.3906,1027.9844 L891.3906,1027.9844 Q890.7656,1027.9844 890.5078,1027.75 Q890.25,1027.5156 890.25,1027.125 Q890.25,1026.75 890.5156,1026.5156 Q890.7813,1026.2813 891.3906,1026.2813 L891.6563,1026.2813 L891.6563,1019.625 L891.3906,1019.625 Q890.7656,1019.625 890.5078,1019.3906 Q890.25,1019.1563 890.25,1018.7656 Q890.25,1018.3906 890.5078,1018.1563 Q890.7656,1017.9219 891.3906,1017.9219 L899.0156,1017.9219 L899.0156,1020.5156 Q899.0156,1021.125 898.7891,1021.3828 Q898.5625,1021.6406 898.1719,1021.6406 Q897.7969,1021.6406 897.5625,1021.3828 Q897.3281,1021.125 897.3281,1020.5156 L897.3281,1019.625 L893.3594,1019.625 L893.3594,1022.0781 L894.8438,1022.0781 Q894.8438,1021.4219 894.9688,1021.2344 Q895.2344,1020.8281 895.7031,1020.8281 Q896.0781,1020.8281 896.3125,1021.0859 Q896.5469,1021.3438 896.5469,1021.9531 L896.5469,1023.9219 Q896.5469,1024.4688 896.4219,1024.6563 Q896.1563,1025.0469 895.7031,1025.0469 Q895.2344,1025.0469 894.9688,1024.6406 Q894.8438,1024.4531 894.8438,1023.7813 L893.3594,1023.7813 Z " fill="#000000"/><text fill="#000000" font-family="sans-serif" font-size="14" lengthAdjust="spacing" textLength="115" x="908.5" y="1028.7129">cdl_buySellId_234</text><line style="stroke:#181818;stroke-width:0.5;" x1="880.5" x2="1025.5" y1="1038.9844" y2="1038.9844"/><text fill="#000000" font-family="sans-serif" font-size="14" lengthAdjust="spacing" textLength="21" x="885.5" y="1057.5176">sell</text><text fill="#000000" font-family="sans-serif" font-size="14" lengthAdjust="spacing" textLength="23" x="885.5" y="1075.127">buy</text><text fill="#000000" font-family="sans-serif" font-size="14" lengthAdjust="spacing" textLength="38" x="885.5" y="1092.7363">switch</text></g><!--class cdl_fileExtension_251--><g id="elem_cdl_fileExtension_251"><rect codeLine="132" fill="#F1F1F1" height="92.8281" id="cdl_fileExtension_251" rx="2.5" ry="2.5" style="stroke:#181818;stroke-width:0.5;" width="169" x="1300.5" y="425.4844"/><ellipse cx="1315.5" cy="441.4844" fill="#EB937F" rx="11" ry="11" style="stroke:#181818;stroke-width:1.0;"/><path d="M1314.3594,442.2813 L1314.3594,444.7813 L1318.6875,444.7813 L1318.6875,443.8594 Q1318.6875,443.25 1318.9297,442.9844 Q1319.1719,442.7188 1319.5469,442.7188 Q1319.9219,442.7188 1320.1563,442.9844 Q1320.3906,443.25 1320.3906,443.8594 L1320.3906,446.4844 L1312.3906,446.4844 Q1311.7656,446.4844 1311.5078,446.25 Q1311.25,446.0156 1311.25,445.625 Q1311.25,445.25 1311.5156,445.0156 Q1311.7813,444.7813 1312.3906,444.7813 L1312.6563,444.7813 L1312.6563,438.125 L1312.3906,438.125 Q1311.7656,438.125 1311.5078,437.8906 Q1311.25,437.6563 1311.25,437.2656 Q1311.25,436.8906 1311.5078,436.6563 Q1311.7656,436.4219 1312.3906,436.4219 L1320.0156,436.4219 L1320.0156,439.0156 Q1320.0156,439.625 1319.7891,439.8828 Q1319.5625,440.1406 1319.1719,440.1406 Q1318.7969,440.1406 1318.5625,439.8828 Q1318.3281,439.625 1318.3281,439.0156 L1318.3281,438.125 L1314.3594,438.125 L1314.3594,440.5781 L1315.8438,440.5781 Q1315.8438,439.9219 1315.9688,439.7344 Q1316.2344,439.3281 1316.7031,439.3281 Q1317.0781,439.3281 1317.3125,439.5859 Q1317.5469,439.8438 1317.5469,440.4531 L1317.5469,442.4219 Q1317.5469,442.9688 1317.4219,443.1563 Q1317.1563,443.5469 1316.7031,443.5469 Q1316.2344,443.5469 1315.9688,443.1406 Q1315.8438,442.9531 1315.8438,442.2813 L1314.3594,442.2813 Z " fill="#000000"/><text fill="#000000" font-family="sans-serif" font-size="14" lengthAdjust="spacing" textLength="137" x="1329.5" y="447.2129">cdl_fileExtension_251</text><line style="stroke:#181818;stroke-width:0.5;" x1="1301.5" x2="1468.5" y1="457.4844" y2="457.4844"/><text fill="#000000" font-family="sans-serif" font-size="14" lengthAdjust="spacing" textLength="20" x="1306.5" y="476.0176">pdf</text><text fill="#000000" font-family="sans-serif" font-size="14" lengthAdjust="spacing" textLength="21" x="1306.5" y="493.627">csv</text><text fill="#000000" font-family="sans-serif" font-size="14" lengthAdjust="spacing" textLength="14" x="1306.5" y="511.2363">txt</text></g><!--class cdl_switchType_234--><g id="elem_cdl_switchType_234"><rect codeLine="139" fill="#F1F1F1" height="75.2188" id="cdl_switchType_234" rx="2.5" ry="2.5" style="stroke:#181818;stroke-width:0.5;" width="160" x="1062" y="1015.9844"/><ellipse cx="1077" cy="1031.9844" fill="#EB937F" rx="11" ry="11" style="stroke:#181818;stroke-width:1.0;"/><path d="M1075.8594,1032.7813 L1075.8594,1035.2813 L1080.1875,1035.2813 L1080.1875,1034.3594 Q1080.1875,1033.75 1080.4297,1033.4844 Q1080.6719,1033.2188 1081.0469,1033.2188 Q1081.4219,1033.2188 1081.6563,1033.4844 Q1081.8906,1033.75 1081.8906,1034.3594 L1081.8906,1036.9844 L1073.8906,1036.9844 Q1073.2656,1036.9844 1073.0078,1036.75 Q1072.75,1036.5156 1072.75,1036.125 Q1072.75,1035.75 1073.0156,1035.5156 Q1073.2813,1035.2813 1073.8906,1035.2813 L1074.1563,1035.2813 L1074.1563,1028.625 L1073.8906,1028.625 Q1073.2656,1028.625 1073.0078,1028.3906 Q1072.75,1028.1563 1072.75,1027.7656 Q1072.75,1027.3906 1073.0078,1027.1563 Q1073.2656,1026.9219 1073.8906,1026.9219 L1081.5156,1026.9219 L1081.5156,1029.5156 Q1081.5156,1030.125 1081.2891,1030.3828 Q1081.0625,1030.6406 1080.6719,1030.6406 Q1080.2969,1030.6406 1080.0625,1030.3828 Q1079.8281,1030.125 1079.8281,1029.5156 L1079.8281,1028.625 L1075.8594,1028.625 L1075.8594,1031.0781 L1077.3438,1031.0781 Q1077.3438,1030.4219 1077.4688,1030.2344 Q1077.7344,1029.8281 1078.2031,1029.8281 Q1078.5781,1029.8281 1078.8125,1030.0859 Q1079.0469,1030.3438 1079.0469,1030.9531 L1079.0469,1032.9219 Q1079.0469,1033.4688 1078.9219,1033.6563 Q1078.6563,1034.0469 1078.2031,1034.0469 Q1077.7344,1034.0469 1077.4688,1033.6406 Q1077.3438,1033.4531 1077.3438,1032.7813 L1075.8594,1032.7813 Z " fill="#000000"/><text fill="#000000" font-family="sans-serif" font-size="14" lengthAdjust="spacing" textLength="128" x="1091" y="1037.7129">cdl_switchType_234</text><line style="stroke:#181818;stroke-width:0.5;" x1="1063" x2="1221" y1="1047.9844" y2="1047.9844"/><text fill="#000000" font-family="sans-serif" font-size="14" lengthAdjust="spacing" textLength="65" x="1068" y="1066.5176">sequential</text><text fill="#000000" font-family="sans-serif" font-size="14" lengthAdjust="spacing" textLength="52" x="1068" y="1084.127">one-day</text></g><!--reverse link berichtstructuur to chunkMeta.default--><g id="link_berichtstructuur_chunkMeta.default"><path codeLine="145" d="M1057.6584,150.2823 C1139.9884,161.0623 1272.78,182.1244 1392,219.9844 C1397.56,221.7444 1403.18,223.6744 1408.83,225.7244 " fill="none" id="berichtstructuur-backto-chunkMeta.default" style="stroke:#181818;stroke-width:1.0;"/><polygon fill="none" points="1045.76,148.7244,1051.1899,153.4695,1057.6584,150.2823,1052.2285,145.5372,1045.76,148.7244" style="stroke:#181818;stroke-width:1.0;"/><text fill="#000000" font-family="sans-serif" font-size="13" lengthAdjust="spacing" textLength="22" x="1379.1311" y="219.3976">0..1</text></g><!--reverse link berichtstructuur to commonFunctional.default--><g id="link_berichtstructuur_commonFunctional.default"><path codeLine="146" d="M929.424,165.161 C893.704,182.241 850.22,203.0344 800.69,226.7144 " fill="none" id="berichtstructuur-backto-commonFunctional.default" style="stroke:#181818;stroke-width:1.0;"/><polygon fill="none" points="940.25,159.9844,933.1115,158.964,929.424,165.161,936.5625,166.1814,940.25,159.9844" style="stroke:#181818;stroke-width:1.0;"/><text fill="#000000" font-family="sans-serif" font-size="13" lengthAdjust="spacing" textLength="22" x="807.2784" y="219.7001">1..1</text></g><!--reverse link berichtstructuur to commonTechnical.default--><g id="link_berichtstructuur_commonTechnical.default"><path codeLine="147" d="M902.3698,150.3189 C816.8498,161.4189 675.23,183.0744 548,219.9844 C532.85,224.3744 517.15,229.7244 501.81,235.4144 " fill="none" id="berichtstructuur-backto-commonTechnical.default" style="stroke:#181818;stroke-width:1.0;"/><polygon fill="none" points="914.27,148.7744,907.8051,145.5799,902.3698,150.3189,908.8348,153.5134,914.27,148.7744" style="stroke:#181818;stroke-width:1.0;"/><text fill="#000000" font-family="sans-serif" font-size="13" lengthAdjust="spacing" textLength="22" x="509.5494" y="229.2827">1..1</text></g><!--reverse link berichtstructuur to document.default--><g id="link_berichtstructuur_document.default"><path codeLine="148" d="M1029.5848,165.3871 C1062.0048,181.3571 1098.66,199.4444 1140,219.9844 C1145.8,222.8644 1151.76,225.8344 1157.76,228.8244 " fill="none" id="berichtstructuur-backto-document.default" style="stroke:#181818;stroke-width:1.0;"/><polygon fill="none" points="1018.82,160.0844,1022.4348,166.324,1029.5848,165.3871,1025.97,159.1475,1018.82,160.0844" style="stroke:#181818;stroke-width:1.0;"/><text fill="#000000" font-family="sans-serif" font-size="13" lengthAdjust="spacing" textLength="29" x="1120.9071" y="220.5366">0..99</text></g><!--reverse link berichtstructuur to party.pensionProvider--><g id="link_berichtstructuur_party.pensionProvider"><path codeLine="149" d="M980,172.1344 C980,189.6944 980,204.5644 980,228.7044 " fill="none" id="berichtstructuur-backto-party.pensionProvider" style="stroke:#181818;stroke-width:1.0;"/><polygon fill="none" points="980,160.1344,976,166.1344,980,172.1344,984,166.1344,980,160.1344" style="stroke:#181818;stroke-width:1.0;"/><text fill="#000000" font-family="sans-serif" font-size="13" lengthAdjust="spacing" textLength="22" x="956.5906" y="218.0862">1..1</text></g><!--reverse link commonTechnical.default to party.receiver--><g id="link_commonTechnical.default_party.receiver"><path codeLine="150" d="M392,351.0344 C392,375.4844 392,392.3344 392,416.8044 " fill="none" id="commonTechnical.default-backto-party.receiver" style="stroke:#181818;stroke-width:1.0;"/><polygon fill="none" points="392,339.0344,388,345.0344,392,351.0344,396,345.0344,392,339.0344" style="stroke:#181818;stroke-width:1.0;"/><text fill="#000000" font-family="sans-serif" font-size="13" lengthAdjust="spacing" textLength="22" x="368.5906" y="406.199">1..1</text></g><!--reverse link commonTechnical.default to party.sender--><g id="link_commonTechnical.default_party.sender"><path codeLine="151" d="M304.5646,345.895 C273.6246,367.455 247.63,385.5644 215.5,407.9344 " fill="none" id="commonTechnical.default-backto-party.sender" style="stroke:#181818;stroke-width:1.0;"/><polygon fill="none" points="314.41,339.0344,307.2004,339.1829,304.5646,345.895,311.7742,345.7465,314.41,339.0344" style="stroke:#181818;stroke-width:1.0;"/><text fill="#000000" font-family="sans-serif" font-size="13" lengthAdjust="spacing" textLength="22" x="202.6922" y="397.1163">1..1</text></g><!--reverse link investment.investmentDetails to financialTransaction.trade--><g id="link_investment.investmentDetails_financialTransaction.trade"><path codeLine="152" d="M1110.8979,717.1483 C1102.4679,735.3983 1097.86,745.3744 1088.51,765.6244 " fill="none" id="investment.investmentDetails-backto-financialTransaction.trade" style="stroke:#181818;stroke-width:1.0;"/><polygon fill="none" points="1115.93,706.2544,1109.7826,710.024,1110.8979,717.1483,1117.0453,713.3787,1115.93,706.2544" style="stroke:#181818;stroke-width:1.0;"/><text fill="#000000" font-family="sans-serif" font-size="13" lengthAdjust="spacing" textLength="29" x="1061.6624" y="755.2606">1..99</text></g><!--reverse link party.pensionProvider to pension.scheme--><g id="link_party.pensionProvider_pension.scheme"><path codeLine="153" d="M980,351.0344 C980,375.4844 980,392.3344 980,416.8044 " fill="none" id="party.pensionProvider-backto-pension.scheme" style="stroke:#181818;stroke-width:1.0;"/><polygon fill="none" points="980,339.0344,976,345.0344,980,351.0344,984,345.0344,980,339.0344" style="stroke:#181818;stroke-width:1.0;"/><text fill="#000000" font-family="sans-serif" font-size="13" lengthAdjust="spacing" textLength="36" x="941.6938" y="406.199">1..999</text></g><!--reverse link party.sender to party.contact--><g id="link_party.sender_party.contact"><path codeLine="154" d="M125,548.3844 C125,570.8044 125,583.5644 125,604.2344 " fill="none" id="party.sender-backto-party.contact" style="stroke:#181818;stroke-width:1.0;"/><polygon fill="none" points="125,536.3844,121,542.3844,125,548.3844,129,542.3844,125,536.3844" style="stroke:#181818;stroke-width:1.0;"/><text fill="#000000" font-family="sans-serif" font-size="13" lengthAdjust="spacing" textLength="22" x="101.3844" y="593.7265">0..9</text></g><!--reverse link pension.scheme to financialInformation.reportingPeriod--><g id="link_pension.scheme_financialInformation.reportingPeriod"><path codeLine="155" d="M922.7459,535.9318 C897.3159,563.8918 875.02,588.3944 852.35,613.3244 " fill="none" id="pension.scheme-backto-financialInformation.reportingPeriod" style="stroke:#181818;stroke-width:1.0;"/><polygon fill="none" points="930.82,527.0544,923.8238,528.8017,922.7459,535.9318,929.7421,534.1845,930.82,527.0544" style="stroke:#181818;stroke-width:1.0;"/><text fill="#000000" font-family="sans-serif" font-size="13" lengthAdjust="spacing" textLength="22" x="834.3311" y="602.6981">1..1</text></g><!--reverse link pension.scheme to investment.investmentDetails--><g id="link_pension.scheme_investment.investmentDetails"><path codeLine="156" d="M1037.2537,535.9322 C1057.1337,557.7922 1071.96,574.0844 1091.84,595.9444 " fill="none" id="pension.scheme-backto-investment.investmentDetails" style="stroke:#181818;stroke-width:1.0;"/><polygon fill="none" points="1029.18,527.0544,1030.2576,534.1845,1037.2537,535.9322,1036.1761,528.8021,1029.18,527.0544" style="stroke:#181818;stroke-width:1.0;"/><text fill="#000000" font-family="sans-serif" font-size="13" lengthAdjust="spacing" textLength="36" x="1046.8154" y="584.9627">1..999</text></g><!--reverse link commonFunctional.default to ADNFUN--><g id="link_commonFunctional.default_ADNFUN"><path codeLine="157" d="M682.5955,360.2142 C682.4755,382.5442 682.41,395.4244 682.29,416.9244 " fill="none" id="commonFunctional.default-backto-ADNFUN" style="stroke:#181818;stroke-width:1.0;"/><polygon fill="none" points="682.66,348.2144,678.6278,354.1928,682.5955,360.2142,686.6277,354.2358,682.66,348.2144" style="stroke:#181818;stroke-width:1.0;"/><text fill="#000000" font-family="sans-serif" font-size="13" lengthAdjust="spacing" textLength="45" x="634.3055" y="405.94">function</text></g><!--reverse link document.default to cdl_fileExtension_251--><g id="link_document.default_cdl_fileExtension_251"><path codeLine="158" d="M1307.0476,349.1423 C1324.5476,376.4923 1339.09,399.2244 1355.77,425.2944 " fill="none" id="document.default-backto-cdl_fileExtension_251" style="stroke:#181818;stroke-width:1.0;"/><polygon fill="none" points="1300.58,339.0344,1300.4445,346.2442,1307.0476,349.1423,1307.1831,341.9325,1300.58,339.0344" style="stroke:#181818;stroke-width:1.0;"/><text fill="#000000" font-family="sans-serif" font-size="13" lengthAdjust="spacing" textLength="74" x="1272.0425" y="414.7953">fileExtension</text></g><!--reverse link financialTransaction.trade to cdl_buySellId_234--><g id="link_financialTransaction.trade_cdl_buySellId_234"><path codeLine="159" d="M998.6404,957.8046 C988.6504,978.5346 983.64,988.9244 975,1006.8444 " fill="none" id="financialTransaction.trade-backto-cdl_buySellId_234" style="stroke:#181818;stroke-width:1.0;"/><polygon fill="none" points="1003.85,946.9944,997.6418,950.663,998.6404,957.8046,1004.8486,954.136,1003.85,946.9944" style="stroke:#181818;stroke-width:1.0;"/><text fill="#000000" font-family="sans-serif" font-size="13" lengthAdjust="spacing" textLength="53" x="921.3109" y="996.0128">buySellId</text></g><!--reverse link financialTransaction.trade to cdl_switchType_234--><g id="link_financialTransaction.trade_cdl_switchType_234"><path codeLine="160" d="M1095.8641,957.783 C1107.6641,982.013 1114.54,996.1144 1124.05,1015.6344 " fill="none" id="financialTransaction.trade-backto-cdl_switchType_234" style="stroke:#181818;stroke-width:1.0;"/><polygon fill="none" points="1090.61,946.9944,1089.6408,954.1401,1095.8641,957.783,1096.8332,950.6373,1090.61,946.9944" style="stroke:#181818;stroke-width:1.0;"/><text fill="#000000" font-family="sans-serif" font-size="13" lengthAdjust="spacing" textLength="65" x="1050.3789" y="1005.2604">switchType</text></g><!--reverse link investment.investmentDetails to ISOVAL--><g id="link_investment.investmentDetails_ISOVAL"><path codeLine="161" d="M1170.7882,717.1685 C1184.9382,748.1285 1197.56,775.7444 1211.34,805.9044 " fill="none" id="investment.investmentDetails-backto-ISOVAL" style="stroke:#181818;stroke-width:1.0;"/><polygon fill="none" points="1165.8,706.2544,1164.6561,713.3742,1170.7882,717.1685,1171.9321,710.0487,1165.8,706.2544" style="stroke:#181818;stroke-width:1.0;"/><text fill="#000000" font-family="sans-serif" font-size="13" lengthAdjust="spacing" textLength="78" x="1213.6378" y="795.1985">currencyType</text></g><!--reverse link party.pensionProvider to AFDIDP--><g id="link_party.pensionProvider_AFDIDP"><path codeLine="162" d="M1053.4005,346.7622 C1084.2405,372.7222 1111.77,395.8844 1141.92,421.2544 " fill="none" id="party.pensionProvider-backto-AFDIDP" style="stroke:#181818;stroke-width:1.0;"/><polygon fill="none" points="1044.22,339.0344,1046.2343,345.9584,1053.4005,346.7622,1051.3862,339.8381,1044.22,339.0344" style="stroke:#181818;stroke-width:1.0;"/><text fill="#000000" font-family="sans-serif" font-size="13" lengthAdjust="spacing" textLength="49" x="1137.0572" y="410.5274">puvCode</text></g><!--SRC=[nLTRJ-Cu57xFhx3o19KQsdAP1NMGkbDOeHaAkp3C8tATazPBOcTjfxIW-UzxxAIND6af8rRRbpJszvtxiK_6F0IIW1dBK7iQ3D6GKaMDL4H80PuNmmX4I8nCIGoHyRgQly1PftNU7Pv_k_ZZOj0_8zs3uJdfCXbBTQOWj5l70RbH8IYPXegoiI5xhTRnKNlVGhi73efFA-lSQmS46R_BE7I2FfDhAa9hmen4768qh8C8VdvbQCnPzu1Rp4rgk1GqdaCE0n849Fzz9bmmcQGn620nrwXzyJgXSGQQI45e57wH8TXzlUzP9tDVFO_5L6io1CNHScrKnaoMAVBwSxw5qX8fxe6D1MSq3aA8Q1ORykfPzQ_QKCFPJz9eW33SpEvdAP0pWfAu6A5rVe7t6usSu7om-0IqfYEu2XVmlK-j_GgCAQ3M_JurSCyJAzpW0_KcwHeOusPmupeNZC2Xb35GOSFeBHp2d9jPeD5xK3jxaSEhJYY8li9icmTebD9S3B84Wxm4dkuxgyhIf1fHmL-SlmEQB4tOEwcJIzCKYyIXxvnz5KwTvqmAGzdk2IpmLTyXeJp-8TNJDZCRZMT4t8wnmTP3a8FNh5F0W4_UaPavuV_EpLh3N6Q2vLtxSHqJ5J8Nw0e2-xmF4HUyQkLlDQafmHy0Ox4Yl8Q1yPAAZpXwTLtRlNNrbeAmSc-LdF3tjDmQhngED9lOGsrJDFwJv1P61PgD0M4x7nyE_YibYcxcAk-SYBTEXKR3A1hYtgrK9f8nbwiPQfUTmSnJmJYDhqGaLUAynmPCaMebu9qWmtVqOObNzPMB_7efpd8auyK7g_PmCS7ZEq45mV9l7mmUCtfdEohCNujw29efdfRQhJRUB5CA12iRKXlbUqM5fYu0WStIxkNZq7vjgg4So_SxEincTn37AsLISwjQHRr4Pi9OLS1uGkDA6ys1VsRKkR64ahtsHRDribz7qS_Si779vJfONQt-1L6PiuXvA5dcwkZ3pjvTGXdnU8S6jQYBgScxkhPYs3WJJzTOlHzdVbwbvekL_ER4PK5ty4-6PRsyjBamE3AgQX5A75Lpr4tavEijQ2VxKj6HpSujDMCBfahHMHu045b2Ult1vVT1uNIhJPfam25xpbyx-Fg3__t2SNxDLmvnfKT5WYf0u2YBKSAX6aYAnnzElodUGqzFO7Bm4O9lqXSOMJegB3HUzg_wjuN6xwsMatafHQX9Ux5sl5ZhkBKWABO-dIotfjFfKkpLtSr3xriXjXUDndZ9aFmb7b816aTsU2AhqXvw5ysGgp5Do58E2-F7HPy-TWwF2f4Q5zmVtCmNN3ELYQLwU-mSjmjo6aRkoVJ4FStKb8dBpYofj7LXi17TAuvrpP3E7B7o4I6RJUAtWg3jLqjw0xgTepUCK3kGAXygcyqwFVKh1yLM3RNpZBVf0wb2d4-gkpFohmvlwxqu9rblDbyrNlqijYGZkppRUANlf4NC_F9NXBSs4AsuiCjqiOdkxDdcjhTnodOYvfEoNvmbNkL2o66hhU7NTuktvVvsGXQDwLVxz4toiiVycfxR8VEhuuTV73ZRabqCpNvnvFqB]--></g></svg>