<svg xmlns="http://www.w3.org/2000/svg" xmlns:xlink="http://www.w3.org/1999/xlink" contentStyleType="text/css" height="989px" preserveAspectRatio="none" style="width:1666px;height:989px;background:#FFFFFF;" version="1.1" viewBox="0 0 1666 989" width="1666px" zoomAndPan="magnify"><defs/><g><rect fill="#DDDDDD" height="87.9844" id="_legend" rx="7.5" ry="7.5" style="stroke:#000000;stroke-width:1.0;" width="381" x="12" y="12"/><text fill="#000000" font-family="sans-serif" font-size="20" font-weight="bold" lengthAdjust="spacing" textLength="89" x="17" y="37.7617">LEGEND:</text><text fill="#000000" font-family="sans-serif" font-size="20" lengthAdjust="spacing" textLength="6" x="112" y="37.7617">&#160;</text><text fill="#FF0000" font-family="sans-serif" font-size="20" font-weight="bold" lengthAdjust="spacing" textLength="55" x="118" y="37.7617">0001c</text><text fill="#000000" font-family="sans-serif" font-size="14" lengthAdjust="spacing" textLength="12" x="17" y="56.6895">1.</text><text fill="#000000" font-family="sans-serif" font-size="14" font-weight="bold" lengthAdjust="spacing" textLength="32" x="33" y="56.6895">Bold</text><text fill="#000000" font-family="sans-serif" font-size="14" lengthAdjust="spacing" textLength="116" x="69" y="56.6895">= Mandatory fields</text><text fill="#000000" font-family="sans-serif" font-size="14" lengthAdjust="spacing" textLength="12" x="17" y="74.2988">2.</text><text fill="#000000" font-family="sans-serif" font-size="14" font-style="italic" lengthAdjust="spacing" textLength="29" x="33" y="74.2988">Italic</text><text fill="#000000" font-family="sans-serif" font-size="14" lengthAdjust="spacing" textLength="102" x="66" y="74.2988">= Optional fields</text><text fill="#000000" font-family="sans-serif" font-size="14" lengthAdjust="spacing" textLength="371" x="17" y="91.9082">3. ..       = incomplete list (complete values on afdCodelists)</text><!--class berichtstructuur--><g id="elem_berichtstructuur"><rect codeLine="11" fill="#F1F1F1" height="40" id="berichtstructuur" rx="2.5" ry="2.5" style="stroke:#181818;stroke-width:0.5;" width="131" x="767.5" y="119.9844"/><ellipse cx="782.5" cy="135.9844" fill="#ADD1B2" rx="11" ry="11" style="stroke:#181818;stroke-width:1.0;"/><path d="M785.2656,131.8594 Q785.4219,131.6406 785.6094,131.5313 Q785.7969,131.4219 786.0156,131.4219 Q786.3906,131.4219 786.625,131.6797 Q786.8594,131.9375 786.8594,132.5469 L786.8594,134 Q786.8594,134.6094 786.625,134.875 Q786.3906,135.1406 786.0156,135.1406 Q785.6719,135.1406 785.4688,134.9375 Q785.2656,134.75 785.1563,134.2344 Q785.1094,133.875 784.9219,133.6875 Q784.5938,133.3125 783.9844,133.0938 Q783.375,132.875 782.75,132.875 Q781.9844,132.875 781.3516,133.2031 Q780.7188,133.5313 780.2266,134.2813 Q779.7344,135.0313 779.7344,136.0625 L779.7344,137.1563 Q779.7344,138.3906 780.625,139.2109 Q781.5156,140.0313 783.1094,140.0313 Q784.0469,140.0313 784.7031,139.7813 Q785.0938,139.625 785.5156,139.1875 Q785.7813,138.9219 785.9297,138.8438 Q786.0781,138.7656 786.2813,138.7656 Q786.6094,138.7656 786.8672,139.0234 Q787.125,139.2813 787.125,139.625 Q787.125,139.9688 786.7813,140.375 Q786.2813,140.9531 785.4844,141.2813 Q784.4063,141.7344 783.1094,141.7344 Q781.5938,141.7344 780.3906,141.1094 Q779.4063,140.6094 778.7188,139.5391 Q778.0313,138.4688 778.0313,137.1875 L778.0313,136.0313 Q778.0313,134.7031 778.6484,133.5547 Q779.2656,132.4063 780.3594,131.7891 Q781.4531,131.1719 782.6875,131.1719 Q783.4219,131.1719 784.0703,131.3359 Q784.7188,131.5 785.2656,131.8594 Z " fill="#000000"/><text fill="#000000" font-family="sans-serif" font-size="14" lengthAdjust="spacing" textLength="99" x="796.5" y="141.7129">berichtstructuur</text><line style="stroke:#181818;stroke-width:0.5;" x1="768.5" x2="897.5" y1="151.9844" y2="151.9844"/></g><!--class commonTechnical.default--><g id="elem_commonTechnical.default"><rect codeLine="13" fill="#F1F1F1" height="110.4375" id="commonTechnical.default" rx="2.5" ry="2.5" style="stroke:#181818;stroke-width:0.5;" width="216" x="306" y="228.9844"/><ellipse cx="331.35" cy="244.9844" fill="#ADD1B2" rx="11" ry="11" style="stroke:#181818;stroke-width:1.0;"/><path d="M334.1156,240.8594 Q334.2719,240.6406 334.4594,240.5313 Q334.6469,240.4219 334.8656,240.4219 Q335.2406,240.4219 335.475,240.6797 Q335.7094,240.9375 335.7094,241.5469 L335.7094,243 Q335.7094,243.6094 335.475,243.875 Q335.2406,244.1406 334.8656,244.1406 Q334.5219,244.1406 334.3188,243.9375 Q334.1156,243.75 334.0063,243.2344 Q333.9594,242.875 333.7719,242.6875 Q333.4438,242.3125 332.8344,242.0938 Q332.225,241.875 331.6,241.875 Q330.8344,241.875 330.2016,242.2031 Q329.5688,242.5313 329.0766,243.2813 Q328.5844,244.0313 328.5844,245.0625 L328.5844,246.1563 Q328.5844,247.3906 329.475,248.2109 Q330.3656,249.0313 331.9594,249.0313 Q332.8969,249.0313 333.5531,248.7813 Q333.9438,248.625 334.3656,248.1875 Q334.6313,247.9219 334.7797,247.8438 Q334.9281,247.7656 335.1313,247.7656 Q335.4594,247.7656 335.7172,248.0234 Q335.975,248.2813 335.975,248.625 Q335.975,248.9688 335.6313,249.375 Q335.1313,249.9531 334.3344,250.2813 Q333.2563,250.7344 331.9594,250.7344 Q330.4438,250.7344 329.2406,250.1094 Q328.2563,249.6094 327.5688,248.5391 Q326.8813,247.4688 326.8813,246.1875 L326.8813,245.0313 Q326.8813,243.7031 327.4984,242.5547 Q328.1156,241.4063 329.2094,240.7891 Q330.3031,240.1719 331.5375,240.1719 Q332.2719,240.1719 332.9203,240.3359 Q333.5688,240.5 334.1156,240.8594 Z " fill="#000000"/><text fill="#000000" font-family="sans-serif" font-size="14" lengthAdjust="spacing" textLength="161" x="347.65" y="250.7129">commonTechnical.default</text><line style="stroke:#181818;stroke-width:0.5;" x1="307" x2="521" y1="260.9844" y2="260.9844"/><text fill="#000000" font-family="sans-serif" font-size="14" font-weight="bold" lengthAdjust="spacing" text-decoration="underline" textLength="204" x="312" y="279.5176">entityType : string = "default"</text><text fill="#000000" font-family="sans-serif" font-size="14" font-style="italic" lengthAdjust="spacing" textLength="142" x="312" y="297.127">messageId : string(70)</text><text fill="#000000" font-family="sans-serif" font-size="14" font-style="italic" lengthAdjust="spacing" textLength="188" x="312" y="314.7363">creationDateTime : timestamp</text><text fill="#000000" font-family="sans-serif" font-size="14" font-weight="bold" lengthAdjust="spacing" textLength="160" x="312" y="332.3457">testMessage : boolean</text></g><!--class party.sender--><g id="elem_party.sender"><rect codeLine="20" fill="#F1F1F1" height="128.0469" id="party.sender" rx="2.5" ry="2.5" style="stroke:#181818;stroke-width:0.5;" width="258" x="7" y="407.9844"/><ellipse cx="91.75" cy="423.9844" fill="#ADD1B2" rx="11" ry="11" style="stroke:#181818;stroke-width:1.0;"/><path d="M94.5156,419.8594 Q94.6719,419.6406 94.8594,419.5313 Q95.0469,419.4219 95.2656,419.4219 Q95.6406,419.4219 95.875,419.6797 Q96.1094,419.9375 96.1094,420.5469 L96.1094,422 Q96.1094,422.6094 95.875,422.875 Q95.6406,423.1406 95.2656,423.1406 Q94.9219,423.1406 94.7188,422.9375 Q94.5156,422.75 94.4063,422.2344 Q94.3594,421.875 94.1719,421.6875 Q93.8438,421.3125 93.2344,421.0938 Q92.625,420.875 92,420.875 Q91.2344,420.875 90.6016,421.2031 Q89.9688,421.5313 89.4766,422.2813 Q88.9844,423.0313 88.9844,424.0625 L88.9844,425.1563 Q88.9844,426.3906 89.875,427.2109 Q90.7656,428.0313 92.3594,428.0313 Q93.2969,428.0313 93.9531,427.7813 Q94.3438,427.625 94.7656,427.1875 Q95.0313,426.9219 95.1797,426.8438 Q95.3281,426.7656 95.5313,426.7656 Q95.8594,426.7656 96.1172,427.0234 Q96.375,427.2813 96.375,427.625 Q96.375,427.9688 96.0313,428.375 Q95.5313,428.9531 94.7344,429.2813 Q93.6563,429.7344 92.3594,429.7344 Q90.8438,429.7344 89.6406,429.1094 Q88.6563,428.6094 87.9688,427.5391 Q87.2813,426.4688 87.2813,425.1875 L87.2813,424.0313 Q87.2813,422.7031 87.8984,421.5547 Q88.5156,420.4063 89.6094,419.7891 Q90.7031,419.1719 91.9375,419.1719 Q92.6719,419.1719 93.3203,419.3359 Q93.9688,419.5 94.5156,419.8594 Z " fill="#000000"/><text fill="#000000" font-family="sans-serif" font-size="14" lengthAdjust="spacing" textLength="80" x="112.25" y="429.7129">party.sender</text><line style="stroke:#181818;stroke-width:0.5;" x1="8" x2="264" y1="439.9844" y2="439.9844"/><text fill="#000000" font-family="sans-serif" font-size="14" font-weight="bold" lengthAdjust="spacing" text-decoration="underline" textLength="205" x="13" y="458.5176">entityType : string = "sender"</text><text fill="#000000" font-family="sans-serif" font-size="14" font-style="italic" lengthAdjust="spacing" textLength="114" x="13" y="476.127">refKey : string(70)</text><text fill="#000000" font-family="sans-serif" font-size="14" font-weight="bold" lengthAdjust="spacing" textLength="153" x="13" y="493.7363">rsinNumber : string(9)</text><text fill="#000000" font-family="sans-serif" font-size="14" font-style="italic" lengthAdjust="spacing" textLength="188" x="13" y="511.3457">organizationName : string(60)</text><text fill="#000000" font-family="sans-serif" font-size="14" font-weight="bold" lengthAdjust="spacing" textLength="246" x="13" y="528.9551">applicationSenderName : string(60)</text></g><!--class party.contact--><g id="elem_party.contact"><rect codeLine="28" fill="#F1F1F1" height="92.8281" id="party.contact" rx="2.5" ry="2.5" style="stroke:#181818;stroke-width:0.5;" width="219" x="26.5" y="648.4844"/><ellipse cx="90.75" cy="664.4844" fill="#ADD1B2" rx="11" ry="11" style="stroke:#181818;stroke-width:1.0;"/><path d="M93.5156,660.3594 Q93.6719,660.1406 93.8594,660.0313 Q94.0469,659.9219 94.2656,659.9219 Q94.6406,659.9219 94.875,660.1797 Q95.1094,660.4375 95.1094,661.0469 L95.1094,662.5 Q95.1094,663.1094 94.875,663.375 Q94.6406,663.6406 94.2656,663.6406 Q93.9219,663.6406 93.7188,663.4375 Q93.5156,663.25 93.4063,662.7344 Q93.3594,662.375 93.1719,662.1875 Q92.8438,661.8125 92.2344,661.5938 Q91.625,661.375 91,661.375 Q90.2344,661.375 89.6016,661.7031 Q88.9688,662.0313 88.4766,662.7813 Q87.9844,663.5313 87.9844,664.5625 L87.9844,665.6563 Q87.9844,666.8906 88.875,667.7109 Q89.7656,668.5313 91.3594,668.5313 Q92.2969,668.5313 92.9531,668.2813 Q93.3438,668.125 93.7656,667.6875 Q94.0313,667.4219 94.1797,667.3438 Q94.3281,667.2656 94.5313,667.2656 Q94.8594,667.2656 95.1172,667.5234 Q95.375,667.7813 95.375,668.125 Q95.375,668.4688 95.0313,668.875 Q94.5313,669.4531 93.7344,669.7813 Q92.6563,670.2344 91.3594,670.2344 Q89.8438,670.2344 88.6406,669.6094 Q87.6563,669.1094 86.9688,668.0391 Q86.2813,666.9688 86.2813,665.6875 L86.2813,664.5313 Q86.2813,663.2031 86.8984,662.0547 Q87.5156,660.9063 88.6094,660.2891 Q89.7031,659.6719 90.9375,659.6719 Q91.6719,659.6719 92.3203,659.8359 Q92.9688,660 93.5156,660.3594 Z " fill="#000000"/><text fill="#000000" font-family="sans-serif" font-size="14" lengthAdjust="spacing" textLength="82" x="111.25" y="670.2129">party.contact</text><line style="stroke:#181818;stroke-width:0.5;" x1="27.5" x2="244.5" y1="680.4844" y2="680.4844"/><text fill="#000000" font-family="sans-serif" font-size="14" font-weight="bold" lengthAdjust="spacing" text-decoration="underline" textLength="207" x="32.5" y="699.0176">entityType : string = "contact"</text><text fill="#000000" font-family="sans-serif" font-size="14" font-style="italic" lengthAdjust="spacing" textLength="141" x="32.5" y="716.627">emailWork : string(60)</text><text fill="#000000" font-family="sans-serif" font-size="14" font-style="italic" lengthAdjust="spacing" textLength="194" x="32.5" y="734.2363">workPhoneNumber : string(60)</text></g><!--class party.receiver--><g id="elem_party.receiver"><rect codeLine="34" fill="#F1F1F1" height="110.4375" id="party.receiver" rx="2.5" ry="2.5" style="stroke:#181818;stroke-width:0.5;" width="227" x="300.5" y="416.9844"/><ellipse cx="366.25" cy="432.9844" fill="#ADD1B2" rx="11" ry="11" style="stroke:#181818;stroke-width:1.0;"/><path d="M369.0156,428.8594 Q369.1719,428.6406 369.3594,428.5313 Q369.5469,428.4219 369.7656,428.4219 Q370.1406,428.4219 370.375,428.6797 Q370.6094,428.9375 370.6094,429.5469 L370.6094,431 Q370.6094,431.6094 370.375,431.875 Q370.1406,432.1406 369.7656,432.1406 Q369.4219,432.1406 369.2188,431.9375 Q369.0156,431.75 368.9063,431.2344 Q368.8594,430.875 368.6719,430.6875 Q368.3438,430.3125 367.7344,430.0938 Q367.125,429.875 366.5,429.875 Q365.7344,429.875 365.1016,430.2031 Q364.4688,430.5313 363.9766,431.2813 Q363.4844,432.0313 363.4844,433.0625 L363.4844,434.1563 Q363.4844,435.3906 364.375,436.2109 Q365.2656,437.0313 366.8594,437.0313 Q367.7969,437.0313 368.4531,436.7813 Q368.8438,436.625 369.2656,436.1875 Q369.5313,435.9219 369.6797,435.8438 Q369.8281,435.7656 370.0313,435.7656 Q370.3594,435.7656 370.6172,436.0234 Q370.875,436.2813 370.875,436.625 Q370.875,436.9688 370.5313,437.375 Q370.0313,437.9531 369.2344,438.2813 Q368.1563,438.7344 366.8594,438.7344 Q365.3438,438.7344 364.1406,438.1094 Q363.1563,437.6094 362.4688,436.5391 Q361.7813,435.4688 361.7813,434.1875 L361.7813,433.0313 Q361.7813,431.7031 362.3984,430.5547 Q363.0156,429.4063 364.1094,428.7891 Q365.2031,428.1719 366.4375,428.1719 Q367.1719,428.1719 367.8203,428.3359 Q368.4688,428.5 369.0156,428.8594 Z " fill="#000000"/><text fill="#000000" font-family="sans-serif" font-size="14" lengthAdjust="spacing" textLength="87" x="386.75" y="438.7129">party.receiver</text><line style="stroke:#181818;stroke-width:0.5;" x1="301.5" x2="526.5" y1="448.9844" y2="448.9844"/><text fill="#000000" font-family="sans-serif" font-size="14" font-weight="bold" lengthAdjust="spacing" text-decoration="underline" textLength="215" x="306.5" y="467.5176">entityType : string = "receiver"</text><text fill="#000000" font-family="sans-serif" font-size="14" font-style="italic" lengthAdjust="spacing" textLength="114" x="306.5" y="485.127">refKey : string(70)</text><text fill="#000000" font-family="sans-serif" font-size="14" font-weight="bold" lengthAdjust="spacing" textLength="153" x="306.5" y="502.7363">rsinNumber : string(9)</text><text fill="#000000" font-family="sans-serif" font-size="14" font-style="italic" lengthAdjust="spacing" textLength="188" x="306.5" y="520.3457">organizationName : string(60)</text></g><!--class commonFunctional.default--><g id="elem_commonFunctional.default"><rect codeLine="41" fill="#F1F1F1" height="128.0469" id="commonFunctional.default" rx="2.5" ry="2.5" style="stroke:#181818;stroke-width:0.5;" width="221" x="578.5" y="219.9844"/><ellipse cx="603.85" cy="235.9844" fill="#ADD1B2" rx="11" ry="11" style="stroke:#181818;stroke-width:1.0;"/><path d="M606.6156,231.8594 Q606.7719,231.6406 606.9594,231.5313 Q607.1469,231.4219 607.3656,231.4219 Q607.7406,231.4219 607.975,231.6797 Q608.2094,231.9375 608.2094,232.5469 L608.2094,234 Q608.2094,234.6094 607.975,234.875 Q607.7406,235.1406 607.3656,235.1406 Q607.0219,235.1406 606.8188,234.9375 Q606.6156,234.75 606.5063,234.2344 Q606.4594,233.875 606.2719,233.6875 Q605.9438,233.3125 605.3344,233.0938 Q604.725,232.875 604.1,232.875 Q603.3344,232.875 602.7016,233.2031 Q602.0688,233.5313 601.5766,234.2813 Q601.0844,235.0313 601.0844,236.0625 L601.0844,237.1563 Q601.0844,238.3906 601.975,239.2109 Q602.8656,240.0313 604.4594,240.0313 Q605.3969,240.0313 606.0531,239.7813 Q606.4438,239.625 606.8656,239.1875 Q607.1313,238.9219 607.2797,238.8438 Q607.4281,238.7656 607.6313,238.7656 Q607.9594,238.7656 608.2172,239.0234 Q608.475,239.2813 608.475,239.625 Q608.475,239.9688 608.1313,240.375 Q607.6313,240.9531 606.8344,241.2813 Q605.7563,241.7344 604.4594,241.7344 Q602.9438,241.7344 601.7406,241.1094 Q600.7563,240.6094 600.0688,239.5391 Q599.3813,238.4688 599.3813,237.1875 L599.3813,236.0313 Q599.3813,234.7031 599.9984,233.5547 Q600.6156,232.4063 601.7094,231.7891 Q602.8031,231.1719 604.0375,231.1719 Q604.7719,231.1719 605.4203,231.3359 Q606.0688,231.5 606.6156,231.8594 Z " fill="#000000"/><text fill="#000000" font-family="sans-serif" font-size="14" lengthAdjust="spacing" textLength="166" x="620.15" y="241.7129">commonFunctional.default</text><line style="stroke:#181818;stroke-width:0.5;" x1="579.5" x2="798.5" y1="251.9844" y2="251.9844"/><text fill="#000000" font-family="sans-serif" font-size="14" font-weight="bold" lengthAdjust="spacing" text-decoration="underline" textLength="204" x="584.5" y="270.5176">entityType : string = "default"</text><text fill="#000000" font-family="sans-serif" font-size="14" font-style="italic" lengthAdjust="spacing" textLength="97" x="584.5" y="288.127">function : string</text><text fill="#000000" font-family="sans-serif" font-size="14" font-style="italic" lengthAdjust="spacing" textLength="189" x="584.5" y="305.7363">afdDefinitionName : string(80)</text><text fill="#000000" font-family="sans-serif" font-size="14" font-style="italic" lengthAdjust="spacing" textLength="200" x="584.5" y="323.3457">afdDefinitionVersion : string(80)</text><text fill="#000000" font-family="sans-serif" font-size="14" font-weight="bold" lengthAdjust="spacing" textLength="209" x="584.5" y="340.9551">originalMessageId : string(70)</text></g><!--class party.pensionProvider--><g id="elem_party.pensionProvider"><rect codeLine="49" fill="#F1F1F1" height="110.4375" id="party.pensionProvider" rx="2.5" ry="2.5" style="stroke:#181818;stroke-width:0.5;" width="285" x="834.5" y="228.9844"/><ellipse cx="903.25" cy="244.9844" fill="#ADD1B2" rx="11" ry="11" style="stroke:#181818;stroke-width:1.0;"/><path d="M906.0156,240.8594 Q906.1719,240.6406 906.3594,240.5313 Q906.5469,240.4219 906.7656,240.4219 Q907.1406,240.4219 907.375,240.6797 Q907.6094,240.9375 907.6094,241.5469 L907.6094,243 Q907.6094,243.6094 907.375,243.875 Q907.1406,244.1406 906.7656,244.1406 Q906.4219,244.1406 906.2188,243.9375 Q906.0156,243.75 905.9063,243.2344 Q905.8594,242.875 905.6719,242.6875 Q905.3438,242.3125 904.7344,242.0938 Q904.125,241.875 903.5,241.875 Q902.7344,241.875 902.1016,242.2031 Q901.4688,242.5313 900.9766,243.2813 Q900.4844,244.0313 900.4844,245.0625 L900.4844,246.1563 Q900.4844,247.3906 901.375,248.2109 Q902.2656,249.0313 903.8594,249.0313 Q904.7969,249.0313 905.4531,248.7813 Q905.8438,248.625 906.2656,248.1875 Q906.5313,247.9219 906.6797,247.8438 Q906.8281,247.7656 907.0313,247.7656 Q907.3594,247.7656 907.6172,248.0234 Q907.875,248.2813 907.875,248.625 Q907.875,248.9688 907.5313,249.375 Q907.0313,249.9531 906.2344,250.2813 Q905.1563,250.7344 903.8594,250.7344 Q902.3438,250.7344 901.1406,250.1094 Q900.1563,249.6094 899.4688,248.5391 Q898.7813,247.4688 898.7813,246.1875 L898.7813,245.0313 Q898.7813,243.7031 899.3984,242.5547 Q900.0156,241.4063 901.1094,240.7891 Q902.2031,240.1719 903.4375,240.1719 Q904.1719,240.1719 904.8203,240.3359 Q905.4688,240.5 906.0156,240.8594 Z " fill="#000000"/><text fill="#000000" font-family="sans-serif" font-size="14" lengthAdjust="spacing" textLength="139" x="923.75" y="250.7129">party.pensionProvider</text><line style="stroke:#181818;stroke-width:0.5;" x1="835.5" x2="1118.5" y1="260.9844" y2="260.9844"/><text fill="#000000" font-family="sans-serif" font-size="14" font-weight="bold" lengthAdjust="spacing" text-decoration="underline" textLength="273" x="840.5" y="279.5176">entityType : string = "pensionProvider"</text><text fill="#000000" font-family="sans-serif" font-size="14" font-style="italic" lengthAdjust="spacing" textLength="103" x="840.5" y="297.127">puvCode : string</text><text fill="#000000" font-family="sans-serif" font-size="14" font-weight="bold" lengthAdjust="spacing" textLength="153" x="840.5" y="314.7363">rsinNumber : string(9)</text><text fill="#000000" font-family="sans-serif" font-size="14" font-style="italic" lengthAdjust="spacing" textLength="188" x="840.5" y="332.3457">organizationName : string(60)</text></g><!--class pension.scheme--><g id="elem_pension.scheme"><rect codeLine="56" fill="#F1F1F1" height="92.8281" id="pension.scheme" rx="2.5" ry="2.5" style="stroke:#181818;stroke-width:0.5;" width="223" x="850.5" y="425.4844"/><ellipse cx="906.25" cy="441.4844" fill="#ADD1B2" rx="11" ry="11" style="stroke:#181818;stroke-width:1.0;"/><path d="M909.0156,437.3594 Q909.1719,437.1406 909.3594,437.0313 Q909.5469,436.9219 909.7656,436.9219 Q910.1406,436.9219 910.375,437.1797 Q910.6094,437.4375 910.6094,438.0469 L910.6094,439.5 Q910.6094,440.1094 910.375,440.375 Q910.1406,440.6406 909.7656,440.6406 Q909.4219,440.6406 909.2188,440.4375 Q909.0156,440.25 908.9063,439.7344 Q908.8594,439.375 908.6719,439.1875 Q908.3438,438.8125 907.7344,438.5938 Q907.125,438.375 906.5,438.375 Q905.7344,438.375 905.1016,438.7031 Q904.4688,439.0313 903.9766,439.7813 Q903.4844,440.5313 903.4844,441.5625 L903.4844,442.6563 Q903.4844,443.8906 904.375,444.7109 Q905.2656,445.5313 906.8594,445.5313 Q907.7969,445.5313 908.4531,445.2813 Q908.8438,445.125 909.2656,444.6875 Q909.5313,444.4219 909.6797,444.3438 Q909.8281,444.2656 910.0313,444.2656 Q910.3594,444.2656 910.6172,444.5234 Q910.875,444.7813 910.875,445.125 Q910.875,445.4688 910.5313,445.875 Q910.0313,446.4531 909.2344,446.7813 Q908.1563,447.2344 906.8594,447.2344 Q905.3438,447.2344 904.1406,446.6094 Q903.1563,446.1094 902.4688,445.0391 Q901.7813,443.9688 901.7813,442.6875 L901.7813,441.5313 Q901.7813,440.2031 902.3984,439.0547 Q903.0156,437.9063 904.1094,437.2891 Q905.2031,436.6719 906.4375,436.6719 Q907.1719,436.6719 907.8203,436.8359 Q908.4688,437 909.0156,437.3594 Z " fill="#000000"/><text fill="#000000" font-family="sans-serif" font-size="14" lengthAdjust="spacing" textLength="103" x="926.75" y="447.2129">pension.scheme</text><line style="stroke:#181818;stroke-width:0.5;" x1="851.5" x2="1072.5" y1="457.4844" y2="457.4844"/><text fill="#000000" font-family="sans-serif" font-size="14" font-weight="bold" lengthAdjust="spacing" text-decoration="underline" textLength="210" x="856.5" y="476.0176">entityType : string = "scheme"</text><text fill="#000000" font-family="sans-serif" font-size="14" font-style="italic" lengthAdjust="spacing" textLength="114" x="856.5" y="493.627">refKey : string(70)</text><text fill="#000000" font-family="sans-serif" font-size="14" font-style="italic" lengthAdjust="spacing" textLength="211" x="856.5" y="511.2363">pensionSchemeName : string(60)</text></g><!--class financialInformation.reportingPeriod--><g id="elem_financialInformation.reportingPeriod"><rect codeLine="62" fill="#F1F1F1" height="75.2188" id="financialInformation.reportingPeriod" rx="2.5" ry="2.5" style="stroke:#181818;stroke-width:0.5;" width="279" x="481.5" y="657.4844"/><ellipse cx="506.85" cy="673.4844" fill="#ADD1B2" rx="11" ry="11" style="stroke:#181818;stroke-width:1.0;"/><path d="M509.6156,669.3594 Q509.7719,669.1406 509.9594,669.0313 Q510.1469,668.9219 510.3656,668.9219 Q510.7406,668.9219 510.975,669.1797 Q511.2094,669.4375 511.2094,670.0469 L511.2094,671.5 Q511.2094,672.1094 510.975,672.375 Q510.7406,672.6406 510.3656,672.6406 Q510.0219,672.6406 509.8188,672.4375 Q509.6156,672.25 509.5063,671.7344 Q509.4594,671.375 509.2719,671.1875 Q508.9438,670.8125 508.3344,670.5938 Q507.725,670.375 507.1,670.375 Q506.3344,670.375 505.7016,670.7031 Q505.0688,671.0313 504.5766,671.7813 Q504.0844,672.5313 504.0844,673.5625 L504.0844,674.6563 Q504.0844,675.8906 504.975,676.7109 Q505.8656,677.5313 507.4594,677.5313 Q508.3969,677.5313 509.0531,677.2813 Q509.4438,677.125 509.8656,676.6875 Q510.1313,676.4219 510.2797,676.3438 Q510.4281,676.2656 510.6313,676.2656 Q510.9594,676.2656 511.2172,676.5234 Q511.475,676.7813 511.475,677.125 Q511.475,677.4688 511.1313,677.875 Q510.6313,678.4531 509.8344,678.7813 Q508.7563,679.2344 507.4594,679.2344 Q505.9438,679.2344 504.7406,678.6094 Q503.7563,678.1094 503.0688,677.0391 Q502.3813,675.9688 502.3813,674.6875 L502.3813,673.5313 Q502.3813,672.2031 502.9984,671.0547 Q503.6156,669.9063 504.7094,669.2891 Q505.8031,668.6719 507.0375,668.6719 Q507.7719,668.6719 508.4203,668.8359 Q509.0688,669 509.6156,669.3594 Z " fill="#000000"/><text fill="#000000" font-family="sans-serif" font-size="14" lengthAdjust="spacing" textLength="224" x="523.15" y="679.2129">financialInformation.reportingPeriod</text><line style="stroke:#181818;stroke-width:0.5;" x1="482.5" x2="759.5" y1="689.4844" y2="689.4844"/><text fill="#000000" font-family="sans-serif" font-size="14" font-weight="bold" lengthAdjust="spacing" text-decoration="underline" textLength="267" x="487.5" y="708.0176">entityType : string = "reportingPeriod"</text><text fill="#000000" font-family="sans-serif" font-size="14" font-style="italic" lengthAdjust="spacing" textLength="132" x="487.5" y="725.627">projectionDate : date</text></g><!--class financialTransaction.payment--><g id="elem_financialTransaction.payment"><rect codeLine="67" fill="#F1F1F1" height="128.0469" id="financialTransaction.payment" rx="2.5" ry="2.5" style="stroke:#181818;stroke-width:0.5;" width="332" x="796" y="630.9844"/><ellipse cx="865.25" cy="646.9844" fill="#ADD1B2" rx="11" ry="11" style="stroke:#181818;stroke-width:1.0;"/><path d="M868.0156,642.8594 Q868.1719,642.6406 868.3594,642.5313 Q868.5469,642.4219 868.7656,642.4219 Q869.1406,642.4219 869.375,642.6797 Q869.6094,642.9375 869.6094,643.5469 L869.6094,645 Q869.6094,645.6094 869.375,645.875 Q869.1406,646.1406 868.7656,646.1406 Q868.4219,646.1406 868.2188,645.9375 Q868.0156,645.75 867.9063,645.2344 Q867.8594,644.875 867.6719,644.6875 Q867.3438,644.3125 866.7344,644.0938 Q866.125,643.875 865.5,643.875 Q864.7344,643.875 864.1016,644.2031 Q863.4688,644.5313 862.9766,645.2813 Q862.4844,646.0313 862.4844,647.0625 L862.4844,648.1563 Q862.4844,649.3906 863.375,650.2109 Q864.2656,651.0313 865.8594,651.0313 Q866.7969,651.0313 867.4531,650.7813 Q867.8438,650.625 868.2656,650.1875 Q868.5313,649.9219 868.6797,649.8438 Q868.8281,649.7656 869.0313,649.7656 Q869.3594,649.7656 869.6172,650.0234 Q869.875,650.2813 869.875,650.625 Q869.875,650.9688 869.5313,651.375 Q869.0313,651.9531 868.2344,652.2813 Q867.1563,652.7344 865.8594,652.7344 Q864.3438,652.7344 863.1406,652.1094 Q862.1563,651.6094 861.4688,650.5391 Q860.7813,649.4688 860.7813,648.1875 L860.7813,647.0313 Q860.7813,645.7031 861.3984,644.5547 Q862.0156,643.4063 863.1094,642.7891 Q864.2031,642.1719 865.4375,642.1719 Q866.1719,642.1719 866.8203,642.3359 Q867.4688,642.5 868.0156,642.8594 Z " fill="#000000"/><text fill="#000000" font-family="sans-serif" font-size="14" lengthAdjust="spacing" textLength="185" x="885.75" y="652.7129">financialTransaction.payment</text><line style="stroke:#181818;stroke-width:0.5;" x1="797" x2="1127" y1="662.9844" y2="662.9844"/><text fill="#000000" font-family="sans-serif" font-size="14" font-weight="bold" lengthAdjust="spacing" text-decoration="underline" textLength="214" x="802" y="681.5176">entityType : string = "payment"</text><text fill="#000000" font-family="sans-serif" font-size="14" font-style="italic" lengthAdjust="spacing" textLength="114" x="802" y="699.127">refKey : string(70)</text><text fill="#000000" font-family="sans-serif" font-size="14" font-style="italic" lengthAdjust="spacing" textLength="233" x="802" y="716.7363">expectedPensionPaymentDate : date</text><text fill="#000000" font-family="sans-serif" font-size="14" font-style="italic" lengthAdjust="spacing" textLength="107" x="802" y="734.3457">amount : decimal</text><text fill="#000000" font-family="sans-serif" font-size="14" font-style="italic" lengthAdjust="spacing" textLength="320" x="802" y="751.9551">hedgedExpectedPensionPaymentAmount : decimal</text></g><!--class pension.cohort--><g id="elem_pension.cohort"><rect codeLine="75" fill="#F1F1F1" height="198.4844" id="pension.cohort" rx="2.5" ry="2.5" style="stroke:#181818;stroke-width:0.5;" width="228" x="1163" y="595.9844"/><ellipse cx="1225.75" cy="611.9844" fill="#ADD1B2" rx="11" ry="11" style="stroke:#181818;stroke-width:1.0;"/><path d="M1228.5156,607.8594 Q1228.6719,607.6406 1228.8594,607.5313 Q1229.0469,607.4219 1229.2656,607.4219 Q1229.6406,607.4219 1229.875,607.6797 Q1230.1094,607.9375 1230.1094,608.5469 L1230.1094,610 Q1230.1094,610.6094 1229.875,610.875 Q1229.6406,611.1406 1229.2656,611.1406 Q1228.9219,611.1406 1228.7188,610.9375 Q1228.5156,610.75 1228.4063,610.2344 Q1228.3594,609.875 1228.1719,609.6875 Q1227.8438,609.3125 1227.2344,609.0938 Q1226.625,608.875 1226,608.875 Q1225.2344,608.875 1224.6016,609.2031 Q1223.9688,609.5313 1223.4766,610.2813 Q1222.9844,611.0313 1222.9844,612.0625 L1222.9844,613.1563 Q1222.9844,614.3906 1223.875,615.2109 Q1224.7656,616.0313 1226.3594,616.0313 Q1227.2969,616.0313 1227.9531,615.7813 Q1228.3438,615.625 1228.7656,615.1875 Q1229.0313,614.9219 1229.1797,614.8438 Q1229.3281,614.7656 1229.5313,614.7656 Q1229.8594,614.7656 1230.1172,615.0234 Q1230.375,615.2813 1230.375,615.625 Q1230.375,615.9688 1230.0313,616.375 Q1229.5313,616.9531 1228.7344,617.2813 Q1227.6563,617.7344 1226.3594,617.7344 Q1224.8438,617.7344 1223.6406,617.1094 Q1222.6563,616.6094 1221.9688,615.5391 Q1221.2813,614.4688 1221.2813,613.1875 L1221.2813,612.0313 Q1221.2813,610.7031 1221.8984,609.5547 Q1222.5156,608.4063 1223.6094,607.7891 Q1224.7031,607.1719 1225.9375,607.1719 Q1226.6719,607.1719 1227.3203,607.3359 Q1227.9688,607.5 1228.5156,607.8594 Z " fill="#000000"/><text fill="#000000" font-family="sans-serif" font-size="14" lengthAdjust="spacing" textLength="94" x="1246.25" y="617.7129">pension.cohort</text><line style="stroke:#181818;stroke-width:0.5;" x1="1164" x2="1390" y1="627.9844" y2="627.9844"/><text fill="#000000" font-family="sans-serif" font-size="14" font-weight="bold" lengthAdjust="spacing" text-decoration="underline" textLength="201" x="1169" y="646.5176">entityType : string = "cohort"</text><text fill="#000000" font-family="sans-serif" font-size="14" font-style="italic" lengthAdjust="spacing" textLength="114" x="1169" y="664.127">refKey : string(70)</text><text fill="#000000" font-family="sans-serif" font-size="14" font-style="italic" lengthAdjust="spacing" textLength="142" x="1169" y="681.7363">description : string(60)</text><text fill="#000000" font-family="sans-serif" font-size="14" font-weight="bold" lengthAdjust="spacing" textLength="185" x="1169" y="699.3457">participationStatus : string</text><text fill="#000000" font-family="sans-serif" font-size="14" font-weight="bold" lengthAdjust="spacing" textLength="122" x="1169" y="716.9551">startAge : integer</text><text fill="#000000" font-family="sans-serif" font-size="14" font-weight="bold" lengthAdjust="spacing" textLength="117" x="1169" y="734.5645">endAge : integer</text><text fill="#000000" font-family="sans-serif" font-size="14" font-style="italic" lengthAdjust="spacing" textLength="165" x="1169" y="752.1738">reserveIndicator : boolean</text><text fill="#000000" font-family="sans-serif" font-size="14" font-weight="bold" lengthAdjust="spacing" textLength="142" x="1169" y="769.7832">reserveType : string</text><text fill="#000000" font-family="sans-serif" font-size="14" font-weight="bold" lengthAdjust="spacing" textLength="216" x="1169" y="787.3926">reserveDescription : string(60)</text></g><!--class financialTransaction.payment_1--><g id="elem_financialTransaction.payment_1"><rect codeLine="87" fill="#F1F1F1" height="128.0469" id="financialTransaction.payment_1" rx="2.5" ry="2.5" style="stroke:#181818;stroke-width:0.5;" width="367" x="798.5" y="853.9844"/><ellipse cx="877.25" cy="869.9844" fill="#ADD1B2" rx="11" ry="11" style="stroke:#181818;stroke-width:1.0;"/><path d="M880.0156,865.8594 Q880.1719,865.6406 880.3594,865.5313 Q880.5469,865.4219 880.7656,865.4219 Q881.1406,865.4219 881.375,865.6797 Q881.6094,865.9375 881.6094,866.5469 L881.6094,868 Q881.6094,868.6094 881.375,868.875 Q881.1406,869.1406 880.7656,869.1406 Q880.4219,869.1406 880.2188,868.9375 Q880.0156,868.75 879.9063,868.2344 Q879.8594,867.875 879.6719,867.6875 Q879.3438,867.3125 878.7344,867.0938 Q878.125,866.875 877.5,866.875 Q876.7344,866.875 876.1016,867.2031 Q875.4688,867.5313 874.9766,868.2813 Q874.4844,869.0313 874.4844,870.0625 L874.4844,871.1563 Q874.4844,872.3906 875.375,873.2109 Q876.2656,874.0313 877.8594,874.0313 Q878.7969,874.0313 879.4531,873.7813 Q879.8438,873.625 880.2656,873.1875 Q880.5313,872.9219 880.6797,872.8438 Q880.8281,872.7656 881.0313,872.7656 Q881.3594,872.7656 881.6172,873.0234 Q881.875,873.2813 881.875,873.625 Q881.875,873.9688 881.5313,874.375 Q881.0313,874.9531 880.2344,875.2813 Q879.1563,875.7344 877.8594,875.7344 Q876.3438,875.7344 875.1406,875.1094 Q874.1563,874.6094 873.4688,873.5391 Q872.7813,872.4688 872.7813,871.1875 L872.7813,870.0313 Q872.7813,868.7031 873.3984,867.5547 Q874.0156,866.4063 875.1094,865.7891 Q876.2031,865.1719 877.4375,865.1719 Q878.1719,865.1719 878.8203,865.3359 Q879.4688,865.5 880.0156,865.8594 Z " fill="#000000"/><text fill="#000000" font-family="sans-serif" font-size="14" lengthAdjust="spacing" textLength="201" x="897.75" y="875.7129">financialTransaction.payment_1</text><line style="stroke:#181818;stroke-width:0.5;" x1="799.5" x2="1164.5" y1="885.9844" y2="885.9844"/><text fill="#000000" font-family="sans-serif" font-size="14" font-weight="bold" lengthAdjust="spacing" text-decoration="underline" textLength="214" x="804.5" y="904.5176">entityType : string = "payment"</text><text fill="#000000" font-family="sans-serif" font-size="14" font-style="italic" lengthAdjust="spacing" textLength="114" x="804.5" y="922.127">refKey : string(70)</text><text fill="#000000" font-family="sans-serif" font-size="14" font-style="italic" lengthAdjust="spacing" textLength="233" x="804.5" y="939.7363">expectedPensionPaymentDate : date</text><text fill="#000000" font-family="sans-serif" font-size="14" font-style="italic" lengthAdjust="spacing" textLength="107" x="804.5" y="957.3457">amount : decimal</text><text fill="#000000" font-family="sans-serif" font-size="14" font-weight="bold" lengthAdjust="spacing" textLength="355" x="804.5" y="974.9551">hedgedExpectedPensionPaymentAmount : decimal</text></g><!--class document.default--><g id="elem_document.default"><rect codeLine="95" fill="#F1F1F1" height="110.4375" id="document.default" rx="2.5" ry="2.5" style="stroke:#181818;stroke-width:0.5;" width="216" x="1237" y="228.9844"/><ellipse cx="1286.25" cy="244.9844" fill="#ADD1B2" rx="11" ry="11" style="stroke:#181818;stroke-width:1.0;"/><path d="M1289.0156,240.8594 Q1289.1719,240.6406 1289.3594,240.5313 Q1289.5469,240.4219 1289.7656,240.4219 Q1290.1406,240.4219 1290.375,240.6797 Q1290.6094,240.9375 1290.6094,241.5469 L1290.6094,243 Q1290.6094,243.6094 1290.375,243.875 Q1290.1406,244.1406 1289.7656,244.1406 Q1289.4219,244.1406 1289.2188,243.9375 Q1289.0156,243.75 1288.9063,243.2344 Q1288.8594,242.875 1288.6719,242.6875 Q1288.3438,242.3125 1287.7344,242.0938 Q1287.125,241.875 1286.5,241.875 Q1285.7344,241.875 1285.1016,242.2031 Q1284.4688,242.5313 1283.9766,243.2813 Q1283.4844,244.0313 1283.4844,245.0625 L1283.4844,246.1563 Q1283.4844,247.3906 1284.375,248.2109 Q1285.2656,249.0313 1286.8594,249.0313 Q1287.7969,249.0313 1288.4531,248.7813 Q1288.8438,248.625 1289.2656,248.1875 Q1289.5313,247.9219 1289.6797,247.8438 Q1289.8281,247.7656 1290.0313,247.7656 Q1290.3594,247.7656 1290.6172,248.0234 Q1290.875,248.2813 1290.875,248.625 Q1290.875,248.9688 1290.5313,249.375 Q1290.0313,249.9531 1289.2344,250.2813 Q1288.1563,250.7344 1286.8594,250.7344 Q1285.3438,250.7344 1284.1406,250.1094 Q1283.1563,249.6094 1282.4688,248.5391 Q1281.7813,247.4688 1281.7813,246.1875 L1281.7813,245.0313 Q1281.7813,243.7031 1282.3984,242.5547 Q1283.0156,241.4063 1284.1094,240.7891 Q1285.2031,240.1719 1286.4375,240.1719 Q1287.1719,240.1719 1287.8203,240.3359 Q1288.4688,240.5 1289.0156,240.8594 Z " fill="#000000"/><text fill="#000000" font-family="sans-serif" font-size="14" lengthAdjust="spacing" textLength="109" x="1306.75" y="250.7129">document.default</text><line style="stroke:#181818;stroke-width:0.5;" x1="1238" x2="1452" y1="260.9844" y2="260.9844"/><text fill="#000000" font-family="sans-serif" font-size="14" font-weight="bold" lengthAdjust="spacing" text-decoration="underline" textLength="204" x="1243" y="279.5176">entityType : string = "default"</text><text fill="#000000" font-family="sans-serif" font-size="14" font-style="italic" lengthAdjust="spacing" textLength="114" x="1243" y="297.127">refKey : string(70)</text><text fill="#000000" font-family="sans-serif" font-size="14" font-style="italic" lengthAdjust="spacing" textLength="128" x="1243" y="314.7363">fileName : string(60)</text><text fill="#000000" font-family="sans-serif" font-size="14" font-style="italic" lengthAdjust="spacing" textLength="126" x="1243" y="332.3457">fileExtension : string</text></g><!--class ADNDNS--><g id="elem_ADNDNS"><rect codeLine="102" fill="#F1F1F1" height="100.8281" id="ADNDNS" rx="2.5" ry="2.5" style="stroke:#181818;stroke-width:0.5;" width="152" x="1201" y="867.4844"/><ellipse cx="1244.8" cy="883.4844" fill="#EB937F" rx="11" ry="11" style="stroke:#181818;stroke-width:1.0;"/><path d="M1243.6594,884.2813 L1243.6594,886.7813 L1247.9875,886.7813 L1247.9875,885.8594 Q1247.9875,885.25 1248.2297,884.9844 Q1248.4719,884.7188 1248.8469,884.7188 Q1249.2219,884.7188 1249.4563,884.9844 Q1249.6906,885.25 1249.6906,885.8594 L1249.6906,888.4844 L1241.6906,888.4844 Q1241.0656,888.4844 1240.8078,888.25 Q1240.55,888.0156 1240.55,887.625 Q1240.55,887.25 1240.8156,887.0156 Q1241.0813,886.7813 1241.6906,886.7813 L1241.9563,886.7813 L1241.9563,880.125 L1241.6906,880.125 Q1241.0656,880.125 1240.8078,879.8906 Q1240.55,879.6563 1240.55,879.2656 Q1240.55,878.8906 1240.8078,878.6563 Q1241.0656,878.4219 1241.6906,878.4219 L1249.3156,878.4219 L1249.3156,881.0156 Q1249.3156,881.625 1249.0891,881.8828 Q1248.8625,882.1406 1248.4719,882.1406 Q1248.0969,882.1406 1247.8625,881.8828 Q1247.6281,881.625 1247.6281,881.0156 L1247.6281,880.125 L1243.6594,880.125 L1243.6594,882.5781 L1245.1438,882.5781 Q1245.1438,881.9219 1245.2688,881.7344 Q1245.5344,881.3281 1246.0031,881.3281 Q1246.3781,881.3281 1246.6125,881.5859 Q1246.8469,881.8438 1246.8469,882.4531 L1246.8469,884.4219 Q1246.8469,884.9688 1246.7219,885.1563 Q1246.4563,885.5469 1246.0031,885.5469 Q1245.5344,885.5469 1245.2688,885.1406 Q1245.1438,884.9531 1245.1438,884.2813 L1243.6594,884.2813 Z " fill="#000000"/><text fill="#000000" font-family="sans-serif" font-size="14" lengthAdjust="spacing" textLength="56" x="1265.2" y="889.2129">ADNDNS</text><line style="stroke:#181818;stroke-width:0.5;" x1="1202" x2="1352" y1="899.4844" y2="899.4844"/><text fill="#000000" font-family="sans-serif" font-size="14" lengthAdjust="spacing" textLength="113" x="1207" y="918.0176">AO aspirant actief</text><text fill="#000000" font-family="sans-serif" font-size="14" lengthAdjust="spacing" textLength="140" x="1207" y="935.627">AO aspirant niet actief</text><text fill="#000000" font-family="sans-serif" font-size="14" lengthAdjust="spacing" textLength="35" x="1207" y="953.2363">Actief</text><line style="stroke:#181818;stroke-width:1.0;stroke-dasharray:1.0,2.0;" x1="1202" x2="1352" y1="960.3125" y2="960.3125"/></g><!--class ADNFUN--><g id="elem_ADNFUN"><rect codeLine="109" fill="#F1F1F1" height="100.8281" id="ADNFUN" rx="2.5" ry="2.5" style="stroke:#181818;stroke-width:0.5;" width="253" x="562.5" y="421.4844"/><ellipse cx="657.25" cy="437.4844" fill="#EB937F" rx="11" ry="11" style="stroke:#181818;stroke-width:1.0;"/><path d="M656.1094,438.2813 L656.1094,440.7813 L660.4375,440.7813 L660.4375,439.8594 Q660.4375,439.25 660.6797,438.9844 Q660.9219,438.7188 661.2969,438.7188 Q661.6719,438.7188 661.9063,438.9844 Q662.1406,439.25 662.1406,439.8594 L662.1406,442.4844 L654.1406,442.4844 Q653.5156,442.4844 653.2578,442.25 Q653,442.0156 653,441.625 Q653,441.25 653.2656,441.0156 Q653.5313,440.7813 654.1406,440.7813 L654.4063,440.7813 L654.4063,434.125 L654.1406,434.125 Q653.5156,434.125 653.2578,433.8906 Q653,433.6563 653,433.2656 Q653,432.8906 653.2578,432.6563 Q653.5156,432.4219 654.1406,432.4219 L661.7656,432.4219 L661.7656,435.0156 Q661.7656,435.625 661.5391,435.8828 Q661.3125,436.1406 660.9219,436.1406 Q660.5469,436.1406 660.3125,435.8828 Q660.0781,435.625 660.0781,435.0156 L660.0781,434.125 L656.1094,434.125 L656.1094,436.5781 L657.5938,436.5781 Q657.5938,435.9219 657.7188,435.7344 Q657.9844,435.3281 658.4531,435.3281 Q658.8281,435.3281 659.0625,435.5859 Q659.2969,435.8438 659.2969,436.4531 L659.2969,438.4219 Q659.2969,438.9688 659.1719,439.1563 Q658.9063,439.5469 658.4531,439.5469 Q657.9844,439.5469 657.7188,439.1406 Q657.5938,438.9531 657.5938,438.2813 L656.1094,438.2813 Z " fill="#000000"/><text fill="#000000" font-family="sans-serif" font-size="14" lengthAdjust="spacing" textLength="55" x="677.75" y="443.2129">ADNFUN</text><line style="stroke:#181818;stroke-width:0.5;" x1="563.5" x2="814.5" y1="453.4844" y2="453.4844"/><text fill="#000000" font-family="sans-serif" font-size="14" lengthAdjust="spacing" textLength="37" x="568.5" y="472.0176">Nieuw</text><text fill="#000000" font-family="sans-serif" font-size="14" lengthAdjust="spacing" textLength="52" x="568.5" y="489.627">Wijzigen</text><text fill="#000000" font-family="sans-serif" font-size="14" lengthAdjust="spacing" textLength="241" x="568.5" y="507.2363">Aanmelden bestaande polis op pakket</text><line style="stroke:#181818;stroke-width:1.0;stroke-dasharray:1.0,2.0;" x1="563.5" x2="814.5" y1="514.3125" y2="514.3125"/></g><!--class AFDIDP--><g id="elem_AFDIDP"><rect codeLine="116" fill="#F1F1F1" height="100.8281" id="AFDIDP" rx="2.5" ry="2.5" style="stroke:#181818;stroke-width:0.5;" width="243" x="1108.5" y="421.4844"/><ellipse cx="1200.75" cy="437.4844" fill="#EB937F" rx="11" ry="11" style="stroke:#181818;stroke-width:1.0;"/><path d="M1199.6094,438.2813 L1199.6094,440.7813 L1203.9375,440.7813 L1203.9375,439.8594 Q1203.9375,439.25 1204.1797,438.9844 Q1204.4219,438.7188 1204.7969,438.7188 Q1205.1719,438.7188 1205.4063,438.9844 Q1205.6406,439.25 1205.6406,439.8594 L1205.6406,442.4844 L1197.6406,442.4844 Q1197.0156,442.4844 1196.7578,442.25 Q1196.5,442.0156 1196.5,441.625 Q1196.5,441.25 1196.7656,441.0156 Q1197.0313,440.7813 1197.6406,440.7813 L1197.9063,440.7813 L1197.9063,434.125 L1197.6406,434.125 Q1197.0156,434.125 1196.7578,433.8906 Q1196.5,433.6563 1196.5,433.2656 Q1196.5,432.8906 1196.7578,432.6563 Q1197.0156,432.4219 1197.6406,432.4219 L1205.2656,432.4219 L1205.2656,435.0156 Q1205.2656,435.625 1205.0391,435.8828 Q1204.8125,436.1406 1204.4219,436.1406 Q1204.0469,436.1406 1203.8125,435.8828 Q1203.5781,435.625 1203.5781,435.0156 L1203.5781,434.125 L1199.6094,434.125 L1199.6094,436.5781 L1201.0938,436.5781 Q1201.0938,435.9219 1201.2188,435.7344 Q1201.4844,435.3281 1201.9531,435.3281 Q1202.3281,435.3281 1202.5625,435.5859 Q1202.7969,435.8438 1202.7969,436.4531 L1202.7969,438.4219 Q1202.7969,438.9688 1202.6719,439.1563 Q1202.4063,439.5469 1201.9531,439.5469 Q1201.4844,439.5469 1201.2188,439.1406 Q1201.0938,438.9531 1201.0938,438.2813 L1199.6094,438.2813 Z " fill="#000000"/><text fill="#000000" font-family="sans-serif" font-size="14" lengthAdjust="spacing" textLength="50" x="1221.25" y="443.2129">AFDIDP</text><line style="stroke:#181818;stroke-width:0.5;" x1="1109.5" x2="1350.5" y1="453.4844" y2="453.4844"/><text fill="#000000" font-family="sans-serif" font-size="14" lengthAdjust="spacing" textLength="187" x="1114.5" y="472.0176">St. Pf. Openbare Bibliotheken</text><text fill="#000000" font-family="sans-serif" font-size="14" lengthAdjust="spacing" textLength="202" x="1114.5" y="489.627">AEGON Levensverzekering N.V.</text><text fill="#000000" font-family="sans-serif" font-size="14" lengthAdjust="spacing" textLength="231" x="1114.5" y="507.2363">Pensioenfonds voor de Accountancy</text><line style="stroke:#181818;stroke-width:1.0;stroke-dasharray:1.0,2.0;" x1="1109.5" x2="1350.5" y1="514.3125" y2="514.3125"/></g><!--class AFDRES--><g id="elem_AFDRES"><rect codeLine="123" fill="#F1F1F1" height="100.8281" id="AFDRES" rx="2.5" ry="2.5" style="stroke:#181818;stroke-width:0.5;" width="271" x="1388.5" y="867.4844"/><ellipse cx="1491.75" cy="883.4844" fill="#EB937F" rx="11" ry="11" style="stroke:#181818;stroke-width:1.0;"/><path d="M1490.6094,884.2813 L1490.6094,886.7813 L1494.9375,886.7813 L1494.9375,885.8594 Q1494.9375,885.25 1495.1797,884.9844 Q1495.4219,884.7188 1495.7969,884.7188 Q1496.1719,884.7188 1496.4063,884.9844 Q1496.6406,885.25 1496.6406,885.8594 L1496.6406,888.4844 L1488.6406,888.4844 Q1488.0156,888.4844 1487.7578,888.25 Q1487.5,888.0156 1487.5,887.625 Q1487.5,887.25 1487.7656,887.0156 Q1488.0313,886.7813 1488.6406,886.7813 L1488.9063,886.7813 L1488.9063,880.125 L1488.6406,880.125 Q1488.0156,880.125 1487.7578,879.8906 Q1487.5,879.6563 1487.5,879.2656 Q1487.5,878.8906 1487.7578,878.6563 Q1488.0156,878.4219 1488.6406,878.4219 L1496.2656,878.4219 L1496.2656,881.0156 Q1496.2656,881.625 1496.0391,881.8828 Q1495.8125,882.1406 1495.4219,882.1406 Q1495.0469,882.1406 1494.8125,881.8828 Q1494.5781,881.625 1494.5781,881.0156 L1494.5781,880.125 L1490.6094,880.125 L1490.6094,882.5781 L1492.0938,882.5781 Q1492.0938,881.9219 1492.2188,881.7344 Q1492.4844,881.3281 1492.9531,881.3281 Q1493.3281,881.3281 1493.5625,881.5859 Q1493.7969,881.8438 1493.7969,882.4531 L1493.7969,884.4219 Q1493.7969,884.9688 1493.6719,885.1563 Q1493.4063,885.5469 1492.9531,885.5469 Q1492.4844,885.5469 1492.2188,885.1406 Q1492.0938,884.9531 1492.0938,884.2813 L1490.6094,884.2813 Z " fill="#000000"/><text fill="#000000" font-family="sans-serif" font-size="14" lengthAdjust="spacing" textLength="56" x="1512.25" y="889.2129">AFDRES</text><line style="stroke:#181818;stroke-width:0.5;" x1="1389.5" x2="1658.5" y1="899.4844" y2="899.4844"/><text fill="#000000" font-family="sans-serif" font-size="14" lengthAdjust="spacing" textLength="121" x="1394.5" y="918.0176">Solidariteitsreserve</text><text fill="#000000" font-family="sans-serif" font-size="14" lengthAdjust="spacing" textLength="259" x="1394.5" y="935.627">Minimaal vereist eigen vermogen (MVEV)</text><text fill="#000000" font-family="sans-serif" font-size="14" lengthAdjust="spacing" textLength="134" x="1394.5" y="953.2363">Operationele reserve</text><line style="stroke:#181818;stroke-width:1.0;stroke-dasharray:1.0,2.0;" x1="1389.5" x2="1658.5" y1="960.3125" y2="960.3125"/></g><!--class cdl_241--><g id="elem_cdl_241"><rect codeLine="130" fill="#F1F1F1" height="92.8281" id="cdl_241" rx="2.5" ry="2.5" style="stroke:#181818;stroke-width:0.5;" width="82" x="1387" y="425.4844"/><ellipse cx="1402" cy="441.4844" fill="#EB937F" rx="11" ry="11" style="stroke:#181818;stroke-width:1.0;"/><path d="M1400.8594,442.2813 L1400.8594,444.7813 L1405.1875,444.7813 L1405.1875,443.8594 Q1405.1875,443.25 1405.4297,442.9844 Q1405.6719,442.7188 1406.0469,442.7188 Q1406.4219,442.7188 1406.6563,442.9844 Q1406.8906,443.25 1406.8906,443.8594 L1406.8906,446.4844 L1398.8906,446.4844 Q1398.2656,446.4844 1398.0078,446.25 Q1397.75,446.0156 1397.75,445.625 Q1397.75,445.25 1398.0156,445.0156 Q1398.2813,444.7813 1398.8906,444.7813 L1399.1563,444.7813 L1399.1563,438.125 L1398.8906,438.125 Q1398.2656,438.125 1398.0078,437.8906 Q1397.75,437.6563 1397.75,437.2656 Q1397.75,436.8906 1398.0078,436.6563 Q1398.2656,436.4219 1398.8906,436.4219 L1406.5156,436.4219 L1406.5156,439.0156 Q1406.5156,439.625 1406.2891,439.8828 Q1406.0625,440.1406 1405.6719,440.1406 Q1405.2969,440.1406 1405.0625,439.8828 Q1404.8281,439.625 1404.8281,439.0156 L1404.8281,438.125 L1400.8594,438.125 L1400.8594,440.5781 L1402.3438,440.5781 Q1402.3438,439.9219 1402.4688,439.7344 Q1402.7344,439.3281 1403.2031,439.3281 Q1403.5781,439.3281 1403.8125,439.5859 Q1404.0469,439.8438 1404.0469,440.4531 L1404.0469,442.4219 Q1404.0469,442.9688 1403.9219,443.1563 Q1403.6563,443.5469 1403.2031,443.5469 Q1402.7344,443.5469 1402.4688,443.1406 Q1402.3438,442.9531 1402.3438,442.2813 L1400.8594,442.2813 Z " fill="#000000"/><text fill="#000000" font-family="sans-serif" font-size="14" lengthAdjust="spacing" textLength="50" x="1416" y="447.2129">cdl_241</text><line style="stroke:#181818;stroke-width:0.5;" x1="1388" x2="1468" y1="457.4844" y2="457.4844"/><text fill="#000000" font-family="sans-serif" font-size="14" lengthAdjust="spacing" textLength="20" x="1393" y="476.0176">pdf</text><text fill="#000000" font-family="sans-serif" font-size="14" lengthAdjust="spacing" textLength="21" x="1393" y="493.627">csv</text><text fill="#000000" font-family="sans-serif" font-size="14" lengthAdjust="spacing" textLength="14" x="1393" y="511.2363">txt</text></g><!--reverse link berichtstructuur to commonFunctional.default--><g id="link_berichtstructuur_commonFunctional.default"><path codeLine="136" d="M805.0349,168.5594 C789.3749,183.9994 774.96,198.2144 753.01,219.8644 " fill="none" id="berichtstructuur-backto-commonFunctional.default" style="stroke:#181818;stroke-width:1.0;"/><polygon fill="none" points="813.58,160.1344,806.4991,161.4985,805.0349,168.5594,812.1158,167.1953,813.58,160.1344" style="stroke:#181818;stroke-width:1.0;"/><text fill="#000000" font-family="sans-serif" font-size="13" lengthAdjust="spacing" textLength="22" x="737.1393" y="209.0382">1..1</text></g><!--reverse link berichtstructuur to commonTechnical.default--><g id="link_berichtstructuur_commonTechnical.default"><path codeLine="137" d="M755.8372,160.6764 C700.2872,175.3364 630.44,195.1244 561,219.9844 C548.32,224.5244 535.17,229.6044 522.18,234.8544 " fill="none" id="berichtstructuur-backto-commonTechnical.default" style="stroke:#181818;stroke-width:1.0;"/><polygon fill="none" points="767.44,157.6144,760.6179,155.2778,755.8372,160.6764,762.6593,163.013,767.44,157.6144" style="stroke:#181818;stroke-width:1.0;"/><text fill="#000000" font-family="sans-serif" font-size="13" lengthAdjust="spacing" textLength="22" x="529.815" y="228.6868">1..1</text></g><!--reverse link berichtstructuur to document.default--><g id="link_berichtstructuur_document.default"><path codeLine="138" d="M910.3698,160.1823 C972.0798,175.6523 1055.24,196.9844 1137,219.9844 C1169.51,229.1244 1204.71,239.5744 1236.75,249.3044 " fill="none" id="berichtstructuur-backto-document.default" style="stroke:#181818;stroke-width:1.0;"/><polygon fill="none" points="898.73,157.2644,903.5773,162.6033,910.3698,160.1823,905.5226,154.8434,898.73,157.2644" style="stroke:#181818;stroke-width:1.0;"/><text fill="#000000" font-family="sans-serif" font-size="13" lengthAdjust="spacing" textLength="29" x="1199.8863" y="244.0626">0..99</text></g><!--reverse link berichtstructuur to party.pensionProvider--><g id="link_berichtstructuur_party.pensionProvider"><path codeLine="139" d="M860.965,168.5595 C878.775,186.1195 897.48,204.5644 921.96,228.7044 " fill="none" id="berichtstructuur-backto-party.pensionProvider" style="stroke:#181818;stroke-width:1.0;"/><polygon fill="none" points="852.42,160.1344,853.8842,167.1953,860.965,168.5595,859.5009,161.4986,852.42,160.1344" style="stroke:#181818;stroke-width:1.0;"/><text fill="#000000" font-family="sans-serif" font-size="13" lengthAdjust="spacing" textLength="22" x="891.4986" y="218.0862">1..1</text></g><!--reverse link commonTechnical.default to party.receiver--><g id="link_commonTechnical.default_party.receiver"><path codeLine="140" d="M414,351.0344 C414,375.4844 414,392.3344 414,416.8044 " fill="none" id="commonTechnical.default-backto-party.receiver" style="stroke:#181818;stroke-width:1.0;"/><polygon fill="none" points="414,339.0344,410,345.0344,414,351.0344,418,345.0344,414,339.0344" style="stroke:#181818;stroke-width:1.0;"/><text fill="#000000" font-family="sans-serif" font-size="13" lengthAdjust="spacing" textLength="22" x="390.5906" y="406.199">1..1</text></g><!--reverse link commonTechnical.default to party.sender--><g id="link_commonTechnical.default_party.sender"><path codeLine="141" d="M323.2459,345.7065 C291.0159,367.2665 263.68,385.5644 230.23,407.9344 " fill="none" id="commonTechnical.default-backto-party.sender" style="stroke:#181818;stroke-width:1.0;"/><polygon fill="none" points="333.22,339.0344,326.0089,339.0457,323.2459,345.7065,330.457,345.6951,333.22,339.0344" style="stroke:#181818;stroke-width:1.0;"/><text fill="#000000" font-family="sans-serif" font-size="13" lengthAdjust="spacing" textLength="22" x="217.8535" y="397.1163">1..1</text></g><!--reverse link party.pensionProvider to pension.scheme--><g id="link_party.pensionProvider_pension.scheme"><path codeLine="142" d="M971.6778,350.9957 C969.4778,378.3457 967.79,399.2244 965.68,425.2944 " fill="none" id="party.pensionProvider-backto-pension.scheme" style="stroke:#181818;stroke-width:1.0;"/><polygon fill="none" points="972.64,339.0344,968.1718,344.6943,971.6778,350.9957,976.146,345.3358,972.64,339.0344" style="stroke:#181818;stroke-width:1.0;"/><text fill="#000000" font-family="sans-serif" font-size="13" lengthAdjust="spacing" textLength="36" x="927.5768" y="414.7953">1..999</text></g><!--reverse link party.sender to party.contact--><g id="link_party.sender_party.contact"><path codeLine="143" d="M136,548.0144 C136,583.8644 136,615.9444 136,648.4244 " fill="none" id="party.sender-backto-party.contact" style="stroke:#181818;stroke-width:1.0;"/><polygon fill="none" points="136,536.0144,132,542.0144,136,548.0144,140,542.0144,136,536.0144" style="stroke:#181818;stroke-width:1.0;"/><text fill="#000000" font-family="sans-serif" font-size="13" lengthAdjust="spacing" textLength="22" x="112.3156" y="637.6051">0..9</text></g><!--reverse link pension.cohort to financialTransaction.payment_1--><g id="link_pension.cohort_financialTransaction.payment_1"><path codeLine="144" d="M1153.3453,788.6182 C1121.2353,812.6682 1096.51,831.2044 1066.47,853.7044 " fill="none" id="pension.cohort-backto-financialTransaction.payment_1" style="stroke:#181818;stroke-width:1.0;"/><polygon fill="none" points="1162.95,781.4244,1155.7497,781.8197,1153.3453,788.6182,1160.5456,788.2228,1162.95,781.4244" style="stroke:#181818;stroke-width:1.0;"/><text fill="#000000" font-family="sans-serif" font-size="13" lengthAdjust="spacing" textLength="43" x="1030.3573" y="843.3105">0..9999</text></g><!--reverse link pension.scheme to financialInformation.reportingPeriod--><g id="link_pension.scheme_financialInformation.reportingPeriod"><path codeLine="145" d="M881.6901,525.031 C818.2301,566.161 736.09,619.3944 677.34,657.4644 " fill="none" id="pension.scheme-backto-financialInformation.reportingPeriod" style="stroke:#181818;stroke-width:1.0;"/><polygon fill="none" points="891.76,518.5044,884.5495,518.411,881.6901,525.031,888.9006,525.1243,891.76,518.5044" style="stroke:#181818;stroke-width:1.0;"/><text fill="#000000" font-family="sans-serif" font-size="13" lengthAdjust="spacing" textLength="22" x="663.6996" y="646.579">1..1</text></g><!--reverse link pension.scheme to financialTransaction.payment--><g id="link_pension.scheme_financialTransaction.payment"><path codeLine="146" d="M962,530.5044 C962,562.9844 962,595.0644 962,630.9244 " fill="none" id="pension.scheme-backto-financialTransaction.payment" style="stroke:#181818;stroke-width:1.0;"/><polygon fill="none" points="962,518.5044,958,524.5044,962,530.5044,966,524.5044,962,518.5044" style="stroke:#181818;stroke-width:1.0;"/><text fill="#000000" font-family="sans-serif" font-size="13" lengthAdjust="spacing" textLength="50" x="909.1094" y="620.1052">1..99999</text></g><!--reverse link pension.scheme to pension.cohort--><g id="link_pension.scheme_pension.cohort"><path codeLine="147" d="M1041.6053,525.3047 C1075.9853,548.1447 1107.95,569.8044 1145,595.9844 C1150.83,600.1044 1156.78,604.3544 1162.76,608.6644 " fill="none" id="pension.scheme-backto-pension.cohort" style="stroke:#181818;stroke-width:1.0;"/><polygon fill="none" points="1031.61,518.6644,1034.3942,525.3163,1041.6053,525.3047,1038.8211,518.6527,1031.61,518.6644" style="stroke:#181818;stroke-width:1.0;"/><text fill="#000000" font-family="sans-serif" font-size="13" lengthAdjust="spacing" textLength="50" x="1105.1453" y="600.9977">0..99999</text></g><!--reverse link commonFunctional.default to ADNFUN--><g id="link_commonFunctional.default_ADNFUN"><path codeLine="148" d="M689,360.2144 C689,384.1244 689,398.9644 689,421.4344 " fill="none" id="commonFunctional.default-backto-ADNFUN" style="stroke:#181818;stroke-width:1.0;"/><polygon fill="none" points="689,348.2144,685,354.2144,689,360.2144,693,354.2144,689,348.2144" style="stroke:#181818;stroke-width:1.0;"/><text fill="#000000" font-family="sans-serif" font-size="13" lengthAdjust="spacing" textLength="45" x="640.8359" y="410.7327">function</text></g><!--reverse link document.default to cdl_241--><g id="link_document.default_cdl_241"><path codeLine="149" d="M1374.0085,349.9935 C1386.2085,377.3435 1395.98,399.2244 1407.61,425.2944 " fill="none" id="document.default-backto-cdl_241" style="stroke:#181818;stroke-width:1.0;"/><polygon fill="none" points="1369.12,339.0344,1367.9112,346.1434,1374.0085,349.9935,1375.2173,342.8844,1369.12,339.0344" style="stroke:#181818;stroke-width:1.0;"/><text fill="#000000" font-family="sans-serif" font-size="13" lengthAdjust="spacing" textLength="74" x="1410.0496" y="414.7953">fileExtension</text></g><!--reverse link party.pensionProvider to AFDIDP--><g id="link_party.pensionProvider_AFDIDP"><path codeLine="150" d="M1060.1873,346.1438 C1095.4873,372.1038 1127.85,395.8844 1162.36,421.2544 " fill="none" id="party.pensionProvider-backto-AFDIDP" style="stroke:#181818;stroke-width:1.0;"/><polygon fill="none" points="1050.52,339.0344,1052.9838,345.8115,1060.1873,346.1438,1057.7234,339.3667,1050.52,339.0344" style="stroke:#181818;stroke-width:1.0;"/><text fill="#000000" font-family="sans-serif" font-size="13" lengthAdjust="spacing" textLength="49" x="1100.4028" y="410.5274">puvCode</text></g><!--reverse link pension.cohort to ADNDNS--><g id="link_pension.cohort_ADNDNS"><path codeLine="151" d="M1277,806.2044 C1277,831.5644 1277,845.8044 1277,867.4744 " fill="none" id="pension.cohort-backto-ADNDNS" style="stroke:#181818;stroke-width:1.0;"/><polygon fill="none" points="1277,794.2044,1273,800.2044,1277,806.2044,1281,800.2044,1277,794.2044" style="stroke:#181818;stroke-width:1.0;"/><text fill="#000000" font-family="sans-serif" font-size="13" lengthAdjust="spacing" textLength="108" x="1167.0658" y="856.7452">participationStatus</text></g><!--reverse link pension.cohort to AFDRES--><g id="link_pension.cohort_AFDRES"><path codeLine="152" d="M1395.7224,802.2065 C1424.0624,827.5665 1444.44,845.8044 1468.67,867.4744 " fill="none" id="pension.cohort-backto-AFDRES" style="stroke:#181818;stroke-width:1.0;"/><polygon fill="none" points="1386.78,794.2044,1388.5838,801.1862,1395.7224,802.2065,1393.9186,795.2246,1386.78,794.2044" style="stroke:#181818;stroke-width:1.0;"/><text fill="#000000" font-family="sans-serif" font-size="13" lengthAdjust="spacing" textLength="69" x="1387.0377" y="856.7783">reserveType</text></g><!--SRC=[rLTRRzis57xNho3qb0YeQcV3kWIf0NTs2cEDOonP-bZGv97DXY85adBZ1FdlEzJ5iItPSO8EsFmYMVpEdUSs5nn82cwkkGqiE68XeuOwROZI2e90mWmK9qvdH4BYWdCh7k3ifDCxd_Q-33yFnuCpSlv-sYFdJ4jjpWnmVzJfTBhCVpz_Ntp7foVi1TsOuF4dBNb1zP5SKiMzl2L914ZKuWGHeZToL0ha83pcAdD2Aofho2ynYMDI_ZuIePXECmaEY1JMaQFLtmMLELYY5Q49_qDpyEVsEF0MbOO50PFKMZ858zZSMMTovlBSaCUd-WYvfLhT09ihmQYCEIGqbuuy1bxyetNK2VP4eWYK4svviyo0d17a9DGCjGihV1X59K5XmvEtCGLhwGn6V8K_-j0vzZPl8va1wbqme0vkHEe5E7oWx3HhuAF8uSbboHoHKwqbK8NoLpPXZDqojkW0C0SRKi9Rx32G_0dB_KP4aR52ZVCKFVsCF3rkSjDcHfLuAEmTq_HPXwFVMldIBCERKi2l2mqRH4tBcLQEiiDZME5RR8UK2lbLcxlzQYBo1u8cSqogRIVK-2qT3J0GYrV4foRu3qHeAtakSiNA3Fw9sPDKJ5VmDgTZtWyW4KeqTVszFKmR5BU0FbaJqKeKHTg8cK3hBbiJkddzCb2UxSJeXNXD1cxHjJWbonU-pktsoRyIvKglsB8v8F3WWbB0ttXTlR6bsEk2pGigOaIfOeBAaKgqIGkhCCKoRHpY9rZ-DNz5fctGjSN1wE_0wfADnDZZO8T6DuOgImjmdD5bYa8Fln4b_kq-XFiCzGG-gQvMoMzRwUqSINMEIY80c4YfRCFCWS-03rlPzzle6xU9wJbw-HKrsiFVxWaEbXcHRPIK7It7Px5W8YkR3YgMsnN9blmeGiMDwnUTM2Y7KuTfGB1jxGCKDbWm2nWfxbkTDizjlIt3I_26XneoAz1WXzNhHMlVJVtM_R_VrIXwpLLTzmlNBFUOdzZK3lH48YIyF1jLmE6zAqtQx0fe1gWy9Vt1U32-hdJlNn5gCu5nTiG76fB6PoLWy-pvDOxNkLxyFQwuZWNaFugth-BxWy31kwIaAaL5GU7uZJx3HG18fd569xXjPFJk3bo3xSLWD9XKRAzTJ2P9ZEi1g2arG3w9gHJQpU6kbZ3yV3KcNs213i39w04FYXYCuzku09J11km9Ybkoq9XPg4IVCHzrlFJB5WN-6jRUkaPbEJN2WN2sIgZYu1BdXvJYme92mUyau8ts_rBjNuukRuUtnmKKbJT57G49P9t7cb36vRUJN-jCotZfRMONnTFTEuzih33wtJiITkEu6-uSmmuWQYm-EsWwSNnw6ZPoOg-4rcaesBLmDGZhWVTmYdA52Tgdi1fzwktO76c2ZOLfPM-ukKu4MvthsI-Uu_ug6cpDK6kg7pAwx28_VLbsAsbdHRffKx1pe2_8wfayhF8_Q9J84hPUbSBwUkyBIpNNXbK1QFLqIrSEg-hMYbzhas6Lr_y0]--></g></svg>